<svg width="127" height="123" viewBox="0 0 127 123" fill="none" xmlns="http://www.w3.org/2000/svg">
<g clip-path="url(#clip0_1_1821)">
<path d="M31.9392 22.0074C36.7042 21.3575 41.2746 22.6421 45.6863 24.3399C50.3768 26.1463 54.9224 28.1797 59.7609 29.5901C69.6929 32.4812 79.9838 33.8017 90.0628 36.0546C95.0599 37.1717 100.007 38.5353 104.785 40.3872C105.828 40.7906 106.854 41.1933 107.543 42.1274C108.287 43.1383 108.463 44.4127 108.475 45.6309C108.499 48.1296 108.292 50.6305 107.922 53.1015C106.409 63.2309 102.278 72.671 98.2524 82.0051C96.1156 86.9587 93.9631 91.9042 91.7998 96.8447C89.7554 101.513 87.788 106.283 85.0619 110.609C84.0467 112.219 82.8153 113.876 81.1417 114.849C79.2056 115.973 77.2127 115.824 75.1079 115.288C69.9517 113.975 64.81 112.599 59.6628 111.252C49.2765 108.535 39.0035 105.588 28.9302 101.86C23.9156 100.003 18.9509 98.0188 14.0053 95.9861C11.5316 94.9695 9.06326 93.9403 6.59776 92.908C5.61286 92.4962 4.33137 92.1768 3.52567 91.4393C2.6139 90.6053 2.32744 89.2055 2.6999 88.0542C3.07236 86.9028 3.87527 85.9128 4.5556 84.9998C5.27615 84.0337 6.05872 83.1121 6.85456 82.2082C8.4668 80.3757 10.1172 78.5874 11.6057 76.6499C14.4779 72.9046 16.9136 68.8345 18.9617 64.5846C23.0914 56.0197 25.6313 46.7571 27.4376 37.4498C27.8924 35.1113 28.2938 32.7626 28.6631 30.4072C28.9957 28.2859 30.955 30.1559 30.7345 31.5678C27.9366 49.4314 23.0864 67.8163 11.0873 81.8513C9.55585 83.6435 7.8918 85.3261 6.45822 87.2005C6.14074 87.6171 5.83294 88.0422 5.54043 88.4775C5.3867 88.7081 4.95819 89.7405 4.71572 89.8175L4.22437 88.7944C4.3802 88.8841 4.5409 88.9632 4.70696 89.0296C4.93838 89.1356 5.17753 89.2277 5.41145 89.3243C6.11595 89.619 6.82045 89.9137 7.52495 90.2084C12.223 92.1728 16.9288 94.1232 21.6659 95.9941C31.2071 99.7619 40.8826 103.066 50.7782 105.779C55.7161 107.132 60.6749 108.407 65.6268 109.7C68.0848 110.343 70.5428 110.985 73.0008 111.628C75.0388 112.16 77.2717 113.016 79.3349 112.156C81.0294 111.449 82.2512 109.858 83.2158 108.361C84.4991 106.369 85.5932 104.247 86.6204 102.114C88.8215 97.5397 90.7747 92.8386 92.8016 88.1833C96.7763 79.0553 101.119 69.9419 103.93 60.3682C105.286 55.755 106.221 51.019 106.378 46.2044C106.395 45.6951 106.423 45.1791 106.398 44.6687C106.373 44.1583 106.423 44.2636 106.105 44.0447C105.071 43.3338 103.586 42.9979 102.41 42.5889C100.098 41.7816 97.7495 41.0822 95.3806 40.4575C85.8557 37.9493 76.0695 36.6622 66.4817 34.4409C61.7377 33.3416 57.0522 31.9942 52.5178 30.2096C48.2365 28.5248 44.0542 26.4628 39.5261 25.5053C37.3035 25.0357 35.044 24.868 32.7873 25.1747C31.4243 25.361 30.6541 22.1787 31.9378 22.005L31.9392 22.0074Z" fill="#4C3768"/>
<path d="M29.8217 34.8109C49.7642 38.9574 69.1682 45.2779 88.5916 51.3318C94.0057 53.0183 99.4193 54.7067 104.833 56.3933C105.571 56.623 105.95 57.4381 106.02 58.1642C106.063 58.6074 105.891 59.8164 105.147 59.5852C85.8049 53.557 66.5301 47.1572 46.9358 41.9869C41.3697 40.5174 35.7719 39.1734 30.1356 38.0029C28.8858 37.744 28.417 34.5185 29.8217 34.8109Z" fill="#4C3768"/>
<path d="M63.8453 29.7205C65.1546 25.3267 62.4981 15.2215 58.0847 20.3386C56.1539 21.7639 55.2896 24.6017 54.6205 27.0839C54.1135 28.961 53.3338 31.6026 54.0665 33.2985C54.3998 34.0687 54.6168 35.3697 54.113 36.2804C53.6377 37.1365 52.939 36.798 52.6439 36.1164C51.2791 32.9677 51.6558 29.2049 52.5935 25.5113C53.5068 21.9165 54.8311 17.7646 57.7569 16.0276C60.6826 14.2907 63.3205 16.6565 64.8221 19.1528C66.4761 21.9008 66.792 28.2782 65.6678 32.0488C65.3917 32.9746 64.7546 33.2118 64.2585 32.6466C63.7306 32.0431 63.5568 30.678 63.8409 29.722L63.8453 29.7205Z" fill="#4C3768"/>
<path d="M52.9531 32.5608C54.6175 32.2493 55.5868 34.3677 55.4751 35.7468C55.3626 37.1217 54.0429 38.4889 52.5864 38.3005C50.9598 38.0905 50.2587 35.896 50.2502 34.5107C50.2416 33.1253 51.1744 31.3746 52.7883 31.893C53.5261 32.1307 53.905 32.9318 53.9747 33.6639C54.0174 34.1011 53.8437 35.3237 53.1022 35.085C52.9145 35.0247 52.8383 34.9883 52.6429 35.0539C52.544 35.0873 52.4205 35.2721 52.3476 35.2905C52.1694 35.3367 52.4189 35.3376 52.3113 35.2248C52.2864 35.1982 52.1847 35.063 52.1698 35.089C52.1375 35.1423 52.6687 35.0248 52.6014 35.0447C52.7774 34.992 52.9253 34.9097 53.0737 34.8036C53.1851 34.7235 53.3108 34.5153 53.4176 34.46C53.1308 34.613 54.3082 35.634 53.8056 35.7272C53.0713 35.8642 52.5887 34.9874 52.4291 34.397C52.2961 33.9017 52.2241 32.6932 52.956 32.5575L52.9531 32.5608Z" fill="#4C3768"/>
<path d="M29.818 31.379C28.584 31.0484 28.1491 27.8252 29.5042 28.1883C30.7382 28.5189 31.1732 31.7421 29.818 31.379Z" fill="#4C3768"/>
<path d="M87.1306 41.5828C88.0165 42.9833 89.0463 45.4877 87.4748 46.8175C86.2216 47.8767 84.4645 46.8263 83.6937 45.7124C82.7107 44.2938 82.4143 41.9839 83.8013 40.7087C85.1512 39.4675 87.033 40.5373 87.5957 42.0252C87.8239 42.6279 88.069 43.6749 87.4531 44.1535C86.87 44.6068 86.1813 43.8726 85.9867 43.3608C86.0274 43.4697 86.0467 43.4129 85.8781 43.3857C85.6558 43.3501 85.4608 43.3838 85.2709 43.5108C85.2562 43.5209 84.8837 43.9267 84.9379 43.9332C84.973 43.9366 84.8612 43.6229 84.8721 43.6118C84.8669 43.6164 84.8586 43.6921 84.9713 43.7563C85.3488 43.9734 85.5897 44.0739 86.0326 43.9727C86.0156 43.9762 86.2078 43.8857 86.1786 43.8679C86.1234 43.8351 86.2679 44.1537 86.2099 44.2061C86.2626 44.1583 85.987 43.7326 85.9181 43.6242C85.5281 43.0061 85.262 42.0374 85.6784 41.3635C86.0948 40.6896 86.8068 41.0683 87.1325 41.5833L87.1306 41.5828Z" fill="#4C3768"/>
<path d="M85.8273 44.8138C84.5934 44.4831 84.1584 41.2599 85.5136 41.623C86.7475 41.9537 87.1825 45.1769 85.8273 44.8138Z" fill="#4C3768"/>
<path d="M84.3301 41.0996C84.9474 36.6181 85.9337 31.7957 87.7019 27.5985C89.3339 23.7231 91.8403 21.7686 94.6656 21.9504C97.4909 22.1322 100.178 23.5389 101.782 26.3929C103.389 29.2541 103.251 35.5984 101.98 39.6638C101.66 40.6863 101.035 40.9888 100.543 40.3659C100.05 39.743 99.8774 38.194 100.206 37.1405C102.169 30.8573 99.4237 25.8431 93.6859 26.621C91.4993 26.8301 89.8819 28.9506 88.8326 31.8075C87.5733 35.2316 86.8164 38.974 86.324 42.5494C86.1961 43.4819 85.6774 44.4331 85.0196 44.046C84.3619 43.659 84.1904 42.1132 84.3294 41.1024L84.3301 41.0996Z" fill="#4C3768"/>
<path d="M76.9997 61.4008C76.323 63.2921 75.6012 65.1653 74.8288 67.0189C74.4979 67.8136 74.1647 68.6097 73.8105 69.3943C73.4973 70.0858 73.1541 70.7553 72.3088 70.7846C71.4044 70.8181 70.3153 70.3624 69.4365 70.1589C68.5577 69.9554 67.747 69.7662 66.9022 69.5698C65.1469 69.1614 63.4921 68.8479 63.1718 66.7615C62.9151 65.0938 63.8322 63.3269 64.488 61.8418C65.1964 60.2348 66.0303 58.5995 67.0889 57.1923C68.203 55.7121 69.3982 56.1522 70.884 56.7382C72.7551 57.4754 74.628 58.2131 76.4991 58.9503C77.6379 59.3993 77.8594 62.5706 76.2721 61.9454C74.9272 61.4151 73.5823 60.8849 72.2356 60.3542C71.5922 60.0998 70.9503 59.8399 70.305 59.593C69.7918 59.3975 69.3268 59.1411 68.8757 59.5718C67.9799 60.431 67.3471 61.9123 66.7943 63.0133C66.5196 63.5613 66.2582 64.1189 66.0225 64.6853C65.758 65.3219 65.6153 66.1231 65.2817 66.7192L65.2136 66.9508C64.6302 66.1669 64.5587 65.852 65.0033 66.0051C65.3017 65.9731 65.7478 66.1806 66.0468 66.2507C66.711 66.4047 67.3753 66.5587 68.0395 66.7127C68.7038 66.8667 69.368 67.0207 70.0323 67.1747C70.3672 67.2525 71.5376 67.718 71.8534 67.4868C72.0122 67.3714 72.201 66.7265 72.2715 66.5675C72.4221 66.2221 72.5726 65.8767 72.7193 65.5303C72.9724 64.9366 73.2179 64.3408 73.4579 63.7436C74.0199 62.3472 74.5518 60.9368 75.0575 59.5194C75.712 57.6881 77.4295 60.2069 77.0039 61.4L76.9997 61.4008Z" fill="#4C3768"/>
<path d="M49.5072 52.865C48.8306 54.7563 48.1088 56.6295 47.3363 58.4831C47.0055 59.2778 46.6722 60.0739 46.3181 60.8584C46.0049 61.55 45.6616 62.2195 44.8163 62.2488C43.912 62.2823 42.8229 61.8266 41.9441 61.6231C41.0652 61.4196 40.2545 61.2303 39.4098 61.034C37.6545 60.6256 35.9997 60.3121 35.6793 58.2256C35.4227 56.558 36.3398 54.7911 36.9956 53.3059C37.704 51.699 38.5379 50.0637 39.5965 48.6565C40.7106 47.1762 41.9058 47.6164 43.3916 48.2024C45.2627 48.9396 47.1356 49.6773 49.0066 50.4145C50.1455 50.8635 50.367 54.0347 48.7797 53.4096C47.4348 52.8793 46.0899 52.3491 44.7431 51.8183C44.0998 51.564 43.4579 51.3041 42.8125 51.0572C42.2993 50.8617 41.8344 50.6052 41.3832 51.036C40.4874 51.8952 39.8547 53.3765 39.3019 54.4775C39.0271 55.0255 38.7658 55.583 38.5301 56.1494C38.2656 56.7861 38.1228 57.5873 37.7892 58.1834L37.7212 58.415C37.1378 57.6311 37.0663 57.3161 37.5109 57.4693C37.8093 57.4373 38.2553 57.6447 38.5543 57.7149C39.2186 57.8689 39.8828 58.0229 40.5471 58.1769C41.2113 58.3309 41.8756 58.4849 42.5398 58.6389C42.8748 58.7166 44.0451 59.1821 44.3609 58.951C44.5197 58.8356 44.7085 58.1907 44.7791 58.0317C44.9296 57.6863 45.0801 57.3409 45.2269 56.9945C45.4799 56.4007 45.7255 55.805 45.9655 55.2078C46.5275 53.8114 47.0593 52.401 47.565 50.9835C48.2196 49.1523 49.9371 51.6711 49.5115 52.8641L49.5072 52.865Z" fill="#4C3768"/>
<path d="M63.0274 56.8575C62.3507 58.7488 61.6289 60.622 60.8565 62.4756C60.5256 63.2703 60.1924 64.0664 59.8383 64.8509C59.525 65.5425 59.1818 66.212 58.3365 66.2413C57.4321 66.2748 56.343 65.8191 55.4642 65.6156C54.5854 65.4121 53.7747 65.2228 52.9299 65.0265C51.1746 64.6181 49.5198 64.3046 49.1995 62.2181C48.9428 60.5504 49.8599 58.7836 50.5157 57.2984C51.2241 55.6915 52.058 54.0562 53.1166 52.649C54.2307 51.1687 55.4259 51.6089 56.9117 52.1949C58.7828 52.9321 60.6557 53.6698 62.5268 54.407C63.6656 54.856 63.8871 58.0272 62.2998 57.4021C60.9549 56.8718 59.61 56.3416 58.2633 55.8108C57.6199 55.5565 56.978 55.2966 56.3327 55.0497C55.8194 54.8542 55.3545 54.5977 54.9034 55.0284C54.0076 55.8877 53.3748 57.369 52.822 58.47C52.5473 59.018 52.2859 59.5755 52.0502 60.1419C51.7857 60.7786 51.643 61.5797 51.3094 62.1759L51.2413 62.4075C50.6579 61.6236 50.5864 61.3086 51.031 61.4617C51.3294 61.4298 51.7755 61.6372 52.0745 61.7074C52.7387 61.8614 53.403 62.0154 54.0672 62.1694C54.7315 62.3234 55.3957 62.4774 56.06 62.6314C56.3949 62.7091 57.5653 63.1746 57.881 62.9434C58.0399 62.8281 58.2287 62.1832 58.2992 62.0242C58.4498 61.6788 58.6003 61.3334 58.747 60.987C59.0001 60.3932 59.2456 59.7975 59.4856 59.2002C60.0476 57.8039 60.5795 56.3935 61.0852 54.976C61.7397 53.1448 63.4572 55.6636 63.0316 56.8566L63.0274 56.8575Z" fill="#4C3768"/>
<path d="M91.0968 65.9776C90.4202 67.8688 89.6984 69.742 88.9259 71.5956C88.595 72.3904 88.2618 73.1865 87.9077 73.971C87.5945 74.6625 87.2512 75.332 86.4059 75.3614C85.5016 75.3948 84.4125 74.9391 83.5337 74.7356C82.6548 74.5321 81.8441 74.3429 80.9994 74.1465C79.2441 73.7381 77.5892 73.4246 77.2689 71.3382C77.0123 69.6705 77.9294 67.9036 78.5851 66.4185C79.2935 64.8115 80.1274 63.1762 81.186 61.769C82.3002 60.2888 83.4953 60.729 84.9812 61.315C86.8522 62.0521 88.7252 62.7898 90.5962 63.527C91.735 63.9761 91.9566 67.1473 90.3693 66.5221C89.0244 65.9919 87.6795 65.4616 86.3327 64.9309C85.6894 64.6765 85.0475 64.4166 84.4021 64.1697C83.8889 63.9743 83.424 63.7178 82.9728 64.1485C82.077 65.0077 81.4443 66.489 80.8914 67.5901C80.6167 68.138 80.3554 68.6956 80.1197 69.262C79.8551 69.8986 79.7124 70.6998 79.3788 71.2959L79.3107 71.5275C78.7273 70.7436 78.6558 70.4287 79.1005 70.5818C79.3988 70.5498 79.8449 70.7573 80.1439 70.8274C80.8082 70.9814 81.4724 71.1354 82.1367 71.2894C82.8009 71.4434 83.4652 71.5974 84.1294 71.7514C84.4643 71.8292 85.6347 72.2947 85.9505 72.0635C86.1093 71.9482 86.2981 71.3032 86.3687 71.1443C86.5192 70.7989 86.6697 70.4534 86.8165 70.107C87.0695 69.5133 87.3151 68.9175 87.5551 68.3203C88.1171 66.924 88.6489 65.5135 89.1546 64.0961C89.8092 62.2649 91.5266 64.7836 91.101 65.9767L91.0968 65.9776Z" fill="#4C3768"/>
<path d="M70.6526 75.2555C69.976 77.1468 69.2542 79.02 68.4817 80.8736C68.1509 81.6683 67.8176 82.4644 67.4635 83.2489C67.1503 83.9405 66.807 84.61 65.9617 84.6393C65.0574 84.6728 63.9683 84.2171 63.0895 84.0136C62.2107 83.8101 61.4 83.6208 60.5552 83.4245C58.7999 83.0161 57.1451 82.7026 56.8248 80.6161C56.5681 78.9485 57.4852 77.1816 58.141 75.6964C58.8494 74.0895 59.6833 72.4542 60.7419 71.047C61.856 69.5667 63.0512 70.0069 64.537 70.5929C66.4081 71.3301 68.281 72.0678 70.1521 72.805C71.2909 73.254 71.5124 76.4252 69.9251 75.8001C68.5802 75.2698 67.2353 74.7396 65.8886 74.2088C65.2452 73.9545 64.6033 73.6946 63.958 73.4477C63.4447 73.2522 62.9798 72.9957 62.5286 73.4265C61.6329 74.2857 61.0001 75.767 60.4473 76.868C60.1725 77.416 59.9112 77.9735 59.6755 78.5399C59.411 79.1766 59.2682 79.9778 58.9346 80.5739L58.8666 80.8055C58.2832 80.0216 58.2117 79.7066 58.6563 79.8598C58.9547 79.8278 59.4007 80.0352 59.6997 80.1054C60.364 80.2594 61.0282 80.4134 61.6925 80.5674C62.3567 80.7214 63.021 80.8754 63.6852 81.0294C64.0202 81.1071 65.1906 81.5726 65.5063 81.3414C65.6651 81.2261 65.8539 80.5812 65.9245 80.4222C66.075 80.0768 66.2255 79.7314 66.3723 79.385C66.6254 78.7912 66.8709 78.1955 67.1109 77.5983C67.6729 76.2019 68.2047 74.7915 68.7105 73.374C69.365 71.5428 71.0825 74.0616 70.6569 75.2547L70.6526 75.2555Z" fill="#4C3768"/>
<path d="M43.1604 66.7198C42.4838 68.611 41.762 70.4842 40.9895 72.3378C40.6586 73.1325 40.3254 73.9287 39.9713 74.7132C39.6581 75.4047 39.3148 76.0742 38.4695 76.1035C37.5652 76.137 36.4761 75.6813 35.5973 75.4778C34.7184 75.2743 33.9077 75.0851 33.063 74.8887C31.3077 74.4803 29.6529 74.1668 29.3325 72.0804C29.0759 70.4127 29.993 68.6458 30.6488 67.1607C31.3571 65.5537 32.191 63.9184 33.2496 62.5112C34.3638 61.031 35.5589 61.4711 37.0448 62.0571C38.9158 62.7943 40.7888 63.532 42.6598 64.2692C43.7986 64.7183 44.0202 67.8895 42.4329 67.2643C41.088 66.7341 39.7431 66.2038 38.3963 65.6731C37.753 65.4187 37.1111 65.1588 36.4657 64.9119C35.9525 64.7164 35.4876 64.46 35.0364 64.8907C34.1406 65.7499 33.5079 67.2312 32.955 68.3322C32.6803 68.8802 32.419 69.4378 32.1833 70.0042C31.9187 70.6408 31.776 71.442 31.4424 72.0381L31.3744 72.2697C30.7909 71.4858 30.7194 71.1709 31.1641 71.324C31.4624 71.292 31.9085 71.4995 32.2075 71.5696C32.8718 71.7236 33.536 71.8776 34.2003 72.0316C34.8645 72.1856 35.5288 72.3396 36.193 72.4936C36.5279 72.5714 37.6983 73.0369 38.0141 72.8057C38.1729 72.6904 38.3617 72.0454 38.4323 71.8864C38.5828 71.541 38.7333 71.1956 38.8801 70.8492C39.1331 70.2555 39.3787 69.6597 39.6187 69.0625C40.1807 67.6661 40.7125 66.2557 41.2182 64.8383C41.8728 63.007 43.5902 65.5258 43.1646 66.7189L43.1604 66.7198Z" fill="#4C3768"/>
<path d="M56.6805 70.7122C56.0039 72.6035 55.2821 74.4766 54.5096 76.3302C54.1788 77.125 53.8455 77.9211 53.4914 78.7056C53.1782 79.3971 52.8349 80.0666 51.9897 80.096C51.0853 80.1295 49.9962 79.6738 49.1174 79.4703C48.2386 79.2668 47.4279 79.0775 46.5831 78.8811C44.8278 78.4728 43.173 78.1593 42.8527 76.0728C42.596 74.4051 43.5131 72.6382 44.1689 71.1531C44.8773 69.5461 45.7112 67.9109 46.7698 66.5037C47.8839 65.0234 49.0791 65.4636 50.5649 66.0496C52.436 66.7868 54.3089 67.5244 56.18 68.2616C57.3188 68.7107 57.5403 71.8819 55.953 71.2567C54.6081 70.7265 53.2632 70.1962 51.9165 69.6655C51.2731 69.4112 50.6312 69.1512 49.9859 68.9044C49.4726 68.7089 49.0077 68.4524 48.5565 68.8831C47.6608 69.7423 47.028 71.2237 46.4752 72.3247C46.2004 72.8726 45.9391 73.4302 45.7034 73.9966C45.4389 74.6332 45.2962 75.4344 44.9625 76.0306L44.8945 76.2621C44.3111 75.4783 44.2396 75.1633 44.6842 75.3164C44.9826 75.2844 45.4286 75.4919 45.7276 75.562C46.3919 75.716 47.0561 75.87 47.7204 76.024C48.3846 76.178 49.0489 76.332 49.7132 76.486C50.0481 76.5638 51.2185 77.0293 51.5342 76.7981C51.693 76.6828 51.8818 76.0378 51.9524 75.8789C52.1029 75.5335 52.2534 75.1881 52.4002 74.8417C52.6533 74.2479 52.8988 73.6522 53.1388 73.0549C53.7008 71.6586 54.2326 70.2481 54.7384 68.8307C55.3929 66.9995 57.1104 69.5183 56.6848 70.7113L56.6805 70.7122Z" fill="#4C3768"/>
<path d="M84.75 79.8324C84.0733 81.7236 83.3516 83.5968 82.5791 85.4504C82.2482 86.2452 81.915 87.0413 81.5609 87.8258C81.2477 88.5173 80.9044 89.1868 80.0591 89.2162C79.1547 89.2496 78.0657 88.7939 77.1868 88.5904C76.308 88.3869 75.4973 88.1977 74.6525 88.0013C72.8972 87.5929 71.2424 87.2794 70.9221 85.193C70.6654 83.5253 71.5826 81.7584 72.2383 80.2733C72.9467 78.6663 73.7806 77.031 74.8392 75.6238C75.9534 74.1436 77.1485 74.5838 78.6344 75.1698C80.5054 75.9069 82.3783 76.6446 84.2494 77.3818C85.3882 77.8309 85.6098 81.0021 84.0225 80.3769C82.6776 79.8467 81.3327 79.3164 79.9859 78.7857C79.3425 78.5313 78.7007 78.2714 78.0553 78.0245C77.5421 77.8291 77.0772 77.5726 76.626 78.0033C75.7302 78.8625 75.0974 80.3438 74.5446 81.4449C74.2699 81.9928 74.0086 82.5504 73.7728 83.1168C73.5083 83.7534 73.3656 84.5546 73.032 85.1507L72.9639 85.3823C72.3805 84.5984 72.309 84.2835 72.7537 84.4366C73.052 84.4046 73.4981 84.6121 73.7971 84.6822C74.4613 84.8362 75.1256 84.9902 75.7898 85.1442C76.4541 85.2982 77.1183 85.4522 77.7826 85.6062C78.1175 85.684 79.2879 86.1495 79.6037 85.9183C79.7625 85.803 79.9513 85.158 80.0219 84.9991C80.1724 84.6537 80.3229 84.3082 80.4697 83.9618C80.7227 83.3681 80.9683 82.7723 81.2082 82.1751C81.7703 80.7788 82.3021 79.3683 82.8078 77.9509C83.4624 76.1196 85.1798 78.6384 84.7542 79.8315L84.75 79.8324Z" fill="#4C3768"/>
<path d="M64.966 91.2576C64.2894 93.1489 63.5676 95.0221 62.7951 96.8757C62.4642 97.6704 62.131 98.4665 61.7769 99.251C61.4637 99.9426 61.1204 100.612 60.2751 100.641C59.3708 100.675 58.2817 100.219 57.4029 100.016C56.524 99.8122 55.7133 99.6229 54.8686 99.4265C53.1133 99.0182 51.4584 98.7047 51.1381 96.6182C50.8815 94.9505 51.7986 93.1837 52.4543 91.6985C53.1627 90.0915 53.9966 88.4563 55.0552 87.0491C56.1694 85.5688 57.3645 86.009 58.8504 86.595C60.7214 87.3322 62.5944 88.0699 64.4654 88.807C65.6042 89.2561 65.8258 92.4273 64.2385 91.8021C62.8936 91.2719 61.5487 90.7417 60.2019 90.2109C59.5586 89.9566 58.9167 89.6966 58.2713 89.4498C57.7581 89.2543 57.2932 88.9978 56.842 89.4285C55.9462 90.2878 55.3135 91.7691 54.7606 92.8701C54.4859 93.4181 54.2246 93.9756 53.9889 94.542C53.7243 95.1786 53.5816 95.9798 53.248 96.576L53.1799 96.8076C52.5965 96.0237 52.525 95.7087 52.9697 95.8618C53.268 95.8299 53.7141 96.0373 54.0131 96.1074C54.6774 96.2614 55.3416 96.4154 56.0059 96.5694C56.6701 96.7234 57.3344 96.8774 57.9986 97.0314C58.3335 97.1092 59.5039 97.5747 59.8197 97.3435C59.9785 97.2282 60.1673 96.5833 60.2379 96.4243C60.3884 96.0789 60.5389 95.7335 60.6857 95.3871C60.9387 94.7933 61.1843 94.1976 61.4243 93.6003C61.9863 92.204 62.5181 90.7935 63.0238 89.3761C63.6784 87.5449 65.3958 90.0637 64.9702 91.2567L64.966 91.2576Z" fill="#4C3768"/>
<path d="M37.4736 82.7219C36.7969 84.6132 36.0752 86.4864 35.3027 88.34C34.9718 89.1347 34.6386 89.9309 34.2845 90.7154C33.9712 91.4069 33.628 92.0764 32.7827 92.1057C31.8783 92.1392 30.7893 91.6835 29.9104 91.48C29.0316 91.2765 28.2209 91.0873 27.3761 90.8909C25.6208 90.4825 23.966 90.169 23.6457 88.0826C23.389 86.4149 24.3062 84.648 24.9619 83.1629C25.6703 81.5559 26.5042 79.9206 27.5628 78.5134C28.6769 77.0332 29.8721 77.4733 31.358 78.0593C33.229 78.7965 35.1019 79.5342 36.973 80.2714C38.1118 80.7205 38.3333 83.8917 36.7461 83.2665C35.4012 82.7363 34.0563 82.206 32.7095 81.6753C32.0661 81.4209 31.4243 81.161 30.7789 80.9141C30.2657 80.7186 29.8008 80.4622 29.3496 80.8929C28.4538 81.7521 27.821 83.2334 27.2682 84.3344C26.9935 84.8824 26.7321 85.44 26.4964 86.0064C26.2319 86.643 26.0892 87.4442 25.7556 88.0403L25.6875 88.2719C25.1041 87.488 25.0326 87.1731 25.4772 87.3262C25.7756 87.2942 26.2217 87.5017 26.5207 87.5718C27.1849 87.7258 27.8492 87.8798 28.5134 88.0338C29.1777 88.1878 29.8419 88.3418 30.5062 88.4958C30.8411 88.5736 32.0115 89.0391 32.3273 88.8079C32.4861 88.6925 32.6749 88.0476 32.7455 87.8886C32.896 87.5432 33.0465 87.1978 33.1933 86.8514C33.4463 86.2577 33.6919 85.6619 33.9318 85.0647C34.4939 83.6683 35.0257 82.2579 35.5314 80.8405C36.186 79.0092 37.9034 81.528 37.4778 82.7211L37.4736 82.7219Z" fill="#4C3768"/>
<path d="M50.9939 86.7144C50.3173 88.6057 49.5955 90.4788 48.823 92.3324C48.4921 93.1272 48.1589 93.9233 47.8048 94.7078C47.4916 95.3993 47.1483 96.0688 46.303 96.0982C45.3987 96.1317 44.3096 95.676 43.4308 95.4725C42.5519 95.2689 41.7412 95.0797 40.8965 94.8833C39.1412 94.4749 37.4864 94.1615 37.166 92.075C36.9094 90.4073 37.8265 88.6404 38.4823 87.1553C39.1907 85.5483 40.0246 83.913 41.0831 82.5059C42.1973 81.0256 43.3924 81.4658 44.8783 82.0518C46.7494 82.789 48.6223 83.5266 50.4933 84.2638C51.6321 84.7129 51.8537 87.8841 50.2664 87.2589C48.9215 86.7287 47.5766 86.1984 46.2298 85.6677C45.5865 85.4134 44.9446 85.1534 44.2992 84.9066C43.786 84.7111 43.3211 84.4546 42.8699 84.8853C41.9741 85.7445 41.3414 87.2259 40.7885 88.3269C40.5138 88.8748 40.2525 89.4324 40.0168 89.9988C39.7522 90.6354 39.6095 91.4366 39.2759 92.0328L39.2079 92.2643C38.6244 91.4805 38.5529 91.1655 38.9976 91.3186C39.296 91.2866 39.742 91.4941 40.041 91.5642C40.7053 91.7182 41.3695 91.8722 42.0338 92.0262C42.698 92.1802 43.3623 92.3342 44.0265 92.4882C44.3614 92.566 45.5318 93.0315 45.8476 92.8003C46.0064 92.685 46.1952 92.04 46.2658 91.8811C46.4163 91.5357 46.5668 91.1903 46.7136 90.8439C46.9666 90.2501 47.2122 89.6544 47.4522 89.0571C48.0142 87.6608 48.546 86.2503 49.0517 84.8329C49.7063 83.0017 51.4238 85.5204 50.9981 86.7135L50.9939 86.7144Z" fill="#4C3768"/>
<path d="M79.0631 95.8344C78.3865 97.7257 77.6647 99.5989 76.8922 101.452C76.5614 102.247 76.2281 103.043 75.874 103.828C75.5608 104.519 75.2175 105.189 74.3723 105.218C73.4679 105.252 72.3788 104.796 71.5 104.593C70.6212 104.389 69.8105 104.2 68.9657 104.003C67.2104 103.595 65.5556 103.282 65.2353 101.195C64.9786 99.5274 65.8957 97.7605 66.5515 96.2753C67.2599 94.6684 68.0938 93.0331 69.1524 91.6259C70.2665 90.1457 71.4617 90.5858 72.9475 91.1718C74.8186 91.909 76.6915 92.6467 78.5626 93.3839C79.7014 93.8329 79.9229 97.0042 78.3356 96.379C76.9907 95.8487 75.6458 95.3185 74.2991 94.7877C73.6557 94.5334 73.0138 94.2735 72.3685 94.0266C71.8552 93.8311 71.3903 93.5746 70.9391 94.0054C70.0434 94.8646 69.4106 96.3459 68.8578 97.4469C68.583 97.9949 68.3217 98.5524 68.086 99.1189C67.8215 99.7555 67.6788 100.557 67.3451 101.153L67.2771 101.384C66.6937 100.601 66.6222 100.286 67.0668 100.439C67.3652 100.407 67.8113 100.614 68.1102 100.684C68.7745 100.838 69.4387 100.992 70.103 101.146C70.7673 101.3 71.4315 101.454 72.0958 101.608C72.4307 101.686 73.6011 102.152 73.9168 101.92C74.0756 101.805 74.2644 101.16 74.335 101.001C74.4855 100.656 74.636 100.31 74.7828 99.9639C75.0359 99.3702 75.2814 98.7744 75.5214 98.1772C76.0834 96.7808 76.6152 95.3704 77.121 93.953C77.7755 92.1217 79.493 94.6405 79.0674 95.8336L79.0631 95.8344Z" fill="#4C3768"/>
<path d="M107.546 41.8386C110.409 43.3713 113.1 45.2237 115.544 47.3655C116.742 48.4159 117.807 49.5647 118.306 51.1096C118.754 52.4906 118.711 53.95 118.535 55.3739C117.69 62.2628 116.066 69.0425 113.842 75.6117C111.568 82.3294 108.813 88.8822 106.182 95.4642C104.875 98.7315 103.568 101.999 102.263 105.265C101.597 106.927 100.932 108.591 100.266 110.254C99.6469 111.805 99.099 113.417 98.3527 114.912C96.8034 118.016 93.2588 118.721 90.0639 118.651C86.583 118.573 83.2324 117.406 79.9868 116.256C79.2531 115.996 78.8717 115.234 78.8004 114.485C78.7606 114.067 78.9355 112.803 79.6729 113.064C82.3235 114.002 85.0099 114.934 87.8087 115.304C90.2949 115.633 93.8193 115.66 95.7557 113.766C96.7579 112.785 97.173 111.244 97.6799 109.979C98.2978 108.433 98.9152 106.89 99.5331 105.345C100.745 102.316 101.956 99.2865 103.167 96.2574C107.964 84.2618 113.252 72.3298 115.634 59.5613C115.965 57.7892 116.246 56.0037 116.465 54.2138C116.546 53.5619 116.663 52.8577 116.554 52.2031C116.446 51.5485 116.005 51.0845 115.533 50.6302C113.117 48.3081 110.264 46.4104 107.321 44.8324C106.243 44.2556 106.076 41.0492 107.548 41.8373L107.546 41.8386Z" fill="#4C3768"/>
<path d="M84.5891 114.707C94.6949 99.8311 100.194 82.6432 105.378 65.5911C106.917 60.529 108.443 55.4658 110.055 50.4275C110.389 49.3818 111.797 50.6464 111.521 51.5058C105.97 68.8655 101.567 86.7765 93.4091 103.168C91.1791 107.649 88.6654 111.988 85.8529 116.129C85.2859 116.962 84.0705 115.472 84.5886 114.709L84.5891 114.707Z" fill="#4C3768"/>
<path d="M88.553 115.078C97.3403 99.4387 104.527 82.911 109.945 65.8075C111.488 60.9385 112.885 56.0243 114.141 51.0746C114.261 50.605 114.868 50.6658 115.172 50.8793C115.59 51.1711 115.727 51.6833 115.609 52.1534C111.191 69.5411 105.003 86.4682 97.1375 102.59C94.8982 107.181 92.5214 111.702 90.0194 116.154C89.47 117.13 88.1065 115.872 88.5535 115.076L88.553 115.078Z" fill="#4C3768"/>
<path d="M91.5292 115.875C96.2778 107.708 99.4043 98.7026 103.34 90.1397C103.805 89.1252 105.188 90.389 104.805 91.218C100.87 99.7809 97.7441 108.785 92.995 116.954C92.4318 117.922 91.0701 116.664 91.5292 115.875Z" fill="#4C3768"/>
<path d="M38.1014 42.3458C43.8267 42.1471 49.2191 45.4886 51.623 50.6817C53.7657 55.313 53.5647 62.4183 47.9041 64.3371C42.9777 66.0071 37.0515 63.6657 33.6178 60.0335C31.7788 58.0877 30.2049 55.4955 30.0373 52.7644C29.8603 49.8969 31.5054 47.5017 34.0029 46.2142C36.8783 44.7322 40.4116 44.5617 43.5869 44.6311C47.0884 44.7059 50.5493 45.3574 53.8523 46.5163C54.587 46.7731 54.967 47.5404 55.0387 48.2872C55.0799 48.7079 54.9046 49.9661 54.1663 49.7083C49.3595 48.0226 44.1146 47.3607 39.0589 48.1186C36.8392 48.4512 34.3651 49.1293 32.9316 50.9957C31.5594 52.7825 32.2343 54.5902 33.4151 56.2697C35.8254 59.6936 40.2012 61.7495 44.3634 61.6336C46.5602 61.5727 48.8278 60.8152 49.9971 58.8381C51.0439 57.072 51.0389 54.8682 50.3966 52.9613C48.7291 48.0035 43.4022 45.365 38.4134 45.5373C37.1891 45.579 36.5804 42.3979 38.0995 42.3453L38.1014 42.3458Z" fill="#9B5DED"/>
</g>
<defs>
<clipPath id="clip0_1_1821">
<rect width="104.374" height="97.884" fill="white" transform="matrix(-0.965926 -0.258819 -0.258819 0.965926 126.857 27.9336)"/>
</clipPath>
</defs>
</svg>
