<svg width="228" height="203" viewBox="0 0 228 203" fill="none" xmlns="http://www.w3.org/2000/svg">
<g clip-path="url(#clip0_1_1862)">
<rect x="33.663" y="61.0051" width="15.3014" height="7.03084" rx="1.00441" transform="rotate(4.56579 33.663 61.0051)" fill="#6E5B85"/>
<path d="M56.0845 76.54C53.1352 73.4514 50.9907 69.3453 50.6247 65.0381C50.5827 64.5526 50.5393 64.0296 50.6089 63.5431C50.7474 62.5513 50.7705 63.1116 50.6076 63.0975C51.6069 63.1794 52.366 64.5973 52.826 65.3424C54.1774 67.5289 55.4791 69.7472 56.8046 71.9478C58.0455 74.0058 59.624 76.1142 60.2177 78.4788C60.8114 80.8434 60.0687 83.0636 59.4528 85.2315C58.1926 89.6735 57.8517 93.914 58.7767 98.4637C59.8036 103.517 62.0228 108.238 64.2442 112.859C65.1809 114.805 68.8724 111.898 68.0811 110.254C65.7618 105.432 63.4103 100.467 62.4787 95.1546C62.0244 92.559 61.9615 89.8318 62.518 87.2474C63.0746 84.663 64.093 82.0853 64.3358 79.3804C64.5786 76.6754 63.6067 74.2826 62.2196 71.9556C60.6395 69.3087 59.038 66.671 57.4469 64.0302C56.2497 62.0438 55.0153 59.1899 52.2783 59.2437C49.5414 59.2976 47.3094 61.8909 46.7885 64.3652C46.2322 67.0115 47.0598 70.1224 48.0266 72.5849C49.0777 75.264 50.6673 77.722 52.6501 79.8014C53.9914 81.2058 57.4351 77.9441 56.0899 76.5323L56.0845 76.54Z" fill="#4C3768"/>
<path d="M56.0726 59.19C56.4745 56.0095 56.8463 52.8264 57.1785 49.6408C57.4594 46.9533 58.0058 44.1 57.6351 41.3993C56.9133 36.1305 51.7249 34.8848 47.2154 34.387C44.08 34.0418 40.9408 33.7201 37.8021 33.3862C35.3621 33.1259 32.8943 32.8759 30.4554 33.3023C25.1093 34.2332 21.7629 38.7142 20.5581 43.7538C19.1718 49.5437 19.412 55.7307 19.244 61.6457C19.0683 67.9325 18.8897 74.2184 18.7139 80.5052C18.6219 83.7463 18.5298 86.9874 18.4407 90.2294C18.3788 92.5209 18.5008 94.8914 20.4116 96.461C22.168 97.9046 24.501 98.3281 26.6928 98.6017C29.6724 98.972 32.6661 99.263 35.6517 99.5919C40.991 100.18 48.4931 102.218 51.4084 96.0357C52.7909 93.1048 53.1628 89.461 53.6041 86.2829C54.083 82.8314 54.2785 79.355 54.2318 75.8719C54.2015 73.4635 50.2498 75.8701 50.2736 77.652C50.3437 82.9601 49.8352 88.2488 48.6455 93.4258C48.4864 94.1209 48.3557 95.7458 47.8147 96.2476C47.3792 96.6539 46.2859 96.5658 45.7235 96.5542C43.3134 96.5067 40.8801 96.0876 38.4849 95.8219C35.9185 95.5397 33.3528 95.2546 30.7863 94.9723C28.7293 94.7448 26.5674 94.6315 24.6785 93.6992C22.614 92.6809 22.3426 90.8475 22.3901 88.7404C22.4521 85.9883 22.5442 83.2388 22.6212 80.488C22.7739 75.0849 22.9237 69.681 23.0756 64.2807C23.2275 58.8805 23.223 53.6536 23.6199 48.3659C23.878 44.908 24.135 38.7441 28.1298 37.3737C30.0224 36.7241 32.1545 36.8965 34.1113 37.0759C36.7429 37.3156 39.3686 37.6277 41.9979 37.9068C46.0416 38.3381 53.017 38.2659 53.724 43.5953C54.0714 46.218 53.4632 49.1025 53.1871 51.711C52.861 54.8025 52.5027 57.8877 52.1107 60.9721C51.9668 62.1077 53.3744 62.0846 54.0682 61.798C55.1284 61.3599 55.9256 60.3154 56.069 59.192L56.0726 59.19Z" fill="#4C3768"/>
<path d="M20.195 77.1055C18.3165 75.6042 15.1378 73.2084 16.0256 70.3818C16.0256 70.3818 16.1838 69.9617 15.9671 70.2347C16.0957 70.0717 16.5045 69.9544 16.681 69.8489C17.4272 69.3953 18.1456 68.7851 18.5547 67.997C19.4128 66.3489 18.4584 65.634 17.5855 64.3711C17.2172 63.8387 17.0447 63.2713 16.9722 62.6377C16.9345 62.305 17.2031 61.8772 16.815 62.3222C17.0253 62.0813 17.4655 61.9207 17.7203 61.7178C18.8965 60.7822 19.7057 59.4041 19.184 57.9049C18.9478 57.2291 18.5629 56.5959 18.2702 55.9435C17.9947 55.3272 17.9259 54.5555 17.6546 53.9775C17.621 53.9026 17.6548 53.6838 17.6695 53.5923C17.6147 54.0183 17.338 53.72 17.903 53.618C18.6183 53.4892 19.276 53.3249 20.008 53.2753C21.1443 53.1968 22.2103 52.4358 22.7116 51.4089C23.0411 50.7333 23.1458 49.3326 21.9879 49.411C19.6488 49.5731 17.2781 50.0197 15.5324 51.7208C13.6379 53.5697 13.3135 55.9753 14.3438 58.3483C14.576 58.8808 14.8443 59.396 15.0839 59.9245C15.3599 60.5286 15.1898 60.7381 15.7563 59.8882C16.4736 58.8108 16.0909 59.3315 15.6719 59.588C14.5636 60.2623 13.7028 61.5324 13.2988 62.7426C12.9396 63.8114 12.9154 64.9607 13.278 66.0356C13.4514 66.5476 13.7248 67.0242 14.0263 67.4689C14.1823 67.6943 14.3432 67.9243 14.5365 68.1175C14.7699 68.3534 14.825 68.648 14.923 68.3584L15.8514 66.9013C15.4183 67.3206 14.6698 67.5724 14.1885 68.0084C13.6217 68.5243 13.1111 69.1742 12.7526 69.8537C12.1348 71.0131 11.8489 72.3571 11.985 73.6651C12.2943 76.6259 14.5577 78.6244 16.7467 80.372C18.3029 81.6142 21.6415 78.2688 20.1865 77.1029L20.195 77.1055Z" fill="#4C3768"/>
<path d="M39.4848 39.61C38.6703 39.7712 37.9291 40.3438 37.4364 40.9959C37.0918 41.4507 36.7777 42.0845 36.8151 42.6799C36.8355 43.0292 36.9356 43.402 37.2076 43.6431C37.6092 43.9999 38.1584 44.0354 38.6629 43.9186C39.954 43.6199 41.0904 42.453 41.4789 41.2011C41.7051 40.4671 41.6307 39.4216 40.8212 39.0742C39.9431 38.6972 38.8667 39.1799 38.1322 39.6772C37.2822 40.2516 36.4753 41.151 36.2441 42.1742C36.065 42.9685 36.2616 43.7996 37.0555 44.1579C37.7865 44.4883 38.6396 44.2488 39.2987 43.8808C40.4483 43.2342 41.5527 41.8722 41.2203 40.4754C41.0599 39.7941 40.3385 39.2531 39.6369 39.3148C39.0776 39.366 38.6337 39.4976 38.1587 39.8179C37.6837 40.1383 37.1751 40.6559 36.9333 41.1812C36.748 41.5779 36.5395 42.1161 36.7299 42.5496C36.8896 42.9091 37.2342 43.2181 37.6598 43.18C37.7328 43.1738 37.7845 43.1767 37.8553 43.1883L37.4462 43.1076C37.5116 43.1269 37.5623 43.1543 37.6227 43.1907L37.3 42.9747C37.3732 43.0304 37.4297 43.0904 37.484 43.1682L37.2858 42.8345C37.3335 42.9135 37.3634 42.9904 37.3862 43.0806L37.3251 42.6699C37.3359 42.738 37.3342 42.7962 37.3291 42.8658L37.3984 42.4009C37.3915 42.4452 37.3798 42.485 37.3615 42.526L37.5566 42.0333C37.7968 41.5446 38.148 41.1722 38.6131 40.917C39.0786 40.6495 39.2049 40.5569 38.9891 40.6385L39.4909 40.4683C39.4537 40.4789 39.4174 40.4868 39.379 40.4909L39.8475 40.4438C39.768 40.4512 39.6956 40.4453 39.6154 40.434L40.0245 40.5146C39.9468 40.4948 39.8803 40.4689 39.8085 40.4292L40.1312 40.6451C40.0486 40.5898 39.9893 40.529 39.9367 40.4454L40.1349 40.7792C40.1045 40.7146 40.0915 40.6643 40.0779 40.5954L40.139 41.0061C40.1316 40.9576 40.1337 40.9087 40.1395 40.8578L40.0701 41.3228C40.075 41.2748 40.0893 41.2264 40.1056 41.1818L39.9105 41.6745L39.94 41.6059C39.8401 41.8083 39.7093 41.9892 39.5486 42.1458C39.3747 42.3263 39.3323 42.3756 39.4186 42.2929C39.5603 42.1585 39.4508 42.2467 39.0825 42.5615C39.321 42.4032 38.7784 42.7221 38.785 42.7209C38.8593 42.6996 38.9383 42.6519 39.0135 42.6277L38.5118 42.7979C38.5665 42.7801 38.6224 42.7688 38.6832 42.762L38.2147 42.8091L38.3011 42.8099L37.892 42.7292C37.9429 42.7349 37.9904 42.7521 38.0354 42.7777L37.7127 42.5618C37.7734 42.6075 37.8056 42.6449 37.8454 42.7092L37.6472 42.3754C37.6767 42.4429 37.6928 42.5033 37.7048 42.578L37.6437 42.1673C37.6492 42.2431 37.6477 42.3107 37.6381 42.3851L37.7075 41.9202C37.6997 41.9674 37.6871 42.01 37.6708 42.0547L37.8659 41.5619C37.7761 41.7611 37.8496 41.6591 38.0805 41.2543C38.3941 40.8522 38.7839 40.5376 39.2499 40.3105L39.7517 40.1403C39.71 40.1558 39.67 40.1656 39.626 40.1681L40.0944 40.121L40.0276 40.1167L40.4367 40.1974C40.4009 40.193 40.3713 40.1781 40.3397 40.1594L40.6624 40.3754C40.6345 40.3548 40.6102 40.3322 40.5913 40.3018L40.7895 40.6356C40.7607 40.5869 40.7423 40.5444 40.7273 40.4904L40.7884 40.9012C40.7826 40.8685 40.7804 40.8339 40.782 40.7973L40.7126 41.2622C40.7162 41.2292 40.7246 41.2008 40.7395 41.1712L40.232 42.156L39.8659 42.558L38.8629 43.2418L38.9035 43.2198L38.4017 43.39L38.4511 43.3798C38.9963 43.2719 39.5597 42.9035 39.9558 42.5258C40.3518 42.1481 40.7645 41.5991 40.8842 41.0686C40.9712 40.68 41.0285 40.162 40.6943 39.8592C40.3602 39.5564 39.9283 39.5215 39.4978 39.6076L39.4848 39.61Z" fill="#4C3768"/>
<path d="M42.549 105.675C47.0143 109.44 49.9689 114.781 50.5536 120.619C50.7979 123.056 54.6921 120.614 54.5118 118.839C53.8749 112.466 50.9007 106.553 45.985 102.408C44.4679 101.127 41.1054 104.46 42.5453 105.677L42.549 105.675Z" fill="#4C3768"/>
<path d="M66.1171 105.265C67.1477 105.492 68.1565 105.772 69.138 106.154C69.9283 106.462 71.1603 106.845 71.7005 107.549C72.6732 108.819 70.9478 110.075 69.9399 110.671C66.9763 112.423 63.4014 113.021 60.2753 114.444C57.0707 115.903 54.0228 117.825 50.6518 118.894C49.8295 119.155 48.9771 119.361 48.1239 119.486C47.7038 119.548 47.2802 119.589 46.8564 119.6C46.6046 119.615 46.3558 119.61 46.1063 119.586L45.9995 120.355C45.9995 120.355 50.6177 117.221 51.0492 116.974C51.8378 116.524 52.8501 115.212 52.4808 114.243C52.0714 113.17 50.749 113.732 50.0726 114.116C48.0446 115.276 46.0959 116.586 44.3079 118.096C43.1664 119.06 41.3883 121.237 42.6068 122.754C43.6831 124.092 46.5097 123.4 47.9266 123.104C49.8773 122.698 51.7736 121.962 53.5831 121.133C57.1338 119.508 60.4856 117.583 64.2044 116.341C67.9436 115.093 71.7344 113.764 74.2729 110.563C75.5354 108.969 76.7707 106.453 75.3775 104.575C74.0237 102.753 70.9924 102.024 68.9106 101.567C67.8187 101.327 66.7521 101.986 66.1112 102.857C65.7463 103.349 65.0073 105.023 66.1163 105.268L66.1171 105.265Z" fill="#4C3768"/>
<path d="M144.364 85.5856C142.374 90.9231 139.282 95.7773 135.207 99.7715L137.336 100.999C138.051 97.8678 138.606 94.6979 138.938 91.5013C139.047 90.4338 139.222 88.969 138.173 88.2691C137.01 87.4952 135.56 88.5064 134.724 89.2951C132.503 91.3916 130.62 93.9981 128.79 96.4326C126.881 98.9738 125.063 101.577 123.225 104.169C116.544 113.587 109.359 122.741 100.837 130.575C96.101 134.928 95.4185 134.921 90.066 139.046C89.1171 139.606 88.3313 140.822 88.3876 141.952C88.4381 142.936 89.2179 143.496 90.1312 142.957C106.728 133.162 114.601 121.288 125.6 105.747C127.278 103.374 128.951 100.999 130.7 98.6803C131.575 97.5238 132.467 96.3792 133.39 95.2613C133.98 94.5437 135.317 92.3909 136.233 92.3079L135.45 92.2278C135.931 92.4324 135.133 96.0471 135.026 96.7113C134.745 98.4342 134.404 100.142 134.015 101.844C133.68 103.309 135.032 104.163 136.144 103.072C141.108 98.2029 144.945 92.385 147.377 85.8643C147.667 85.0874 147.768 83.7293 146.689 83.5543C145.61 83.3794 144.672 84.7731 144.37 85.5856H144.364Z" fill="#4C3768"/>
<path d="M71.5463 107.914C77.2299 122.54 78.8133 139.888 90.9062 151.136C92.3467 152.477 95.7476 149.172 94.346 147.867C82.4654 136.821 80.9653 119.683 75.3833 105.31C74.6154 103.336 70.8771 106.192 71.5463 107.914Z" fill="#4C3768"/>
<path d="M41.2777 122.71C41.0633 129.892 43.4271 136.771 46.5819 143.13C49.893 149.807 53.8735 156.197 58.2606 162.215C62.7266 168.343 67.6803 174.191 73.1574 179.44C78.6443 184.697 85.1559 188.894 93.0291 188.63C101.423 188.349 108.908 184.096 115.439 179.134C116.177 178.572 117.27 177.448 116.871 176.403C116.472 175.357 115.097 175.792 114.463 176.275C109.043 180.394 102.961 184.141 96.014 184.713C88.4813 185.332 82.2733 181.531 76.9833 176.538C66.6232 166.761 57.8956 154.881 51.3102 142.27C47.8588 135.66 45.0135 128.505 45.2396 120.928C45.2742 119.807 44.0508 119.782 43.2821 120.102C42.3062 120.506 41.3137 121.605 41.2814 122.708L41.2777 122.71Z" fill="#4C3768"/>
<path d="M147.344 90.5435C148.427 94.7868 148.427 99.0954 147.377 103.345C146.997 104.881 148.385 105.557 149.506 104.572C155.594 99.2288 161.118 93.2626 165.948 86.7598C166.5 86.0155 167.224 84.6218 166.547 83.7352C165.871 82.8485 164.676 83.6551 164.202 84.2956C159.597 90.496 154.381 96.1746 148.575 101.269L150.704 102.497C151.911 97.6276 151.878 92.5688 150.639 87.7116C150.36 86.6204 149.171 86.9555 148.527 87.4744C147.7 88.1446 147.074 89.47 147.347 90.5405L147.344 90.5435Z" fill="#4C3768"/>
<path d="M116.102 153.242C116.025 168.984 114.824 184.691 112.496 200.262C112.363 201.158 112.668 202.172 113.756 201.973C114.845 201.775 115.678 200.384 115.82 199.417C118.198 183.505 119.441 167.431 119.521 151.344C119.527 150.297 118.649 149.906 117.777 150.339C116.781 150.834 116.105 152.162 116.099 153.245L116.102 153.242Z" fill="#4C3768"/>
<path d="M51.9072 130.425C57.7974 129.63 63.504 127.751 68.7172 124.895C69.6288 124.394 70.7608 123.452 70.7179 122.289C70.6801 121.245 69.5689 121.018 68.7604 121.463C63.8272 124.167 58.5276 125.903 52.953 126.655C51.1403 126.899 49.1119 130.801 51.9072 130.425Z" fill="#4C3768"/>
<path d="M142.481 101.02C144.328 101.02 146.143 96.6786 144.112 96.6786C142.265 96.6786 140.45 101.02 142.481 101.02Z" fill="#4C3768"/>
<path d="M141.025 107.087C142.872 107.087 144.687 102.746 142.656 102.746C140.809 102.746 138.994 107.087 141.025 107.087Z" fill="#4C3768"/>
<path d="M138.929 136.758C134.424 134.685 129.704 133.089 124.855 132.046C120.799 131.171 115.108 129.593 111.592 132.624C110.023 133.976 108.775 136.393 109.439 138.486C110.091 140.541 112.555 141.247 114.346 141.938C119.008 143.738 123.862 144.998 128.808 145.716C130.62 145.98 132.553 141.68 130.439 141.375C126.646 140.826 122.892 139.978 119.257 138.747C117.484 138.145 115.624 137.54 113.961 136.666C113.655 136.505 113.35 136.339 113.101 136.099C112.745 135.761 112.801 135.497 112.475 135.975C112.876 135.388 114.047 135.302 114.672 135.257C118.216 135.008 122.163 136.067 125.57 136.935C129.351 137.896 133.013 139.234 136.553 140.864C138.35 141.692 140.648 137.549 138.926 136.755L138.929 136.758Z" fill="#4C3768"/>
<path d="M122.003 144.447C121.392 146.926 122.353 149.443 124.494 150.849C126.842 152.391 129.775 152.222 132.444 151.984C133.561 151.884 134.389 150.982 134.762 149.953C134.967 149.393 135.207 147.542 134.074 147.643C132.102 147.818 129.947 148.058 128.049 147.344C126.528 146.771 124.885 145.393 125.327 143.602C125.549 142.703 125.096 141.704 124.067 141.891C122.952 142.095 122.24 143.474 122.003 144.447Z" fill="#4C3768"/>
<path d="M124.855 149.852C124.064 152.112 124.381 154.549 126.107 156.302C127.99 158.214 130.721 158.621 133.277 158.84C135.112 159 136.998 154.68 134.908 154.499C133.137 154.345 131.302 154.173 129.754 153.224C128.903 152.702 127.459 151.285 127.862 150.134C128.135 149.354 128.265 147.999 127.174 147.824C126.083 147.649 125.14 149.04 124.855 149.855V149.852Z" fill="#4C3768"/>
<path d="M126.418 155.05C125.211 159.243 127.548 162.73 130.976 165.034C134.472 167.383 138.706 167.736 142.798 167.513C146.891 167.291 151.404 166.535 155.585 167.605C159.499 168.608 162.823 171.262 165.569 174.123C167.072 175.689 169.765 171.846 168.511 170.538C166.014 167.935 163.197 165.521 159.831 164.127C156.213 162.63 152.406 162.597 148.56 162.873C144.714 163.149 140.666 163.7 136.889 162.606C135.19 162.114 133.562 161.221 132.215 160.079C131.121 159.151 128.951 156.984 129.428 155.332C129.656 154.543 129.864 153.203 128.74 153.022C127.735 152.859 126.658 154.229 126.421 155.053L126.418 155.05Z" fill="#4C3768"/>
<path d="M170.788 154.496C162.574 151.91 155.597 146.101 151.768 138.359C149.577 133.929 148.471 129.051 146.84 124.407C146.238 122.693 145.609 119.894 143.691 119.162C141.479 118.316 139.697 120.979 138.946 122.661C137.926 124.95 137.897 127.432 138.3 129.869C138.766 132.695 139.913 135.349 139.756 138.258C139.7 139.317 140.66 139.678 141.5 139.263C142.534 138.75 143.119 137.451 143.178 136.357C143.329 133.534 142.425 130.901 141.82 128.185C141.556 127.002 141.36 125.759 141.488 124.544C141.523 124.214 141.595 123.319 141.9 123.111C141.39 123.455 142.116 123.814 142.36 124.22C143.709 126.495 144.311 129.475 145.094 131.983C145.876 134.492 146.713 137.161 147.777 139.658C151.599 148.625 159.078 155.661 168.419 158.6C169.459 158.926 170.337 158.122 170.838 157.257C171.147 156.726 171.811 154.81 170.791 154.49L170.788 154.496Z" fill="#4C3768"/>
<path d="M170.811 153.162C171.897 159.205 170.58 165.628 167.12 170.713C165.839 172.599 163.199 176.362 160.492 175.707C159.994 175.585 159.202 175.232 158.995 174.713C158.787 174.194 158.915 174.233 159.359 173.803C160.614 172.59 161.927 171.594 162.722 169.987C163.096 169.233 163.626 167.798 162.675 167.22C161.788 166.68 160.602 167.866 160.255 168.563C159.813 169.456 158.974 169.981 158.265 170.651C157.334 171.534 156.51 172.525 155.997 173.711C155.196 175.552 155.158 177.744 156.809 179.111C160.471 182.144 164.919 177.937 167.244 175.259C173.124 168.489 175.683 159.14 174.103 150.336C173.901 149.212 172.588 149.618 171.992 150.098C171.111 150.81 170.613 152.055 170.811 153.164V153.162Z" fill="#4C3768"/>
<path d="M176.383 153.5C185.798 156.524 195.901 159.819 202.65 167.46C204.076 169.073 206.801 165.245 205.591 163.875C198.614 155.976 188.499 152.521 178.755 149.39C176.849 148.779 174.669 152.948 176.383 153.5Z" fill="#4C3768"/>
<path d="M196.795 155.444C195.454 153.025 194.452 150.167 193.295 147.653C192.139 145.138 186.944 136.241 185.313 133.916C184.115 132.208 181.304 135.983 182.371 137.501C184.017 139.85 189.292 148.72 190.398 151.38C191.448 153.907 192.513 156.613 193.85 159.026C194.82 160.776 197.693 157.069 196.792 155.441L196.795 155.444Z" fill="#4C3768"/>
<path d="M155.86 179.034C161.426 191.093 174.948 194.421 186.922 196.375C193.89 197.513 200.96 198.602 208.035 198.009C213.98 197.51 220.726 195.951 224.634 191.037C228.907 185.667 228.297 178.049 227.202 171.698C226.01 164.762 223.662 157.992 221.254 151.397C216.43 138.187 210.105 125.765 202.359 114.034C194.412 101.998 186.406 88.8829 174.319 80.5445C172.76 79.4681 170.313 83.5276 171.947 84.6544C181.848 91.4864 188.618 101.643 195.269 111.446C202.76 122.486 209.612 133.721 214.769 146.06C217.239 151.972 219.413 158.013 221.304 164.133C223.232 170.372 225.008 177.059 224.468 183.651C224.246 186.358 223.368 188.638 221.097 190.237C218.831 191.829 216.047 192.606 213.363 193.134C206.908 194.403 200.242 193.78 193.784 192.852C181.513 191.085 165.05 188.997 159.149 176.208C158.117 173.969 155.11 177.421 155.858 179.037L155.86 179.034Z" fill="#4C3768"/>
<path d="M173.602 182.856C177.721 177.379 180.68 171.253 182.432 164.631C182.67 163.733 182.189 162.734 181.172 162.92C180.042 163.128 179.363 164.504 179.108 165.476C177.682 170.861 175.203 175.941 171.858 180.392C171.301 181.13 170.583 182.533 171.259 183.416C171.935 184.3 173.127 183.491 173.605 182.856H173.602Z" fill="#4C3768"/>
<g clip-path="url(#clip1_1_1862)">
<path d="M157.228 42.7304C157.627 42.3533 157.963 42.0635 158.474 42.4593C158.986 42.8551 159.076 43.5998 158.827 44.1701C158.718 44.4194 158.02 45.2359 157.935 45.186C157.792 45.105 158.422 43.7525 158.512 43.6123C159.606 41.889 157.287 41.1006 156.334 42.6058C155.542 43.8554 154.364 46.6662 156.156 47.6416C157.948 48.617 160.045 46.7379 160.943 45.3169C161.896 43.8117 162.13 41.5493 160.681 40.2561C158.992 38.7509 156.972 39.7513 155.576 41.0788C154.168 42.4188 155.826 44.0673 157.228 42.7304Z" fill="#4C3768"/>
<path d="M134.769 45.5693C135.168 45.1922 135.505 44.9024 136.016 45.2982C136.527 45.6939 136.617 46.4387 136.368 47.009C136.259 47.2583 135.561 48.0747 135.476 48.0249C135.333 47.9439 135.963 46.5914 136.053 46.4512C137.147 44.7279 134.828 43.9395 133.875 45.4446C133.083 46.6942 131.905 49.5051 133.697 50.4805C135.489 51.4559 137.586 49.5768 138.484 48.1558C139.437 46.6506 139.671 44.3882 138.222 43.095C136.533 41.5898 134.514 42.5901 133.117 43.9176C131.721 45.2452 133.367 46.9061 134.769 45.5693Z" fill="#4C3768"/>
<circle cx="136.097" cy="47.0351" r="1.50661" fill="#4C3768"/>
<circle cx="158.194" cy="44.022" r="1.50661" fill="#4C3768"/>
<path d="M158.211 52.2734L159.251 52.3723C159.477 52.4227 159.7 52.4307 159.923 52.3966C160.115 52.3896 160.3 52.3417 160.474 52.2427C160.622 52.1811 160.738 52.0723 160.823 51.9063C160.92 51.8016 160.964 51.6436 161.041 51.2038L160.971 50.8561C160.853 50.5818 160.699 50.3681 160.506 50.2047L160.147 49.9366C159.855 49.7613 159.562 49.6502 159.266 49.5928L158.226 49.4939C158 49.4436 157.777 49.4355 157.555 49.4696C157.362 49.4766 157.177 49.5245 157.003 49.6236C156.855 49.6852 156.739 49.7939 156.654 49.96C156.557 50.0647 156.513 50.2226 156.519 50.4237L156.589 50.7715C156.624 51.2844 156.778 51.4981 156.971 51.6615L157.33 51.9296C157.622 52.1049 157.915 52.2161 158.211 52.2734Z" fill="#4C3768"/>
</g>
<path d="M135.194 55.2734L136.234 55.3723C136.459 55.4227 136.683 55.4307 136.905 55.3966C137.098 55.3896 137.282 55.3417 137.457 55.2427C137.604 55.1811 137.721 55.0723 137.805 54.9063C137.902 54.8016 137.946 54.6436 138.023 54.2038L137.953 53.8561C137.835 53.5818 137.681 53.3681 137.489 53.2047L137.129 52.9366C136.837 52.7613 136.544 52.6502 136.248 52.5928L135.208 52.4939C134.983 52.4436 134.759 52.4355 134.537 52.4696C134.344 52.4766 134.159 52.5245 133.985 52.6236C133.838 52.6852 133.721 52.7939 133.636 52.96C133.539 53.0647 133.495 53.2226 133.501 53.4237L133.571 53.7715C133.606 54.2844 133.76 54.4981 133.953 54.6615L134.312 54.9296C134.604 55.1049 134.897 55.2161 135.194 55.2734Z" fill="#4C3768"/>
<path d="M175.502 40.7712C175.831 37.9393 177.287 35.3388 179.87 33.9658C180.617 33.5685 181.531 33.1978 182.379 33.5388C183.093 33.8235 183.58 34.5974 183.986 35.2053C184.92 36.5961 185.623 38.1024 186.109 39.7037C186.978 42.5681 187.123 45.6016 186.483 48.5254C186.189 49.8628 185.712 51.2179 185.006 52.3951C184.078 53.9371 183.162 53.94 181.495 53.7829C177.732 53.427 176.555 57.0832 175.633 60.0041C174.758 62.7796 173.824 65.5847 172.412 68.1438C170.927 70.8363 168.94 73.0513 166.171 74.4539C162.838 76.1412 158.9 76.8321 155.226 77.3154C148.192 78.2376 140.106 78.1398 134.098 73.8786C127.984 69.5404 127.242 61.3859 126.264 54.5242C125.134 46.6217 124.541 38.568 124.232 30.5913C124.105 27.2939 124.295 24.0618 125.493 20.9601C126.566 18.1846 128.283 15.6967 130.32 13.5439C135.13 8.47027 142.893 3.77325 150.116 4.81703C154.04 5.3834 157.556 7.53324 160.913 9.51405C164.13 11.4118 167.327 13.446 169.082 16.868C169.595 17.8673 171.004 16.8087 171.428 16.3075C172.116 15.495 172.537 14.2763 172.027 13.2829C170.322 9.95885 167.214 7.76156 164.089 5.8786C160.673 3.82069 157.156 1.7183 153.242 0.766444C145.52 -1.11355 137.306 3.28694 131.58 8.17967C125.854 13.0724 121.733 19.5931 120.95 27.0093C120.481 31.4394 120.985 35.9526 121.285 40.3798C121.587 44.8514 121.949 49.3201 122.492 53.7681C123.034 58.216 123.669 62.5038 124.692 66.7797C125.623 70.6761 127.233 74.1693 130.282 76.841C136.636 82.4157 145.912 82.6085 153.871 81.6477C158.06 81.1407 162.44 80.2837 166.236 78.3622C169.613 76.6542 172.235 73.8846 174.215 70.6999C176.196 67.5151 177.406 64.1525 178.506 60.7098C178.732 60.0041 178.939 59.2894 179.167 58.5837C179.215 58.4413 179.328 57.8038 179.47 57.7297C178.788 58.0885 180.321 58.1982 180.345 58.2012C182.269 58.4384 183.844 57.9195 185.282 56.5969C188.265 53.8511 189.745 49.3942 190.163 45.4534C190.596 41.3613 189.914 37.2484 188.063 33.5685C187.242 31.9376 186.139 29.8856 184.297 29.2688C182.18 28.5601 179.921 29.8382 178.263 31.0658C174.927 33.5418 172.653 37.4945 172.175 41.6163C172.071 42.5088 172.326 43.5289 173.436 43.3273C174.456 43.1404 175.39 41.7349 175.499 40.7712H175.502Z" fill="#4C3768"/>
<path d="M182.649 28.8892C182.696 24.3997 182.148 18.4958 178.803 15.1243C177.293 13.6031 175.387 12.7758 173.234 12.9537C171.081 13.1316 168.504 14.0034 166.787 15.3259C164.807 16.853 164.305 19.0177 164.549 21.3988C164.824 24.0972 165.115 26.7957 165.4 29.4911C165.987 35.0807 166.577 40.6673 167.164 46.2569C167.294 47.4904 168.421 47.8937 169.34 46.9596C171.556 44.709 173.332 42.1826 175.087 39.5672C175.556 38.8703 175.929 37.3402 175.04 36.8005C174.088 36.2223 173.053 37.5004 172.62 38.1438C171.336 40.0564 170.031 42.0076 168.409 43.6563L170.586 44.3591C170.12 39.926 169.652 35.4958 169.186 31.0627C168.964 28.9425 168.741 26.8223 168.516 24.7022C168.395 23.5457 168.273 22.3892 168.151 21.2328C168.059 20.3699 168.166 19.0444 167.858 18.2497C167.876 17.7219 167.727 17.9235 167.413 18.8605L167.618 18.7301C167.864 18.7063 168.448 18.3298 168.685 18.2319C169.622 17.8434 170.616 17.4609 171.627 17.3156C173.533 17.0398 175.256 17.8939 176.448 19.3587C178.901 22.3744 179.265 27.0655 179.227 30.7869C179.215 31.8367 180.102 32.2251 180.97 31.7922C181.973 31.297 182.637 29.9685 182.649 28.8862V28.8892Z" fill="#4C3768"/>
<path d="M120.389 39.8133C119.814 35.2675 119.168 30.6002 119.699 26.0188C120.081 22.6977 121.06 19.0266 123.651 16.7315C124.419 16.0525 125.187 14.727 124.831 13.6654C124.476 12.6038 123.396 12.8292 122.72 13.4282C114.779 20.453 115.773 32.2489 116.97 41.7111C117.323 44.5104 120.621 41.64 120.392 39.8133H120.389Z" fill="#4C3768"/>
<path d="M178.989 39.9705C177.284 41.3909 175.52 43.775 176.211 46.1413C176.751 47.9946 178.583 48.3919 180.291 48.3623C181.403 48.3415 182.248 47.3066 182.61 46.3311C182.841 45.7084 183.046 44.0003 181.922 44.0211C181.264 44.033 180.312 44.113 179.763 43.6682C179.743 43.6534 179.612 43.514 179.58 43.4992C179.348 43.3925 179.639 43.3272 179.461 43.5615C178.975 44.199 179.725 43.4399 179.924 43.2739C180.724 42.6037 181.424 41.2693 181.104 40.2077C180.783 39.1462 179.657 39.416 178.992 39.9705H178.989Z" fill="#4C3768"/>
<path d="M146.274 47.7575C143.729 48.0955 142.098 50.4114 141.523 52.7629C140.725 56.0217 143.537 57.3057 146.297 57.5281C147.682 57.6408 149.008 55.061 147.314 54.9246C145.965 54.8148 143.744 54.6132 144.047 52.7332C144.207 51.7428 144.829 50.4974 145.906 50.355C147.323 50.1653 148.106 47.5173 146.276 47.7604L146.274 47.7575Z" fill="#4C3768"/>
<path d="M160.68 59.1132C157.228 59.8634 152.323 61.1004 148.804 61.4117C144.207 61.4117 140.566 61.8315 137.051 62.3337C136.363 62.6569 136.058 63.1058 136.549 64.0093C137.447 65.6639 138.185 66.7581 138.893 67.7812C139.602 68.8042 140.551 69.5159 141.639 70.0022C144.314 71.2001 148.839 71.043 151.585 70.355C154.011 69.7471 157.264 69.3765 159.173 67.6092C161.083 65.8419 162.349 62.4521 161.777 60.0798C161.374 58.4074 158.844 59.7329 159.173 61.0969C159.624 62.9651 158.755 65.7588 156.525 66.5209C154.295 67.283 151.968 67.8849 149.702 68.2437C147.698 68.561 143.932 68.2437 142.223 66.9924C140.649 65.8419 140.524 63.7691 139.11 62.494L138.893 64.5964C140.21 63.9737 140.916 64.0657 142.348 64.0093C144.05 63.9441 147.306 64.1131 149.002 63.95C152.329 63.6327 157.044 62.4106 160.309 61.7019C161.015 61.5477 161.709 60.9783 161.792 60.2192C161.863 59.5728 161.385 58.953 160.68 59.1072V59.1132Z" fill="#4C3768"/>
<path d="M122.035 46.5331C120.026 46.9348 117.683 43.6873 117.013 42.0132L119.022 20.9207C119.524 18.7445 121.131 13.689 123.542 12.8855C125.952 12.082 126.89 14.7269 127.057 15.8987L122.537 26.445V35.9868C123.207 39.3348 124.044 46.1313 122.035 46.5331Z" fill="#4C3768"/>
<path d="M148.764 36.0918C150.674 36.5574 153.313 35.2734 153.541 33.1414C153.817 30.5853 150.517 31.6142 149.449 32.6373C148.032 33.9983 147.872 36.6315 150.472 36.4684C152.332 36.3498 154.588 34.6388 153.96 32.572C153.201 30.0782 150.057 31.7329 148.939 33.0079C148.326 33.7077 147.738 34.8257 148.225 35.7568C148.711 36.6879 150.025 36.8509 150.941 36.8302C152.892 36.7857 156.109 35.4721 155.917 33.0613C155.745 30.8818 152.981 31.0657 151.917 32.4682C150.591 34.2178 151.73 36.6108 153.98 36.4684C155.679 36.3617 158.25 34.2534 157.429 32.3348C156.581 30.354 153.734 31.9404 153.052 33.1947C151.908 35.2971 153.992 36.6226 155.937 36.2905C157.734 35.9851 160.142 33.6484 158.488 31.8307C156.993 30.1879 154.476 32.1569 154.656 34.025C154.9 36.5396 158.188 36.2609 159.754 35.2586C161.121 34.3838 162.194 31.5223 159.935 30.9886C158.037 30.5408 155.333 33.3727 156.863 35.1074C158.393 36.8421 161.717 35.2942 162.458 33.4735C162.841 32.5305 162.562 31.4808 161.524 31.1843C160.356 30.8522 159.075 31.7002 158.517 32.6818C158.001 33.5862 158.067 34.7397 159.021 35.3031C160.074 35.9258 161.257 35.3742 162.209 34.8168C163.671 33.9568 162.921 31.7595 161.251 32.744C160.258 33.3282 159.739 33.002 158.796 33.1829C158.497 33.3667 158.182 33.4201 157.85 33.343C157.313 33.2511 156.797 33.3667 156.308 33.6929C155.244 33.7789 154.117 33.6129 153.067 33.8352C152.521 33.9509 152.035 34.2593 151.445 34.2356C150.375 34.1911 150.754 34.2504 151.344 33.9331V33.7967C150.68 34.4342 150.674 34.538 151.329 34.1051C150.769 33.5358 150.502 33.6722 149.779 33.4942C148.42 33.1621 147.089 35.6886 148.761 36.0978L148.764 36.0918Z" fill="#4C3768"/>
<path d="M127.358 39.1846C129.268 39.6501 131.907 38.3662 132.135 36.2341C132.411 33.678 129.11 34.707 128.043 35.73C126.626 37.0911 126.465 39.7243 129.066 39.5612C130.925 39.4426 133.182 37.7316 132.553 35.6648C131.794 33.171 128.651 34.8256 127.533 36.1007C126.919 36.8005 126.332 37.9184 126.818 38.8495C127.305 39.7806 128.618 39.9437 129.535 39.9229C131.486 39.8785 134.703 38.5648 134.51 36.154C134.338 33.9746 131.575 34.1584 130.51 35.561C129.185 37.3105 130.323 39.7035 132.574 39.5612C134.273 39.4544 136.844 37.3461 136.023 35.4276C135.175 33.4467 132.328 35.0332 131.646 36.2875C130.501 38.3899 132.586 39.7154 134.531 39.3833C136.328 39.0778 138.736 36.7412 137.081 34.9235C135.587 33.2807 133.069 35.2496 133.25 37.1178C133.493 39.6323 136.782 39.3536 138.347 38.3513C139.714 37.4766 140.788 34.6151 138.528 34.0813C136.63 33.6336 133.926 36.4654 135.456 38.2001C136.986 39.9348 140.31 38.3869 141.052 36.5662C141.434 35.6233 141.156 34.5736 140.118 34.277C138.949 33.9449 137.668 34.793 137.111 35.7745C136.595 36.6789 136.66 37.8324 137.615 38.3958C138.668 39.0185 139.851 38.467 140.803 37.9095C142.265 37.0496 141.514 34.8523 139.845 35.8368C138.851 36.4209 138.333 36.0947 137.39 36.2756C137.09 36.4595 136.776 36.5129 136.444 36.4358C135.907 36.3438 135.391 36.4595 134.902 36.7857C133.837 36.8717 132.71 36.7056 131.661 36.928C131.115 37.0436 130.629 37.352 130.039 37.3283C128.968 37.2838 129.348 37.3431 129.938 37.0258V36.8894C129.274 37.527 129.268 37.6308 129.923 37.1978C129.363 36.6285 129.096 36.7649 128.372 36.587C127.014 36.2549 125.683 38.7813 127.355 39.1905L127.358 39.1846Z" fill="#4C3768"/>
<path d="M67.147 61.9384C68.2395 60.5525 69.3288 59.1666 70.4213 57.7807C70.8967 57.175 70.908 56.0678 70.1374 55.7043C69.2746 55.2946 68.3872 55.9722 67.8888 56.6076C66.7962 57.9935 65.707 59.3793 64.6144 60.7652C64.1391 61.3709 64.1278 62.4781 64.8984 62.8416C65.7612 63.2514 66.6485 62.5737 67.147 61.9384Z" fill="#4C3768"/>
<path d="M70.343 64.727C72.4278 63.0492 74.5127 61.368 76.5975 59.6902C77.2341 59.1769 77.9141 58.3079 77.5066 57.444C77.1451 56.6757 76.028 56.671 75.431 57.1546C73.3461 58.8324 71.2613 60.5136 69.1765 62.1914C68.5399 62.7047 67.8599 63.5737 68.2674 64.4376C68.6288 65.2059 69.7459 65.2106 70.343 64.727Z" fill="#4C3768"/>
<rect x="24.6655" y="51.5551" width="13.8475" height="5.55843" rx="1.00441" transform="rotate(4.56579 24.6655 51.5551)" fill="#4C3768"/>
<rect x="24.6655" y="69.6343" width="13.8475" height="8.98568" rx="1.00441" transform="rotate(4.56579 24.6655 69.6343)" fill="#4C3768"/>
<path d="M167.233 16.903L174.766 15.3964L179.788 20.9207L182.299 30.9647L177.277 33.4757L173.762 38.9999L168.74 44.5242L166.229 22.4273L167.233 16.903Z" fill="#4C3768"/>
</g>
<defs>
<clipPath id="clip0_1_1862">
<rect width="228" height="201.885" fill="white" transform="translate(0 0.330383)"/>
</clipPath>
<clipPath id="clip1_1_1862">
<rect width="31" height="14" fill="white" transform="translate(132 39)"/>
</clipPath>
</defs>
</svg>
