<svg width="67" height="96" viewBox="0 0 67 96" fill="none" xmlns="http://www.w3.org/2000/svg">
<path d="M25.7892 55.8149C25.4461 59.6689 31.9841 60.257 34.6428 60.0374C38.5002 59.7199 42.0345 57.934 44.5815 55.0759C44.9864 54.6211 45.4192 53.6351 44.9844 53.0764C44.5257 52.4863 43.7538 53.0568 43.4068 53.4469C41.4741 55.615 38.6399 56.8637 35.7478 57.1636C34.2938 57.3146 32.7919 57.1989 31.3758 56.848C30.3347 56.5892 27.9672 55.9404 28.0908 54.5603C28.1527 53.8566 27.4665 53.6272 26.918 53.8958C26.204 54.2428 25.855 55.0877 25.7892 55.8169V55.8149Z" fill="#4C3768"/>
<path d="M21.9957 56.25C19.7439 58.4181 17.5499 60.647 15.4297 62.9405C13.3096 65.2341 11.1096 67.5511 9.26667 70.0623C7.75283 72.1265 6.60398 75.2787 9.28462 76.9488C10.4833 77.6957 11.9613 78.0819 13.2776 78.5798C14.4923 79.0405 15.9623 79.901 17.2807 79.9442C19.0378 80.001 19.7698 78.1152 19.9852 76.7116C20.2824 74.7768 20.5676 72.84 20.8608 70.9033C20.9506 70.3113 20.7451 69.6408 20.0132 69.7722C19.2812 69.9035 18.7466 70.8209 18.625 71.4619C17.141 79.2032 16.7581 87.1228 17.516 94.966C17.6955 96.8185 19.9334 94.9189 19.8177 93.7114C19.0817 86.0917 19.4208 78.4269 20.8628 70.9052L18.625 71.4639C18.3717 73.1419 18.1203 74.8199 17.867 76.498C17.8132 76.8567 17.6915 77.2978 17.6915 77.6604C17.5499 78.2524 17.7374 78.0584 18.254 77.0782L17.9947 77.0351C17.4622 76.6469 16.3971 76.445 15.7708 76.2078C14.3886 75.6844 12.9585 75.2198 11.6102 74.6141C10.4793 74.1044 9.51399 73.3046 10.232 72.0402C10.95 70.7758 12.0331 69.7408 12.9486 68.6764C13.9438 67.5198 14.957 66.3769 15.9882 65.2497C18.1263 62.9111 20.3422 60.6411 22.626 58.4397C23.1246 57.9594 23.6671 57.1361 23.4198 56.4127C23.1944 55.7521 22.4405 55.8305 21.9997 56.2559L21.9957 56.25Z" fill="#4C3768"/>
<path d="M47.9345 54.9836C51.5745 59.0081 54.8735 63.3227 57.7755 67.8902C58.4696 68.9821 59.1398 70.0877 59.788 71.2071C60.141 71.8167 60.488 72.4323 60.8271 73.0497C61.1303 73.6006 61.3995 74.4592 61.8244 74.914L61.9859 75.2276C62.5923 74.3925 62.706 74.1201 62.325 74.4082C62.0019 74.5239 61.6728 74.8493 61.3856 75.0434C60.7832 75.4492 60.1829 75.8569 59.5805 76.2627C58.2681 77.1487 56.9557 78.0367 55.6414 78.9228L56.7703 79.2815C55.6214 76.3548 53.9999 73.6672 51.8917 71.309C50.8804 70.1779 49.3666 72.7008 49.9131 73.679C53.1263 79.4286 55.2464 85.7682 56.0881 92.2783C56.3275 94.1289 58.5454 92.2313 58.3898 91.0238C57.4963 84.0921 55.3183 77.4369 51.8937 71.311L49.9151 73.681C51.8957 75.8961 53.4753 78.4014 54.5583 81.1556C54.7398 81.6202 55.2405 81.8143 55.6872 81.5143C57.1652 80.5165 58.6411 79.5187 60.1191 78.5209C61.3636 77.68 63.1428 76.8762 63.9226 75.5511C64.7723 74.1063 64.0124 72.9262 63.3123 71.6168C62.6122 70.3073 61.8403 68.9409 61.0545 67.6295C57.8493 62.2818 54.1116 57.2595 49.9171 52.6214C48.9537 51.557 47.1228 54.0897 47.9385 54.9914L47.9345 54.9836Z" fill="#4C3768"/>
<path d="M9.50598 78.3702C8.23547 82.3809 7.48753 86.4897 7.28608 90.6867C7.25217 91.3866 7.89242 91.6277 8.45886 91.3513C9.15295 91.0141 9.55186 90.1535 9.58776 89.4302C9.76527 85.7409 10.4115 82.081 11.5304 78.5544C11.696 78.0349 11.8156 77.145 11.0677 77.0274C10.3816 76.9195 9.67951 77.8272 9.50798 78.3702H9.50598Z" fill="#4C3768"/>
<path d="M61.3535 78.5837C62.1812 82.7219 63.0089 86.8581 63.8386 90.9963C63.9862 91.7354 64.8518 91.4766 65.2587 91.1532C65.8411 90.6886 66.1981 89.8535 66.0525 89.1262C65.2248 84.988 64.3971 80.8518 63.5674 76.7136C63.4198 75.9746 62.5542 76.2333 62.1473 76.5568C61.5649 77.0213 61.2079 77.8564 61.3535 78.5837Z" fill="#4C3768"/>
<path d="M18.9442 23.0682C17.2449 22.4977 15.374 22.8466 14.1993 24.2561C12.6096 26.1615 13.1162 29.0353 13.575 31.2426C14.1275 33.9047 14.7118 36.5629 15.38 39.1995C15.9704 41.5303 16.5468 43.9062 17.4743 46.135C19.1277 50.1144 23.1028 52.8373 27.2953 53.79C31.398 54.7231 35.77 53.9802 39.6354 52.4786C41.8134 51.6317 43.8079 50.5771 45.7047 49.2343C47.7371 47.7934 49.9431 46.135 51.2974 44.0179C51.8778 43.1122 52.3106 42.1184 52.6257 41.0971C52.7753 40.6129 53.0106 40.0463 53.0485 39.5366C53.1164 38.5977 52.9428 39.915 52.7374 39.7562C52.7653 39.7778 53.5472 39.3661 53.6409 39.3269C54.5983 38.9309 55.5616 38.5996 56.3674 37.9292C56.7464 37.6136 57.0356 37.2529 57.3348 36.9785C57.8254 36.5256 58.2662 36.0532 58.6212 35.4886C59.792 33.6283 59.9795 31.2465 58.9982 29.2686C58.6312 28.5276 58.0747 27.8533 57.3268 27.4553C56.4273 26.977 55.3781 27.0221 54.3948 26.8809C53.3437 26.73 52.8232 26.3301 52.2667 25.4656C51.5586 24.3678 50.9663 23.2054 50.4397 22.0155C49.9132 20.8256 49.4644 19.6847 48.9757 18.5203C48.5509 17.5068 48.1939 16.2542 47.5058 15.3799C45.9042 13.3431 43.048 15.8758 41.6698 16.954C41.3088 17.2363 40.7423 17.7518 40.2218 17.5989C39.8727 17.497 39.7391 16.9108 39.5756 16.5952C39.2265 15.917 38.7279 15.2701 37.8882 15.2544C36.7633 15.2309 35.6503 16.3149 34.7867 16.9148C33.6738 17.6852 32.5788 18.4791 31.4578 19.2377C29.1582 20.7981 26.7607 22.2194 24.0482 22.9525C23.3242 23.1485 22.7797 23.9425 22.66 24.6423C22.5663 25.1872 22.7717 25.9733 23.5077 25.7734C27.7241 24.6305 31.2065 22.041 34.7129 19.5847C35.1278 19.2946 35.5446 19.0045 35.9675 18.7222C36.151 18.5987 36.6895 18.0909 36.9587 18.1282C37.3955 18.189 37.6927 19.1809 37.8563 19.5083C38.7797 21.3647 40.9877 20.1473 42.1784 19.2299C42.8306 18.7261 43.4469 18.1302 44.1989 17.7695C44.526 17.6126 45.0126 17.399 45.3417 17.5617C45.7007 17.7381 45.9181 18.4791 46.0697 18.8104C46.9772 20.7981 47.7232 22.8525 48.6526 24.8305C49.3966 26.4144 50.2742 28.7844 52.0672 29.4548C53.5671 30.0174 55.4699 29.4999 56.5569 30.88C57.0615 31.519 57.2969 32.3404 57.3288 33.1402C57.3667 34.1164 56.9458 34.5379 56.2677 35.1593C56.1141 35.3004 55.9446 35.4631 55.8129 35.6239C55.1308 36.4492 55.6773 35.7866 55.7372 35.7474C55.3542 35.9924 54.9713 36.1845 54.5504 36.359C53.607 36.7511 52.6078 37.0529 51.8818 37.7979C50.5135 39.1995 50.7469 41.4675 49.6379 43.077C49.1034 43.8513 48.2916 44.4002 47.6234 45.0569C46.7538 45.9115 45.7725 46.5565 44.7773 47.2642C38.8017 51.5102 29.6009 53.1294 23.3581 48.6148C21.5929 47.3386 20.2287 45.7234 19.4648 43.6964C18.5772 41.3401 17.9729 38.876 17.3725 36.4374C16.7343 33.8479 16.1718 31.2406 15.6353 28.6276C15.4977 27.9552 15.4199 27.3357 15.4618 26.6457C15.4777 26.3771 15.4558 26.0576 15.5176 25.7989C15.5715 25.5715 15.2663 25.9655 15.394 25.8773C15.8886 25.5303 16.8101 25.6048 17.3486 25.7851C18.6211 26.2125 20.101 23.4563 18.9442 23.0682Z" fill="#4C3768"/>
<path d="M26.6771 21.9664C24.0543 23.8737 20.4123 23.3484 17.4045 22.974C16.1799 22.8211 14.8894 25.6674 16.3076 25.8439C20.159 26.3241 24.0303 26.5319 27.3053 24.1501C27.8498 23.7542 28.3265 22.7858 28.0992 22.1232C27.8518 21.3998 27.1558 21.6194 26.6791 21.9664H26.6771Z" fill="#4C3768"/>
<path d="M15.011 26.2577C15.3301 26.0361 16.0122 25.8264 16.5248 25.8048C17.2628 25.7735 17.8572 25.1207 18.0845 24.462C18.2222 24.0641 18.3877 22.9036 17.6218 22.9349C16.3972 22.9859 15.38 23.3839 14.3847 24.0739C13.8223 24.464 13.3875 25.4363 13.5909 26.1008C13.8203 26.8458 14.5463 26.5792 15.011 26.2577Z" fill="#4C3768"/>
<path d="M14.8177 30.486C9.86526 27.7357 6.10957 23.1427 4.35838 17.8263C3.53464 15.3269 2.88044 12.265 3.38705 9.63815C3.48678 9.12259 3.46483 8.98537 3.93355 8.83247C4.71141 8.57959 5.77649 8.76973 6.58427 8.76581C8.41324 8.75601 10.2422 8.68153 12.0672 8.54235C15.6214 8.27182 19.1537 7.78174 22.6382 7.04271C26.1186 6.30368 29.4754 5.16082 32.9299 4.33553C39.1109 2.85747 45.5273 3.99445 50.5316 7.96602C53.29 10.1557 55.5019 13.2157 55.813 16.7658C56.1521 20.6315 54.73 24.3973 53.3758 27.9572C53.1803 28.4708 53.1125 29.3705 53.8385 29.4842C54.5645 29.5979 55.1948 28.6786 55.3982 28.1414C56.7485 24.5855 58.0669 20.904 58.1586 17.0677C58.2444 13.4784 56.9439 10.1459 54.5206 7.47594C50.011 2.50658 43.0501 0.0973616 36.3645 0.965775C32.4313 1.47741 28.6836 2.94764 24.8361 3.85134C20.9887 4.75504 16.8421 5.41174 12.7832 5.6999C10.8326 5.83908 8.87597 5.90377 6.92134 5.89593C5.15021 5.88809 3.57254 5.91358 2.37184 7.39164C0.385296 9.8381 0.844034 13.7136 1.35463 16.5835C2.58326 23.4779 7.0111 29.7528 13.218 33.199C14.3569 33.8322 15.9525 31.1152 14.8137 30.482L14.8177 30.486Z" fill="#4C3768"/>
<path d="M9.76759 30.2094C7.85683 32.5402 7.50181 35.7453 8.77033 38.4564C10.0388 41.1675 12.7733 42.775 15.7093 41.9183C16.4313 41.7066 16.9758 40.9382 17.0975 40.2285C17.1892 39.6953 16.9858 38.8838 16.2498 39.0975C14.1835 39.7012 12.2089 38.6035 11.1518 36.8549C10.3061 35.4533 9.81347 33.2185 10.9444 31.8404C11.3333 31.366 11.792 30.4133 11.3472 29.8409C10.9025 29.2685 10.1027 29.8037 9.76958 30.2114L9.76759 30.2094Z" fill="#4C3768"/>
<path d="M32.0062 36.9257C30.9969 37.8274 30.3407 39.429 31.0747 40.6875C31.8087 41.946 33.2368 42.0852 34.4076 41.4853C34.8005 41.2854 35.1037 40.6836 34.9062 40.2699C34.6788 39.7975 34.1303 39.9269 33.7633 40.1151C33.3744 40.3131 32.776 39.7701 32.6344 39.476C32.3652 38.9173 32.6364 38.3489 33.0652 37.9646C33.3844 37.6804 33.5758 37.0923 33.2408 36.7512C32.8837 36.3905 32.3133 36.6512 32.0062 36.9237V36.9257Z" fill="#4C3768"/>
<path d="M40.0545 30.3389C39.1849 31.4563 38.5666 32.9344 38.8738 34.3595C39.155 35.667 40.252 36.4903 41.5584 35.769C42.6933 35.1417 43.2079 33.6205 42.9127 32.3972C42.5377 30.8427 40.7526 31.3681 39.8072 32.0091C38.8618 32.6501 39.3744 34.1145 40.4515 33.3794C40.9501 33.0402 41.2453 32.9834 41.1954 33.7048C41.1894 33.7773 41.1755 34.2831 41.0717 34.3085C40.8703 34.3595 40.7307 33.987 40.6828 33.8733C40.264 32.8658 40.8364 31.7562 41.4507 30.9701C41.712 30.6349 41.714 30.0527 41.2931 29.8469C40.8284 29.6195 40.3218 29.9959 40.0565 30.337L40.0545 30.3389Z" fill="#4C3768"/>
<path d="M40.0421 33.8421C40.1119 34.1812 40.1837 34.5223 40.2535 34.8614C40.3472 35.3142 40.804 35.5024 41.2308 35.324C41.6576 35.1457 42.1064 34.6713 42.0067 34.189C41.9369 33.8499 41.865 33.5088 41.7952 33.1697C41.7015 32.7168 41.2447 32.5286 40.8179 32.707C40.3911 32.8854 39.9423 33.3598 40.0421 33.8421Z" fill="#4C3768"/>
<path d="M40.1778 33.6224C40.114 34.0027 40.1638 34.3948 40.3234 34.7457C40.5208 35.1808 41.1272 35.1358 41.4662 34.9005C41.8372 34.6437 42.1723 34.1419 41.9649 33.6851C41.9369 33.6244 41.915 33.5655 41.8951 33.5028L41.9509 33.6969C41.921 33.5852 41.907 33.4754 41.907 33.3578L41.903 33.5714C41.905 33.5048 41.911 33.4421 41.923 33.3774C41.9549 33.1833 41.901 32.95 41.7554 32.8069C41.6098 32.6638 41.3705 32.6089 41.175 32.6423C40.6824 32.7285 40.2596 33.1343 40.1778 33.6224Z" fill="#4C3768"/>
<path d="M24.0641 31.8954C23.0688 32.8599 22.4485 34.136 22.4286 35.52C22.4106 36.7138 22.9591 38.2507 24.467 37.5646C25.56 37.0667 26.6151 35.4436 26.0945 34.2576C25.4503 32.7932 23.7789 33.5754 22.983 34.4144C22.1414 35.3024 23.1885 36.3531 24.0401 35.4534C24.6345 34.8261 24.3772 35.9866 24.1857 35.9611C24.3154 35.9768 24.1818 35.0789 24.1857 34.9535C24.2256 34.1694 24.5547 33.4813 25.1212 32.9324C26.0067 32.0758 24.9496 31.0348 24.0641 31.8935V31.8954Z" fill="#4C3768"/>
<path d="M23.47 35.9766C23.5259 36.2589 23.6814 36.5373 23.9746 36.6392C24.4254 36.796 24.9759 36.5588 25.2112 36.1491C25.3887 35.8414 25.4964 35.5395 25.4845 35.1807C25.4765 34.9377 25.3648 34.677 25.1773 34.5142C24.9559 34.3221 24.6488 34.2378 24.3576 34.279C23.9248 34.3398 23.5996 34.5887 23.3384 34.9239C23.2107 35.0886 23.1309 35.3709 23.1609 35.5767C23.1868 35.7649 23.3104 35.9727 23.4979 36.0472C23.9846 36.2413 24.4513 35.9237 24.7345 35.5571L24.7525 35.5356L24.5829 35.7375L24.6029 35.7179L24.3975 35.8845C24.4114 35.8727 24.4254 35.8629 24.4413 35.8531L24.2199 35.9668C24.2359 35.959 24.2519 35.9511 24.2698 35.9472L24.0444 36.006C24.0724 35.9982 24.0963 35.9943 24.1262 35.9923L23.9088 35.9962C23.9467 35.9962 23.9826 36.0021 24.0205 36.01L23.823 35.9551C23.8609 35.9668 23.8928 35.9825 23.9268 36.0041L23.7612 35.8904C23.7931 35.9139 23.8171 35.9374 23.841 35.9688L23.7253 35.8061C23.7453 35.8374 23.7592 35.8688 23.7732 35.9041L23.7173 35.71C23.7313 35.7571 23.7373 35.8022 23.7393 35.8512L23.7433 35.6375C23.7413 35.6885 23.7333 35.7335 23.7233 35.7826L23.7831 35.561C23.7692 35.61 23.7512 35.6532 23.7273 35.6983L23.843 35.4807L23.825 35.512L25.0616 35.022C25.0397 35.0161 25.0178 35.0063 24.9998 34.9945L25.1653 35.1082C25.1354 35.0866 25.1155 35.067 25.0935 35.0376L25.2092 35.2004C25.1973 35.1807 25.1873 35.1611 25.1813 35.1396L25.2371 35.3337L25.2312 35.3003C25.1913 35.0984 25.0935 34.922 24.8941 34.8299C24.6946 34.7377 24.4413 34.7593 24.2539 34.8377C24.0165 34.9377 23.7931 35.1004 23.6575 35.3199C23.5418 35.5081 23.4341 35.7473 23.48 35.9727L23.47 35.9766Z" fill="#4C3768"/>
<path d="M36.2664 46.6331C38.6219 45.6059 40.4469 43.6377 41.1171 41.1736C41.4522 39.9426 39.7628 39.9837 39.4916 40.9757C38.9989 42.787 37.8261 44.267 36.065 45.0354C35.6421 45.2197 35.2073 45.6765 35.2891 46.1705C35.3649 46.6272 35.8516 46.8134 36.2664 46.6331Z" fill="#4C3768"/>
<path d="M37.593 29.5077C38.8755 28.6216 40.4591 28.3296 41.9969 28.4687C43.2295 28.5805 44.502 25.7263 43.0939 25.5989C40.8421 25.3969 38.7977 26.0576 36.9667 27.3239C35.8298 28.11 35.8877 30.6878 37.593 29.5077Z" fill="#4C3768"/>
<path d="M26.4138 27.2456C24.2517 27.669 22.2931 28.6237 20.5838 29.9861C20.0532 30.4095 19.5566 31.3308 19.7899 32.013C20.0233 32.6952 20.7433 32.5423 21.21 32.1699C22.5783 31.0799 24.15 30.4036 25.8732 30.0665C27.042 29.8371 28.0193 26.9319 26.4138 27.2456Z" fill="#4C3768"/>
<path d="M53.8644 33.8321C53.9681 33.7243 53.7567 33.8948 53.7248 33.9144C53.645 33.9517 53.643 33.9537 53.7168 33.9242L53.6012 33.9537L53.657 33.9458C53.7308 33.9399 53.7328 33.9399 53.663 33.9438C53.6031 33.9438 53.5952 33.9458 53.641 33.9497C53.671 33.9517 53.6989 33.9576 53.7268 33.9635C53.665 33.9595 53.6151 33.9144 53.6949 33.9615C53.7069 33.9693 53.8485 34.0595 53.7607 33.9889C53.673 33.9184 53.7866 34.0262 53.8046 34.0438C53.7228 33.9693 53.7627 33.9752 53.8046 34.0752C53.9901 34.5182 54.6184 34.4594 54.9475 34.2301C55.3284 33.9674 55.6396 33.4773 55.4461 33.0147C54.9993 31.9483 53.4994 32.0639 52.8053 32.7951C52.5161 33.1009 52.2708 33.6557 52.6298 34.0085C52.9888 34.3614 53.5772 34.1379 53.8644 33.836V33.8321Z" fill="#4C3768"/>
<path d="M13.8425 35.8395C13.5951 35.4827 13.288 35.1828 12.8572 35.0495C12.6338 34.9789 12.4403 34.9731 12.2169 35.0574C11.9935 35.1417 11.7462 35.3338 11.6206 35.5396C11.5029 35.7297 11.3992 35.965 11.443 36.1924C11.477 36.3786 11.5787 36.6001 11.7801 36.6628C11.9177 36.706 12.0414 36.7667 12.1611 36.8471L11.9955 36.7334C12.1112 36.8177 12.2089 36.9138 12.2947 37.0294L12.179 36.8667L12.203 36.902C12.3286 37.0823 12.4463 37.2019 12.6816 37.2333C12.899 37.2627 13.1683 37.1804 13.3458 37.0588C13.5552 36.9138 13.7507 36.7158 13.8365 36.4727C13.9003 36.2904 13.9641 36.0159 13.8444 35.8434L13.8425 35.8395Z" fill="#4C3768"/>
<path d="M13.846 7.35045H5.56877H3.07562L2.37753 11.271L3.07562 18.5242L5.56877 24.111L11.6521 29.9919L14.8433 30.9721V24.7971H19.6301L27.0099 23.1309L34.4893 18.9162L37.2817 16.8579L39.2762 18.9162L41.3704 18.5242L45.16 16.3678L47.0548 16.8579L51.0439 26.7574L54.8335 28.4237L55.8307 24.111L57.0274 16.8579L54.8335 9.99685L49.0493 5.58617L41.3704 2.84175L35.9852 2.25366L25.2148 4.70404L13.846 7.35045Z" fill="#4C3768"/>
</svg>
