<svg width="98" height="123" viewBox="0 0 98 123" fill="none" xmlns="http://www.w3.org/2000/svg">
<path d="M34.4481 63.753C29.8093 69.8919 26.0622 76.5902 22.6709 83.4567C19.2796 90.3231 15.5415 97.5743 14.7781 105.217C14.3863 109.14 15.0326 113.238 17.5637 116.409C18.5567 117.654 20.6622 114.819 19.7975 113.735C15.2983 108.096 17.692 100.449 20.043 94.4408C22.5718 87.979 25.774 81.6809 29.2193 75.646C31.2032 72.1718 33.356 68.7906 35.7722 65.5907C36.1911 65.0356 36.7405 63.9963 36.2271 63.335C35.7137 62.6738 34.8062 63.2753 34.4459 63.753H34.4481Z" fill="#4C3768"/>
<path d="M31.8958 107.497C31.4927 101.495 34.0283 95.9048 35.7555 90.2767C37.5502 84.4253 38.8135 78.4413 39.8156 72.4129C39.9259 71.7451 39.6782 70.9888 38.8585 71.137C38.0389 71.2851 37.4106 72.3201 37.2912 73.0432C36.2666 79.1976 35.0011 85.332 33.0892 91.2873C31.1774 97.2427 28.8895 102.782 29.2994 108.912C29.3512 109.675 29.9231 110.003 30.6235 109.662C31.3238 109.321 31.9498 108.282 31.898 107.495L31.8958 107.497Z" fill="#4C3768"/>
<path d="M40.5589 66.0885C39.2303 67.0173 38.1922 68.2933 37.5122 69.744C36.9222 71 36.3592 72.705 37.4851 73.8351C38.6111 74.9651 40.3923 74.744 41.8177 74.5339C43.5944 74.2707 45.3577 73.8815 47.0961 73.4392C50.0821 72.6807 53.6895 71.9089 55.8018 69.5051C56.6485 68.5387 57.5943 66.6104 56.2837 65.6086C55.1398 64.7351 53.1266 64.5405 51.7394 64.4985C50.3365 64.4543 48.9404 67.6873 50.5009 67.736C51.5683 67.7692 52.6379 67.9085 53.6445 68.2712C53.8539 68.3441 54.0589 68.4282 54.257 68.5233C54.7187 67.5834 54.7232 67.3512 54.2638 67.8267C53.8697 68.0102 53.5049 68.3375 53.1063 68.5387C51.3746 69.4056 49.3682 69.8435 47.4992 70.3123C45.5108 70.8121 43.2206 71.5131 41.1489 71.4711C40.3 71.4534 39.156 71.2654 39.6514 70.2614C40.0095 69.5339 40.6107 69.012 41.2705 68.552C42.5496 67.6586 42.4843 64.7484 40.5634 66.0885H40.5589Z" fill="#4C3768"/>
<path d="M55.2459 71.3691C53.4219 82.1409 53.3408 93.0985 54.9667 103.899C55.095 104.746 56.1332 104.423 56.57 104.076C57.2546 103.532 57.5924 102.627 57.4663 101.789C55.917 91.5018 56.0341 80.9976 57.7703 70.7411C57.8829 70.0732 57.6307 69.3191 56.8132 69.4651C55.9958 69.611 55.3675 70.6482 55.2459 71.3713V71.3691Z" fill="#4C3768"/>
<path d="M78.1959 66.0551C81.7539 71.5461 85.0461 77.1962 88.0456 82.999C90.8649 88.4501 93.4523 94.1091 94.6593 100.142C95.5781 104.731 96.4608 112.349 91.2117 114.861C89.9079 115.485 88.4149 115.595 86.9895 115.648C85.3974 115.708 83.8166 115.759 82.2313 115.94C79.162 116.294 76.149 116.988 73.1292 117.614C69.6951 118.324 66.2183 118.961 62.6941 118.835C60.7755 118.766 58.8772 118.481 56.9879 118.171C55.7561 117.97 53.0426 117.813 52.8197 116.197C52.5314 114.111 50.0341 116.252 50.221 117.612C50.7119 121.161 54.8103 121.301 57.7152 121.712C61.2596 122.214 64.7478 122.13 68.281 121.581C71.7398 121.044 75.1311 120.177 78.5765 119.571C80.3577 119.257 82.1502 119.014 83.9585 118.939C85.5798 118.872 87.2259 118.903 88.8247 118.594C95.5308 117.296 98.0484 110.04 97.884 104.105C97.6926 97.236 95.2853 90.6659 92.3579 84.5027C88.8945 77.2073 84.8254 70.1684 80.4275 63.3793C79.5898 62.0879 77.4348 64.8809 78.1937 66.0529L78.1959 66.0551Z" fill="#4C3768"/>
<path d="M56.5522 118.534C57.0093 115.115 56.5837 111.677 55.0862 108.539C54.4962 107.303 53.7126 105.993 52.3975 105.387C51.0149 104.751 49.4903 105.058 48.3734 106.042C47.7924 106.553 47.2047 107.535 47.4772 108.329C47.7497 109.123 48.5693 108.957 49.0805 108.506C49.7898 107.88 50.9856 108.561 51.5193 109.103C52.2962 109.89 52.7803 110.98 53.1631 111.991C54.0324 114.28 54.3476 116.739 54.0234 119.165C53.9355 119.83 54.145 120.591 54.9804 120.441C55.764 120.299 56.4531 119.255 56.5477 118.534H56.5522Z" fill="#4C3768"/>
<path d="M50.1926 108.264C62.4495 107.066 75.7333 104.388 85.2227 96.1458C85.8059 95.6394 86.3891 94.6509 86.1189 93.8592C85.8554 93.0874 85.029 93.2356 84.5156 93.6823C80.156 97.4682 74.8663 99.987 69.3177 101.619C63.2917 103.39 57.0563 104.472 50.8029 105.084C49.4653 105.215 48.3236 108.448 50.1926 108.267V108.264Z" fill="#4C3768"/>
<path d="M52.145 108.092C48.4204 109.874 44.2725 109.826 40.2236 109.943C36.1567 110.06 32.1169 110.595 28.4058 112.336C26.8543 113.063 25.4176 113.996 24.2894 115.283C23.49 116.197 21.9993 117.97 22.6726 119.286C23.4292 120.77 25.3681 120.144 26.4039 119.414C28.0883 118.229 29.6579 116.836 31.2432 115.531C32.3263 114.64 31.1103 113.485 30.0497 114.359C28.7503 115.429 27.442 116.491 26.1157 117.528C25.8184 117.76 24.7443 118.731 24.5236 117.961C24.4178 117.594 25.4694 116.466 25.7126 116.201C27.7438 113.987 31.1148 112.972 33.9994 112.42C40.0998 111.248 46.6009 112.658 52.3702 109.896C52.8408 109.671 53.3407 109.187 53.2461 108.616C53.1628 108.114 52.6066 107.873 52.1427 108.094L52.145 108.092Z" fill="#4C3768"/>
<path d="M24.7597 118.95C24.2327 119.587 24.2575 120.551 24.9826 121.04C25.8293 121.61 26.9012 121.062 27.6758 120.635C29.8624 119.43 31.6234 117.628 33.6838 116.246C34.7377 115.54 34.177 113.879 32.9565 114.7C31.817 115.463 30.7699 116.338 29.6958 117.19C28.6554 118.015 27.1399 118.694 26.3337 119.667C26.64 119.295 26.6242 118.627 26.1558 118.4C25.6221 118.139 25.0704 118.576 24.7597 118.952V118.95Z" fill="#4C3768"/>
<path d="M26.4695 120.622C26.7239 122.864 30.2301 121.564 31.4506 120.995C33.725 119.938 35.576 118.251 37.659 116.898C38.7241 116.203 38.1634 114.549 36.9316 115.352C35.5242 116.267 34.2339 117.342 32.8332 118.267C32.5675 118.441 28.5254 120.533 28.4488 119.863C28.307 118.6 26.3546 119.585 26.4717 120.622H26.4695Z" fill="#4C3768"/>
<path d="M30.4575 121.785C32.0924 122.831 34.0988 122.364 35.7021 121.502C36.6412 120.998 37.4744 120.328 38.3999 119.799C39.5866 119.12 40.5999 118.988 41.9128 119.357C43.7435 119.872 45.9977 119.383 47.628 118.45C48.6571 117.86 49.3507 117.092 50.6005 116.951C51.7084 116.827 52.8253 116.926 53.931 116.781C55.0366 116.635 55.6019 114.662 54.2125 114.846C52.3322 115.095 50.3775 114.728 48.6549 115.695C47.6888 116.237 46.9885 116.962 45.8896 117.283C44.7051 117.627 43.721 117.685 42.5298 117.364C40.654 116.86 38.9493 117.453 37.3505 118.446C35.6706 119.49 33.7115 121.263 31.6758 119.963C30.7863 119.394 29.442 121.133 30.4575 121.783V121.785Z" fill="#4C3768"/>
<path d="M51.6918 68.9168C50.5524 65.425 51.032 61.1171 48.1046 58.3728C46.7715 57.1233 44.9385 56.566 43.6054 55.3188C42.4389 54.2264 41.698 52.8111 40.9887 51.4134C40.1015 49.6642 37.8541 44.2905 35.0776 45.5576C31.3777 47.2471 35.645 53.0211 36.9826 54.8721C37.6132 55.7434 39.23 54.2131 38.5747 53.3086C37.5951 51.9574 36.6313 50.478 36.0166 48.9256C35.8499 48.5032 35.877 47.8752 35.6946 47.5037C35.7621 47.1653 35.6923 47.1321 35.4806 47.4019C35.6585 47.4926 35.8184 47.6076 35.9603 47.7447C36.4377 48.1472 36.852 48.6536 37.2123 49.1578C38.6873 51.2299 39.4552 53.7 40.9955 55.739C41.7881 56.7872 42.7699 57.5678 43.9049 58.2401C45.2492 59.0362 46.6229 59.7261 47.4583 61.0972C49.1044 63.7974 48.8792 67.1764 49.8363 70.1131C50.1921 71.2056 52.0161 69.9208 51.6896 68.9168H51.6918Z" fill="#4C3768"/>
<path d="M36.1998 49.4232C35.7674 47.7779 34.8419 46.3405 33.9457 44.9053C33.6282 44.3989 33.3602 43.8328 32.7432 43.6559C32.0451 43.4568 31.3358 43.8925 30.9687 44.4674C30.1198 45.8031 30.7345 48.0013 31.0926 49.4011C31.6037 51.3936 32.3896 53.2777 33.448 55.049C34.0605 56.0729 35.844 54.7616 35.3013 53.8527C33.9389 51.5705 32.9301 49.023 32.6373 46.3781C32.6103 46.1371 32.5855 45.8916 32.5833 45.6483C32.7522 45.0933 32.6193 45.0004 32.1847 45.3719C31.7231 45.4316 31.642 45.5931 31.9393 45.854C32.0338 46.2521 32.473 46.7032 32.6869 47.0548C33.2791 48.03 33.9322 49.0694 34.2249 50.1795C34.5514 51.4223 36.4678 50.4338 36.202 49.421L36.1998 49.4232Z" fill="#4C3768"/>
<path d="M32.8496 47.6716C32.692 46.7207 32.388 45.8096 31.9962 44.9294C31.6741 44.2085 31.3476 43.2819 30.7103 42.7733C29.438 41.756 28.0239 42.3774 27.5735 43.8171C26.9903 45.6879 27.6275 47.8065 28.1702 49.6154C28.794 51.6897 29.6632 53.6822 30.5302 55.668C31.0008 56.745 32.8091 55.4469 32.3835 54.4717C31.253 51.8821 30.0888 49.2616 29.5461 46.4796C29.4133 45.7941 29.2714 45.0621 29.3705 44.3655C29.3795 44.2129 29.4088 44.0648 29.4628 43.921C29.6565 43.4146 29.4448 43.5141 28.8255 44.2196C28.8593 44.308 29.2917 44.5092 29.3817 44.6198C30.1722 45.5818 30.6743 47.2359 30.8702 48.4323C31.0797 49.6928 33.0185 48.7065 32.8474 47.6738L32.8496 47.6716Z" fill="#4C3768"/>
<path d="M29.4348 43.731C29.2839 42.5103 28.793 41.0751 28.0522 40.0733C27.0861 38.7686 25.717 39.7526 25.1653 40.8738C23.6633 43.9212 24.8523 47.8199 25.5954 50.9313C26.3903 54.2529 27.7527 57.2118 30.5923 59.3082C31.8173 60.2126 33.1842 61.022 34.6119 61.5749C35.8189 62.0437 37.1159 62.256 38.3387 62.6761C38.958 62.8884 39.5705 63.1118 40.0366 63.5762C40.7392 64.2794 41.1468 65.321 41.5611 66.1989C42.5339 68.2555 43.3716 70.3697 44.2093 72.4816C44.6394 73.5651 46.4544 72.2737 46.0626 71.2852C45.3533 69.4917 44.6417 67.6983 43.849 65.9402C43.223 64.5559 42.5835 62.7757 41.3697 61.7606C40.4735 61.011 39.1989 60.7213 38.0977 60.4183C36.7309 60.0424 35.4878 59.6576 34.2268 58.9941C31.0719 57.3378 28.9732 54.9252 27.9463 51.5527C27.4374 49.8809 27.1447 48.1494 26.8136 46.44C26.647 45.5797 26.4916 44.7128 26.4646 43.8371C26.4398 43.0521 26.4353 41.6169 27.0929 41.0375L26.3543 41.4178C26.6177 41.3493 27.4261 44.2042 27.4599 44.4873C27.6153 45.75 29.5654 44.7637 29.4371 43.7288L29.4348 43.731Z" fill="#4C3768"/>
<path d="M51.5163 61.9619C53.2998 61.8535 54.9414 61.0684 56.198 59.8301C57.1865 58.8548 55.9953 57.6784 55.0045 58.658C54.1217 59.5293 53.0408 59.9517 51.8001 60.0269C50.7079 60.0932 50.1157 62.0459 51.5186 61.9619H51.5163Z" fill="#4C3768"/>
<path d="M36.5421 6.6145C38.436 6.97053 40.3681 7.03024 42.102 6.09039C43.8359 5.15054 45.3019 3.79495 47.3376 3.21113C51.222 2.09879 55.5096 2.98115 58.9527 4.94046C66.4965 9.23281 70.0229 17.6671 73.5876 25.0311C77.1523 32.3951 81.5029 40.1815 89.8663 42.4681C90.8436 42.7357 91.8412 42.9237 92.8545 42.99C93.5909 43.0365 94.8992 43.0497 94.7101 44.1687C94.5862 44.9007 93.5481 45.8604 93.0797 46.4266C92.4042 47.2426 91.6791 48.021 90.9224 48.7662C87.9365 51.714 84.3943 54.109 80.5684 55.8848C75.9993 58.0033 71.0835 59.297 66.0844 59.967C64.8098 60.1373 63.5307 60.2678 62.2494 60.3629C60.9681 60.458 59.4166 60.7499 58.3492 59.8277C57.534 59.1245 56.863 58.1581 56.2279 57.3023C55.4285 56.2275 54.7102 55.0621 54.3431 53.7707C53.9918 52.5345 52.08 53.523 52.366 54.5292C52.983 56.7008 54.2711 58.4566 55.6875 60.1992C56.2865 60.9356 56.917 61.7008 57.82 62.0944C58.9167 62.5721 60.2025 62.4151 61.3622 62.3399C66.1677 62.0259 70.9529 61.2032 75.5332 59.7304C79.9739 58.3041 84.2276 56.2342 87.9657 53.4699C89.774 52.132 91.4786 50.6526 93.0122 49.0183C93.7057 48.2797 94.3678 47.5057 94.9961 46.7118C95.6243 45.9179 96.3877 45.1041 96.6219 44.1333C96.9957 42.5831 95.9531 41.2408 94.379 41.0749C91.8997 40.8118 89.7199 40.4159 87.4973 39.2174C83.4215 37.0192 80.5256 33.2023 78.2782 29.3014C73.6867 21.3337 70.9934 11.9683 63.8032 5.71224C60.2453 2.61626 55.755 0.659164 50.9496 0.798483C48.6842 0.864826 46.4594 1.43095 44.4755 2.51454C43.3653 3.12047 42.4353 4.06474 41.2801 4.58663C40.0528 5.1417 38.5891 4.91392 37.3123 4.67288C36.2697 4.47606 35.2563 6.37345 36.5399 6.6145H36.5421Z" fill="#4C3768"/>
<path d="M37.88 4.83234C30.8632 2.79341 24.826 8.16052 21.0068 13.3264C17.1876 18.4922 14.7376 25.0247 13.8661 31.5351C13.4293 34.7926 13.2784 38.1782 12.0894 41.2808C10.9004 44.3834 8.36934 46.4998 5.55 48.3596C4.23717 49.2264 2.85677 50.0425 1.64527 51.0464C0.197321 52.245 0.442777 53.5276 1.40883 54.9407C3.1923 57.5458 5.44642 59.7882 8.03156 61.628C14.643 66.3317 22.7498 68.1805 30.7912 68.5918C31.8405 68.6449 32.8449 66.7143 31.5636 66.6502C24.8305 66.3052 18.0569 64.996 12.157 61.6634C9.52455 60.1752 7.1173 58.2999 5.10413 56.0619C4.62899 55.5356 4.17636 54.9894 3.75301 54.4233C3.4918 54.0761 2.42441 52.9261 2.56403 52.4418C2.67437 52.0593 4.00072 51.4091 4.34525 51.1791C5.03658 50.7169 5.73691 50.268 6.42823 49.808C8.83998 48.2114 11.2112 46.4379 12.7267 43.95C14.249 41.4533 14.884 38.5851 15.2826 35.7346C15.7014 32.7359 15.9491 29.7306 16.672 26.7806C17.3948 23.8306 18.532 20.7965 20.025 18.0588C23.0492 12.5037 29.2194 4.48736 36.6663 6.65233C37.6886 6.94866 39.0015 5.15742 37.8845 4.83234H37.88Z" fill="#4C3768"/>
<path d="M21.8942 26.8248C21.8132 28.1826 22.5112 29.3104 23.77 29.9053C25.254 30.6063 26.9654 30.1817 28.4246 29.6443C31.53 28.4988 34.0723 26.8336 34.892 23.5032L33.2977 24.5514C36.7453 26.011 40.5284 24.9495 43.9287 23.8725C47.0701 22.8774 50.288 21.1348 51.3036 17.8265L49.4008 17.8531C49.1958 20.823 52.0827 22.1255 54.6904 22.3223C55.053 22.3489 55.4177 22.3533 55.7826 22.3445C56.028 22.3378 56.9197 22.1432 57.0481 22.2449C56.6405 21.9221 56.7981 22.7138 56.7689 22.9482C56.7216 23.302 56.6405 23.6514 56.5662 24.0008C56.296 25.3078 56.0865 26.5395 56.6495 27.8022C57.1269 28.877 58.9352 27.5767 58.5028 26.6059C57.9601 25.3874 58.5096 24.0848 58.71 22.8464C58.8406 22.0415 59.0748 20.6527 58.0367 20.3476C57.5368 20.1994 56.9963 20.3675 56.4874 20.394C55.7285 20.4316 54.9449 20.3675 54.204 20.2038C52.9069 19.9185 51.2631 19.1246 51.3689 17.5744C51.4567 16.3161 49.7476 16.6855 49.4661 17.601C48.6306 20.321 45.8653 21.4046 43.3297 22.183C40.5104 23.0477 37.3623 23.9389 34.5137 22.7315C33.7751 22.4196 33.077 23.1361 32.9194 23.7797C32.4127 25.8407 30.8026 26.796 28.9291 27.5523C27.9202 27.9592 26.756 28.4855 25.6368 28.2887C24.7969 28.1406 23.8061 27.4882 23.8624 26.5484C23.9434 25.1729 21.955 25.75 21.892 26.8248H21.8942Z" fill="#4C3768"/>
<path d="M61.2534 32.4614C61.8163 32.4614 62.3568 32.1385 62.5572 31.6012C62.7058 31.2009 62.6 30.5176 62.0257 30.5176C61.4515 30.5176 60.9223 30.8404 60.7219 31.3778C60.5733 31.7781 60.6791 32.4614 61.2534 32.4614Z" fill="#4C3768"/>
<path d="M60.8481 28.2025C60.8008 28.2157 60.7513 28.2135 60.704 28.198C60.7963 28.2445 60.8031 28.2489 60.7243 28.2113C60.7941 28.2887 60.8008 28.2931 60.7468 28.229C60.7828 28.3152 60.7918 28.3307 60.7715 28.2776C60.7558 28.2489 60.7558 28.2201 60.767 28.187C60.749 28.302 60.749 28.3042 60.767 28.1958C60.7918 28.1295 60.8346 28.072 60.8909 28.0277C60.7963 28.1184 60.8053 28.1162 60.9157 28.0211C60.5103 28.3174 60.105 28.8769 60.3527 29.3922C60.5846 29.8721 61.2602 29.8477 61.643 29.5669C62.3006 29.087 62.8793 28.2998 62.7284 27.4484C62.5865 26.65 61.9132 26.2343 61.1273 26.2675C60.5846 26.2896 60.0712 26.8712 60.0014 27.3732C59.9248 27.9282 60.3257 28.2246 60.8459 28.2025H60.8481Z" fill="#4C3768"/>
<path d="M61.9294 34.4939C63.8705 33.8835 65.573 32.6098 66.6809 30.9269C67.746 29.3103 68.5139 26.9618 67.5005 25.1507C66.6516 23.6336 64.8096 22.8751 63.1004 22.9724C60.8643 23.0985 58.9502 24.516 57.5541 26.1414C56.6646 27.1785 57.8355 28.3771 58.7475 27.3134C59.6596 26.2497 60.862 25.144 62.3753 24.9428C63.5891 24.7814 65.001 25.2789 65.645 26.347C66.4219 27.6319 65.7373 29.3723 64.9199 30.478C64.1025 31.5837 62.9946 32.2869 61.6975 32.6938C60.5806 33.0454 60.5243 34.9362 61.9249 34.4961L61.9294 34.4939Z" fill="#4C3768"/>
<path d="M41.3794 55.1618C47.2455 58.0389 53.9155 54.6775 58.1378 50.5201C60.2365 48.4546 61.8826 45.9601 62.6978 43.1406C63.6211 39.9429 63.5603 36.597 63.4837 33.3042C63.4544 32.0548 61.4818 33.0322 61.5066 34.0627C61.5719 36.8469 61.6372 39.682 60.9886 42.413C60.3851 44.9628 59.034 47.2207 57.192 49.0981C53.5462 52.8155 47.7679 55.8783 42.5976 53.3418C41.6361 52.8708 40.3007 54.6333 41.3794 55.1618Z" fill="#4C3768"/>
<path d="M31.3878 43.0983C28.7644 38.764 26.9449 34.0382 26.0306 29.0735C25.7987 27.8153 23.8643 28.8015 24.0535 29.8321C24.9948 34.9404 26.8345 39.8299 29.5368 44.2947C30.1538 45.3164 31.9373 44.0028 31.3901 43.0983H31.3878Z" fill="#4C3768"/>
<path d="M42.1291 38.7595C40.9649 40.1991 41.6247 42.3044 43.5005 42.6427C44.5454 42.8307 45.5565 40.9311 44.2729 40.7011C43.6784 40.595 43.3136 39.9603 43.7032 39.476C44.0004 39.1067 44.0027 38.43 43.5253 38.2089C42.9871 37.959 42.4421 38.3747 42.1291 38.7617V38.7595Z" fill="#4C3768"/>
<path d="M36.6621 36.659C34.8403 36.6811 33.5815 38.0433 33.2888 39.7594C32.996 41.4754 33.9801 42.9129 35.8379 42.7979C37.448 42.6984 38.923 41.4953 39.4251 40.0071C40.0016 38.3021 39.0603 36.8735 37.2476 36.7121C36.1959 36.6192 35.1871 38.5387 36.4752 38.6537C37.0899 38.709 37.725 38.9633 37.6079 39.6864C37.5223 40.2171 37.1102 40.6395 36.5968 40.7943C34.8178 41.3295 34.9417 38.6139 35.8897 38.6028C36.4572 38.5962 36.9841 38.2844 37.1935 37.7426C37.3466 37.3489 37.2318 36.6523 36.6621 36.659Z" fill="#4C3768"/>
<path d="M49.8351 31.5992C48.0133 31.6213 46.7545 32.9835 46.4618 34.6996C46.169 36.4156 47.1531 37.853 49.0109 37.7381C50.621 37.6385 52.096 36.4355 52.5981 34.9472C53.1746 33.2423 52.2333 31.8137 50.4206 31.6522C49.369 31.5594 48.3601 33.4789 49.6482 33.5939C50.2629 33.6492 50.898 33.9035 50.7809 34.6266C50.6953 35.1573 50.2832 35.5797 49.7698 35.7345C47.9908 36.2697 48.1147 33.5541 49.0627 33.543C49.6302 33.5364 50.1571 33.2246 50.3665 32.6828C50.5197 32.2891 50.4048 31.5925 49.8351 31.5992Z" fill="#4C3768"/>
<path d="M39.6819 38.4459C40.5579 37.2406 42.6363 37.5215 43.9402 37.4242C45.1787 37.3313 46.3969 37.0195 47.3742 36.2367C47.7593 35.9271 48.2007 35.3875 47.9372 34.8656C47.7053 34.4056 47.0252 34.3879 46.6469 34.6909C45.253 35.8054 43.3614 35.4007 41.704 35.6551C40.2358 35.8806 38.9793 36.533 38.1078 37.7316C37.2364 38.9302 38.9433 39.4653 39.6819 38.4459Z" fill="#4C3768"/>
<path d="M41.6268 49.2417C44.5205 49.9162 47.6258 49.6508 50.2582 48.2466C53.1654 46.6942 54.6877 43.8702 56.05 41.0374C56.2685 40.5841 56.032 40.0378 55.5186 39.9538C54.9421 39.8609 54.4377 40.3519 54.2148 40.814C53.1091 43.1117 51.9156 45.5067 49.5016 46.7097C47.306 47.8043 44.7547 47.8485 42.3992 47.3001C41.3656 47.0591 40.3545 48.9454 41.6268 49.2417Z" fill="#4C3768"/>
<path d="M52.276 41.8669C53.8613 42.3357 55.1764 43.2048 56.2145 44.4697C56.9081 45.3145 58.5159 43.7732 57.8066 42.9063C56.6941 41.5485 55.1944 40.5511 53.4942 40.0469C52.9515 39.8855 52.4066 40.1354 52.0981 40.5998C51.8751 40.9337 51.731 41.7055 52.276 41.8669Z" fill="#4C3768"/>
<path d="M47.8517 27.351C47.1559 28.6292 46.6402 30.1528 46.9262 31.619C47.1874 32.9569 48.2841 33.8348 49.687 33.4921C50.9795 33.1758 52.1415 31.8556 51.8443 30.5022C51.493 28.8967 49.759 29.0692 48.561 29.5602C47.4936 29.998 47.4283 31.9175 48.7885 31.3625C48.9641 31.2895 50.0945 30.9069 49.8671 31.4863C49.6397 32.0657 49.0182 31.1944 48.9506 30.9976C48.6331 30.0776 48.9799 28.8879 49.428 28.0675C50.1171 26.8025 48.4642 26.2276 47.8539 27.3532L47.8517 27.351Z" fill="#4C3768"/>
<path d="M48.4764 32.2581C48.7511 32.4439 49.0574 32.5412 49.3817 32.6119C49.6159 32.665 49.9424 32.5345 50.1315 32.4151C50.359 32.2692 50.5954 32.0104 50.6855 31.7539C50.762 31.5328 50.8138 31.2608 50.6945 31.044C50.5751 30.8273 50.3995 30.7256 50.154 30.6703C50.1225 30.6637 50.0932 30.657 50.064 30.6482L50.2869 30.7101C50.0752 30.6504 49.8793 30.5619 49.6969 30.4381C49.5145 30.3143 49.1565 30.3784 48.9741 30.4469C48.7174 30.5443 48.4426 30.7588 48.3008 30.991C48.1679 31.2055 48.0508 31.4708 48.1003 31.7274L48.1634 31.9463C48.2309 32.0878 48.3368 32.1918 48.4809 32.2581H48.4764Z" fill="#4C3768"/>
<path d="M34.2836 31.7915C31.5769 33.2112 31.3562 39.6088 35.3758 39.0184C36.7787 38.8127 38.4 37.3134 37.8686 35.8096C37.2246 33.983 34.9795 34.5911 33.7274 35.301C32.6105 35.9334 33.1825 37.5699 34.4548 36.8468C34.6822 36.7185 34.984 36.5349 35.2542 36.5217C35.4096 36.5128 36.0671 36.7074 35.905 36.9861C35.7744 37.2116 35.1979 37.0325 35.0313 36.9507C34.743 36.8092 34.5381 36.4575 34.421 36.1833C34.081 35.3717 34.1328 33.7994 35.011 33.3395C36.1527 32.7402 35.5739 31.117 34.2836 31.7937V31.7915Z" fill="#4C3768"/>
<path d="M34.5695 37.6517L35.4927 37.7468C36.0377 37.8021 36.6209 37.3885 36.7966 36.8865C36.9519 36.4398 36.8326 35.8626 36.2651 35.8029L35.3418 35.7079C34.7969 35.6526 34.2137 36.0661 34.038 36.5681C33.8826 37.0148 34.002 37.592 34.5695 37.6517Z" fill="#4C3768"/>
<path d="M44.5806 26.973C46.2493 25.927 48.0507 25.2503 50.0031 24.9318C51.0682 24.7571 51.665 22.7713 50.2846 22.9968C47.9787 23.3728 45.8214 24.191 43.851 25.4272C42.7701 26.1061 43.3353 27.7558 44.5784 26.973H44.5806Z" fill="#4C3768"/>
<path d="M30.8653 33.1803C31.8516 31.9353 33.1622 31.022 34.6484 30.4426C35.727 30.0224 35.7901 28.1073 34.4209 28.6403C32.3582 29.4408 30.6491 30.75 29.2912 32.4638C28.9917 32.8398 28.9962 33.4988 29.4691 33.731C29.996 33.9875 30.5635 33.5607 30.8653 33.1781V33.1803Z" fill="#4C3768"/>
<path d="M43.8642 33.5938C43.9881 33.9233 44.2155 34.171 44.5038 34.3722C44.6389 34.4651 44.7897 34.5425 44.9429 34.5978C45.0442 34.6332 45.1455 34.6686 45.2514 34.6907C45.409 34.7238 45.5441 34.7393 45.7063 34.7482C45.7918 34.7526 45.9382 34.7216 45.999 34.6553C46.0575 34.5912 46.0485 34.5027 45.999 34.4341C45.8391 34.2174 45.5329 34.1555 45.2806 34.1422C45.3887 34.1489 45.4225 34.1511 45.3797 34.1467C45.3752 34.1467 45.3685 34.1467 45.364 34.1467C45.3505 34.1467 45.3369 34.1445 45.3257 34.1422C45.3099 34.1422 45.2942 34.1378 45.2784 34.1356C45.2108 34.1246 45.3932 34.1577 45.3797 34.1555C45.355 34.1489 45.3279 34.1445 45.3032 34.1378C45.2874 34.1334 45.2739 34.129 45.2581 34.1246C45.2536 34.1246 45.427 34.1843 45.3482 34.1533C45.3234 34.1445 45.2987 34.1334 45.2761 34.1246C45.2649 34.1201 45.2536 34.1135 45.2401 34.1091C45.2401 34.1091 45.3842 34.182 45.3144 34.1445C45.2671 34.1179 45.2198 34.0892 45.1748 34.0582L45.2739 34.129C45.2018 34.0781 45.1365 34.0184 45.0757 33.9543L45.1455 34.0317C45.0645 33.9432 44.9992 33.8459 44.9474 33.7376L44.9857 33.815C44.9721 33.7862 44.9609 33.7575 44.9496 33.7287C44.9113 33.627 44.8348 33.5584 44.7425 33.5031C44.6254 33.4324 44.4677 33.3793 44.3304 33.366C44.2155 33.355 44.0759 33.3461 43.9723 33.4036C43.907 33.4412 43.8282 33.5076 43.862 33.596L43.8642 33.5938Z" fill="#4C3768"/>
<path d="M39.206 34.8786V35.8517C39.1947 35.8937 39.2015 35.9313 39.224 35.9666C39.242 36.0131 39.2713 36.0507 39.3141 36.0816C39.4086 36.1679 39.555 36.232 39.6766 36.2608C39.7982 36.2895 39.9513 36.3161 40.0819 36.2829L40.181 36.2519C40.2351 36.2298 40.2734 36.19 40.2914 36.1369V35.1639C40.3026 35.1219 40.2959 35.0843 40.2734 35.0489C40.2553 35.0025 40.2261 34.9649 40.1833 34.9339C40.0887 34.8477 39.9423 34.7835 39.8207 34.7548C39.6991 34.7261 39.546 34.6995 39.4154 34.7327L39.3163 34.7636C39.2623 34.7858 39.224 34.8256 39.206 34.8786Z" fill="#4C3768"/>
<path d="M37.6932 26.7008C37.9207 26.3979 38.2517 26.4598 38.5895 26.4908C39.0646 26.535 39.5082 26.5018 39.9474 26.3094C40.2739 26.1657 40.5666 25.9578 40.8774 25.7831C41.017 25.7057 41.1634 25.6239 41.3165 25.5752C41.3435 25.5664 41.3705 25.562 41.3976 25.5531C41.4088 25.5509 41.5124 25.531 41.4629 25.5376C41.58 25.5221 41.5349 25.5288 41.6565 25.5531C41.8096 25.5819 42.1677 25.5531 42.1249 25.3253C42.0821 25.0976 41.6948 25.0003 41.5079 24.9627C40.5914 24.7858 39.9474 25.3718 39.1885 25.7433C39.0353 25.8185 38.8777 25.887 38.7066 25.9069C38.4679 25.9357 38.2134 25.8738 37.9747 25.8627C37.5243 25.8384 36.9749 25.9003 36.6844 26.2851C36.4277 26.6279 37.4748 26.9972 37.6955 26.703L37.6932 26.7008Z" fill="#4C3768"/>
<path d="M46.5294 2.57011L41.6887 5.49376L38.4616 5.85085H31.2574L24.4623 10.1136L19.0535 18.2596L16.4172 24.0846L13.8719 37.6093L11.9629 43.7244L7.37221 48.0094L1.53159 52.5846L5.37231 57.4722L11.2811 62.3598L17.8944 65.1273L29.0303 68.0063H31.6438L33.8709 64.7255L36.1436 61.0208L29.803 57.4945L26.6895 50.9554L25.3714 41.7381L27.8031 41.1132L27.3031 36.605L25.3714 29.3963L31.0302 27.8117L33.8937 24.0176H38.1889L46.5749 22.1206L49.3929 19.13L50.6883 19.5764L57.4607 21.4734V26.7627L61.006 24.5086H65.0285L66.9148 27.2537L65.6649 31.1147L62.4378 33.4804L61.8241 42.9432L59.847 47.5407L52.9837 53.6782L55.8926 59.4585L59.847 61.5341L65.0285 61.0208L74.5281 59.1237L82.0504 56.4233L89.7092 51.2678L95.3225 44.7064V42.6308L86.8684 40.4436L80.9823 35.556L72.9827 21.4734L67.2103 10.7162L60.6878 4.53409L51.2792 1.96753L46.5294 2.57011Z" fill="#4C3768"/>
</svg>
