<svg width="150" height="181" viewBox="0 0 150 181" fill="none" xmlns="http://www.w3.org/2000/svg">
<path d="M86.0663 94.6108C81.5512 96.4905 77.1293 98.8707 74.3368 103.032C72.813 105.302 71.9689 107.911 71.1861 110.507C70.315 113.398 69.4463 116.291 68.5752 119.184C68.3789 119.836 68.2218 120.948 69.1445 121.095C69.9837 121.23 70.8597 120.094 71.0634 119.414C71.8192 116.902 72.575 114.391 73.3308 111.879C74.0375 109.525 74.6485 107.047 75.9196 104.922C78.0912 101.288 82.3732 99.4057 86.1203 97.8475C87.5214 97.2635 88.2232 93.7127 86.0663 94.6108Z" fill="#4C3768"/>
<path d="M131.028 107.577C134.748 111.869 136.763 117.204 138.873 122.396C141.261 128.263 143.648 134.13 146.034 140L148.377 137.129C143.931 135.446 139.261 134.432 134.505 134.256C130.584 134.111 126.663 134.525 124.847 138.501C124.56 139.131 124.557 140.275 125.416 140.412C126.329 140.56 127.036 139.391 127.335 138.731C127.215 138.994 127.382 138.719 127.465 138.653C127.689 138.481 127.968 138.368 128.228 138.27C128.832 138.042 129.509 137.927 130.147 137.865C131.885 137.696 133.698 137.836 135.428 137.993C139.19 138.336 142.88 139.19 146.411 140.528C147.724 141.026 149.231 138.827 148.755 137.657C146.306 131.637 143.857 125.62 141.411 119.601C139.278 114.36 137.212 108.939 133.458 104.608C132.292 103.263 130.032 106.429 131.023 107.575L131.028 107.577Z" fill="#4C3768"/>
<path d="M66.3373 153.73C66.9777 158.758 66.2342 163.734 65.4637 168.703C64.86 172.593 64.3595 177.763 68.4451 179.996C69.861 180.771 71.8167 177.366 70.4082 176.595C66.5041 174.46 68.0599 169.123 68.5801 165.643C69.2451 161.182 69.7432 156.66 69.169 152.16C68.8746 149.843 66.1459 152.218 66.3373 153.73Z" fill="#4C3768"/>
<path d="M79.9109 150.027C81.5967 157.95 83.4224 166.48 80.4483 174.335C80.2054 174.978 80.1268 176.104 81.0176 176.246C81.9083 176.389 82.6838 175.238 82.9365 174.565C86.2517 165.805 84.5192 156.549 82.6347 147.683C82.4384 146.766 81.3979 147.075 80.8875 147.487C80.1784 148.061 79.717 149.119 79.9109 150.024V150.027Z" fill="#4C3768"/>
<path d="M102.476 98.2488C104.005 98.2488 105.507 94.6564 103.826 94.6564C102.297 94.6564 100.796 98.2488 102.476 98.2488Z" fill="#4C3768"/>
<path d="M128.736 139.453C119.887 137.286 111.009 135.21 102.19 132.928C98.0675 131.861 93.7831 130.837 89.9723 128.882C86.6645 127.184 83.8155 124.568 80.2427 123.392C78.8489 122.936 76.4466 122.207 75.762 124.097C75.4381 124.992 76.0049 125.471 76.611 126.05C77.5999 126.995 78.5888 127.939 79.5802 128.884C80.4685 129.731 82.2009 127.996 81.3151 127.149C80.6746 126.538 80.0342 125.927 79.3937 125.314C78.925 124.865 77.9778 124.259 77.7374 123.66L77.7275 124.448L77.7913 124.237L77.1877 124.97C76.9717 125.029 77.0674 125.059 77.4797 125.059C77.7324 125.1 77.9852 125.152 78.2355 125.211C78.7729 125.343 79.298 125.527 79.8109 125.736C80.6452 126.077 81.4476 126.497 82.2279 126.951C83.9358 127.939 85.5357 129.103 87.2313 130.109C91.0716 132.388 95.4763 133.517 99.7582 134.658C109.088 137.146 118.513 139.306 127.892 141.6C129.016 141.875 130.117 139.784 128.733 139.446L128.736 139.453Z" fill="#4C3768"/>
<path d="M80.3478 127.357C78.8411 126.846 77.3663 127.482 75.9014 127.894C74.645 128.247 73.207 128.495 72.4292 129.663C71.801 130.608 71.7887 132.002 72.9641 132.507C74.4904 133.165 76.5099 133.27 78.1417 133.518C79.2852 133.693 80.387 131.577 78.9834 131.364C78.5049 131.29 74.3211 130.802 74.2941 130.439C74.272 130.132 78.6693 129.258 79.0227 129.379C80.1294 129.754 81.5649 127.771 80.3502 127.359L80.3478 127.357Z" fill="#4C3768"/>
<path d="M75.7177 131.406C74.1056 131.232 69.8972 131.777 70.8346 134.371C71.21 135.409 72.4615 135.88 73.4185 136.174C74.6773 136.562 75.9631 136.64 77.2686 136.486C78.4464 136.346 79.0942 134.16 77.5753 134.339C76.3042 134.488 75.0478 134.344 73.8675 133.833C73.681 133.752 73.3792 133.507 73.2001 133.472C72.9547 133.2 72.7314 133.325 72.5326 133.845L72.8786 133.715C73.5657 133.571 74.1694 133.482 74.8785 133.558C76.0245 133.684 77.1238 131.556 75.7202 131.404L75.7177 131.406Z" fill="#4C3768"/>
<path d="M74.2778 134.877C73.1048 134.823 71.9049 134.884 71.0117 135.751C70.3442 136.396 69.8387 137.456 70.2461 138.379C71.2006 140.538 74.7538 140.099 76.5574 139.758C77.7107 139.542 78.3585 137.328 76.8641 137.611C75.9218 137.787 74.9452 137.964 73.9857 137.831C73.5072 137.765 73.0189 137.643 72.6042 137.38C71.7478 136.84 73.0729 137.017 73.4385 137.034C74.5796 137.088 75.6764 134.943 74.2802 134.879L74.2778 134.877Z" fill="#4C3768"/>
<path d="M72.8908 138.852L72.1449 139.677C71.8602 139.991 71.5437 140.555 71.7866 140.992C72.8123 142.832 74.9717 143.338 76.9422 142.955C79.6316 142.432 81.7198 140.329 84.5516 140.325C87.5649 140.32 90.5046 141.789 93.2578 142.85C96.2 143.981 99.1397 145.114 102.082 146.246C108.082 148.555 114.076 150.883 120.083 153.173C122.753 154.189 125.452 155.156 128.245 155.772C130.704 156.314 133.342 156.515 135.437 154.868C137.533 153.222 138.33 150.493 139.167 148.059C140.357 144.599 141.55 141.142 142.74 137.682C143.263 136.165 141.155 136.227 140.74 137.434C139.807 140.14 138.875 142.847 137.945 145.554C137.182 147.772 136.625 150.4 135.283 152.361C133.69 154.689 130.785 154.034 128.429 153.465C125.74 152.815 123.146 151.821 120.569 150.832C115.149 148.751 109.731 146.66 104.312 144.575C101.598 143.529 98.8821 142.484 96.1681 141.439C93.6235 140.459 91.0862 139.333 88.4458 138.636C85.6337 137.895 83.0768 138.114 80.4757 139.399C78.677 140.288 75.2269 142.212 73.8061 139.659L73.4479 140.975L74.1938 140.15C75.2122 139.026 73.9264 137.706 72.8933 138.85L72.8908 138.852Z" fill="#4C3768"/>
<path d="M139.957 140.252C140.789 146.809 143.12 153.027 146.924 158.448C147.915 159.861 150.241 156.737 149.358 155.481C145.859 150.497 143.554 144.731 142.786 138.68C142.492 136.363 139.763 138.738 139.955 140.25L139.957 140.252Z" fill="#4C3768"/>
<path d="M79.7486 64.2192C80.7719 68.8816 78.5879 73.7353 78.1732 78.3706C77.8051 82.4956 78.3646 86.9272 81.0393 90.2546C83.8563 93.7612 88.1015 94.306 92.3246 94.5342C96.8642 94.7796 101.603 94.7231 105.924 93.1355C107.732 92.4705 109.426 91.5969 110.979 90.4559C111.752 89.8866 112.458 89.251 113.123 88.559C113.433 88.2376 113.776 87.9063 114.034 87.5382C114.606 86.7186 114.034 87.5898 113.884 87.5063C114.085 87.6168 114.53 87.6707 114.768 87.7345C118.9 88.8584 123.346 86.3604 124.19 82.0539C125.035 77.7474 121.685 74.7855 117.877 73.993C117.415 73.8973 116.947 73.8285 116.478 73.7844C116.12 73.75 115.182 73.8506 114.903 73.5709C114.353 73.0237 114.777 71.2765 114.903 70.6115C115.293 68.5675 115.994 66.6044 116.066 64.5063C116.098 63.5592 116.08 62.3396 115.077 61.9003C114.503 61.6501 113.727 61.6942 113.109 61.6402C112.309 61.574 111.511 61.5126 110.714 61.4292C109.379 61.2869 108.049 61.1053 106.719 60.9286C105.863 60.8157 104.653 60.99 104.194 60.1385C103.904 59.6011 103.757 58.8428 103.914 58.2515C104.12 57.4638 103.718 56.7374 102.871 56.8356C100.201 57.1472 97.5489 57.6135 94.8766 57.903C92.1062 58.2024 89.4241 57.9742 86.6537 57.9104C85.2869 57.8809 83.9226 57.9742 82.5583 57.957C82.0331 57.9496 81.4859 57.7558 80.9853 57.9423C80.6074 58.0822 80.1118 58.5729 79.9744 58.7128C78.9756 59.7361 78.5683 60.698 78.9167 62.1016C79.2235 63.3408 79.4443 64.5971 79.7731 65.8314C80.0112 66.7295 80.9829 66.4621 81.5203 66.0277C82.1975 65.4805 82.7325 64.3714 82.4969 63.4904C82.119 62.077 81.8785 60.6317 81.5007 59.2183L81.3829 60.5041L81.4368 60.3618L80.578 61.6132C80.6786 61.5151 81.4025 60.8575 81.2185 61.0022L80.1584 61.4317C81.9129 61.8439 83.9545 61.4513 85.7581 61.5175C87.5617 61.5838 89.4708 61.7605 91.3455 61.6697C94.9919 61.493 98.5868 60.7888 102.206 60.3667L101.163 58.9508C100.825 60.244 101.06 61.8218 101.703 62.9874C102.533 64.4916 104.201 64.364 105.728 64.5677C107.502 64.8033 109.273 65.0266 111.057 65.1738C111.413 65.2032 111.771 65.2327 112.127 65.2621C112.37 65.2818 112.64 65.2769 112.881 65.3284C112.603 65.2695 113.366 65.3701 113.227 65.2572C113.31 65.3259 113.241 65.9615 113.234 66.0768C113.141 68.062 112.341 69.9588 112.046 71.9145C111.833 73.3353 111.479 76.0125 112.91 76.967C113.641 77.4553 114.699 77.313 115.528 77.4185C116.559 77.5486 117.56 77.7891 118.493 78.2553C119.977 78.9988 121.535 80.5178 121.486 82.3213C121.44 84.0562 119.14 84.5077 117.774 84.4267C116.895 84.3752 116.095 83.9973 115.236 83.9139C114.211 83.8133 113.435 84.4635 112.822 85.1997C111.71 86.5321 110.505 87.6266 108.981 88.4854C105.337 90.5442 101.082 91.0644 96.9599 91.0472C93.0092 91.0301 88.0156 91.2117 84.7692 88.5983C81.2774 85.7911 80.5535 80.93 81.0197 76.7364C81.5743 71.7599 83.584 66.9258 82.4748 61.8758C82.2736 60.9605 81.2405 61.2648 80.7277 61.6795C80.0234 62.2488 79.5523 63.3162 79.7511 64.2168L79.7486 64.2192Z" fill="#4C3768"/>
<path d="M124.188 79.3244C127.925 76.2153 131.8 72.6253 132.556 67.5581C132.904 65.227 132.492 63.0774 131.253 61.075C130.698 60.1769 129.803 59.1512 129.881 58.0274C129.947 57.0777 130.701 56.0839 131.089 55.2422C132.048 53.1515 132.075 51.3602 130.549 49.5787C129.076 47.8586 127.837 46.0133 126.181 44.4453C124.343 42.7055 122.48 40.9608 120.476 39.4149C118.471 37.8689 116.253 36.5659 114.088 35.2556C112.979 34.5832 111.845 33.9501 110.66 33.4201C109.652 32.9686 108.12 32.1097 106.984 32.306C105.716 32.5269 104.746 33.9992 104.66 35.209C104.565 36.561 105.91 37.815 106.638 38.8382C107.269 37.7462 107.9 36.6518 108.53 35.5599C105.779 35.0544 103.031 34.5464 100.28 34.0409C97.8093 33.5845 95.169 32.8827 92.7519 33.9182C91.7679 34.3403 90.9189 34.9979 90.2539 35.8371C89.8932 36.2936 89.6061 36.7941 89.3852 37.3315C89.3116 37.5107 89.1717 37.7315 89.1693 37.9278C89.0172 38.3327 89.1914 38.1732 89.692 37.4542C89.5398 37.4788 89.3852 37.4861 89.2331 37.4812C87.0663 37.2407 84.6199 38.1511 82.7304 39.1155C80.6912 40.1559 78.841 41.6012 77.1699 43.1545C75.3934 44.806 73.4671 46.612 72.6941 48.9775C72.0119 51.0633 72.4291 53.1196 74.2572 54.403C74.5738 54.6239 75.0964 54.8521 75.2829 55.2079C75.5259 55.6717 75.3394 55.7968 75.0621 56.2508C74.4216 57.3084 73.7984 58.3169 73.4475 59.5144C71.9212 64.7018 74.9688 69.5384 79.6115 71.7616C81.0838 72.4683 82.9979 69.0427 81.5746 68.3605C78.3134 66.7974 74.8437 63.2516 76.078 59.2813C76.6546 57.4286 78.2938 56.1379 78.2644 54.0374C78.2521 53.1417 77.9331 52.3859 77.273 51.7798C76.6129 51.1737 75.6412 50.8547 75.3124 50.0106C74.6916 48.4181 76.9466 46.8034 77.9405 45.8832C79.4128 44.5164 80.9906 43.265 82.7844 42.3472C84.6812 41.3755 86.4676 41.2283 88.5411 41.0393C89.4294 40.9583 90.1631 40.5461 90.7373 39.8615C91.2673 39.2308 91.4121 38.1879 91.8808 37.6653C93.3531 36.0236 97.1566 37.2996 98.9332 37.626C101.684 38.1315 104.432 38.6394 107.183 39.1449C108.503 39.3879 109.794 36.8727 109.075 35.8666C108.614 35.2212 107.625 34.2397 107.419 33.4643L107.301 34.7501L107.397 34.4654L106.538 35.7169C106.248 35.9819 106.005 35.7881 106.793 36.058C106.992 36.1267 107.188 36.1979 107.384 36.2715C107.828 36.4383 108.265 36.6175 108.697 36.8113C109.526 37.1843 110.334 37.6064 111.121 38.0554C112.766 38.9928 114.353 40.0332 115.958 41.0344C119.332 43.1398 122.569 45.947 125.229 48.9015C125.864 49.6082 126.35 50.3836 126.912 51.1394C127.376 51.7627 127.945 52.2952 128.419 52.9062C128.892 53.5172 129.113 53.7895 128.816 54.4963C128.485 55.2864 128.043 56.0275 127.705 56.8152C126.991 58.4715 126.799 60.2407 127.567 61.9118C128.335 63.5829 129.633 64.8687 129.83 66.7459C130.276 71.0745 126.372 74.1246 123.413 76.5834C122.765 77.1233 122.147 78.2594 122.436 79.1207C122.726 79.982 123.614 79.7906 124.183 79.317L124.188 79.3244Z" fill="#4C3768"/>
<path d="M101.917 68.1591C100.592 69.0695 99.3408 70.1075 98.747 71.6583C98.2439 72.9785 98.2513 74.9219 99.7113 75.6458C101.287 76.4286 102.958 74.8238 103.449 73.4472C103.981 71.9577 103.306 70.2032 101.527 70.4535C100.074 70.6571 98.8476 74.2668 100.862 73.9846C100.771 73.9772 100.752 73.9919 100.806 74.0263C100.985 74.203 101.009 73.9944 100.879 73.4005L101.402 72.4975C101.517 72.3429 101.809 72.3135 101.768 72.2423C101.768 72.2423 101.51 72.1613 101.478 72.1368C101.412 72.0877 101.373 72.0068 101.316 71.9503C101.184 71.8154 101.36 71.6166 101.243 71.8767C101.078 72.2399 101.831 71.4988 101.974 71.4007C102.749 70.8682 103.39 69.9799 103.363 68.9959C103.341 68.2254 102.646 67.6634 101.92 68.164L101.917 68.1591Z" fill="#4C3768"/>
<path d="M86.7346 65.7847C85.5837 66.8938 84.747 68.2631 84.477 69.8557C84.3028 70.874 84.2881 72.5672 85.3801 73.1365C86.7346 73.8407 88.1431 72.3929 88.7148 71.3206C89.3995 70.0397 89.4338 68.1527 87.9321 67.4484C86.4303 66.7442 84.5457 70.1796 85.969 70.8495C86.1039 70.8863 86.2193 70.9574 86.3101 71.0629C86.3959 71.2224 86.3984 71.2274 86.3174 71.0826L86.6732 70.1452C87.3161 70.0495 87.5296 69.9047 87.3112 69.7084C87.2744 69.679 87.2523 69.6422 87.245 69.5906C87.2597 69.463 87.2106 69.2962 87.2254 69.1563C87.2523 68.9158 87.3284 68.6852 87.5026 68.5158C88.1259 67.9146 88.7737 66.8865 88.4793 65.9786C88.2093 65.1393 87.272 65.262 86.7321 65.7823L86.7346 65.7847Z" fill="#4C3768"/>
<path d="M89.9668 74.5044C88.8184 75.3461 87.7117 76.4233 87.6234 77.9349C87.5399 79.3655 88.5755 80.3299 89.9594 80.2906C91.1545 80.2587 91.7949 78.1018 90.2662 78.1435C89.8171 78.1557 89.741 77.4588 89.849 77.1619C89.9962 76.7546 90.4281 76.465 90.7618 76.2196C91.206 75.8957 91.6428 75.2676 91.3753 74.6983C91.1226 74.1633 90.3864 74.1977 89.9692 74.5044H89.9668Z" fill="#4C3768"/>
<path d="M85.9804 84.3428C88.1177 87.3881 92.1788 86.831 95.1995 85.6777C96.3847 85.2262 96.451 83.1061 94.9517 83.6778C92.4806 84.6226 89.4428 85.0692 87.7152 82.608C87.0355 81.6387 85.2737 83.3367 85.9804 84.3428Z" fill="#4C3768"/>
<path d="M100.517 67.31C102.063 66.5223 104.303 67.3689 105.776 68.0069C106.851 68.4731 108.301 66.5051 107.103 65.9874C105.098 65.1187 102.35 64.2525 100.269 65.3101C99.7589 65.5702 99.2117 66.0929 99.3147 66.7309C99.4055 67.2805 100.014 67.5652 100.517 67.31Z" fill="#4C3768"/>
<path d="M85.8853 64.6828C87.4558 64.5896 89.0189 64.7859 90.5182 65.2619C91.6298 65.6153 93.0604 63.6301 91.8458 63.2424C89.9906 62.6535 88.1355 62.4203 86.1921 62.5357C85.002 62.6068 84.3566 64.7736 85.8853 64.6828Z" fill="#4C3768"/>
<path d="M116.124 81.4809C116.222 81.5324 116.23 81.5299 116.144 81.4735C116.217 81.5569 116.227 81.5545 116.171 81.4686L116.212 81.5447C116.254 81.6502 116.259 81.6526 116.222 81.552C116.293 81.2306 116.465 81.0392 116.799 80.9557C116.225 81.1005 115.631 81.5422 115.572 82.1827C115.523 82.7004 115.903 83.2501 116.492 83.1029C117.393 82.8771 118.215 82.2047 118.364 81.2379C118.48 80.5042 118.139 79.7754 117.452 79.4638C116.909 79.2159 116.215 79.6037 115.93 80.0772C115.665 80.514 115.555 81.2232 116.124 81.4833V81.4809Z" fill="#4C3768"/>
<path d="M76.4511 56.202L75.9573 53.4137L74.0985 51.8163L74.9408 46.9951L82.4631 41.5348L89.637 39.0661L92.7446 34.8547L107.092 36.9749V34.0996L111.972 36.4522L123.095 44.4683L130.269 54.0818L129.34 59.571L131.46 68.4294L126.406 75.7775L122.427 78.798L113.337 74.6738L114.179 63.9567L103.956 62.3592L101.864 58.903L88.0976 59.571L80.7786 60.5876V69.0974L74.9408 65.6412V61.0813L76.4511 56.202Z" fill="#4C3768"/>
<path d="M35.2553 56.3844C30.7599 61.4541 23.5701 63.1129 18.3581 67.2967C13.1461 71.4805 9.23709 78.0029 7.1415 84.5792C4.66065 92.3579 4.27294 100.573 4.21896 108.681C4.16252 117.132 4.21896 125.581 3.85088 134.027C3.43127 143.599 2.48408 153.15 0.484189 162.531C0.324688 163.274 0.658413 164.106 1.52708 163.947C2.39574 163.787 3.06564 162.636 3.23496 161.831C6.70717 145.55 7.01144 128.834 7.03598 112.251C7.05807 98.2374 6.66545 81.0923 18.1078 70.8916C23.7566 65.8587 31.5843 64.1926 36.7006 58.4236C37.2037 57.8567 37.7288 56.6175 37.1963 55.9206C36.6295 55.1796 35.6847 55.8985 35.2553 56.3844Z" fill="#4C3768"/>
<path d="M28.3716 83.8642C31.4487 85.6015 33.0707 88.767 34.2657 91.9668C35.6055 95.5543 36.6902 99.2008 38.2974 102.69C41.5954 109.855 46.432 116.427 53.2389 120.601C56.429 122.559 60.0803 123.997 63.8102 124.458C67.9768 124.974 71.7803 123.894 74.9875 121.182C81.1687 115.958 86.8764 107.826 95.9974 108.432C97.0771 108.503 98.1445 108.722 99.0573 109.333C100.068 110.012 100.758 111.1 101.472 112.059C103.064 114.199 104.659 116.338 106.252 118.481C106.858 119.295 107.769 120.262 107.771 121.339C107.771 122.186 107.153 122.915 106.588 123.484C104.976 125.109 103.192 126.345 101.931 128.306C101.555 128.89 101.227 130.144 101.97 130.595C102.75 131.069 103.624 130.024 103.972 129.484C105.003 127.884 106.824 126.851 108.102 125.457C109.462 123.972 110.563 122.009 110.595 119.953C110.632 117.72 109.074 116.034 107.818 114.346C106.37 112.4 104.927 110.449 103.472 108.508C102.24 106.869 100.966 105.571 98.915 105.068C96.8636 104.565 94.6134 104.8 92.6061 105.286C88.3045 106.327 84.5354 108.876 81.2546 111.764C79.586 113.232 78.018 114.81 76.4377 116.368C75.0169 117.769 73.5667 119.234 71.7361 120.093C67.9645 121.865 63.2261 120.858 59.5282 119.379C51.7985 116.284 46.0369 109.922 42.1941 102.688C40.0274 98.6094 38.6925 94.2734 37.1147 89.9595C35.7528 86.2346 33.9197 82.4851 30.3347 80.4607C28.9335 79.6681 26.9704 83.0691 28.3716 83.8617V83.8642Z" fill="#4C3768"/>
<path d="M14.8044 102.717C17.6484 108.999 19.6777 115.615 22.5389 121.889C25.1645 127.648 28.5778 132.961 32.9114 137.587C41.5612 146.818 53.4059 153.713 66.4065 152.403C73.8564 151.652 80.9186 148.582 87.3379 144.862C88.1255 144.406 88.7734 143.388 88.7267 142.458C88.685 141.638 88.0397 141.186 87.2839 141.626C81.7333 144.84 75.7851 147.493 69.4198 148.558C63.1649 149.603 56.888 148.722 51.114 146.126C40.057 141.155 31.1568 131.663 25.8835 120.856C22.6469 114.221 20.5709 107.095 17.5281 100.374C16.6889 98.5163 14.1958 101.373 14.8044 102.715V102.717Z" fill="#4C3768"/>
<path d="M96.7624 106.154C101.005 102.485 104.752 98.1566 109.402 94.9789C111.483 93.5557 113.748 92.3606 116.204 91.7472C117.399 91.4478 118.739 91.173 119.969 91.4159C121.124 91.6441 122.31 92.6453 121.961 93.9237C121.762 94.6501 122.152 95.5163 123.004 95.3396C124.238 95.082 125.46 95.4795 126.422 96.277C127.522 97.1898 127.703 98.8216 128.854 99.6069C129.386 99.9725 130.064 100.044 130.618 100.382C131.173 100.721 131.58 101.229 131.904 101.786C132.773 103.285 132.871 105.116 132.996 106.802C133.168 109.12 135.938 106.74 135.828 105.231C135.683 103.275 135.531 101.261 134.675 99.467C134.314 98.7112 133.87 98.0536 133.246 97.4941C132.572 96.888 131.88 96.8144 131.131 96.38C130.383 95.9457 130.181 94.9126 129.669 94.1986C129.22 93.5728 128.631 93.0035 127.988 92.5815C126.695 91.7324 125.173 91.4944 123.671 91.8085L124.714 93.2244C125.556 90.1399 123.183 87.6885 120.153 87.7474C117.122 87.8063 114.096 88.9522 111.463 90.427C105.533 93.752 101.076 99.0228 95.9919 103.42C95.3515 103.975 94.7208 105.086 95.0153 105.957C95.3098 106.829 96.1981 106.642 96.7624 106.154Z" fill="#4C3768"/>
<path d="M131.854 102.873C130.711 101.165 128.647 101.204 126.883 101.83C124.451 102.691 122.218 104.011 120.181 105.582C118.145 107.152 116.395 108.948 114.024 109.829C111.556 110.747 108.881 110.749 106.285 110.752C104.756 110.752 103.257 114.347 104.935 114.344C107.276 114.342 109.662 114.327 111.951 113.78C114.363 113.203 116.415 111.942 118.343 110.421C120.22 108.936 121.992 107.405 124.129 106.298C125.538 105.567 128.227 104.055 129.422 105.839C130.375 107.262 132.713 104.151 131.857 102.873H131.854Z" fill="#4C3768"/>
<path d="M56.5667 77.2721C59.5334 77.8463 61.2413 80.6682 61.8253 83.4263C62.5467 86.8298 62.1615 90.5499 62.137 94.0049C62.0879 101.474 62.0388 108.944 61.9897 116.411C61.9848 117.277 62.7112 117.601 63.4326 117.243C64.2595 116.833 64.8141 115.734 64.8215 114.838C64.8755 106.721 64.927 98.601 64.981 90.4836C65.0202 84.6017 65.5331 75.1544 57.9163 73.6772C56.4416 73.3925 54.8097 76.9285 56.5667 77.2696V77.2721Z" fill="#4C3768"/>
<path d="M39.981 34.2617C38.9185 31.3588 37.0438 28.5123 33.9691 27.5087C30.8944 26.5051 27.594 27.6731 25.7536 30.4141C23.9721 33.0716 23.5549 36.7107 24.4653 39.7584C25.5033 43.2355 28.4773 44.6464 31.4931 46.1506C32.7642 46.7862 34.1408 47.4512 34.9653 48.6487C35.6107 49.586 36.0524 50.651 36.4327 51.7184C36.9235 53.0926 37.3873 54.4864 37.8511 55.8704C38.8179 58.7512 39.3749 61.659 41.3355 64.0859C43.2962 66.5127 46.0469 68.3605 48.9572 69.4819C52.2871 70.7653 55.7863 71.0303 59.3199 71.1677C62.8534 71.3051 66.2054 71.3517 69.4886 70.5199C70.3794 70.2941 71.0517 69.2684 71.1965 68.4047C71.3143 67.7053 71.0591 66.7581 70.1536 66.9888C67.5525 67.6489 64.814 67.671 62.1442 67.6194C59.5726 67.5679 56.9224 67.4992 54.3876 67.0403C48.8861 66.044 43.1563 62.5449 41.5858 56.8863C40.7049 53.711 39.7185 50.3026 38.3001 47.3064C37.1714 44.9188 35.4463 43.7262 33.1004 42.5778C30.2907 41.2037 27.5522 39.8688 26.9658 36.4923C26.4897 33.7538 27.2063 30.63 30.5337 30.7134C33.8611 30.7969 36.1751 33.6458 37.2572 36.6027C37.9492 38.4946 40.4914 35.6481 39.981 34.2617Z" fill="#4C3768"/>
<path d="M93.8366 34.2725C94.0869 27.8778 92.6612 21.5763 90.3202 15.6453C89.1571 12.6982 87.5989 10.0996 85.2407 7.95981C82.9709 5.89857 80.3968 4.14897 77.5724 2.94168C74.4806 1.6215 71.0452 1.05712 67.7398 0.551623C64.4345 0.0461285 61.1267 -0.169811 57.8066 0.151644C51.461 0.762654 45.8367 3.56496 41.7314 8.47021C36.8728 14.2785 34.7576 21.6401 32.7675 28.7979C32.5614 29.539 32.9761 30.366 33.8104 30.2138C34.7527 30.0421 35.295 28.9035 35.5183 28.0986C37.0838 22.4621 38.6813 16.5287 42.2026 11.7486C45.7239 6.96845 50.5432 4.46798 56.2902 3.77353C59.3305 3.40546 62.4297 3.59686 65.4529 4.0091C68.4367 4.41644 71.6071 4.87286 74.4511 5.88876C79.7686 7.78804 84.7696 11.6259 87.113 16.8403C89.7681 22.7443 91.26 29.3722 91.0048 35.8454C90.9705 36.719 91.7459 37.0257 92.4477 36.6773C93.2943 36.2577 93.7998 35.1755 93.8366 34.2725Z" fill="#4C3768"/>
<path d="M42.7031 25.2893C40.4775 25.0538 38.1775 24.2783 36.3003 23.0907C35.3065 22.46 34.3028 21.6503 34.2169 20.3841C34.136 19.1964 34.8181 18.0456 35.3261 17.0198C36.3616 14.9341 37.4634 12.8507 38.8989 11.0054C39.7185 9.95029 42.5036 6.06583 44.1133 7.75409C45.3525 9.05463 47.5831 5.87443 46.5476 4.78738C43.9268 2.0366 40.5184 5.49654 38.71 7.47189C36.4524 9.94047 34.7642 12.8581 33.2845 15.8395C31.8048 18.821 30.0896 22.595 32.7986 25.2893C34.8844 27.3604 37.9247 28.6143 40.8104 28.9186C42.3245 29.0781 45.1665 24.0314 43.4292 23.8473L42.7031 25.2893Z" fill="#4C3768"/>
<path d="M49.603 13.1834C47.6424 11.586 46.4596 8.97753 46.8081 6.4427C46.9087 5.70409 46.6731 4.85996 45.7652 5.02682C44.9088 5.18387 44.1653 6.34209 44.0573 7.14205C43.5592 10.7713 44.7787 14.2533 47.6424 16.5845C48.8202 17.5439 50.8913 14.2312 49.6055 13.1834H49.603Z" fill="#4C3768"/>
<path d="M43.8121 25.3518C44.9114 22.1986 46.1187 19.0871 47.4389 16.0173C47.7113 15.3842 47.7407 14.2456 46.8696 14.1057C45.9985 13.9659 45.2354 15.1216 44.9507 15.7866C43.6305 18.8539 42.4232 21.9679 41.3239 25.1211C41.0982 25.7665 40.9902 26.8879 41.8932 27.0326C42.7962 27.1774 43.579 26.0266 43.8121 25.3518Z" fill="#4C3768"/>
<path d="M55.2242 27.5457C53.6317 28.753 52.498 30.6253 52.1814 32.6031C51.9557 34.0239 52.0686 36.0998 53.5703 36.8114C55.3273 37.6433 57.0204 35.5428 57.5946 34.1318C58.2449 32.5246 58.0781 29.7542 55.7714 29.7811C54.2427 29.8008 52.7507 33.3932 54.4218 33.3736C54.6696 33.3049 54.8758 33.3736 55.0377 33.5748C55.5947 33.484 55.6757 33.3834 55.2807 33.2754C55.1531 32.8534 54.9224 32.6939 54.9175 32.1957C54.9101 31.332 55.3371 30.775 55.9947 30.2768C56.6524 29.7787 57.2536 28.5763 56.9714 27.7395C56.6695 26.8414 55.8082 27.1015 55.2242 27.5432V27.5457Z" fill="#4C3768"/>
<path d="M78.9689 31.4457C77.4573 32.6603 76.2648 34.2676 75.5679 36.081C75.0207 37.4993 74.6109 39.8305 76.412 40.5274C79.6904 41.7985 83.0718 35.1289 79.521 33.9805C77.9457 33.4701 76.1372 36.9202 77.558 37.3815C77.6806 37.4208 78.007 37.6515 78.0708 37.6515C78.2254 37.6539 78.537 37.1484 78.461 37.0552C78.4291 37.0135 78.0855 37.0773 77.9898 36.957C77.8573 36.7951 77.9628 36.6478 77.9947 36.481C78.1763 35.5559 79.0474 34.7363 79.7394 34.1793C80.3946 33.6541 81.0032 32.4935 80.7161 31.642C80.429 30.7905 79.5456 30.9843 78.9689 31.4457Z" fill="#4C3768"/>
<path d="M76.3156 27.7673C78.8676 26.3318 81.665 28.3709 83.6183 29.9193C84.8158 30.869 86.8795 27.5489 85.5814 26.5183C82.8968 24.3908 79.5792 22.6608 76.2616 24.5306C75.4715 24.9748 74.8261 26.0128 74.8727 26.9354C74.9145 27.7648 75.5574 28.1943 76.3156 27.7673Z" fill="#4C3768"/>
<path d="M64.5991 43.2009C64.9009 43.5813 65.1684 43.9714 65.3475 44.423C65.4457 44.6708 65.5291 44.9383 65.5733 45.2008C65.642 45.6082 65.404 46.175 65.8727 45.3407C66.3413 44.5064 66.1622 44.9873 65.8211 44.9456C65.5782 44.9162 65.2837 44.9628 65.031 44.9554C64.4642 44.9407 63.9169 44.9505 63.3501 45.0168C61.895 45.191 60.6582 48.7908 62.6851 48.5479C63.6495 48.4325 64.604 48.6779 65.5561 48.3786C66.6407 48.0375 67.4382 47.24 67.9486 46.2486C68.9473 44.3101 68.3412 41.8734 67.0382 40.2318C65.9463 38.8527 63.6568 42.0034 64.604 43.1985L64.5991 43.2009Z" fill="#4C3768"/>
<path d="M52.1212 54.1207C51.9617 52.2583 52.6512 50.6878 54.3051 49.7529C55.0953 49.3063 55.7406 48.2707 55.694 47.3481C55.6523 46.5211 55.0094 46.0868 54.2511 46.5162C51.0587 48.3198 48.9729 52.0055 49.2919 55.6912C49.4907 58.0101 52.2537 55.6299 52.1236 54.1207H52.1212Z" fill="#4C3768"/>
<path d="M51.0517 53.7641C52.7547 56.0904 54.9705 57.8179 57.7802 58.5639C60.7788 59.3614 63.959 58.9565 66.9919 58.5933C68.4471 58.4191 69.6838 54.8193 67.6569 55.0622C64.9773 55.3837 62.1996 55.6879 59.5347 55.072C56.8698 54.4561 55.0024 52.8709 53.4859 50.7999C52.4602 49.3963 50.1462 52.5298 51.0517 53.7666V53.7641Z" fill="#4C3768"/>
<path d="M32.3449 38.4642L33.108 38.9231C33.4147 39.1071 33.8294 38.9967 34.1165 38.8421C34.5141 38.6286 34.8969 38.2041 35.1104 37.8115C35.3238 37.4189 35.5373 36.9134 35.5054 36.4373C35.4809 36.0864 35.3999 35.7184 35.0711 35.5221L34.3079 35.0632C34.0012 34.8792 33.5865 34.9896 33.2994 35.1442C32.9019 35.3577 32.5191 35.7822 32.3056 36.1748C32.0921 36.5674 31.8786 37.0729 31.9105 37.5489C31.9351 37.8998 32.016 38.2679 32.3449 38.4642Z" fill="#4C3768"/>
<path d="M60.6983 39.8898C63.5325 38.2654 68.1727 37.2544 69.834 41.0235C70.3591 42.2136 72.3271 40.7732 71.8535 39.696C71.0069 37.7746 69.1567 36.5796 67.1102 36.2728C64.5607 35.89 62.0676 36.9354 59.9057 38.1746C58.6861 38.8739 59.3094 40.6873 60.6983 39.8898Z" fill="#4C3768"/>
<path d="M56.8635 36.9969C55.4451 37.441 54.4096 39.1047 54.92 40.5648C55.4304 42.0248 57.0868 42.6015 58.5198 42.2162C59.9529 41.831 61.727 40.3636 61.4546 38.6557C61.1823 36.9478 59.1038 36.4325 57.7027 36.7736C57.1138 36.9159 56.5567 37.3625 56.4758 38.0005C56.4095 38.5232 56.8193 39.0606 57.396 38.9207C57.9726 38.7808 58.5566 38.7906 59.0253 39.1833C59.5431 39.6176 59.0572 40.0004 58.5517 40.1403C58.0462 40.2801 57.5162 40.1182 57.1874 39.7305C57.077 39.598 56.9714 39.4385 56.9592 39.2618C56.942 38.9968 56.9346 39.0532 57.1113 38.9968C58.3309 38.614 58.3922 36.5184 56.8635 36.9969Z" fill="#4C3768"/>
<path d="M72.2743 39.0024C70.7235 39.0637 69.4499 40.5581 69.2733 42.0378C69.0819 43.6254 70.1125 45.0168 71.7983 44.8008C73.354 44.6021 74.6791 43.1273 74.7282 41.5691C74.7773 40.0109 73.3516 38.7644 71.8204 39.1692C71.2339 39.3238 70.6744 39.7508 70.5934 40.3962C70.5296 40.909 70.937 41.4685 71.5136 41.3164C72.4068 41.0808 73.0424 42.5261 72.105 42.6537C71.2756 42.7666 71.121 41.1814 71.9676 41.1495C73.1602 41.1029 73.8031 38.941 72.2743 39.0024Z" fill="#4C3768"/>
<path d="M51.1996 24.738C54.3553 23.8767 57.6287 24.1491 60.5905 25.5404C62.0702 26.2349 63.9768 22.8093 62.5536 22.1394C59.1894 20.5591 55.4521 20.2254 51.8646 21.2069C50.9738 21.4499 50.3039 22.4461 50.1567 23.3221C50.0414 24.0068 50.2941 24.9859 51.1996 24.738Z" fill="#4C3768"/>
<path d="M46.8554 12.87L43.9511 6.2771L41.4823 6.53849L37.7938 10.4885L33.9019 17.1395L32.8273 22.5416L41.1338 27.5953L45.926 17.459L46.8554 12.87Z" fill="#4C3768"/>
</svg>
