<svg width="20" height="21" viewBox="0 0 20 21" fill="none" xmlns="http://www.w3.org/2000/svg">
<path d="M15 1.25H5C3.93913 1.25 2.92172 1.67143 2.17157 2.42157C1.42143 3.17172 1 4.18913 1 5.25V15.25C1 16.3109 1.42143 17.3283 2.17157 18.0784C2.92172 18.8286 3.93913 19.25 5 19.25H15C16.0609 19.25 17.0783 18.8286 17.8284 18.0784C18.5786 17.3283 19 16.3109 19 15.25V5.25C19 4.18913 18.5786 3.17172 17.8284 2.42157C17.0783 1.67143 16.0609 1.25 15 1.25Z" stroke="white" stroke-width="2" stroke-linejoin="round"/>
<path d="M9.99982 14.25C11.0607 14.25 12.0781 13.8286 12.8282 13.0784C13.5784 12.3283 13.9998 11.3109 13.9998 10.25C13.9998 9.18913 13.5784 8.17172 12.8282 7.42157C12.0781 6.67143 11.0607 6.25 9.99982 6.25C8.93895 6.25 7.92154 6.67143 7.17139 7.42157C6.42124 8.17172 5.99982 9.18913 5.99982 10.25C5.99982 11.3109 6.42124 12.3283 7.17139 13.0784C7.92154 13.8286 8.93895 14.25 9.99982 14.25Z" stroke="white" stroke-width="2" stroke-linejoin="round"/>
<path d="M15.5 5.75C15.7652 5.75 16.0196 5.64464 16.2071 5.45711C16.3946 5.26957 16.5 5.01522 16.5 4.75C16.5 4.48478 16.3946 4.23043 16.2071 4.04289C16.0196 3.85536 15.7652 3.75 15.5 3.75C15.2348 3.75 14.9804 3.85536 14.7929 4.04289C14.6054 4.23043 14.5 4.48478 14.5 4.75C14.5 5.01522 14.6054 5.26957 14.7929 5.45711C14.9804 5.64464 15.2348 5.75 15.5 5.75Z" fill="white"/>
</svg>
