<svg width="96" height="27" viewBox="0 0 96 27" fill="none" xmlns="http://www.w3.org/2000/svg">
<path fill-rule="evenodd" clip-rule="evenodd" d="M72.993 4.8928C72.993 5.94572 73.6261 6.58438 74.3681 7.00519C74.6256 7.15121 74.91 7.20707 75.179 7.20707H75.238C75.9672 7.20707 76.6272 6.77502 76.9188 6.10668L77.94 3.76654C78.0332 3.55293 78.1639 3.41725 78.3087 3.36674C78.6286 3.2551 79.0614 3.18001 79.5324 3.18001C80.8393 3.18001 81.6551 3.47558 82.1572 4.02925C82.6673 4.59174 82.9286 5.50102 82.9286 6.90632V8.49298C81.9958 8.05607 80.7358 7.76088 79.3673 7.76088C77.253 7.76088 75.5074 8.25079 74.2811 9.18048C73.0432 10.119 72.3658 11.4833 72.3658 13.145C72.3658 14.7603 73.0294 15.9689 74.108 16.7619C75.1721 17.5444 76.6102 17.9019 78.146 17.9019C80.6269 17.9019 82.4727 16.6255 83.5469 15.0824C83.6985 15.6476 83.8731 16.2334 84.0578 16.7279C84.3033 17.3852 84.9471 17.7453 85.6082 17.7181C86.7036 17.6729 87.972 17.5468 88.9568 17.3458C89.5789 17.2188 89.9574 16.6444 89.921 16.0489C89.8788 15.3611 89.3087 14.8247 88.6195 14.8247H88.2334C87.8039 14.8247 87.5045 14.5626 87.4783 14.2376C87.4649 14.0709 87.4581 13.8926 87.4581 13.7061V6.8073C87.4581 4.52148 86.781 2.88199 85.4778 1.82678C84.1904 0.784373 82.3572 0.366943 80.1596 0.366943C78.1756 0.366943 76.4059 0.832564 75.1196 1.62178C73.8353 2.40976 72.993 3.55123 72.993 4.8928ZM79.2353 14.7587C78.5146 14.7587 77.8895 14.6162 77.4549 14.3162C77.0414 14.0306 76.7633 13.5781 76.7633 12.8479C76.7633 12.1339 77.0418 11.564 77.6151 11.1585C78.2058 10.7407 79.1432 10.4749 80.4896 10.4749C81.2661 10.4749 82.0024 10.5738 82.6669 10.7397C82.8143 10.7766 82.9286 10.918 82.9286 11.0984C82.9286 13.3617 80.8939 14.7587 79.2353 14.7587Z" fill="#74549F"/>
<path d="M64.1031 13.7271C64.361 19.5285 68.9245 25.5088 79.4276 26.1319C86.7307 26.5651 92.502 22.8512 95.4308 20.0461C96.2344 19.2764 96.1624 18.0184 95.3756 17.2316C94.7368 16.5928 93.6467 16.7389 93.0658 17.4307C90.9269 19.978 86.3981 23.1931 79.4276 22.6476C71.3485 22.0153 68.9045 16.5666 68.6318 13.5833V7.10053C68.6318 4.76371 68.1372 2.9753 67.0709 1.77004C65.9964 0.555591 64.4018 0 62.3565 0C59.7505 0 57.6122 1.46708 56.7476 3.40591C56.3658 2.36706 55.747 1.55726 54.9041 0.987951C53.907 0.314515 52.6297 0 51.1336 0C48.7662 0 46.8891 1.27563 45.9355 2.93096C45.8741 2.21053 45.7575 1.59911 45.5563 1.08671C45.3124 0.465074 44.6791 0.192655 44.1024 0.212843C42.9871 0.25188 41.5054 0.367258 40.4147 0.543851C39.6784 0.663058 39.2546 1.36419 39.3719 2.05474C39.4851 2.7214 40.0626 3.20917 40.7388 3.20917H40.987C41.4143 3.20917 41.7363 3.48228 41.7766 3.83533C41.8051 4.08464 41.8215 4.34478 41.8215 4.59187V13.4246C41.8215 14.0282 41.3542 14.4754 40.8247 14.4239C38.9134 14.2379 37.2779 13.4962 36.0972 12.7463C35.5076 12.3718 35.0358 11.998 34.7043 11.6963C34.5663 11.5707 34.4545 11.4592 34.3695 11.3671L34.3714 11.3663C34.6048 11.2682 34.9556 11.154 35.3778 11.0328C36.2174 10.7916 37.287 10.5369 38.1406 10.3396C38.9104 10.1616 39.4207 9.43222 39.3227 8.64765C39.2186 7.81479 38.4602 7.20469 37.611 7.33895C36.5508 7.50658 35.0849 7.79273 33.7801 8.21354C33.1282 8.42381 32.5051 8.6713 31.9892 8.96059C31.481 9.24561 31.0366 9.59334 30.7938 10.0229C30.4896 10.561 30.507 11.1644 30.6825 11.7363C30.8573 12.3057 31.1981 12.8786 31.5984 13.4042C32.3978 14.4538 33.4955 15.3929 34.2237 15.8349C35.7577 16.7663 38.2326 17.2501 40.7354 17.4618C43.2547 17.6748 45.8699 17.6169 47.7325 17.4235C48.3438 17.36 48.8076 16.8746 48.8784 16.2801C48.9423 15.7433 48.6687 15.1811 48.1099 14.9823C47.8449 14.888 47.5486 14.7978 47.2426 14.7144C46.7173 14.5712 46.351 14.1134 46.351 13.597V8.15681C46.351 6.72153 46.753 5.57916 47.3865 4.80319C48.0165 4.03151 48.8873 3.60528 49.8792 3.60528C50.9384 3.60528 51.6799 3.92288 52.1735 4.57749C52.6841 5.25467 52.9784 6.35461 52.9784 8.02477V13.63C52.9784 14.1466 52.6121 14.6044 52.0872 14.7463C51.7854 14.8279 51.4958 14.9151 51.2421 15.0039C50.7097 15.1902 50.4507 15.7229 50.5111 16.2302C50.5862 16.8615 51.1216 17.3369 51.7574 17.3369H58.8486C59.472 17.3369 60 16.8774 60.0862 16.26C60.1625 15.7133 59.8676 15.1539 59.3105 14.9667C59.0382 14.8751 58.733 14.7841 58.4155 14.7006C57.8645 14.5556 57.4749 14.0809 57.4749 13.5488V7.95875C57.4749 5.15034 59.1641 3.60528 61.0692 3.60528C62.1088 3.60528 62.8416 3.92094 63.3318 4.57387C63.8389 5.24945 64.1338 6.3468 64.1353 8.01187C64.1353 8.01681 64.1353 8.01999 64.1353 8.0233L64.1352 8.02831C64.1328 8.16366 64.1072 9.65217 64.0949 11.2125C64.0888 11.9925 64.0861 12.7918 64.0913 13.4496C64.092 13.5431 64.0963 13.636 64.1031 13.7271Z" fill="#74549F"/>
<path fill-rule="evenodd" clip-rule="evenodd" d="M30.2288 0.366943C27.3037 0.366943 25.0787 1.34776 23.5878 2.97387C22.1015 4.59482 21.3788 6.81944 21.3788 9.24994C21.3788 11.7095 22.2082 13.9013 23.7437 15.4802C25.281 17.061 27.5006 18.0009 30.2288 18.0009C32.9248 18.0009 35.1514 17.0605 36.7041 15.4817C38.2556 13.9043 39.1118 11.7126 39.1118 9.24994C39.1118 6.8152 38.3535 4.59098 36.8473 2.97192C35.3372 1.34859 33.1058 0.366943 30.2288 0.366943ZM30.1958 3.27904C31.5303 3.27904 32.5566 3.83284 33.2628 4.83575C33.9799 5.8542 34.3842 7.36326 34.3842 9.28295C34.3842 11.1044 33.9127 12.5641 33.1589 13.5589C32.4097 14.5477 31.3757 15.0888 30.1958 15.0888C28.9851 15.0888 27.9874 14.5418 27.2801 13.5508C26.5653 12.5494 26.1394 11.0797 26.1394 9.24994C26.1394 7.36182 26.5278 5.85893 27.2227 4.83943C27.9066 3.83608 28.9 3.27904 30.1958 3.27904Z" fill="#B2A1CB"/>
<path fill-rule="evenodd" clip-rule="evenodd" d="M30.7318 11.8295C30.4939 11.1927 30.4535 10.4739 30.8785 9.72202C31.0564 9.40725 31.3542 9.10246 31.7059 8.81574C32.062 8.52534 32.4957 8.23573 32.9695 7.95616C33.9174 7.39691 35.0511 6.86336 36.106 6.43167C37.033 6.05235 37.9483 6.20092 38.6294 6.71465C39.305 7.22427 39.725 8.07277 39.725 9.05225C39.725 9.61216 39.3378 10.1051 38.7771 10.2156C38.4749 10.2751 38.1302 10.3402 37.7648 10.4092L37.7645 10.4093L37.7643 10.4093C37.2277 10.5107 36.6463 10.6205 36.0893 10.7335C35.6247 10.8277 35.1865 10.9223 34.8202 11.013C34.4469 11.1055 34.1709 11.1885 34.0172 11.2561C34.0108 11.2589 33.9965 11.2667 33.9307 11.3377L33.9192 11.3502C33.8649 11.4093 33.7642 11.5189 33.6214 11.5906C33.5632 11.6198 33.4978 11.6505 33.4352 11.6798L33.3976 11.6974C33.3213 11.7333 33.2483 11.7681 33.181 11.8035C33.113 11.8393 33.0584 11.8717 33.0178 11.9008C33.013 11.9043 33.0086 11.9075 33.0046 11.9106C32.9382 12.295 32.963 12.6795 32.9961 13.039C33.0111 13.2014 32.9965 13.3691 32.9255 13.5164C32.8495 13.6738 32.7115 13.7977 32.5257 13.8368C32.3524 13.8731 32.1892 13.8251 32.0624 13.754C31.9335 13.6818 31.8188 13.5742 31.7218 13.4463L31.7199 13.4437C31.3801 12.9959 30.9613 12.4439 30.7318 11.8295Z" fill="#74549F"/>
<path d="M10.6297 14.9273C13.9636 14.9273 15.35 11.9896 15.35 8.85373C15.35 5.6519 14.0956 3.47332 11.0588 3.47332C9.24335 3.47332 6.70169 4.95871 6.70169 8.12754V12.5625C6.70169 12.8353 6.77226 13.1072 6.94024 13.3222C7.82886 14.4593 9.24305 14.9273 10.6297 14.9273ZM9.56394 22.6352C9.95886 22.7518 10.2014 23.1394 10.1559 23.5487C10.1062 23.9962 9.7279 24.3348 9.27761 24.3348H1.2655C0.808372 24.3348 0.424059 23.9917 0.372445 23.5375C0.32814 23.1476 0.541577 22.7723 0.913683 22.6478C1.1511 22.5683 1.41418 22.4902 1.69104 22.4175C2.38473 22.2356 2.90569 21.6306 2.90569 20.9134V5.22278C2.90569 4.86472 2.87927 4.48023 2.82642 4.12847C2.74686 3.59883 2.26135 3.27527 1.72577 3.27527H1.43831C0.951365 3.27527 0.535437 2.92402 0.453915 2.44395C0.366108 1.92686 0.694517 1.43364 1.21258 1.35178C2.24621 1.18844 3.67118 1.04016 4.82152 0.986216C5.33295 0.962235 5.82399 1.22721 5.99256 1.71065C6.21341 2.34404 6.32854 3.11777 6.33796 4.04208C6.33866 4.11078 6.39428 4.16651 6.46299 4.16651C6.50841 4.16651 6.55025 4.14154 6.57243 4.1019C7.69738 2.09223 9.50265 0.799624 12.1481 0.799624C17.1324 0.799624 19.245 4.26553 19.245 8.88674C19.245 12.9468 16.6703 17.568 11.554 17.568C8.86069 17.568 7.53907 16.4516 6.89923 15.567C6.87851 15.5384 6.84569 15.5215 6.81033 15.5215C6.75033 15.5215 6.70169 15.5701 6.70169 15.6301V20.7203C6.70169 21.4779 7.28037 22.1067 8.02345 22.2542C8.59826 22.3684 9.13259 22.5079 9.56394 22.6352Z" fill="#74549F"/>
<path fill-rule="evenodd" clip-rule="evenodd" d="M13.9364 12.8607C14.6457 11.8141 14.9832 10.3753 14.9832 8.85373C14.9832 7.29135 14.6756 6.036 14.0475 5.17979C13.4335 4.34285 12.4786 3.84009 11.0588 3.84009C9.40453 3.84009 7.06844 5.2003 7.06844 8.12754V12.5625C7.06844 12.7756 7.12378 12.9614 7.22922 13.0964C8.02719 14.1175 9.31645 14.5606 10.6297 14.5606C12.1701 14.5606 13.2385 13.8905 13.9364 12.8607ZM9.2776 24.7016H1.26549C0.621832 24.7016 0.0806976 24.2184 0.00802181 23.5789C-0.0537031 23.0357 0.243772 22.4852 0.797265 22.3C1.0431 22.2177 1.31402 22.1372 1.59799 22.0628C2.14956 21.9181 2.53892 21.4449 2.53892 20.9134V5.22278C2.53892 4.88135 2.51363 4.51516 2.46372 4.18296C2.41778 3.87712 2.12858 3.64203 1.72576 3.64203H1.4383C0.772495 3.64203 0.20379 3.16176 0.0923233 2.50535C-0.0270958 1.8021 0.420696 1.1056 1.15533 0.98951C2.20226 0.824068 3.64061 0.674425 4.80434 0.619856C5.44171 0.589969 6.10579 0.921441 6.33887 1.5899C6.50847 2.07632 6.6173 2.63079 6.66929 3.25361C7.8675 1.52436 9.66222 0.432861 12.1481 0.432861C14.7334 0.432861 16.6209 1.3367 17.8524 2.88161C19.0733 4.41312 19.6117 6.5272 19.6117 8.88674C19.6117 10.9878 18.947 13.2394 17.6084 14.974C16.2627 16.7178 14.2366 17.9348 11.554 17.9348C9.25547 17.9348 7.88018 17.1506 7.06844 16.3315V20.7203C7.06844 21.2821 7.50222 21.7768 8.09488 21.8945C8.68255 22.0112 9.22783 22.1536 9.66777 22.2834C10.243 22.4532 10.5844 23.0137 10.5204 23.5892C10.4501 24.2225 9.91478 24.7016 9.2776 24.7016ZM6.70169 20.7203C6.70169 21.4779 7.28037 22.1067 8.02345 22.2542C8.59826 22.3684 9.13259 22.5079 9.56394 22.6352C9.95886 22.7518 10.2014 23.1394 10.1559 23.5487C10.1062 23.9962 9.7279 24.3348 9.27761 24.3348H1.2655C0.808372 24.3348 0.424059 23.9917 0.372445 23.5375C0.32814 23.1476 0.541577 22.7723 0.913683 22.6478C1.1511 22.5683 1.41418 22.4902 1.69104 22.4175C2.38473 22.2356 2.90569 21.6306 2.90569 20.9134V5.22278C2.90569 4.86472 2.87927 4.48023 2.82642 4.12847C2.74686 3.59883 2.26135 3.27527 1.72577 3.27527H1.43831C0.951365 3.27527 0.535437 2.92402 0.453915 2.44395C0.366108 1.92686 0.694517 1.43364 1.21258 1.35178C2.24621 1.18844 3.67118 1.04016 4.82152 0.986216C5.33295 0.962235 5.82399 1.22721 5.99256 1.71065C6.19244 2.2839 6.30572 2.97212 6.33241 3.78287C6.333 3.8008 6.33355 3.81879 6.33406 3.83684C6.33529 3.88091 6.33627 3.92534 6.337 3.97012C6.33739 3.994 6.33772 4.01799 6.33796 4.04208C6.33866 4.11078 6.39428 4.16651 6.46299 4.16651C6.50841 4.16651 6.55025 4.14154 6.57243 4.1019C6.58416 4.08097 6.59594 4.06011 6.60781 4.03933C6.62984 4.00076 6.65212 3.96246 6.67466 3.92443C6.68374 3.90912 6.69286 3.89384 6.70202 3.87862C7.83411 1.99699 9.60197 0.799624 12.1481 0.799624C17.1324 0.799624 19.245 4.26553 19.245 8.88674C19.245 12.9468 16.6703 17.568 11.554 17.568C9.07879 17.568 7.76211 16.6251 7.06844 15.7858C7.05852 15.7738 7.04873 15.7618 7.03907 15.7498C7.00656 15.7096 6.97547 15.6697 6.94575 15.6301C6.92985 15.609 6.91435 15.5879 6.89923 15.567C6.87851 15.5384 6.84569 15.5215 6.81033 15.5215C6.75033 15.5215 6.70169 15.5701 6.70169 15.6301V20.7203ZM15.35 8.85373C15.35 11.9896 13.9636 14.9273 10.6297 14.9273C9.24305 14.9273 7.82886 14.4593 6.94024 13.3222C6.77226 13.1072 6.70169 12.8353 6.70169 12.5625V8.12754C6.70169 4.95871 9.24335 3.47332 11.0588 3.47332C14.0956 3.47332 15.35 5.6519 15.35 8.85373Z" fill="#74549F"/>
</svg>
