<svg width="776" height="251" viewBox="0 0 776 251" fill="none" xmlns="http://www.w3.org/2000/svg">
<path d="M4.48241 217.892C3.04197 217.073 1.21056 217.577 0.391848 219.018C-0.426865 220.458 0.0771463 222.289 1.51759 223.108L4.48241 217.892ZM372 191.5L371.339 194.426L372 191.5ZM740.5 198L739.314 195.244L740.5 198ZM291.161 209.204L290.873 212.19L291.161 209.204ZM331.785 202.464L330.555 199.728L331.785 202.464ZM1.51759 223.108C38.3656 244.052 130.999 271.118 225.443 226.146L222.863 220.729C130.639 264.644 40.1107 238.142 4.48241 217.892L1.51759 223.108ZM269.351 211.225C275.142 211.103 282.198 211.352 290.873 212.19L291.45 206.218C282.582 205.361 275.287 205.099 269.225 205.226L269.351 211.225ZM333.016 205.2C340.38 201.888 348.238 198.739 355.227 196.653C358.721 195.61 361.942 194.85 364.74 194.459C367.576 194.063 369.783 194.075 371.339 194.426L372.661 188.574C370.093 187.994 367.067 188.076 363.91 188.517C360.715 188.963 357.182 189.808 353.511 190.904C346.168 193.096 338.043 196.36 330.555 199.728L333.016 205.2ZM371.339 194.426C374.92 195.235 376.891 196.197 378.328 197.188C379.073 197.702 379.732 198.264 380.46 198.924C381.147 199.548 382.007 200.368 382.923 201.153C386.93 204.587 392.828 208.121 408.375 211.434L409.625 205.566C394.672 202.379 389.82 199.163 386.827 196.597C385.993 195.882 385.337 195.249 384.493 194.482C383.689 193.752 382.802 192.985 381.734 192.249C379.546 190.74 376.83 189.515 372.661 188.574L371.339 194.426ZM408.375 211.434C423.673 214.694 475.355 225.608 538.968 228.933C602.519 232.255 678.312 228.024 741.686 200.756L739.314 195.244C677.188 221.976 602.481 226.245 539.282 222.942C476.145 219.642 424.827 208.806 409.625 205.566L408.375 211.434ZM741.686 200.756C782.985 182.985 821.386 160.074 844.979 127.895C868.725 95.5098 877.221 54.082 859.348 0.0577436L853.652 1.94226C870.979 54.318 862.622 93.6856 840.141 124.348C817.507 155.217 780.308 177.605 739.314 195.244L741.686 200.756ZM290.873 212.19C305.287 213.584 319.823 211.134 333.016 205.2L330.555 199.728C318.299 205.24 304.81 207.509 291.45 206.218L290.873 212.19ZM225.443 226.146C240.261 219.09 254.065 211.547 269.351 211.225L269.225 205.226C252.326 205.582 237.109 213.945 222.863 220.729L225.443 226.146Z" fill="#4C3768"/>
</svg>
