<svg width="94" height="172" viewBox="0 0 94 172" fill="none" xmlns="http://www.w3.org/2000/svg">
<g clip-path="url(#clip0_1_1625)">
<path d="M73.4365 0.992151C60.6587 16.6663 47.8341 32.4707 37.5551 49.942C32.5141 58.5107 28.2849 67.4869 24.637 76.727C22.8464 81.2568 21.0291 85.7767 18.5637 89.9892C16.2287 93.9779 13.4793 97.726 11.3614 101.838C8.91273 106.589 7.27583 111.74 7.50634 117.138C7.72347 122.229 9.40714 127.167 12.3769 131.306C13.6664 133.103 16.6262 129.111 15.4837 127.521C12.878 123.89 11.3113 119.61 11.1175 115.134C10.9238 110.657 12.27 106.458 14.3813 102.56C16.4926 98.6614 19.2218 94.9032 21.4734 90.9713C23.725 87.0394 25.6325 82.5296 27.3662 78.1634C30.7937 69.5246 34.5953 61.1264 39.2287 53.0555C43.9223 44.8743 49.2438 37.0707 54.8527 29.4942C61.397 20.6549 68.3354 12.1164 75.2839 3.59448C75.8985 2.8395 76.6134 1.31285 75.9152 0.400864C75.217 -0.511121 73.9643 0.347414 73.4398 0.992151H73.4365Z" fill="#4C3768"/>
<path d="M41.5271 117.98C33.2624 126.803 28.5488 138.806 28.8528 150.912C29.0065 157.139 30.4563 163.309 33.1087 168.941C33.6432 170.077 34.2379 171.246 35.4672 171.734C36.6965 172.222 38.0796 171.944 39.2187 171.32C41.9146 169.843 42.9669 166.673 43.635 163.877C45.342 156.738 46.8987 147.337 45.1583 140.222C44.8743 139.066 43.6016 139.427 42.9267 139.971C42.0448 140.683 41.4034 142.073 41.6807 143.208C42.2586 148.323 41.6173 155.595 40.869 160.843C40.6953 162.063 40.4714 163.272 40.1942 164.468C40.0171 165.236 39.8668 166.696 39.1519 167.187C36.9772 168.671 35.6309 163.84 35.1499 162.557C31.699 153.361 31.5186 143.078 35.0062 133.865C36.887 128.901 39.7565 124.448 43.3778 120.583C44.0359 119.881 44.6806 118.264 44.0091 117.389C43.2775 116.43 42.095 117.379 41.5337 117.98H41.5271Z" fill="#4C3768"/>
<path d="M32.474 108.503C30.4229 116.701 23.0635 122.406 21.1293 130.578C20.1138 134.87 21.7674 139.073 23.3074 143.025C24.9309 147.197 26.8718 151.246 29.0733 155.141C30.1155 156.988 33.1488 153.066 32.18 151.356C30.1189 147.708 28.3049 143.94 26.7816 140.035C25.2917 136.213 23.4343 132.104 25.2182 128.082C26.7549 124.615 29.2637 121.551 31.248 118.331C33.2323 115.111 35.0195 111.449 35.9816 107.608C36.2188 106.655 35.7344 105.61 34.6487 105.8C33.4695 106.007 32.7246 107.477 32.4673 108.499L32.474 108.503Z" fill="#4C3768"/>
<path d="M20.6082 101.15C20.0269 105.52 19.0013 109.796 17.4413 113.921C15.8812 118.047 13.3591 121.892 12.3936 126.235C11.966 128.152 11.8324 130.327 12.574 132.181C13.3156 134.035 14.8122 135.659 16.0349 137.262C19.0548 141.221 23.3709 145.366 26.3908 149.325C27.7437 151.099 29.3839 146.903 28.198 145.353C25.3819 141.658 22.5624 137.964 19.7463 134.269C18.5704 132.726 17.0905 131.192 16.1919 129.465C15.2498 127.648 15.7276 125.54 16.4124 123.719C17.8422 119.911 19.9 116.39 21.2295 112.525C22.5591 108.66 23.5646 104.431 24.1225 100.258C24.2494 99.3094 23.9521 98.2471 22.7896 98.4509C21.7006 98.6447 20.7451 100.135 20.6082 101.15Z" fill="#4C3768"/>
<path d="M0.270575 59.6198C4.39622 65.1017 6.23689 71.7161 7.80698 78.2937C9.6109 85.8569 11.1008 93.4902 12.2968 101.17C12.4838 102.369 13.9136 101.915 14.5283 101.421C15.4737 100.656 15.9581 99.3663 15.7743 98.1837C14.545 90.2999 13.015 82.4662 11.1409 74.7126C9.53741 68.0715 7.54307 61.3702 3.38068 55.8382C2.0411 54.0577 -0.901977 58.063 0.273916 59.6231L0.270575 59.6198Z" fill="#4C3768"/>
<path d="M46.7484 35.4873C37.368 30.0755 34.1076 18.978 28.9263 10.1622C27.8439 8.3215 24.824 12.2534 25.8195 13.9471C31.1745 23.0602 34.5418 34.2346 44.243 39.8267C46.0168 40.8523 48.5323 36.5162 46.7484 35.4873Z" fill="#4C3768"/>
<path d="M81.7747 52.0566C76.5366 57.0742 72.6749 63.7287 73.5668 71.2083C74.4153 78.3204 78.698 84.5473 79.2859 91.6929C79.5298 94.6526 83.0575 91.616 82.8971 89.6885C82.376 83.3614 79.2559 77.8461 77.7058 71.7829C76.9776 68.9333 76.7103 65.9402 77.639 63.104C78.5677 60.2678 80.5487 57.6588 82.7568 55.5442C83.5452 54.7892 84.3904 53.453 84.0029 52.3071C83.6454 51.2415 82.4695 51.3885 81.7713 52.0566H81.7747Z" fill="#4C3768"/>
<path d="M79.0554 82.6532C86.3847 86.1609 91.8499 94.5792 88.7499 102.754C88.2087 104.183 87.1697 106.395 85.7634 107.17C85.005 107.588 84.818 107.387 84.4672 106.639C84.2133 106.098 84.0363 105.516 83.8792 104.945C83.5018 103.595 83.3882 102.259 83.3949 100.863C83.4082 98.3274 83.622 95.8486 83.318 93.3164C83.318 89.3846 82.4127 88.1285 81.7981 85.5663C81.5208 84.4071 80.2346 84.7745 79.5665 85.3157C78.6813 86.0306 78.0632 85.7166 78.3372 86.8557C79.1122 90.0927 79.8805 95.0435 79.9139 98.3875C79.9474 101.718 79.4997 104.965 80.4785 108.219C81.307 110.968 82.857 113.193 85.8602 111.319C88.1118 109.916 89.9024 107.337 91.0582 104.999C93.4367 100.181 93.9913 94.4422 92.0036 89.3846C90.0159 84.3269 86.2845 80.5687 81.5609 78.3071C79.6801 77.4085 77.2381 81.778 79.0554 82.6466V82.6532Z" fill="#4C3768"/>
<path d="M80.2046 131.653C81.2669 135.041 83.6153 138.926 86.9993 140.439C91.0147 142.233 94.2986 138.572 93.9144 134.573C93.4901 130.16 91.7797 125.824 90.4402 121.631C89.0572 117.312 87.8044 112.956 87.751 108.389C87.7376 107.29 86.8457 106.863 85.9103 107.327C84.8714 107.841 84.1264 109.261 84.1398 110.397C84.2233 117.426 86.8791 123.91 88.8434 130.554C89.3177 132.158 89.7487 133.775 90.0794 135.415C90.1495 135.766 90.1261 136.601 90.3232 136.831C90.2965 137.245 90.4335 137.209 90.7408 136.721C91.2219 136.407 91.2954 136.293 90.958 136.377C90.9112 136.333 90.2731 136.343 90.1596 136.32C89.7854 136.24 89.4413 136.083 89.1073 135.903C86.4415 134.463 84.5674 131.48 83.6855 128.667C82.9238 126.238 79.6433 129.856 80.2079 131.657L80.2046 131.653Z" fill="#4C3768"/>
<path d="M51.178 121.421C49.2806 119.978 46.705 120.636 44.9512 122.002C42.7096 123.749 41.6406 126.519 41.3433 129.278C40.742 134.89 41.026 141.047 42.3422 146.539C43.214 150.167 46.0235 159.033 51.2115 157.713C53.8205 157.052 55.5576 154.049 56.4195 151.71C57.4216 149.001 57.582 146.085 57.2112 143.238C56.7435 139.64 55.6478 136.133 54.7258 132.632C53.7403 128.89 52.7548 125.149 51.7693 121.411C51.4687 120.265 50.2226 120.606 49.5378 121.16C48.6693 121.862 47.9945 123.272 48.2918 124.397C49.8685 130.38 51.5689 136.347 53.0054 142.366C53.6635 145.112 54.2247 148.132 53.4129 150.912C53.1858 151.693 52.7515 153.11 51.8161 153.267C50.7371 153.447 49.6848 152.041 49.1703 151.326C46.0302 146.96 45.0881 141.354 44.8409 136.099C44.7207 133.547 44.6305 130.915 44.8576 128.366C44.9378 127.477 44.9879 126.215 45.7529 125.613C46.6515 124.908 47.8341 125.126 48.6659 125.757C50.2293 126.946 52.8517 122.694 51.1714 121.417L51.178 121.421Z" fill="#4C3768"/>
<path d="M52.4375 122.714C52.1836 120.876 50.3329 106.923 54.4853 108.489C56.7435 109.345 57.5352 112.719 57.9695 114.787C58.5942 117.766 59.0084 120.803 59.5129 123.803C60.5585 130.023 61.6909 136.233 62.6297 142.47C62.8635 144.024 63.0706 145.59 63.1608 147.16C63.1976 147.812 63.4648 149.308 63.0071 149.883C62.4559 150.578 60.946 150.274 60.2411 150C58.8514 149.462 57.9194 148.253 57.1611 147.03C56.0219 145.196 53.0187 149.145 54.0543 150.815C55.4574 153.077 57.6522 155.011 60.4716 154.84C63.2911 154.67 65.2621 152.632 66.1707 150.18C67.1495 147.534 66.8021 144.645 66.4513 141.912C66.0137 138.481 65.3857 135.071 64.8144 131.66C63.7053 125.052 62.8268 118.354 61.4504 111.797C60.9059 109.201 59.9538 106.365 57.7891 104.661C55.6244 102.957 53.1991 103.889 51.5322 105.667C46.7117 110.805 48.0914 119.403 48.9632 125.697C49.1303 126.903 50.5935 126.435 51.1948 125.947C52.1535 125.172 52.6078 123.9 52.4408 122.71L52.4375 122.714Z" fill="#4C3768"/>
<path d="M59.4193 105.623C59.0184 104.294 58.5875 102.937 58.4105 101.554C58.3136 100.796 58.0697 99.1323 58.6142 98.5277C59.1587 97.923 60.5685 98.4742 61.1397 98.8484C62.0116 99.4196 62.6029 100.318 63.0806 101.227C64.32 103.585 65.0182 106.291 65.7264 108.847C66.5047 111.66 67.2464 114.482 68.0047 117.299C69.4712 122.757 70.9411 128.219 72.4076 133.678C72.7684 135.02 73.1525 136.36 73.4899 137.71C73.7371 138.698 74.1681 140.045 73.6536 141.007C72.5345 143.108 68.7864 143.175 66.7954 143.212C64.8044 143.248 62.947 147.838 65.0716 147.795C70.313 147.695 75.9085 145.771 77.2515 140.048C77.9196 137.205 76.874 134.356 76.139 131.63C75.3473 128.69 74.5589 125.75 73.7672 122.811C72.137 116.751 70.597 110.661 68.8599 104.631C67.7341 100.722 65.8867 93.1025 60.4015 93.7406C57.572 94.0713 55.7981 96.7438 55.1099 99.296C54.2648 102.433 55.0298 105.58 55.9417 108.606C56.6767 111.035 59.9638 107.42 59.4193 105.616V105.623Z" fill="#4C3768"/>
<path d="M55.3471 106.782C55.6611 108.022 56.1188 109.188 56.6667 110.34C56.8504 110.728 57.4517 110.781 57.7958 110.701C58.3036 110.584 58.8314 110.146 59.142 109.749C59.8603 108.83 60.2946 107.654 59.7734 106.555C59.3558 105.677 59.0585 104.735 58.8214 103.793C58.5407 102.673 57.2479 102.951 56.5898 103.542C55.7413 104.307 55.0465 105.607 55.3438 106.779L55.3471 106.782Z" fill="#4C3768"/>
<path d="M66.4747 98.1169C66.3043 97.6425 66.0638 96.9744 66.2241 96.4566C66.2809 96.2795 65.9536 96.5334 66.3644 96.49C66.8254 96.4432 67.253 96.4599 67.704 96.6136C69.4111 97.1948 70.8041 98.7917 71.7328 100.268C72.7884 101.949 73.3497 103.916 74.0178 105.767C74.7694 107.858 75.521 109.949 76.2727 112.041C77.6757 115.949 79.2725 119.854 80.1478 123.923C80.5319 125.707 80.9929 127.955 80.2714 129.716C79.5498 131.476 77.4653 131.409 75.9386 131.971C74.8095 132.381 73.9576 133.484 73.7572 134.67C73.6236 135.458 73.9409 136.898 75.0901 136.477C76.5165 135.956 78.0532 135.789 79.3928 135.037C80.4217 134.459 81.3036 133.597 82.0018 132.659C83.7022 130.367 84.3603 127.528 84.1866 124.701C83.7991 118.491 80.9729 112.445 78.8951 106.665C77.1513 101.812 75.7382 94.7161 70.4533 92.381C65.1685 90.046 61.397 96.5768 63.0005 101.103C63.859 103.522 67.1094 99.8941 66.478 98.1135L66.4747 98.1169Z" fill="#4C3768"/>
<path d="M11.6186 116.844C9.95834 109.328 15.2933 102.977 19.2653 97.1849C21.6237 93.7474 23.8252 90.203 25.6024 86.4281C27.56 82.2724 29.0232 77.8795 30.5832 73.5668C33.5798 65.2787 36.6732 56.9606 41.2531 49.3908C45.8064 41.8644 51.2683 34.9327 56.6032 27.9575C62.8267 19.8165 69.214 11.8057 75.6279 3.81496C76.2359 3.05664 76.9608 1.53667 76.2593 0.621343C75.5578 -0.293983 74.3051 0.561212 73.7839 1.21263C67.8343 8.62543 61.8914 16.0483 56.1054 23.5913C50.4164 31.0142 44.6138 38.3902 39.6229 46.3108C34.632 54.2314 31.2346 62.7566 28.0711 71.4321C26.4476 75.8818 24.9577 80.4117 23.0568 84.7545C21.3665 88.6162 19.0414 92.2207 16.6596 95.6849C11.7055 102.884 6.0966 110.597 8.13771 119.834C8.39494 121.003 9.71113 120.616 10.3692 120.085C11.2679 119.36 11.8692 117.997 11.6153 116.848L11.6186 116.844Z" fill="#4C3768"/>
</g>
<defs>
<clipPath id="clip0_1_1625">
<rect width="93.9411" height="171.984" fill="white"/>
</clipPath>
</defs>
</svg>
