<svg width="22" height="21" viewBox="0 0 22 21" fill="none" xmlns="http://www.w3.org/2000/svg">
<path fill-rule="evenodd" clip-rule="evenodd" d="M3.65002 0C2.92068 0 2.22121 0.289731 1.70548 0.805456C1.18976 1.32118 0.900024 2.02065 0.900024 2.75C0.900024 3.47935 1.18976 4.17882 1.70548 4.69454C2.22121 5.21027 2.92068 5.5 3.65002 5.5C4.37937 5.5 5.07884 5.21027 5.59457 4.69454C6.11029 4.17882 6.40002 3.47935 6.40002 2.75C6.40002 2.02065 6.11029 1.32118 5.59457 0.805456C5.07884 0.289731 4.37937 0 3.65002 0ZM2.40002 2.75C2.40002 2.41848 2.53172 2.10054 2.76614 1.86612C3.00056 1.6317 3.3185 1.5 3.65002 1.5C3.98154 1.5 4.29949 1.6317 4.53391 1.86612C4.76833 2.10054 4.90002 2.41848 4.90002 2.75C4.90002 3.08152 4.76833 3.39946 4.53391 3.63388C4.29949 3.8683 3.98154 4 3.65002 4C3.3185 4 3.00056 3.8683 2.76614 3.63388C2.53172 3.39946 2.40002 3.08152 2.40002 2.75ZM0.900024 6.75C0.900024 6.55109 0.979042 6.36032 1.11969 6.21967C1.26035 6.07902 1.45111 6 1.65002 6H5.65002C5.84894 6 6.0397 6.07902 6.18035 6.21967C6.32101 6.36032 6.40002 6.55109 6.40002 6.75V19.75C6.40002 19.9489 6.32101 20.1397 6.18035 20.2803C6.0397 20.421 5.84894 20.5 5.65002 20.5H1.65002C1.45111 20.5 1.26035 20.421 1.11969 20.2803C0.979042 20.1397 0.900024 19.9489 0.900024 19.75V6.75ZM2.40002 7.5V19H4.90002V7.5H2.40002ZM7.90002 6.75C7.90002 6.55109 7.97904 6.36032 8.11969 6.21967C8.26035 6.07902 8.45111 6 8.65002 6H12.65C12.8489 6 13.0397 6.07902 13.1804 6.21967C13.321 6.36032 13.4 6.55109 13.4 6.75V7.184L13.835 6.997C14.585 6.67648 15.3807 6.4757 16.193 6.402C18.968 6.15 21.4 8.33 21.4 11.13V19.75C21.4 19.9489 21.321 20.1397 21.1804 20.2803C21.0397 20.421 20.8489 20.5 20.65 20.5H16.65C16.4511 20.5 16.2603 20.421 16.1197 20.2803C15.979 20.1397 15.9 19.9489 15.9 19.75V12.75C15.9 12.4185 15.7683 12.1005 15.5339 11.8661C15.2995 11.6317 14.9815 11.5 14.65 11.5C14.3185 11.5 14.0006 11.6317 13.7661 11.8661C13.5317 12.1005 13.4 12.4185 13.4 12.75V19.75C13.4 19.9489 13.321 20.1397 13.1804 20.2803C13.0397 20.421 12.8489 20.5 12.65 20.5H8.65002C8.45111 20.5 8.26035 20.421 8.11969 20.2803C7.97904 20.1397 7.90002 19.9489 7.90002 19.75V6.75ZM9.40002 7.5V19H11.9V12.75C11.9 12.0207 12.1898 11.3212 12.7055 10.8055C13.2212 10.2897 13.9207 10 14.65 10C15.3794 10 16.0788 10.2897 16.5946 10.8055C17.1103 11.3212 17.4 12.0207 17.4 12.75V19H19.9V11.13C19.9 9.226 18.239 7.722 16.33 7.896C15.6742 7.95567 15.0318 8.11763 14.426 8.376L12.946 9.011C12.8319 9.06003 12.7073 9.07994 12.5836 9.06893C12.4598 9.05793 12.3407 9.01635 12.237 8.94794C12.1333 8.87953 12.0482 8.78643 11.9894 8.677C11.9306 8.56757 11.8999 8.44524 11.9 8.321V7.5H9.40002Z" fill="white"/>
</svg>
