<svg width="397" height="268" viewBox="0 0 397 268" fill="none" xmlns="http://www.w3.org/2000/svg">
<g clip-path="url(#clip0_1_1749)">
<path d="M331.672 103.1C327.404 103.673 323.114 104.093 318.876 104.86C315.361 105.495 311.483 106.194 308.448 108.212C307.168 109.062 306.097 110.067 305.567 111.531C305.036 112.995 305.596 114.443 303.995 115.179C302.48 115.875 300.711 116.523 299.09 116.927C298.022 117.193 296.927 117.369 295.852 117.622C295.376 117.736 295.244 117.778 294.765 117.878C294.626 117.907 293.245 118.075 293.887 118.028C292.992 118.09 289.209 118.48 290.152 120.176C291.06 121.806 295.119 121.759 296.566 121.655C300.925 121.348 305.549 120.179 309.617 118.626C311.407 117.942 313.441 117.466 314.804 116.027C316.049 114.71 315.368 112.92 316.307 111.517C316.95 110.559 318.194 109.819 319.005 109.472C320.678 108.762 321.702 108.639 323.475 108.302C327.909 107.463 332.406 107.029 336.875 106.433C338.012 106.281 340.686 105.249 338.834 103.979C336.982 102.708 333.834 102.812 331.675 103.101L331.672 103.1Z" fill="#4C3768"/>
<path d="M251.167 130.679C225.938 140.938 198.835 144.95 172.121 149.325C143.837 153.957 115.54 158.789 87.1542 162.781C71.7168 164.953 56.0528 166.372 40.9927 164.781C39.3699 164.61 35.5874 164.222 34.5 165.866C33.4126 167.51 37.3547 168.159 38.0974 168.237C68.1326 171.408 98.1519 165.306 127.701 160.624C142.312 158.309 156.921 155.981 171.524 153.603C185.432 151.339 199.372 149.168 213.193 146.402C228.609 143.32 243.922 139.432 258.512 133.499C258.988 133.307 260.068 132.965 260.09 132.247C260.112 131.529 259.058 131.09 258.591 130.902C256.555 130.085 253.258 129.827 251.17 130.676L251.167 130.679Z" fill="#4C3768"/>
<path d="M334.442 111.204C324.919 145.437 322.611 182.388 304.56 213.749C300.027 221.626 294.539 228.936 287.998 235.262C287.285 235.952 289.516 236.407 289.797 236.446C290.755 236.576 292.279 236.639 293.043 235.901C318.203 211.568 325.571 175.851 332.371 142.93C334.558 132.349 336.791 121.772 339.689 111.36C339.958 110.394 334.858 109.703 334.442 111.2L334.442 111.204Z" fill="#4C3768"/>
<path d="M310.532 111.784C308.956 127.715 304.044 143.067 300.198 158.538C296.58 173.096 293.257 187.775 288.227 201.933C285.34 210.064 281.852 217.97 277.515 225.436C276.861 226.562 281.857 227.289 282.56 226.079C290.129 213.056 295.03 198.74 298.987 184.264C303.087 169.271 306.661 154.12 310.53 139.064C312.828 130.137 314.868 121.127 315.779 111.941C315.901 110.717 310.669 110.39 310.532 111.781L310.532 111.784Z" fill="#4C3768"/>
<path d="M38.1803 169.99C45.0571 196.675 58.6545 221.586 76.4116 242.589C81.4204 248.512 86.9468 254.034 93.3472 258.454C94.2794 259.099 95.8582 259.101 96.9281 258.891C97.4894 258.78 98.8655 258.323 97.9075 257.664C86.6787 249.91 78.0167 238.712 70.2937 227.612C62.5803 216.522 55.9574 204.652 50.7877 192.166C47.8222 185.005 45.3648 177.65 43.4305 170.147C43.0403 168.628 37.943 169.054 38.1837 169.987L38.1803 169.99Z" fill="#4C3768"/>
<path d="M215.12 172.959C186.027 183.341 156.015 191.012 125.495 195.786C117.085 197.102 108.698 198.192 100.289 199.055C99.403 199.146 95.6014 199.49 96.5536 201.202C97.4437 202.799 101.542 202.828 102.968 202.681C134.844 199.419 166.385 193.245 197.098 184.092C205.624 181.552 214.079 178.777 222.458 175.786C222.936 175.617 224.014 175.236 224.036 174.534C224.057 173.833 223.004 173.377 222.537 173.189C220.42 172.34 217.29 172.189 215.116 172.963L215.12 172.959Z" fill="#4C3768"/>
<path d="M155.991 213.243C172.65 209.766 189.205 205.79 205.625 201.321C206.102 201.192 207.183 200.742 207.203 200.07C207.224 199.398 206.172 198.912 205.705 198.724C203.448 197.822 200.6 197.866 198.284 198.498C182.569 202.775 166.733 206.582 150.791 209.91C149.711 210.136 146.929 211.059 148.832 212.365C150.633 213.601 153.939 213.669 155.991 213.243Z" fill="#4C3768"/>
<path d="M69.1251 103.931C68.7939 118.56 76.627 131.433 84.9811 142.824C85.583 143.644 87.2968 143.63 88.1883 143.565C88.5535 143.537 90.6294 143.276 90.0558 142.493C81.7835 131.219 74.0418 118.579 74.3719 104.094C74.4022 102.779 69.1554 102.616 69.125 103.934L69.1251 103.931Z" fill="#4C3768"/>
<path d="M97.412 102.22C96.1002 100.247 94.7882 98.2767 93.4764 96.3034C92.9208 95.4692 91.1275 95.5064 90.2691 95.5623C89.8712 95.5895 87.8649 95.8303 88.4016 96.6345C89.7135 98.6078 91.0254 100.578 92.3373 102.551C92.8928 103.385 94.6861 103.348 95.5445 103.292C95.9425 103.265 97.9488 103.024 97.412 102.22Z" fill="#4C3768"/>
<path d="M163.329 85.8193C181.145 98.6615 195.153 116.439 203.585 136.712C204.092 137.935 209.198 137.674 208.659 136.378C200.133 115.872 185.898 98.0121 167.889 85.0295C166.977 84.3714 165.362 84.3845 164.309 84.592C163.727 84.7056 162.395 85.1442 163.329 85.8193Z" fill="#4C3768"/>
<path d="M119.966 76.0319C117.236 78.2726 120.558 81.712 119.237 84.3272C118.612 85.5652 117.57 86.3541 117.577 87.8674C117.583 89.3808 118.358 90.6452 119.386 91.5956C121.701 93.734 125.27 94.5617 128.241 95.2989C131.935 96.2124 135.728 96.676 139.53 96.7689C140.071 96.7822 142.155 96.8063 142.181 95.9307C142.208 95.0552 140.042 94.9432 139.586 94.9325C136.558 94.8599 133.577 94.4736 130.642 93.7211C128.206 93.0986 124.892 92.4068 123.459 90.1048C122.768 88.9973 122.58 87.6294 123.245 86.468C123.776 85.5422 124.532 84.853 124.742 83.7631C125.175 81.5213 122.816 78.4821 125.014 76.6782C125.785 76.0453 123.444 75.5242 123.215 75.4943C122.186 75.3513 120.817 75.3424 119.969 76.0386L119.966 76.0319Z" fill="#4C3768"/>
<path d="M117.274 90.0278C114.499 92.9957 111.507 95.7339 108.306 98.2326C107.523 98.8455 109.889 99.3871 110.105 99.4166C111.157 99.5603 112.477 99.5546 113.351 98.8723C116.556 96.3736 119.547 93.6355 122.319 90.6674C122.998 89.943 120.835 89.5258 120.521 89.4835C119.612 89.3573 117.983 89.2682 117.274 90.0278Z" fill="#4C3768"/>
<path d="M127.525 119.858C127.068 123.846 125.725 127.635 123.522 130.995C122.475 132.594 121.258 134.08 119.888 135.414C119.137 136.146 118.345 136.834 117.505 137.458C117.018 137.821 115.795 138.768 115.527 138.812C116.585 138.894 117.643 138.972 118.701 139.054C118.987 139.144 118.677 138.744 118.668 138.413C118.651 137.88 118.858 137.345 119.014 136.848C119.418 135.56 119.96 134.343 120.594 133.154C121.228 131.965 116.196 131.3 115.549 132.511C114.529 134.423 111.717 139.139 114.949 140.239C118.509 141.451 121.491 139.135 124.015 136.905C128.889 132.59 132.023 126.478 132.765 120.022C132.903 118.821 127.679 118.455 127.518 119.862L127.525 119.858Z" fill="#4C3768"/>
<path d="M140.098 155.415C133.778 152.997 127.648 150.142 121.742 146.84C120.713 146.264 119.307 146.178 118.162 146.403C117.689 146.493 116.133 147.043 117.182 147.63C123.349 151.078 129.75 154.079 136.346 156.604C137.433 157.021 138.953 157.13 140.055 156.717C140.935 156.39 141.078 155.793 140.095 155.419L140.098 155.415Z" fill="#4C3768"/>
<path d="M160.473 127.05C146.67 125.681 133.987 120.101 123.15 111.536C117.997 107.463 112.75 103.423 106.001 102.669C100.002 102 92.0424 103.179 87.6645 107.782C86.7117 108.783 85.3936 110.565 85.7425 112.043C86.0625 113.388 87.6374 113.84 88.8264 114.027C90.4009 114.276 92.0981 114.163 93.5836 113.562C94.3214 113.263 94.8758 112.843 95.4821 112.336C95.7515 112.112 96.0115 111.873 96.2873 111.655C96.5496 111.45 97.654 110.968 97.075 111.013C97.6112 110.973 99.3094 110.825 98.9425 109.941C98.6063 109.126 96.357 109.153 95.7353 109.2C94.4818 109.293 93.2826 109.548 92.2271 110.255C91.7949 110.543 91.3973 110.879 90.9998 111.212C90.754 111.418 90.5136 111.656 90.2517 111.849C89.617 112.322 89.1533 112.242 90.3891 112.404C92.0597 112.623 90.8582 112.629 90.9839 111.95C91.035 111.672 90.9561 111.355 91.0311 111.049C91.1961 110.374 91.6835 109.673 92.1039 109.128C92.9037 108.086 93.9296 107.274 95.0622 106.622C97.4309 105.26 100.308 104.439 103.039 104.351C105.769 104.264 108.41 105.286 110.774 106.655C115.638 109.475 119.707 113.472 124.382 116.575C129.056 119.679 134.403 122.385 139.817 124.382C146 126.658 152.471 128.129 159.026 128.779C159.739 128.85 161.863 129.072 162.272 128.234C162.682 127.397 160.964 127.098 160.473 127.05Z" fill="#4C3768"/>
<path d="M93.5673 110.437C91.5262 111.819 85.1056 115.276 88.9191 118.307C90.4701 119.543 93.1679 119.444 94.9308 118.789C97.0854 117.992 99.0708 116.175 100.955 114.886C101.88 114.255 100.648 113.754 100.052 113.602C99.0781 113.352 97.3527 113.207 96.4511 113.82C95.4253 114.521 94.3994 115.225 93.3737 115.925C92.8607 116.277 92.3572 116.643 91.835 116.978C91.5739 117.144 90.6201 117.42 91.3727 117.391L93.39 117.544C93.7809 117.641 93.4509 117.592 93.3959 117.351C93.2855 116.878 93.0815 116.681 93.0831 116.196C93.0831 115.444 93.4319 114.877 93.9786 114.385C95.1939 113.283 96.7171 112.413 98.0712 111.496C98.9995 110.868 97.7578 110.364 97.1683 110.212C96.1912 109.962 94.4724 109.818 93.5675 110.43L93.5673 110.437Z" fill="#4C3768"/>
<path d="M94.0303 115.706C90.6606 116.525 92.5833 121.284 95.0003 122.106C98.7428 123.379 102.283 121.285 105.093 118.997C105.864 118.371 103.523 117.84 103.294 117.813C102.255 117.68 100.903 117.658 100.048 118.358C99.4186 118.87 98.7676 119.336 98.0754 119.755C97.8279 119.905 96.2325 120.559 96.9041 120.599L98.752 120.924C98.0413 120.656 96.7768 117.345 97.7027 117.121C98.7113 116.876 98.552 116.182 97.7423 115.822C96.6283 115.329 95.181 115.429 94.0335 115.709L94.0303 115.706Z" fill="#4C3768"/>
<path d="M95.7808 121.27C95.982 124.037 99.4698 124.724 101.71 124.671C103.293 124.634 104.835 124.221 106.162 123.336C107.489 122.451 108.532 121.199 109.886 120.368C110.013 120.29 111.106 119.765 110.303 119.944C109.731 120.071 110.361 120.07 110.743 120.259C111.5 120.634 112.22 121.112 112.925 121.576C114.431 122.561 115.836 123.644 116.991 125.035C118.945 127.383 120.347 130.045 122.753 131.999C123.602 132.688 125.327 132.632 126.334 132.436C126.974 132.311 128.187 131.922 127.313 131.209C125.055 129.374 123.772 126.683 121.901 124.505C120.031 122.328 117.345 120.424 114.702 119.162C112.059 117.9 108.739 117.641 106.07 118.922C104.768 119.549 103.732 120.58 102.644 121.506C102.327 121.775 102.007 122.041 101.662 122.273C101.229 122.565 100.778 122.519 101.384 122.754C102.225 123.078 101.438 122.601 101.343 122.405C101.173 122.045 101.057 121.855 101.028 121.43C100.926 120.019 95.6927 120.069 95.7808 121.27Z" fill="#4C3768"/>
<path d="M105.356 122.311C106.582 123.779 107.811 125.248 109.036 126.719C109.707 127.524 111.299 127.524 112.243 127.461C112.566 127.438 114.732 127.129 114.111 126.388C112.885 124.92 111.657 123.451 110.431 121.98C109.76 121.175 108.168 121.175 107.224 121.238C106.902 121.261 104.736 121.57 105.356 122.311Z" fill="#4C3768"/>
<path d="M75.1155 81.9675C71.7239 84.1519 69.7102 88.1869 70.3056 92.2357C70.9364 96.522 74.3889 99.4468 78.4015 100.58C82.414 101.713 87.8899 101.362 91.1507 98.192C94.8478 94.599 93.8333 88.7944 90.9636 85.0602C89.3408 82.9494 87.2056 81.4959 84.5353 81.1256C82.9795 80.9075 81.3922 80.9707 79.8531 81.2848C78.3139 81.599 76.8997 82.2287 75.3854 82.3729C74.8522 82.4223 73.1479 82.5541 73.5179 83.4451C73.8512 84.2496 76.1096 84.243 76.7252 84.1862C78.0518 84.0593 79.3035 83.8086 80.5876 83.4604C81.3588 83.2509 82.5322 82.7681 83.141 82.9311C85.0749 83.4496 86.7766 86.4162 87.5031 88.1025C89.2564 92.1768 88.0681 98.098 83.1465 99.2215C79.7916 99.9857 76.4485 96.1649 75.7199 93.2575C74.7684 89.4768 76.3179 85.1618 79.6158 83.0369C80.57 82.4227 79.2796 81.9008 78.713 81.7523C77.7199 81.4889 76.0395 81.3753 75.1122 81.9707L75.1155 81.9675Z" fill="#4C3768"/>
<path d="M81.7019 80.8259C66.6841 62.453 49.0403 46.2385 29.4461 32.8464C23.8738 29.0397 18.1468 25.4678 12.2846 22.1282C11.2618 21.5456 9.8429 21.4695 8.70375 21.6908C8.22495 21.7845 6.68218 22.325 7.72429 22.918C28.2304 34.6081 47.0397 49.2005 63.3951 66.2226C68.005 71.0208 72.4121 76.0064 76.6237 81.1601C77.2819 81.9647 78.8968 81.968 79.831 81.9013C80.1599 81.8785 82.3124 81.5798 81.6985 80.8291L81.7019 80.8259Z" fill="#4C3768"/>
<path d="M158.816 87.7496C163.114 81.4801 161.506 73.2777 155.35 68.9247C154.427 68.2729 152.829 68.28 151.769 68.4873C151.194 68.5978 149.845 69.0457 150.789 69.7146C156.419 73.6937 157.636 81.4673 153.771 87.1067C153.087 88.1067 157.999 88.9424 158.816 87.7496Z" fill="#4C3768"/>
<path d="M108.023 41.7513C106.47 48.4459 108.406 55.0335 111.028 61.1858C113.448 66.856 116.601 71.8625 122.575 74.2077C132.909 78.2647 145.593 75.2214 153.563 67.6787C155.854 65.51 157.788 63.0186 159.233 60.2103C160.461 57.8221 161.589 54.0916 158.961 52.2128L156.605 56.8183C162.654 57.2686 169.181 52.9117 170.294 46.7421C171.681 39.061 160.628 38.678 155.548 39.1697C153.599 39.3598 151.803 44.1235 154.515 43.8615C157.021 43.6163 159.553 43.7952 162.007 44.369C163.503 44.7198 166.334 45.3116 166.564 47.229C166.741 48.7279 165.2 50.0726 164.066 50.7831C162.413 51.8159 160.49 52.2168 158.562 52.0726C156.816 51.9439 154.461 55.4301 156.206 56.6781C157.67 57.7239 155.629 60.3138 154.952 61.2844C153.782 62.9654 152.309 64.4271 150.699 65.6811C147.303 68.3281 143.218 70.0088 138.996 70.7795C134.445 71.6122 129.425 71.4132 125.104 69.6469C120.157 67.6251 117.288 63.7563 115.145 59.0071C112.629 53.439 110.306 47.0858 111.734 40.9257C111.965 39.9382 111.572 38.8135 110.398 38.9911C109.224 39.1686 108.276 40.6791 108.03 41.7482L108.023 41.7513Z" fill="#4C3768"/>
<path d="M130.718 68.4067C135.74 67.2207 139.817 64.207 142.828 60.0745C143.376 59.3231 143.828 57.6367 142.869 57.0133C141.833 56.3384 140.655 57.7237 140.148 58.4172C138.14 61.1756 135.024 62.9416 131.751 63.7149C130.551 63.9967 129.615 65.3139 129.382 66.4721C129.197 67.3855 129.498 68.6945 130.718 68.4067Z" fill="#4C3768"/>
<path d="M156.392 50.5589C158.435 50.6212 160.588 45.8815 158.342 45.813C156.299 45.7507 154.146 50.4904 156.392 50.5589Z" fill="#4C3768"/>
<path d="M111.756 36.9777C107.633 38.5949 102.151 40.3447 98.8255 36.2716C96.2341 33.0973 95.0101 28.6715 94.9593 24.6327C94.9334 22.5772 95.1897 20.5237 95.7881 18.5528C96.2333 17.0828 96.9727 14.6862 98.2277 13.6807C99.1193 12.9661 100.485 13.3786 101.529 13.4893C102.782 13.6226 104.032 13.7559 105.285 13.8893C107.788 14.156 110.294 14.4228 112.797 14.6895C118.009 15.2456 122.979 15.535 128.176 14.6333C133.06 13.7877 137.752 12.3519 142.423 10.7252C146.55 9.28534 150.975 8.09092 154.963 10.5692C156.557 11.5599 157.861 12.9454 158.732 14.6131C159.604 16.2809 159.49 18.4077 160.648 19.9299C161.964 21.6571 164.337 22.317 165.92 23.78C167.503 25.243 168.714 27.0786 169.187 29.1379C170.229 33.7157 165.809 36.4596 162.554 38.6744C160.667 39.9593 160.634 44.291 163.473 42.3589C167.505 39.6164 171.511 36.3446 172.832 31.4286C174.08 26.7893 171.998 22.2027 168.5 19.1518C166.837 17.7028 164.045 17.0334 163.458 14.7343C162.872 12.4352 162.224 10.4493 160.667 8.6556C157.407 4.89967 152.746 3.72033 147.953 4.70331C145.146 5.28074 142.488 6.42402 139.77 7.30614C136.915 8.23334 134.01 8.99489 131.068 9.58789C128.125 10.1809 125.118 10.6308 122.1 10.5683C119.118 10.5036 116.144 10.088 113.18 9.7744C110.215 9.46082 107.127 9.13031 104.104 8.80837C101.195 8.49976 98.9187 8.34828 96.7212 10.5559C93.2064 14.0889 91.5618 19.6909 91.1809 24.5405C90.7622 29.8746 92.0805 36.1578 95.6131 40.3291C99.8777 45.363 106.448 43.3608 111.696 41.3053C113.583 40.5652 114.663 35.8355 111.756 36.9777Z" fill="#4C3768"/>
<path d="M111.969 40.3386C117.314 43.6297 123.917 41.0903 128.63 37.8499C133.344 34.6096 137.235 29.5027 139.21 23.9567L135.684 25.2606C136.108 27.3808 136.681 29.7057 138.214 31.3214C140.007 33.2109 142.42 32.8808 144.732 33.6012C148.955 34.9149 152.415 39.015 152.726 43.4622C152.943 46.5706 156.716 43.5051 156.574 41.4788C156.245 36.7718 153.734 32.4446 149.589 30.0731C148.611 29.5148 147.551 29.0919 146.467 28.7897C145.198 28.4359 143.77 28.5367 142.558 28.0239C140.361 27.0969 139.842 24.3272 139.423 22.2432C138.97 19.9777 136.249 22.5535 135.897 23.5471C134.4 27.7488 131.759 31.2789 128.124 33.8793C124.49 36.4797 118.99 38.4914 114.737 35.8737C112.907 34.7479 110.139 39.2062 111.975 40.3388L111.969 40.3386Z" fill="#4C3768"/>
<path d="M129.872 43.2086C132.607 42.4189 135.299 42.2843 138.103 42.79C140.095 43.1494 142.381 38.463 140.053 38.0441C136.991 37.4912 133.891 37.656 130.904 38.5168C129.706 38.861 128.776 40.0733 128.536 41.2739C128.362 42.1384 128.653 43.5587 129.872 43.2086Z" fill="#4C3768"/>
<path d="M119.764 42.2767C117.418 42.4612 115.208 43.0601 113.037 43.9556C111.927 44.4141 111.085 45.9476 111.083 47.1127C111.08 48.2779 111.95 48.7081 112.977 48.2832C114.812 47.5252 116.758 47.1217 118.732 46.9652C120.706 46.8088 122.489 42.0578 119.764 42.2734L119.764 42.2767Z" fill="#4C3768"/>
<path d="M115.425 58.5462C117.194 60.2676 119.69 61.0724 121.889 59.5803C124.088 58.0882 124.405 55.2193 122.773 53.292C121.316 51.5703 118.541 50.8653 116.546 52.0321C114.062 53.486 114.216 56.3036 115.02 58.6684C115.629 60.4627 118.605 58.443 118.048 56.8078C117.885 56.3301 117.703 55.8486 117.649 55.3415C117.632 55.1703 117.7 54.8606 117.652 54.7081C117.562 54.433 117.864 54.5472 117.519 54.6483C118.318 54.4133 119.364 54.9835 119.915 55.5189C120.231 55.824 120.483 56.1829 120.558 56.6217C120.619 56.9715 120.605 57.1155 120.485 57.1873C119.746 57.6374 118.506 56.5165 118.05 56.0726C116.756 54.8121 114.133 57.2924 115.421 58.5461L115.425 58.5462Z" fill="#4C3768"/>
<path d="M117.349 57.1081C116.041 56.845 114.77 56.3139 113.699 55.5066C112.98 54.9661 112.098 55.1525 111.456 55.7566C110.993 56.1922 110.351 57.4363 111.07 57.9801C112.568 59.109 114.17 59.8668 116.013 60.2381C117.68 60.5745 119.395 57.5217 117.346 57.108L117.349 57.1081Z" fill="#4C3768"/>
<path d="M123.847 57.4671C124.554 57.3278 125.289 57.2222 126.011 57.2376C126.9 57.2582 127.814 56.774 128.142 55.9011C128.385 55.2586 128.275 54.1294 127.344 54.1075C126.343 54.0836 125.377 54.1296 124.393 54.3228C123.514 54.4963 122.687 55.1439 122.534 56.0714C122.405 56.8454 122.998 57.6349 123.844 57.4637L123.847 57.4671Z" fill="#4C3768"/>
<path d="M126.693 57.5604C128.492 58.9479 130.72 59.4228 132.895 58.6095C134.88 57.8658 136.859 55.4973 135.814 53.2892C134.907 51.3742 132.09 51.1865 130.29 51.5584C128.13 52.0045 126.297 53.6456 125.954 55.8704C125.61 58.0952 128.856 57.2423 129.122 55.5141C129.315 54.2628 131.703 54.2897 132.524 54.922C133.345 55.5542 132.416 55.7918 131.807 55.8454C130.925 55.9203 130.015 55.6201 129.319 55.0835C127.889 53.9797 125.302 56.484 126.69 57.557L126.693 57.5604Z" fill="#4C3768"/>
<path d="M136.792 55.8628C139.448 54.7785 142.133 54.4698 144.965 54.8943C147.07 55.2079 149.276 55.6296 151.251 54.5706C153.05 53.6079 154.067 51.8763 154.582 49.9554C155.038 48.2559 154.816 45.1802 156.489 44.1513C158.162 43.1224 157.416 40.3491 155.399 41.5939C153.662 42.6636 152.713 44.3184 152.2 46.2591C151.796 47.7895 151.995 50.73 150.601 51.7673C149.731 52.417 148.317 52.0817 147.343 51.9372C146.111 51.7552 144.916 51.5579 143.666 51.5362C141.199 51.4971 138.795 51.9818 136.515 52.9133C135.74 53.2311 134.928 54.0433 135.051 54.9596C135.163 55.8065 136.031 56.1744 136.792 55.8661L136.792 55.8628Z" fill="#4C3768"/>
<path d="M131.136 51.164C131.149 51.0429 131.176 50.9223 131.19 50.8013C131.209 50.5918 131.063 51.0797 131.225 50.717C131.302 50.5454 131.3 50.6077 131.212 50.7232C131.25 50.662 131.294 50.601 131.339 50.5432C131.618 50.194 131.314 50.3751 130.432 51.0933L129.684 50.9753C129.586 50.864 129.595 50.8741 129.706 51.0055L129.798 51.1297C129.898 51.2707 129.914 51.2974 129.851 51.2069C129.892 51.2737 129.929 51.3405 129.966 51.4073C130.128 51.7011 130.257 52.0037 130.372 52.319C130.668 53.1487 131.83 53.0626 132.429 52.6673C133.143 52.1967 133.711 51.3311 133.399 50.4584C132.973 49.267 132.156 47.6436 130.642 47.9979C129.127 48.3521 128.117 50.0577 127.968 51.5105C127.887 52.3122 128.404 53.0304 129.278 52.9028C130.108 52.7837 131.047 52.0442 131.136 51.1541L131.136 51.164Z" fill="#4C3768"/>
<path d="M121.787 50.8723C121.794 50.8463 121.856 50.6447 121.85 50.6346C121.899 50.5245 121.896 50.5179 121.841 50.6081L121.517 50.9035C121.2 51.0612 120.971 51.0378 120.679 50.914C120.64 50.8964 120.604 50.7936 120.641 50.7652C120.551 50.8313 120.504 51.5093 120.477 51.6333C120.371 52.0961 120.268 52.5624 120.162 53.0252C119.976 53.8533 120.672 54.5014 121.472 54.4175C122.387 54.3207 123.137 53.5361 123.33 52.6689C123.645 51.2736 124.529 48.8979 122.778 48.0699C121.82 47.6173 120.638 48.0768 119.902 48.7371C119.166 49.3974 118.84 50.2967 118.612 51.2317C118.409 52.0593 119.134 52.7083 119.921 52.624C120.85 52.5276 121.567 51.742 121.78 50.8754L121.787 50.8723Z" fill="#4C3768"/>
<path d="M138.046 58.3628C140.088 59.7249 141.701 61.6155 142.776 63.8179C143.623 65.5538 146.561 63.5099 145.804 61.9572C144.497 59.2784 142.561 57.1088 140.084 55.4544C138.662 54.5052 136.424 57.2827 138.042 58.3627L138.046 58.3628Z" fill="#4C3768"/>
<path d="M125.5 11.9999H100L96.5 13.0001L94 16.0001L92 23.5001V29.0001L95.5 36.5001L101.5 41.0001L110 39.5001H115.5L123.5 38.5001L131 33.5001L134.5 29.5001L138 23.5001L140.5 29.0001L148.5 33.0001L153.5 39.5001L162 41.0001L166.5 38.5001L171 32.0001L170 25.0001L163 19.5001L161 13.0001L155 6.50006L145 7.50006L125.5 11.9999Z" fill="#4C3768"/>
<path d="M234.12 118.523C237.56 113.245 241 107.967 244.537 102.754C247.805 97.9337 250.988 92.8118 254.949 88.5179C255.771 87.6239 256.659 86.8008 257.636 86.0757C258.11 85.7258 258.624 85.3246 259.166 85.095C259.818 84.8194 259.75 84.7845 259.877 85.4547C260.317 87.7198 261.015 89.379 262.751 90.9845C264.488 92.59 266.689 93.7107 268.858 94.6927C271.345 95.8188 274.014 96.862 276.775 96.9527C282.438 97.1385 287.83 92.8652 288.077 87.0203C288.126 85.8598 287.158 85.4036 286.183 85.8498C285.058 86.3637 284.282 87.8105 284.229 89.007C284.155 90.8034 282.167 91.7242 280.614 92.0543C277.961 92.6168 275.123 91.7261 272.696 90.7035C270.498 89.7765 268.265 88.7368 266.377 87.2613C265.611 86.6635 264.929 85.9764 264.41 85.1498C263.774 84.1359 263.809 83.2277 263.594 82.0986C262.516 76.4201 254.466 84.2262 252.914 85.9383C249.096 90.1545 245.958 95.0907 242.757 99.7754C238.902 105.418 235.169 111.144 231.44 116.869C230.933 117.648 230.411 119.29 231.399 119.931C232.387 120.571 233.652 119.248 234.12 118.527L234.12 118.523Z" fill="#4C3768"/>
<path d="M257.027 70.1115C261.134 78.4721 269.966 86.7832 280.078 84.354C290.394 81.8721 293.169 68.8099 291.706 59.8603C291.368 57.7985 288.223 59.3143 288.5 61C289.651 68.0298 288.222 80.2369 279.23 81.4791C270.64 82.668 263.503 75.2719 260.054 68.2475C259.204 66.5148 256.267 68.5587 257.027 70.1082L257.027 70.1115Z" fill="#4C3768"/>
<path d="M258.004 67.2429C256.774 67.6354 251.107 68.0173 252.443 65.2123C253.379 63.2517 256.665 63.4537 258.424 63.4843C259.336 63.499 260.194 63.0197 260.555 62.1477C260.817 61.5124 260.672 60.3723 259.756 60.3542C255.725 60.2838 250.322 60.9363 249.182 65.6971C247.933 70.9108 254.95 71.2527 258.278 70.1923C260.061 69.623 260.251 66.527 258.004 67.2429Z" fill="#4C3768"/>
<path d="M277.799 60.481C277.174 61.3777 276.806 62.4858 276.953 63.5866C277.116 64.806 278.105 65.7224 279.372 65.2818C281.672 64.4821 281.824 61.3094 280.383 59.6965C279.672 58.9002 278.276 59.5831 277.824 60.3111C277.075 61.5224 276.795 62.9351 277.384 64.2792C278.158 66.0391 281.108 64.0021 280.412 62.4185C280.301 62.1657 280.26 62.0101 280.262 61.7312C280.262 61.7181 280.386 61.4363 280.31 61.5554L277.751 62.1699C277.941 62.3825 278.054 62.5731 278.105 62.8339C278.073 62.682 278.146 63.3046 278.122 63.1102C278.125 63.0216 278.117 63.0673 278.096 63.2407C278.2 62.9484 278.397 62.7115 278.685 62.5332L279.505 62.2398C280.098 62.6879 280.319 62.7701 280.17 62.4833C280.137 62.4002 280.13 62.3902 280.151 62.4532C280.163 62.3814 280.129 62.1144 280.129 62.098C280.127 62.1636 280.181 61.7911 280.149 61.9805L280.22 61.8087C280.141 61.931 280.161 61.9054 280.282 61.7285C280.718 61.105 280.855 60.0588 280.059 59.6539C279.264 59.2489 278.252 59.8318 277.795 60.4875L277.799 60.481Z" fill="#4C3768"/>
<path d="M282.866 65.2505C283.395 65.7557 283.915 66.2737 284.42 66.8077C284.665 67.0647 284.903 67.3214 285.142 67.5847C285.265 67.7198 285.456 67.9356 285.422 68.1873C285.337 68.8248 284.515 68.8785 284.027 68.9293C283.342 69.0003 282.572 68.9735 281.854 68.9516C281.595 68.9437 281.219 69.0931 281.41 69.4042C281.601 69.7153 282.095 69.8584 282.443 69.869C283.315 69.8956 284.188 69.9123 285.054 69.8107C285.766 69.7274 286.756 69.5377 286.978 68.7238C287.077 68.3593 286.931 67.997 286.713 67.7081C286.467 67.3855 286.174 67.091 285.894 66.7936C285.329 66.1888 284.742 65.6031 284.143 65.0301C283.872 64.7724 283.403 64.6268 283.031 64.6942C282.704 64.7565 282.617 65.0164 282.863 65.2504L282.866 65.2505Z" fill="#4C3768"/>
<path d="M281.272 69.5214C282.113 70.0131 283.03 70.3004 284.003 70.376C284.792 70.4362 285.661 70.3445 286.381 69.9989C287.037 69.6841 287.619 69.1044 287.505 68.3198C287.391 67.5351 286.733 66.8454 286.174 66.3557C285.483 65.7537 284.693 65.293 283.896 64.8486C283.583 64.6749 283.132 64.5003 282.779 64.6668C282.452 64.821 282.668 65.1624 282.898 65.2875C283.588 65.6729 284.34 66.0897 284.893 66.576C285.389 67.0079 286.147 67.763 285.872 68.4932C285.622 69.1584 284.758 69.3914 284.132 69.4609C283.77 69.5024 283.482 69.4706 283.12 69.4103C283.022 69.3909 283.012 69.3874 283.094 69.4063C283.042 69.3916 282.986 69.38 282.934 69.3653C282.905 69.3578 282.609 69.2602 282.749 69.3104C282.645 69.2711 282.544 69.2287 282.447 69.1798C282.399 69.1553 282.35 69.1309 282.302 69.1064C282.357 69.1376 282.344 69.1274 282.263 69.0823C281.957 68.9022 281.493 68.7371 281.146 68.9005C280.817 69.0546 281.043 69.3897 281.265 69.5212L281.272 69.5214Z" fill="#4C3768"/>
<path d="M278.547 72.5401C277.463 73.6624 276.51 75.2943 276.726 76.9256C277.017 79.1271 279.515 78.5829 280.553 77.2589C281.448 76.1177 282.131 74.0772 281.391 72.6991C280.376 70.8037 278.075 72.5421 277.326 73.7436C276.563 74.9644 275.924 77.2852 277.431 78.2404C279.128 79.3129 280.821 77.5133 281.473 76.0627C282.008 74.8744 282.255 73.0077 281.249 71.9792C279.913 70.6091 277.901 71.9985 277.047 73.2001C276.193 74.4016 275.647 76.164 276.334 77.511C277.196 79.1949 279.318 78.8001 280.487 77.6968C281.657 76.5935 282.123 74.6547 281.364 73.2628C280.516 71.7074 278.556 71.6082 277.257 72.6485C276.049 73.6161 275.493 75.2731 275.914 76.7695C276.396 78.4911 278.266 79.0864 279.755 78.1569C281.029 77.3588 281.697 75.6953 281.568 74.2242C281.415 72.4733 279.819 71.4268 278.173 72.1086C276.528 72.7904 275.444 74.9532 275.639 76.7316C275.73 77.5386 276.093 78.4391 276.879 78.8012C277.799 79.2231 278.866 78.8848 279.632 78.3107C280.932 77.3394 282.026 75.2491 281.764 73.6C281.445 71.5913 279.404 70.9251 277.746 71.9052C277.054 72.3141 276.423 73.2992 276.776 74.1142C277.129 74.9291 278.185 74.8497 278.833 74.4625C277.837 75.0524 278.521 74.2527 278.556 74.7396C278.567 74.8942 278.593 75.0099 278.566 75.16C278.518 75.4507 278.3 75.7066 278.17 75.962C277.8 76.3905 278.059 76.382 278.946 75.9364L278.857 75.7203C278.864 75.4973 278.799 75.2787 278.861 75.0574C278.888 74.9368 278.94 74.8301 279.015 74.7372L278.212 75.0179C278.234 74.9693 278.364 75.4197 278.366 75.4723C278.351 75.6294 278.324 75.7861 278.289 75.9393C278.238 76.0034 278.259 75.9778 278.354 75.8625C278.543 75.5991 278.825 75.4732 279.203 75.4847C279.093 75.4026 279.025 75.2922 279.003 75.1536C278.973 75.0575 279.022 74.7439 278.99 74.7101C279.188 74.8967 278.274 75.0395 278.265 75.1115C278.265 75.1377 278.482 75.4496 278.495 75.5583C278.518 75.6673 278.508 75.772 278.465 75.8823C278.33 76.2294 278.576 76.1089 279.201 75.524C279.243 75.4531 279.22 75.4655 279.253 75.3451C279.326 75.0814 279.279 74.9126 279.405 74.6506C279.455 74.5339 279.524 74.4244 279.612 74.3286C279.456 74.3797 279.419 74.4311 279.499 74.486L278.695 74.5764C278.368 74.5533 278.711 74.3701 278.677 74.5201C278.64 74.6765 278.718 74.8955 278.7 75.0591C278.686 75.2096 278.636 75.3459 278.595 75.4891C278.536 75.7007 278.31 75.8119 278.54 75.6811L279.36 75.3877C279.701 75.7231 279.826 75.717 279.731 75.3761C279.75 75.288 279.769 75.2 279.785 75.1086C279.876 74.8061 280.001 74.6917 280.243 74.5055L279.454 74.9934L279.722 74.9294L278.564 74.9072C278.501 74.7051 278.46 74.648 278.448 74.733C278.472 74.9011 278.467 75.0684 278.422 75.2344C278.387 75.4368 278.33 75.6911 278.188 75.8115L278.978 75.3236L278.762 75.4154L279.565 75.3251C279.805 75.7525 279.924 75.8415 279.918 75.5918C279.936 75.448 279.963 75.3076 280.003 75.1677C280.083 74.9174 280.211 74.6949 280.394 74.5068C280.926 73.9552 281.413 72.9558 280.781 72.2833C280.183 71.648 279.066 71.9848 278.538 72.5333L278.547 72.5401Z" fill="#4C3768"/>
<path d="M284.19 60.6726C283.701 61.7736 283.65 63.108 284.287 64.1647C285.106 65.519 286.703 64.4845 287.266 63.4612C287.993 62.1376 288.073 60.5645 287.565 59.154C287.341 58.5301 286.463 58.3688 285.914 58.608C284.134 59.3908 283.446 61.0635 283.479 62.919C283.496 63.8648 284.036 64.6625 285.029 64.7026C286.124 64.7491 287.391 63.7965 287.465 62.6565C287.612 60.4126 284.409 61.2569 284.296 63.0128L284.293 63.1211C284.403 62.8553 284.516 62.5896 284.629 62.3206L284.574 62.4075L285.274 61.7494C286.31 62.4309 286.778 62.4682 286.685 61.8614L286.69 61.6908C286.684 61.8712 286.722 61.403 286.727 61.3408C286.739 61.2591 286.752 61.1774 286.771 61.0959C286.728 61.2095 286.727 61.216 286.767 61.1122C286.816 60.9956 286.803 61.0115 286.719 61.1633C286.579 61.3395 286.401 61.4687 286.189 61.5541L284.538 61.0081C284.798 61.7349 284.69 62.3618 284.339 63.001L287.318 62.2975C287.181 62.0734 287.065 61.8631 287.034 61.6029C287.005 61.3591 287.037 61.3042 287.121 61.1197C287.442 60.3943 287.181 59.4673 286.322 59.3262C285.463 59.1851 284.536 59.8888 284.191 60.6628L284.19 60.6726Z" fill="#4C3768"/>
<path d="M308.77 114.566C309.324 117.042 309.879 119.514 310.434 121.989C310.894 124.032 314.012 122.512 313.639 120.85C313.085 118.374 312.53 115.902 311.975 113.427C311.516 111.384 308.397 112.904 308.77 114.566Z" fill="#4C3768"/>
<path d="M255.397 65.6503C255.971 65.9763 256.764 66.1482 257.328 65.7125C257.466 65.6083 257.373 65.425 257.291 65.3273C257.148 65.1588 256.932 65.0472 256.72 64.9882C256.261 64.8593 255.777 64.8117 255.305 64.8958C254.922 64.9629 254.576 65.1132 254.264 65.3433C254.099 65.463 254.253 65.6909 254.352 65.7858C254.658 66.0807 255.069 66.2902 255.483 66.3914C255.896 66.4927 256.345 66.5392 256.765 66.4207C256.934 66.3733 257.09 66.3223 257.24 66.2284C257.401 66.1283 257.608 65.9967 257.631 65.7873C257.668 65.434 257.331 65.2005 257.046 65.0704C256.761 64.9402 256.441 64.878 256.132 64.8948C255.645 64.9259 255.205 65.0635 254.812 65.3567C254.708 65.4356 254.749 65.5944 254.802 65.6847C254.958 65.9487 255.241 66.1444 255.519 66.2613C255.895 66.4171 256.291 66.4817 256.699 66.4318C257.108 66.3819 257.552 66.1329 257.637 65.7055C257.676 65.5031 257.5 65.3501 257.349 65.2503C257.127 65.1024 256.825 65.0045 256.555 65.0127C256.062 65.0272 255.567 65.1369 255.142 65.4029C255.035 65.4718 254.947 65.5381 254.972 65.6833C254.998 65.8285 255.154 65.958 255.264 66.027C255.441 66.1374 255.649 66.2225 255.858 66.2486L256.058 66.2645C256.169 66.2679 256.278 66.2483 256.381 66.2087C256.555 66.0992 256.738 66.0161 256.933 65.9597L256.788 66.0012C256.87 65.9775 256.953 65.9603 257.036 65.9464C257.078 65.9412 257.121 65.9359 257.161 65.9306C257.23 65.9228 257.204 65.9253 257.078 65.9379C257.098 65.9385 257.121 65.9359 257.141 65.9365L256.063 65.2406C256.047 65.3091 256.026 65.374 255.988 65.432L256.047 65.3353C255.995 65.4158 255.931 65.4795 255.853 65.5296L255.961 65.4607C255.89 65.5045 255.817 65.5384 255.734 65.5621L255.88 65.5206C255.85 65.5295 255.817 65.5351 255.788 65.5408C255.774 65.5404 255.761 65.5432 255.748 65.5461C255.659 65.5598 255.932 65.5386 255.86 65.5397C255.83 65.5388 255.801 65.5379 255.774 65.5371C255.768 65.5369 256.013 65.5673 255.909 65.5477C255.892 65.5472 255.876 65.5402 255.863 65.5398C255.84 65.5391 256.111 65.6031 256.023 65.5742C255.987 65.5632 255.912 65.5347 256.071 65.5954C256.23 65.656 256.159 65.6276 256.123 65.6134C256.046 65.5814 256.262 65.6931 256.249 65.6828C256.24 65.676 256.224 65.6656 256.211 65.6587C256.162 65.6342 256.361 65.788 256.3 65.7271C256.278 65.7067 256.256 65.683 256.237 65.6595L256.335 65.7774C256.316 65.7505 256.297 65.727 256.282 65.697L256.272 66.0249C256.302 65.9996 256.335 65.9776 256.372 65.9525L256.265 66.0214C256.406 65.9338 256.556 65.8629 256.718 65.8186L256.572 65.8601C256.628 65.8454 256.681 65.8306 256.737 65.8225C256.764 65.8167 256.787 65.8141 256.813 65.8116C256.876 65.8037 256.957 65.8193 256.761 65.8133C256.784 65.814 256.81 65.8148 256.833 65.8122C256.945 65.8091 256.715 65.8021 256.715 65.8021C256.767 65.8102 256.748 65.8031 256.653 65.7871C256.568 65.7713 256.487 65.7459 256.406 65.7073L256.267 65.6309C256.158 65.5389 256.13 65.5151 256.174 65.5624L256.076 65.4445C256.076 65.4445 256.092 65.468 256.098 65.478L256.046 65.3615C256.055 65.3848 256.058 65.4046 256.06 65.4309L256.063 65.3194C256.062 65.3588 256.048 65.3911 256.027 65.4266L256.086 65.3299C256.035 65.4006 255.971 65.4512 255.9 65.4982L256.008 65.4293C255.904 65.4951 255.797 65.5443 255.681 65.5802L255.827 65.5387C255.777 65.5536 255.728 65.5652 255.675 65.5734C255.648 65.5792 255.622 65.5817 255.599 65.5842C255.487 65.6005 255.786 65.5768 255.675 65.58C255.622 65.5784 255.57 65.5768 255.521 65.5753C255.786 65.5867 255.681 65.59 255.616 65.5782C255.589 65.5774 255.563 65.57 255.541 65.566C255.564 65.5667 255.788 65.6294 255.651 65.5891C255.625 65.5818 255.603 65.5712 255.577 65.5671C255.596 65.571 255.813 65.663 255.684 65.6065C255.661 65.596 255.639 65.5822 255.612 65.5748C255.639 65.5822 255.809 65.6891 255.7 65.6201C255.68 65.6097 255.664 65.5961 255.645 65.5856C255.539 65.5102 255.76 65.6811 255.703 65.6333C255.68 65.613 255.658 65.5926 255.636 65.5722L255.724 66.0147C255.754 65.9927 255.788 65.9707 255.821 65.9488L255.714 66.0177C255.861 65.9238 256.021 65.8498 256.19 65.7992L256.044 65.8407C256.12 65.8201 256.196 65.8027 256.272 65.7886C256.312 65.7832 256.348 65.7778 256.388 65.7724C256.48 65.7621 256.299 65.7828 256.299 65.7795C256.299 65.7828 256.365 65.7783 256.371 65.7752C256.411 65.7764 256.45 65.7776 256.489 65.7788C256.634 65.7832 256.293 65.7564 256.433 65.7771C256.473 65.7816 256.512 65.7893 256.548 65.7937C256.584 65.8014 256.665 65.8203 256.512 65.786C256.349 65.7483 256.457 65.7745 256.489 65.7853L255.881 65.0611C255.881 65.0611 255.854 65.0833 255.837 65.0926L255.944 65.0236C255.891 65.0581 255.834 65.0827 255.775 65.1005L255.92 65.059C255.897 65.0649 255.832 65.0662 255.815 65.0788L255.94 65.0695C255.923 65.069 255.904 65.0684 255.887 65.0679C256.038 65.0823 256.08 65.0869 256.022 65.0785C255.953 65.0666 256.002 65.0779 256.168 65.1125C256.09 65.0872 256.132 65.1049 256.298 65.1624C256.23 65.1308 256.265 65.1516 256.401 65.2214C256.214 65.1139 256.023 65.0326 255.807 64.9998C255.657 64.9755 255.424 64.9618 255.284 65.0396C255.181 65.0955 255.08 65.1844 255.115 65.32C255.153 65.4656 255.28 65.5909 255.406 65.6637L255.397 65.6503Z" fill="#4C3768"/>
<path d="M260.751 126.936C265.354 123.476 270.414 120.38 276.054 118.974C278.379 118.395 280.82 118.092 282.924 119.488C283.436 119.829 283.933 120.221 284.227 120.779C284.434 121.097 284.532 121.441 284.524 121.812C284.097 122.577 284.461 122.808 285.619 122.508C285.323 122.191 284.088 122.009 283.659 121.864C282.919 121.612 282.181 121.36 281.441 121.107C280.368 120.743 279.101 120.645 277.999 120.93C277.424 121.08 276.472 121.491 277.288 122.093C278.832 123.233 279.616 125.821 279.487 127.691C279.429 128.523 278.974 129.779 277.991 129.923C278.271 129.883 277.058 129.646 277.018 129.638C276.461 129.499 275.911 129.348 275.35 129.229C270.596 128.214 265.629 128.43 260.984 129.864C260.01 130.166 260.103 130.776 260.944 131.163C261.99 131.645 263.57 131.611 264.653 131.276C267.483 130.404 270.335 130.189 273.233 130.865C275.82 131.469 278.365 132.098 281.019 131.49C283.131 131.006 284.816 129.682 284.729 127.359C284.642 125.035 283.684 122.663 281.845 121.303L277.692 122.289C279.81 123.01 281.958 123.952 284.191 124.227C285.807 124.427 288.562 124.485 289.505 122.824C290.449 121.162 288.606 119.373 287.279 118.558C285.532 117.487 283.458 116.948 281.433 116.741C272.241 115.815 263.37 120.517 256.258 125.867C255.378 126.529 256.526 126.984 257.161 127.151C258.085 127.396 259.915 127.567 260.761 126.933L260.751 126.936Z" fill="#4C3768"/>
<path d="M290.935 87.2814C296.656 90.7251 303.103 92.6482 309.752 93.1201C313.024 93.3511 316.365 93.2397 319.605 92.6886C322.301 92.2292 325.167 91.3581 326.849 89.056C327.541 88.1088 322.67 87.2316 321.804 88.4131C319.242 91.9127 313.24 91.6443 309.392 91.2349C304.452 90.7101 299.74 89.0467 295.492 86.4915C294.493 85.8899 293.031 85.8354 291.911 86.054C291.409 86.1503 289.913 86.6693 290.932 87.2813L290.935 87.2814Z" fill="#4C3768"/>
<path d="M325.94 90.1277C323.008 91.0034 322.981 88.997 323.786 90.456C324.004 90.8532 324.085 91.3217 324.157 91.7638C324.35 92.9743 324.308 94.2236 324.212 95.4417C324.061 97.3671 323.838 99.5201 323.087 101.322C322.772 102.084 327.707 102.993 328.334 101.482C329.393 98.9313 329.682 95.6019 329.502 92.8787C329.422 91.6355 329.203 90.1189 328.164 89.2929C326.616 88.0608 324.056 88.1862 322.267 88.7192C321.286 89.0143 321.392 89.6346 322.227 90.0178C323.283 90.503 324.843 90.4586 325.936 90.1309L325.94 90.1277Z" fill="#4C3768"/>
<path d="M328.808 88.7415C330.533 86.956 332.089 85.0307 333.423 82.9346C334.757 80.8385 335.741 78.4002 336.981 76.1568C338.217 73.9264 340.034 72.2421 342.076 70.7453C343.147 69.9606 344.24 69.2029 345.346 68.4587C346.385 67.7617 347.65 66.6252 348.842 66.2743L346.978 66.4866L347.339 66.5041L345.087 65.9792L345.363 66.1846L345.019 65.7113C345.534 67.4666 343.847 69.8211 342.775 71.0718C342.132 71.8203 344.234 72.2093 344.574 72.2558C345.446 72.3743 347.156 72.4855 347.82 71.7115C348.953 70.3937 349.828 68.8383 350.221 67.1336C350.664 65.204 349.093 64.7457 347.398 64.6678C345.372 64.5732 344.067 65.2818 342.42 66.3541C340.622 67.5203 338.839 68.7264 337.125 70.0166C335.694 71.0923 334.291 72.2344 333.171 73.6445C331.997 75.1251 331.271 76.859 330.458 78.5476C328.752 82.0832 326.491 85.2769 323.766 88.0987C323.075 88.8129 325.264 89.244 325.565 89.2827C326.49 89.4094 328.083 89.4907 328.811 88.7383L328.808 88.7415Z" fill="#4C3768"/>
<path d="M344.004 71.0206C345.768 72.6073 347.31 74.7648 347.677 77.1623C347.8 77.9669 347.85 79.219 347.041 79.7097C346.687 79.9254 345.804 79.8197 345.356 79.8585C344.609 79.9244 343.859 79.9901 343.111 80.056L346.406 81.0427L346.332 81.0174L343.773 81.1757L344.129 81.2293L342.575 80.7584C343.762 81.5332 342.546 83.5311 341.853 84.2026C340.666 85.3447 338.913 85.9871 337.506 86.8141C334.782 88.4148 332.224 90.2767 329.812 92.317C329.05 92.9601 331.372 93.4707 331.61 93.501C332.627 93.6403 334.025 93.6632 334.857 92.9566C336.872 91.2554 339 89.7054 341.251 88.3298C343.241 87.1137 345.927 86.2109 347.377 84.2988C348.427 82.9128 348.732 80.7591 346.931 79.8705C345.415 79.1218 341.792 78.8669 341.163 80.8795C340.868 81.8224 344.204 81.888 344.458 81.8662C346.929 81.6494 351.972 82.1479 352.863 79.0831C353.721 76.1321 351.124 72.5178 349.086 70.6832C348.264 69.9459 346.934 69.866 345.878 69.9421C345.641 69.9611 343.298 70.3722 344.011 71.0143L344.004 71.0206Z" fill="#4C3768"/>
<path d="M350.045 66.6429C356.912 56.1847 368.972 39.6184 380.017 33.2658C381.019 32.6891 379.632 32.1183 379.114 31.9811C378.072 31.7064 376.495 31.6387 375.513 32.1995C364.251 38.6768 352.005 55.3293 345 66C344.322 67.033 349.257 67.8432 350.045 66.6429Z" fill="#4C3768"/>
<path d="M90.9339 109.93L91.9004 109.02C92.1707 108.766 91.8492 108.438 91.6564 108.304C91.4469 108.176 91.2266 108.081 90.9887 108.024C90.7029 107.927 90.4061 107.862 90.1018 107.833C89.4378 107.757 88.7361 107.732 88.0789 107.863C87.6364 107.952 87.1934 108.056 86.8554 108.374L85.889 109.284C85.6186 109.538 85.9401 109.866 86.133 110C86.3424 110.128 86.5627 110.223 86.8006 110.28C87.0865 110.377 87.3832 110.442 87.6876 110.471C88.3516 110.547 89.0533 110.571 89.7104 110.441C90.153 110.352 90.596 110.248 90.9339 109.93Z" fill="#4C3768"/>
<path d="M7.24614 31.1717C4.61702 42.2581 12.71 52.5258 17.4281 61.8471C22.4651 71.7952 26.6392 82.5934 26.4516 93.9118C26.2565 105.801 20.7264 116.868 18.256 128.346C15.9421 139.104 15.2615 150.23 16.1745 161.195C17.2148 173.686 20.3551 185.989 25.4579 197.439C26.2413 199.196 29.1886 197.159 28.4852 195.579C19.4775 175.37 16.7794 152.551 20.8596 130.799C22.9843 119.464 28.1059 108.769 29.3754 97.2767C30.6448 85.7845 27.5718 75.4762 23.1061 65.5225C20.5181 59.7586 17.3356 54.331 14.4041 48.7437C11.5129 43.2364 8.92234 37.1278 10.4178 30.8187C10.6174 29.978 9.89766 29.3619 9.10793 29.4265C8.18991 29.5002 7.4525 30.3246 7.24932 31.1751L7.24614 31.1717Z" fill="#4C3768"/>
<path d="M375.92 43.9643C376.079 51.2067 375.817 58.7251 373.047 65.5204C370.496 71.7743 365.696 76.6434 362.005 82.1994C358.204 87.9195 355.996 94.4333 356.487 101.361C356.926 107.525 359.452 113.291 361.921 118.867C364.719 125.182 367.799 131.818 367.307 138.899C367.15 141.143 370.356 140.299 370.475 138.543C371.367 125.667 362.303 115.485 360.085 103.282C358.775 96.0804 360.599 89.2234 364.639 83.2119C368.377 77.6507 373.08 72.7295 375.751 66.5022C378.945 59.0568 379.305 50.8029 379.125 42.818C379.079 40.7651 375.883 42.2694 375.92 43.9577L375.92 43.9643Z" fill="#4C3768"/>
<path d="M367.757 137.695C364.582 140.947 362.711 145.17 362.16 149.669C361.854 152.161 361.902 154.69 362.19 157.18C362.46 159.522 362.728 162.242 363.742 164.403C364.547 166.118 366.103 167.491 368.076 167.489C370.272 167.484 371.894 165.754 372.984 164.031C375.439 160.151 376.823 155.565 376.616 150.954C376.397 146.063 374.218 141.313 370.546 138.059C369.191 136.859 366.584 139.35 367.917 140.533C371.11 143.361 373.051 147.28 373.375 151.538C373.541 153.739 373.269 155.966 372.63 158.076C372.302 159.163 371.869 160.219 371.362 161.238C370.949 162.069 370.335 163.478 369.547 164.042C366.044 166.538 365.162 153.91 365.155 152.321C365.133 147.755 366.348 143.006 369.611 139.666C371.169 138.069 369.336 136.073 367.757 137.695Z" fill="#4C3768"/>
<path d="M364.121 167.392C363.366 169.095 362.622 170.802 361.897 172.516C361.352 173.803 360.493 175.264 360.512 176.708C360.555 180.232 365.426 178.749 367.589 178.519C370.197 178.244 374.102 178.492 374.577 175.083C374.771 173.677 374.173 172.188 373.806 170.858C373.286 168.971 372.713 167.102 372.103 165.245C371.494 163.389 368.535 165.465 369.076 167.106C369.785 169.258 370.448 171.422 371.024 173.612C371.148 174.085 371.172 174.805 371.392 175.235C371.321 175.735 371.389 175.76 371.599 175.31C371.976 174.911 371.841 174.828 371.197 175.055C370.207 174.913 368.823 175.304 367.835 175.409C366.722 175.526 365.575 175.573 364.473 175.762C363.869 175.865 363.838 176.035 363.76 175.58C363.701 175.24 364.098 174.707 364.226 174.399C365.143 172.205 366.086 170.022 367.051 167.845C368.017 165.669 364.878 165.691 364.124 167.392L364.121 167.392Z" fill="#4C3768"/>
<path d="M368.103 148.003C369.011 148.03 369.876 147.528 370.234 146.666C370.5 146.021 370.347 144.9 369.436 144.873C368.524 144.845 367.662 145.347 367.304 146.209C367.038 146.854 367.191 147.975 368.103 148.003Z" fill="#4C3768"/>
<path d="M379.662 134.589C380.789 133.242 381.914 131.894 383.041 130.546C383.532 129.957 383.575 128.856 382.819 128.472C381.972 128.039 381.069 128.688 380.555 129.305C379.427 130.653 378.303 132 377.175 133.348C376.685 133.937 376.641 135.038 377.398 135.423C378.245 135.855 379.147 135.207 379.662 134.589Z" fill="#4C3768"/>
<path d="M382.761 137.457C384.885 135.848 387.009 134.235 389.132 132.626C389.781 132.134 390.483 131.289 390.102 130.417C389.765 129.642 388.653 129.605 388.045 130.069C385.921 131.678 383.798 133.291 381.674 134.9C381.026 135.392 380.324 136.237 380.704 137.109C381.042 137.884 382.153 137.921 382.761 137.457Z" fill="#4C3768"/>
<path d="M290.659 46.9232C287.026 46.471 283.372 46.271 279.713 46.3465C276.442 46.4109 272.976 46.5251 269.79 47.3306C267.048 48.0249 264.429 49.7372 265.348 52.8802C266.177 55.7151 267.626 59.1073 269.717 61.2554C272.199 63.8059 274.86 62.1146 277.601 61.0363C280.767 59.7903 284.066 58.9193 287.438 58.4576C291.021 57.9662 294.626 57.9317 298.221 58.3301C300.619 58.5969 304.708 59.1647 305.446 55.9476C306.173 52.7793 300.66 50.6812 298.527 49.7003C295.067 48.1079 291.367 47.0662 287.598 46.5476C285.921 46.3159 284.206 49.3949 286.265 49.6777C291.439 50.3901 296.421 52.1438 300.825 54.9664C301.215 55.2146 301.758 55.9007 302.125 56.0563L302.279 56.2809L302.964 55.3336C302.964 55.3336 301.599 55.4101 301.458 55.4025C300.138 55.3393 298.822 55.0989 297.499 55.0061C294.918 54.8289 292.317 54.8546 289.743 55.1044C284.591 55.607 279.67 57.0358 274.939 59.1038C273.675 59.6561 272.925 59.4987 272.026 58.4143C271.215 57.4345 270.598 56.257 270.032 55.1237C269.466 53.9905 269.11 52.729 268.558 51.5798C268.57 51.6031 268.238 50.7757 268.227 51.0314L268.075 51.0465L268.583 50.7567C269.22 50.4249 269.986 50.294 270.685 50.1742C276.793 49.1295 283.202 49.2855 289.329 50.0501C291.007 50.2588 292.719 47.1764 290.662 46.92L290.659 46.9232Z" fill="#4C3768"/>
<path d="M290.754 46.611C290.905 42.0958 286.556 37.8931 282.715 36.1939C280.03 35.0059 277.038 34.9344 274.152 34.8628C271.266 34.7912 268.54 34.5242 265.728 34.4943C262.916 34.4643 260.12 34.7566 257.56 35.9422C254.999 37.1278 252.984 39.0686 251.305 41.2822C249.626 43.4958 248.574 46.0338 248.493 48.8903C248.448 50.4743 248.57 52.0634 248.67 53.6419C248.756 55.0035 248.694 56.5213 249.09 57.8365C249.993 60.8312 254.269 60.0229 256.59 59.5619C259.906 58.9048 263.17 57.5666 266.591 57.648C267.499 57.6691 268.361 57.1768 268.722 56.3114C268.988 55.6729 268.839 54.5392 267.924 54.5179C263.158 54.4054 258.834 56.6959 254.121 56.7918C252.715 56.8212 252.195 56.6412 252.071 55.2194C251.96 53.9097 251.876 52.6007 251.804 51.2889C251.657 48.675 251.495 46.136 252.902 43.8091C254.08 41.8625 255.769 39.9774 257.807 38.9203C259.845 37.8631 262.323 37.6302 264.641 37.6319C266.958 37.6336 269.301 37.8823 271.635 37.96C274.183 38.0443 276.805 37.9667 279.289 38.6201C283.057 39.6081 287.69 43.5438 287.551 47.7541C287.524 48.6592 288.627 48.8799 289.293 48.6606C290.188 48.3662 290.729 47.5195 290.757 46.6144L290.754 46.611Z" fill="#4C3768"/>
<path d="M250.5 45.9999L251 56.0001L253 57.5001L263.5 55.5001L268 56.0001L273.5 60.5001L283 58.5001L291 56.0001L299 57.0001L304 56.0001L297 51.5001L289 47.0001L288 42.0001L279 37.5001L265 36.5001L257 37.5001L250.5 45.9999Z" fill="#4C3768"/>
<path d="M264.092 35.5046C264.093 35.4751 264.123 35.1248 264.133 35.1283C264.169 35.1393 264.089 35.278 264.072 35.2841C264.072 35.2841 263.84 35.4805 263.832 35.4244C263.826 35.3816 264.205 35.5507 264.208 35.5541C264.447 35.709 264.522 35.9444 264.596 36.1994C264.848 37.0671 266.078 36.901 266.653 36.5477C267.419 36.0787 267.875 35.2129 267.623 34.3387C267.204 32.8915 265.647 32.076 264.209 32.321C262.552 32.602 261.012 34.1502 260.92 35.8608C260.802 38.1056 263.996 37.2642 264.089 35.5045L264.092 35.5046Z" fill="#4C3768"/>
</g>
<defs>
<clipPath id="clip0_1_1749">
<rect width="389" height="256.225" fill="white" transform="translate(7.80933) rotate(1.74654)"/>
</clipPath>
</defs>
</svg>
