<svg width="173" height="156" viewBox="0 0 173 156" fill="none" xmlns="http://www.w3.org/2000/svg">
<g clip-path="url(#clip0_1_1602)">
<path d="M28.9107 155.377C31.5033 150.485 35.6866 146.862 40.092 143.635C44.964 140.066 49.9186 136.646 54.6369 132.864C59.3553 129.082 63.9314 125.499 67.7391 121.059C71.4728 116.705 73.3795 111.548 74.0482 105.894C74.754 99.9261 74.4353 93.8845 74.9561 87.8997C75.5138 81.4739 76.6806 75.1049 78.4308 68.8982C80.1041 62.959 82.6682 57.1535 83.2175 50.9525C83.485 47.9388 83.1918 44.9051 82.2812 42.0138C81.5583 39.72 80.6562 36.7291 78.0153 36.1372C76.6294 35.827 74.7881 35.8497 73.5986 36.7348C72.5428 37.5202 72.1159 38.9574 71.6777 40.1412C70.4967 43.3172 69.8876 46.6581 69.1961 49.965C67.6992 57.1165 65.4396 64.0632 62.4003 70.711C61.9051 71.7981 66.3048 72.1993 66.7914 71.135C69.3413 65.5572 71.4016 59.7603 72.8786 53.8068C73.5844 50.9667 74.0938 48.0867 74.7512 45.2381C75.0927 43.7611 75.4768 42.2841 75.9748 40.8527C76.2879 39.9562 76.84 37.6426 77.9299 37.3438L76.3192 37.5771L75.861 37.5117C75.3658 37.3495 75.2691 37.3808 75.5736 37.6113C75.639 37.8162 75.972 38.0695 76.1029 38.2715C76.3477 38.6472 76.5383 39.0541 76.729 39.4582C77.2583 40.588 77.6823 41.7605 78.0039 42.9671C78.5873 45.1499 78.832 47.4066 78.7467 49.6633C78.5731 54.3731 77.0534 58.8952 75.602 63.3346C72.5656 72.6234 70.5963 82.1455 70.1324 91.9237C69.7226 100.575 70.5678 110.003 65.6303 117.613C63.274 121.244 60.0212 124.178 56.777 126.996C53.0546 130.228 49.2128 133.325 45.2656 136.279C37.9206 141.78 28.9705 146.561 24.5225 154.956C23.9903 155.96 28.3473 156.447 28.9136 155.38L28.9107 155.377Z" fill="#4C3768"/>
<path d="M76.3477 40.087C77.4291 34.8564 77.0421 29.4266 75.1439 24.4265C74.3499 22.3405 73.3624 20.135 71.4159 18.88C69.4694 17.625 66.0999 17.2579 64.2131 18.7889C62.5597 20.1293 61.9166 23.1772 61.5438 25.155C61.0116 27.9809 61.0571 30.878 60.9006 33.7409C60.5876 39.4894 59.8135 45.218 58.3991 50.8044C56.8197 57.0424 54.5715 63.104 53.6096 69.4872C53.4645 70.4547 57.9723 70.7535 58.1629 69.4872C58.9 64.5952 60.3827 59.8825 61.76 55.1414C63.1374 50.4003 64.2188 45.6335 64.8307 40.7387C65.4568 35.75 65.1949 30.6389 66.0032 25.6872C66.1768 24.6172 66.43 23.5614 66.7744 22.534C66.9793 21.9279 67.2069 21.3246 67.4858 20.7469C67.5712 20.5676 67.6566 20.3883 67.759 20.2175C68.1062 19.6342 68.4563 19.6797 67.6737 19.5289C66.5666 19.3154 67.8729 19.9557 68.1944 20.2745C68.4876 20.5647 68.7437 20.8977 68.9799 21.2335C69.606 22.1242 70.0727 23.1374 70.4768 24.1448C72.5002 29.1933 72.8957 34.7767 71.7944 40.087C71.6094 40.9835 76.0802 41.3819 76.3477 40.087Z" fill="#4C3768"/>
<path d="M67.3293 20.7127C67.4118 15.2744 66.3361 5.79495 59.1532 5.71811C56.1338 5.68681 53.8657 7.24632 53.3962 10.3056C52.9807 13.0006 53.7946 15.7268 53.436 18.4332C53.3051 19.4207 57.8242 19.6882 57.9893 18.4332C58.254 16.4411 57.9182 14.4605 57.8556 12.4684C57.8271 11.5236 57.8385 10.5503 58.0832 9.63111C58.2084 9.15586 58.3963 8.70907 58.6695 8.29642C58.7975 8.10291 58.9398 7.92078 59.0963 7.74718C59.5744 7.40853 59.3923 7.2577 58.5528 7.289C58.7861 7.03573 60.6758 9.89008 60.8237 10.1604C61.4242 11.2532 61.8511 12.4172 62.147 13.6266C62.7162 15.9431 62.813 18.3365 62.776 20.7127C62.7589 21.8311 67.3122 21.8767 67.3293 20.7127Z" fill="#4C3768"/>
<path d="M4.44529 130.245C5.62062 128.655 7.48463 127.593 9.10105 126.449C10.7175 125.305 12.4506 124.096 14.1097 122.898C17.3368 120.567 20.5042 118.122 23.3586 115.339C29.4942 109.351 33.6718 101.614 36.566 93.6056C39.6338 85.1165 41.1535 76.1522 42.0243 67.1964C42.9805 57.3783 43.5724 47.529 44.5855 37.7166C45.1348 32.3835 45.8946 27.0448 47.0301 21.8056C47.5651 19.3383 48.2168 16.945 49.0677 14.5687C49.4547 13.4816 49.8446 12.3888 50.4024 11.3757C50.6756 10.8777 50.9858 10.3968 51.3472 9.95852C51.4838 9.79061 51.6289 9.62555 51.7826 9.47188C52.477 8.7775 52.6904 9.20722 51.3187 9.15884L49.708 8.92548C50.8748 9.24991 51.683 11.4981 52.0843 12.4941C52.8498 14.4008 53.1486 16.4043 53.4104 18.4334C53.5698 19.6713 58.0946 19.4408 57.9637 18.4334C57.6478 15.9916 57.184 13.7093 56.2192 11.4383C55.4964 9.74223 54.3865 8.05182 52.4684 7.67332C47.0016 6.59191 45.3141 12.1925 43.8912 16.2677C42.1723 21.1881 41.495 26.6179 40.7636 31.7575C39.9639 37.3751 39.5057 43.0411 39.0419 48.6929C37.3372 69.456 36.6201 91.9066 23.7883 109.408C20.6238 113.726 16.6197 117.288 12.3595 120.49C10.3105 122.032 8.20746 123.501 6.11294 124.981C4.04973 126.438 1.56248 127.79 0.0627381 129.819C-0.517808 130.604 3.68831 131.276 4.45383 130.243L4.44529 130.245Z" fill="#4C3768"/>
<path d="M53.1429 13.2226C54.3012 29.8393 50.6073 46.2085 46.9163 62.2987C46.7171 63.1638 51.1708 63.6021 51.4696 62.2987C55.1606 46.2085 58.8545 29.8422 57.6962 13.2226C57.6137 12.0274 53.0689 12.1441 53.1429 13.2226Z" fill="#4C3768"/>
<path d="M42.1922 62.7056C41.9246 58.5194 40.0493 54.5011 37.0042 51.6098C35.5557 50.2352 33.8681 49.0599 32.0127 48.3001C30.1572 47.5403 26.987 47.0707 25.547 48.7184C24.107 50.3662 25.0461 53.1664 25.7974 54.9109C26.8304 57.3128 28.1281 59.5525 28.999 62.0312C30.7377 66.9857 31.4606 72.2334 31.2045 77.4754C31.1532 78.5597 35.7008 78.6706 35.7578 77.4754C35.9627 73.2494 35.5415 69.0233 34.4458 64.9339C33.9023 62.9048 33.1994 60.9156 32.3542 58.9918C31.509 57.0681 30.2625 55.1642 29.6819 53.0868C29.4144 52.1334 29.238 51.0036 29.5027 50.0247L29.6393 49.5636C30.1117 48.966 29.7076 48.8693 28.4298 49.2762C28.5493 49.4726 29.3433 49.6974 29.5397 49.8055C31.0821 50.6479 32.4424 51.7464 33.6063 53.0611C35.9911 55.7561 37.4055 59.1113 37.636 62.6999C37.7128 63.8923 42.2576 63.7842 42.1893 62.6999L42.1922 62.7056Z" fill="#4C3768"/>
<path d="M96.545 14.548C99.6691 9.37392 103.757 4.89939 108.629 1.32341C109.326 0.813947 107.442 0.168224 107.21 0.10848C106.394 -0.109502 105.103 -0.324767 104.357 0.223017C99.4856 3.799 95.3973 8.27353 92.2732 13.4476C91.6372 14.5025 95.9523 15.5291 96.5446 14.5508L96.545 14.548Z" fill="#4C3768"/>
<path d="M79.9188 0.651371C80.5018 3.89519 81.088 7.13664 81.671 10.3805C81.9163 11.7473 86.3053 11.8492 86.1687 11.0901C85.5857 7.84628 84.9995 4.60483 84.4165 1.36101C84.1712 -0.00584622 79.7822 -0.107729 79.9188 0.651371Z" fill="#4C3768"/>
<path d="M145.509 140.815C139.249 137.061 132.752 133.726 126.055 130.82C119.718 128.071 112.948 125.965 107.324 121.828C96.7207 114.027 92.7792 100.376 92.0251 87.8172C91.7746 83.6509 91.8202 79.4761 91.9739 75.307C92.045 73.3718 92.0962 71.4224 92.2869 69.493C92.4349 67.9904 92.6341 64.6522 94.1936 63.9152L92.8333 64.2823L93.2402 64.2595L91.0262 64.0546C91.9027 64.3449 92.5999 65.9642 92.9784 66.7183C93.4338 67.629 93.798 68.5795 94.1139 69.547C94.7884 71.6131 95.2778 73.7418 95.8214 75.8448C97.0166 80.4721 98.209 85.0994 99.4043 89.7239C99.7401 91.0216 104.177 90.5691 103.958 89.7239C102.694 84.8291 101.431 79.9371 100.167 75.0423C99.595 72.8283 99.077 70.5829 98.2802 68.4343C97.6598 66.761 96.8402 64.5441 95.3433 63.4513C93.8464 62.3585 90.6875 62.2162 89.4297 63.7103C88.0979 65.2897 87.856 68.0359 87.6909 69.9995C87.2811 74.9086 87.2014 79.9058 87.3437 84.8291C87.6027 93.7792 89.1053 102.817 93.3541 110.797C95.2636 114.383 97.711 117.695 100.719 120.436C103.975 123.398 107.788 125.53 111.781 127.326C116.695 129.537 121.761 131.375 126.647 133.658C131.761 136.048 136.741 138.712 141.582 141.614C142.439 142.127 143.753 142.115 144.698 141.899C145.154 141.797 146.392 141.333 145.515 140.809L145.509 140.815Z" fill="#4C3768"/>
<path d="M99.2591 72.5322C97.9245 61.4107 98.6018 50.0901 101.354 39.2248C102.022 36.5781 102.745 33.7779 104.225 31.4471C104.376 31.2109 104.621 30.952 104.743 30.7158C104.993 30.2263 105.685 30.4027 104.194 30.36C102.703 30.3174 103.465 30.1608 103.602 30.7727C103.659 31.0317 103.804 31.2935 103.875 31.5581C104.225 32.87 104.379 34.2531 104.49 35.602C104.937 41.0034 104.513 46.4645 104.703 51.8773C104.922 58.0584 105.671 64.2309 107.791 70.0734C108.266 71.3853 112.6 70.782 112.344 70.0734C110.227 64.2309 109.476 58.0584 109.257 51.8773C109.043 45.7986 109.712 39.5549 108.804 33.5246C108.417 30.9548 107.854 28.9798 104.939 28.7066C101.547 28.3907 99.9023 30.4539 98.6814 33.3197C96.3308 38.8434 95.3091 45.1668 94.629 51.0975C93.8122 58.2177 93.8549 65.4119 94.7087 72.5265C94.8567 73.7587 99.3844 73.5453 99.262 72.5265L99.2591 72.5322Z" fill="#4C3768"/>
<path d="M109.054 39.3044C109.245 36.507 109.456 33.6925 110.11 30.9577C110.432 29.6201 110.856 28.3082 111.462 27.0703C111.764 26.4556 112.102 25.8608 112.484 25.2916C112.691 24.9843 112.905 24.6684 113.152 24.3952C113.494 24.0196 114.083 23.8887 113.124 23.8687L111.513 23.6354C112.082 23.8204 112.233 25.673 112.333 26.1596C112.504 26.9963 112.649 27.8387 112.768 28.6839C113.019 30.4596 113.161 32.2525 113.229 34.0454C113.369 37.6681 113.209 41.2937 113.047 44.9135C112.723 52.1135 112.387 59.3931 114.211 66.4365C114.547 67.7341 118.984 67.2817 118.764 66.4365C116.388 57.2558 117.689 47.7736 117.825 38.4279C117.894 33.7864 117.777 28.9001 116.482 24.4066C115.893 22.3576 113.818 22.0702 111.9 22.3348C109.843 22.6194 108.611 23.92 107.603 25.6417C105.198 29.751 104.814 34.6601 104.495 39.3044C104.421 40.3688 108.966 40.5139 109.049 39.3044H109.054Z" fill="#4C3768"/>
<path d="M118.161 31.0658C118.454 30.3202 119.018 29.6144 119.279 28.8916L119.416 28.7408C119.837 28.3566 119.493 28.2911 118.389 28.5444C118.369 28.6127 118.958 29.4978 119.018 29.6173C119.834 31.2679 120.463 33.0237 121.001 34.7824C122.031 38.1462 122.646 41.6238 123.053 45.1128C123.884 52.2387 123.847 59.4272 124.521 66.5674C125.148 73.2095 126.485 79.7606 129.416 85.7937C132.063 91.2463 135.802 96.1525 140.313 100.199C145.424 104.784 151.446 108.256 158.008 110.288C158.987 110.589 160.259 110.683 161.227 110.288C161.955 109.989 162.115 109.437 161.227 109.161C148.751 105.299 138.355 95.7882 133.107 83.8557C127.009 69.9852 129.633 54.4243 126.812 39.8878C126.42 37.8559 125.916 35.8411 125.267 33.8746C124.681 32.096 124.069 30.0271 123.022 28.4619C121.849 26.7117 119.342 26.5836 117.458 26.9991C115.435 27.4459 114.493 28.8148 113.773 30.6446C113.317 31.8 117.748 32.1245 118.164 31.0687L118.161 31.0658Z" fill="#4C3768"/>
<path d="M134.809 139.207C133.975 141.068 133.062 143.302 134.399 145.166C135.737 147.03 138.884 147.007 140.947 146.461C145.151 145.348 147.678 141.691 149.664 138.086C152.368 133.179 154.912 128.176 157.374 123.142C158.62 120.595 159.838 118.031 161.028 115.459C161.958 113.449 163.333 111.173 163.367 108.89C163.404 106.397 161.435 104.94 159.178 104.468C156.244 103.85 153.338 104.61 150.797 106.084C149.92 106.594 151.181 107.075 151.614 107.174C152.547 107.391 153.87 107.388 154.73 106.89C155.64 106.363 156.71 105.621 157.359 106.047C158.301 106.671 158.782 107.536 158.811 108.677C158.87 111.05 157.374 113.449 156.406 115.533C154.249 120.18 152.001 124.787 149.664 129.346C147.595 133.384 145.669 137.736 142.945 141.387C142.376 142.152 141.75 142.887 141.039 143.524C140.282 144.207 139.399 144.526 138.585 145.072C137.877 145.268 138.082 145.314 139.203 145.2C138.995 145.024 138.825 144.819 138.685 144.588C138.455 144.218 138.329 143.803 138.278 143.373C138.116 142.061 138.682 140.795 139.203 139.631C139.695 138.535 135.29 138.143 134.812 139.207H134.809Z" fill="#4C3768"/>
<path d="M159.337 110.868C162.527 112.328 165.791 113.557 169.172 114.502C170.168 114.781 171.406 114.904 172.391 114.502C173.1 114.212 173.302 113.631 172.391 113.375C169.272 112.502 166.216 111.412 163.267 110.063C162.32 109.63 161.17 109.548 160.151 109.778C159.784 109.861 158.372 110.427 159.334 110.868H159.337Z" fill="#4C3768"/>
<path d="M143.577 142.761C146.46 144.5 149.408 146.114 152.427 147.602C153.352 148.057 154.545 148.114 155.544 147.887C155.934 147.798 157.3 147.261 156.36 146.797C153.341 145.308 150.393 143.695 147.51 141.956C146.656 141.441 145.339 141.458 144.394 141.671C143.936 141.777 142.703 142.235 143.577 142.761Z" fill="#4C3768"/>
</g>
<defs>
<clipPath id="clip0_1_1602">
<rect width="173" height="156" fill="white"/>
</clipPath>
</defs>
</svg>
