<svg width="231" height="223" viewBox="0 0 231 223" fill="none" xmlns="http://www.w3.org/2000/svg">
<path d="M172.972 49.5196C173.515 50.5867 174.059 51.6509 174.602 52.718C174.676 52.8625 174.818 53.331 174.952 53.4125C175.014 53.637 175.08 53.5863 175.151 53.2634C175.369 52.9945 175.357 52.9178 175.115 53.036C174.968 52.9994 174.569 53.1756 174.403 53.2008C174.1 53.2455 173.803 53.2503 173.495 53.2511C172.1 53.253 171.063 55.7234 172.859 55.7194C174.473 55.7155 176.928 55.3202 177.553 53.5586C177.86 52.6961 177.422 51.9917 177.038 51.2383C176.525 50.2356 176.015 49.2332 175.503 48.2276C174.8 46.8468 172.352 48.302 172.972 49.5168L172.972 49.5196Z" fill="#4C3768"/>
<path d="M164.277 59.6921C165.538 61.5612 167.749 62.5577 169.985 62.3587C170.691 62.2948 171.404 61.8023 171.577 61.0844C171.727 60.4598 171.31 59.8303 170.621 59.8904C168.933 60.0399 167.47 59.2887 166.528 57.8902C165.733 56.7111 163.467 58.491 164.277 59.6921Z" fill="#4C3768"/>
<path d="M156.438 65.3139C144.859 65.3565 136.902 76.4087 130.741 84.7961C124.002 93.9696 116.632 104.521 115.92 116.257C115.306 126.379 120.962 137.182 131.923 138.295C137.414 138.855 142.908 137.247 147.854 134.978C152.801 132.709 157.318 129.777 161.44 126.279C163.717 124.346 165.928 122.232 167.784 119.888C169.558 117.647 171.072 114.643 170.393 111.707C169.797 109.131 167.822 107.264 165.877 105.618C163.933 103.972 161.266 101.936 161.475 99.1328C161.549 98.1284 160.817 97.6381 159.897 97.9743C158.915 98.3326 158.041 99.5675 157.964 100.604C157.608 105.381 161.706 107.808 164.707 110.737C166.084 112.083 167.468 113.963 166.875 115.992C166.281 118.021 164.192 119.826 162.677 121.295C156.086 127.673 147.018 133.359 137.712 134.26C133.031 134.713 128.452 133.486 124.989 130.227C121.68 127.115 119.879 122.711 119.467 118.24C118.498 107.766 124.758 98.1678 130.456 89.9525C133.751 85.2051 137.22 80.3988 141.255 76.2441C145.018 72.3699 149.636 69.3708 155.201 69.3493C156.922 69.3428 158.835 65.304 156.435 65.3107L156.438 65.3139Z" fill="#4C3768"/>
<path d="M153.117 101.082C148.947 106.403 141.948 108.401 135.763 110.297C134.06 110.82 132.785 114.891 135.407 114.085C142.892 111.787 150.355 109.095 155.35 102.722C155.853 102.079 156.418 100.673 155.6 100.043C154.782 99.4124 153.584 100.487 153.117 101.082Z" fill="#4C3768"/>
<path d="M187.484 90.9434C190.474 99.7038 193.28 108.525 195.896 117.404C197.185 121.774 198.428 126.157 199.627 130.552C200.212 132.706 200.789 134.862 201.353 137.02C201.637 138.099 201.915 139.18 202.192 140.261C202.371 140.954 203.166 142.812 202.957 143.497L203.896 141.982C203.261 142.712 202.079 143.222 201.245 143.702C200.288 144.251 199.306 144.757 198.312 145.239C196.32 146.202 194.269 147.031 192.178 147.757C190.503 148.337 189.236 152.442 191.822 151.545C196.064 150.077 200.216 148.14 203.974 145.675C204.976 145.02 205.845 144.188 206.26 143.039C206.699 141.825 206.394 140.703 206.089 139.503C205.471 137.07 204.841 134.641 204.196 132.213C201.665 122.689 198.92 113.218 195.966 103.818C194.28 98.4544 192.524 93.1153 190.709 87.7957C190.356 86.7614 188.823 87.665 188.381 88.0861C187.606 88.8214 187.126 89.9113 187.478 90.9456L187.484 90.9434Z" fill="#4C3768"/>
<path d="M143.691 48.0432C144.05 48.38 144.449 48.557 144.949 48.5555C145.511 48.5546 146.117 48.2763 146.475 47.8399C146.851 47.3802 146.938 46.7769 146.56 46.2967C146.305 45.9735 145.963 45.6976 145.67 45.4081C145.308 45.0499 144.734 45.1316 144.362 45.4485C144.064 45.7041 143.658 46.3417 144.036 46.7164C144.226 46.9038 144.415 47.0934 144.607 47.2811C144.697 47.3689 144.791 47.4531 144.875 47.5467C144.911 47.5844 144.942 47.6237 144.973 47.6671C144.908 47.5904 144.887 47.4974 144.907 47.3881L145.142 46.9422C145.207 46.8504 145.347 46.8069 145.442 46.7627C145.351 46.7842 145.34 46.7872 145.409 46.7738C145.478 46.7625 145.468 46.7592 145.374 46.7657L145.446 46.7694C145.352 46.7422 145.345 46.7435 145.424 46.7775C145.389 46.7632 145.222 46.6372 145.329 46.7375C144.957 46.3887 144.4 46.4534 144.021 46.7779C143.732 47.0261 143.307 47.6826 143.695 48.0458L143.691 48.0432Z" fill="#4C3768"/>
<path d="M180.932 114.901C181.199 117.516 181.466 120.131 181.734 122.745C182 125.34 182.45 128.007 182.387 130.617C182.341 132.606 181.998 134.915 180.091 135.966C178.089 137.07 175.454 137.175 173.236 137.399C168.039 137.923 162.802 138.051 157.588 138.285C152.374 138.52 146.699 138.776 141.255 139.022C139.534 139.101 137.638 143.168 140.021 143.061C149.487 142.633 158.978 142.371 168.432 141.733C172.492 141.461 177.217 141.401 180.774 139.175C184.453 136.876 185.953 132.475 185.9 128.32C185.833 123.063 184.955 117.743 184.42 112.516C184.306 111.419 183.054 111.643 182.404 112.061C181.505 112.637 180.823 113.818 180.935 114.898L180.932 114.901Z" fill="#4C3768"/>
<path d="M182.1 125.644C183.377 132.215 184.778 138.76 186.308 145.275C186.848 147.575 190.191 144.583 189.792 142.893C188.263 136.375 186.862 129.834 185.585 123.262C185.137 120.964 181.769 123.942 182.1 125.644Z" fill="#4C3768"/>
<path d="M195.311 149.677C196.594 152.703 195.544 155.03 194.07 157.727C193.054 159.588 191.546 162.697 192.414 164.865C193.326 167.142 196.228 165.54 197.541 164.658C199.626 163.261 201.268 161.296 202.34 159.033C203.147 157.329 200.68 157.128 200.036 158.484C199.233 160.177 198.102 161.636 196.558 162.715C196.401 162.826 195.565 163.455 195.344 163.434C194.604 163.358 194.894 162.313 194.965 161.909C195.147 160.867 195.544 159.878 196.017 158.936C196.884 157.212 198.021 155.621 198.405 153.693C198.765 151.893 198.552 150.071 197.836 148.384C197.234 146.959 194.77 148.407 195.305 149.673L195.311 149.677Z" fill="#4C3768"/>
<path d="M203.662 145.931C206.301 148.902 207.612 152.645 208.976 156.313C209.691 158.24 210.951 160.611 210.878 162.707C210.81 164.629 209.154 166.247 208.423 167.95C207.691 169.654 210.132 169.884 210.727 168.499C211.553 166.571 213.096 164.952 213.43 162.824C213.789 160.528 212.663 158.175 211.892 156.073C210.367 151.903 208.913 147.505 205.913 144.129C204.953 143.048 202.71 144.859 203.662 145.931Z" fill="#4C3768"/>
<path d="M206.542 158.532C206.977 159.767 207.367 161.032 207.212 162.355C207.062 163.601 206.515 164.768 206.317 166.008C206.033 167.784 208.644 167.316 208.865 165.928C209.101 164.448 209.75 163.069 209.859 161.564C209.968 160.058 209.561 158.623 209.073 157.24C208.585 155.857 206.083 157.225 206.542 158.53L206.542 158.532Z" fill="#4C3768"/>
<path d="M200.806 160.81C202.041 163.326 200.827 165.8 199.939 168.208C199.632 169.039 199.146 170.073 199.614 170.935C199.994 171.638 200.744 171.866 201.503 171.687C203.336 171.254 204.473 169.158 205.2 167.602C206.217 165.417 206.733 163.092 206.817 160.687C206.875 159.039 204.237 160.038 204.191 161.391C204.13 163.174 203.797 164.945 203.1 166.597C202.817 167.274 202.489 167.954 202.084 168.565C202.053 168.614 201.458 169.378 201.425 169.334C201.771 169.793 202.356 168.494 202.399 168.374C203.435 165.52 204.795 162.488 203.339 159.521C202.658 158.131 200.207 159.583 200.808 160.81L200.806 160.81Z" fill="#4C3768"/>
<path d="M163.78 105.07C165.387 103.547 166.63 101.79 167.359 99.6864C168.153 97.3922 167.788 95.0334 168.281 92.7058C168.353 92.3453 168.456 91.9911 168.59 91.6462C168.917 91.34 168.912 91.1741 168.573 91.1452C168.237 90.9803 168.241 91.0765 168.584 91.4366C168.758 91.7286 168.91 92.0327 169.04 92.3461C169.458 93.2918 169.727 94.2937 170.039 95.2742C170.502 96.724 171.232 99.6688 173.201 99.5214C174.576 99.4185 175.619 96.9198 173.837 97.0531C173.234 97.0994 171.707 91.3243 171.389 90.6594C171.028 89.9057 170.578 88.8374 169.691 88.5911C168.805 88.3448 167.965 88.8785 167.384 89.464C165.607 91.2546 165.542 93.8849 165.426 96.2369C165.293 98.9583 164.449 101.467 162.429 103.379C161.142 104.594 162.464 106.314 163.78 105.067L163.78 105.07Z" fill="#4C3768"/>
<path d="M174.303 99.1795C177.357 97.2866 180.028 94.9394 182.227 92.09L180.003 91.5562C179.54 94.4529 177.102 97.3367 175.296 99.5419C174.099 101.002 176.157 101.961 177.197 100.69C178.375 99.2535 179.459 97.7459 180.435 96.1654C181.33 94.7151 182.277 93.1837 182.551 91.4759C182.783 90.0335 181.021 90.0384 180.326 90.9421C178.452 93.3719 176.214 95.4538 173.6 97.0733C173.058 97.4078 172.428 98.0634 172.686 98.771C172.92 99.4091 173.774 99.5067 174.303 99.1795Z" fill="#4C3768"/>
<path d="M180.814 93.9732C181.305 94.4658 181.766 94.836 181.415 95.5718C181.089 96.2553 180.363 96.9437 179.905 97.54C178.956 98.7782 178.006 100.019 177.056 101.257C175.91 102.752 177.952 103.719 178.957 102.405C180.453 100.453 182.012 98.5337 183.449 96.5343C184.592 94.9432 184.428 93.5382 183.063 92.1681C182.042 91.1439 179.809 92.9623 180.812 93.97L180.814 93.9732Z" fill="#4C3768"/>
<path d="M182.49 96.869C183.179 97.9551 182.099 99.5067 181.53 100.445C180.835 101.589 179.989 102.653 179.05 103.608C177.209 105.479 174.94 106.922 172.473 107.812C171.842 108.041 171.136 108.595 171.174 109.348C171.209 110.007 171.881 110.404 172.504 110.18C175.989 108.924 179.084 106.891 181.55 104.115C183.453 101.972 186.6 98.0007 184.741 95.0642C183.983 93.8689 181.714 95.6428 182.49 96.8661L182.49 96.869Z" fill="#4C3768"/>
<path d="M174.06 72.5017C170.349 73.2046 166.52 76.2359 166.569 80.3209C166.616 84.1881 170.165 87.2538 173.976 86.739C177.788 86.2243 180.935 82.804 180.591 78.9156C180.424 77.0197 179.525 75.2139 178.059 73.9866C177.372 73.4113 176.546 72.9309 175.658 72.7484C174.543 72.5175 173.553 72.9706 172.468 73.097C171.771 73.1793 171.038 73.6407 170.876 74.3713C170.742 74.9803 171.132 75.6474 171.832 75.5653C173.219 75.4029 174.325 74.8494 175.613 75.6885C176.677 76.3809 177.447 77.5167 177.789 78.7326C178.517 81.326 176.997 84.0127 174.219 84.317C171.66 84.5992 169.35 82.3004 169.205 79.8094C169.045 77.0177 171.655 75.3224 174.091 74.8641C175.57 74.5841 175.91 72.1467 174.061 72.4959L174.06 72.5017Z" fill="#4C3768"/>
<path d="M179.568 75.8687C181.868 72.7375 186.549 75.6878 187.539 78.5076C188.135 80.1986 187.79 82.3452 186.393 83.5599C184.997 84.7746 182.839 84.7937 181.068 84.7454C179.671 84.7095 178.632 87.1652 180.432 87.2137C183.276 87.2881 186.27 86.8424 188.331 84.6944C190.194 82.748 190.963 79.7924 190.07 77.2184C188.328 72.2029 181.057 70.1058 177.667 74.7208C176.553 76.2367 178.587 77.2049 179.568 75.8687Z" fill="#4C3768"/>
<path d="M180.422 87.9845C179.918 89.4954 179.276 90.9361 178.52 92.3379C178.21 92.9099 178.377 93.6277 179.041 93.8174C179.705 94.007 180.511 93.4666 180.824 92.8863C181.686 91.2902 182.393 89.6247 182.97 87.9042C183.19 87.2468 182.643 86.7132 182.014 86.7101C181.272 86.7062 180.643 87.3213 180.422 87.9845Z" fill="#4C3768"/>
<path d="M169.729 86.9182C169.507 88.3994 169.354 89.8826 169.287 91.3782C169.254 92.0884 170.037 92.3608 170.616 92.2103C171.31 92.0289 171.881 91.3988 171.915 90.6743C171.973 89.3896 172.089 88.1112 172.279 86.8382C172.546 85.0601 169.941 85.5286 169.732 86.9185L169.729 86.9182Z" fill="#4C3768"/>
<path d="M152.452 36.8721C151.918 37.9997 151.436 39.8352 150.227 40.4266C149.243 40.9093 148.387 41.9287 148.294 43.0558C148.216 43.9902 148.951 44.6664 149.871 44.2143C152.715 42.8234 154.034 40.1956 155.329 37.4637C155.674 36.7359 155.947 35.4489 154.911 35.1571C153.876 34.8654 152.809 36.1166 152.452 36.8721Z" fill="#4C3768"/>
<path d="M151.432 40.0785C148.516 39.7378 145.409 39.3731 142.581 40.3827C139.39 41.5234 137.021 44.9139 137.143 48.3221C137.289 52.5021 141.403 53.022 144.223 54.913C145.841 55.9976 146.08 57.4488 146.632 59.1987C147.184 60.9485 147.885 62.7092 148.97 64.2309C151.406 67.6462 155.665 69.038 159.375 70.6447C161.532 71.5801 163.755 72.4126 166.075 72.8439C168.159 73.2287 170.828 73.5187 172.86 72.7777C179.225 70.4626 183.707 64.341 185.486 58.0067C187.461 50.9718 186.754 43.242 183.885 36.5551C183.115 34.7607 179.943 38.0419 180.658 39.7054C184.409 48.4487 184.692 61.9955 175.694 67.7355C174.483 68.5066 173.319 69.0276 171.872 69.105C169.75 69.2152 167.627 68.8145 165.603 68.2013C163.699 67.6247 161.871 66.8418 160.069 66.0094C158.266 65.1771 156.348 64.4741 154.701 63.4414C151.972 61.7259 150.573 58.6199 149.772 55.6093C149.397 54.2011 148.966 52.984 147.895 51.9425C146.921 50.9931 145.651 50.4606 144.437 49.8966C143.112 49.2798 141.284 48.5984 140.776 47.0826C140.445 46.097 140.729 44.8954 141.602 44.4235C143.827 43.228 147.016 43.8252 149.391 44.1029C151.175 44.3123 153.397 40.3107 151.432 40.0813L151.432 40.0785Z" fill="#4C3768"/>
<path d="M163.578 44.869C164.661 44.2693 165.892 43.9996 167.113 43.8941C168.182 43.8037 169.1 42.5939 169.382 41.6445C169.636 40.7963 169.419 39.7655 168.347 39.8556C166.437 40.0182 164.699 40.6524 163.032 41.5761C162.161 42.0598 161.378 43.4094 161.563 44.4134C161.769 45.536 162.858 45.2679 163.578 44.869Z" fill="#4C3768"/>
<path d="M177.105 43.2548C178.365 42.7736 179.66 42.7112 180.977 42.9761C182.734 43.3275 185.02 39.3562 183.019 38.9545C181.131 38.577 179.252 38.7807 177.458 39.4668C176.455 39.8489 175.613 41.0352 175.524 42.096C175.435 43.1569 176.174 43.6102 177.102 43.2545L177.105 43.2548Z" fill="#4C3768"/>
<path d="M168.552 45.101C167.5 45.6691 166.658 46.6146 166.365 47.7949C166.098 48.8679 166.305 50.3708 167.495 50.7899C168.782 51.243 170.235 50.1824 170.553 48.9295C170.868 47.6877 169.986 46.7166 168.86 46.3771C167.558 45.9831 165.998 48.2998 167.598 48.7847C167.851 48.8621 167.842 48.9974 168.007 49.126C168.245 49.3148 169.012 48.8022 168.979 48.4503C168.967 48.3213 168.893 48.2 168.882 48.0653C168.853 47.7226 168.987 47.3544 169.256 47.2101C169.824 46.9016 170.406 46.2002 170.169 45.5124C169.932 44.8245 169.086 44.8149 168.552 45.1039L168.552 45.101Z" fill="#4C3768"/>
<path d="M178.265 43.5662C177.213 44.1343 176.371 45.0798 176.078 46.2601C175.811 47.3331 176.019 48.836 177.208 49.2551C178.496 49.7082 179.948 48.6477 180.267 47.3947C180.586 46.1417 179.7 45.1818 178.574 44.8423C177.271 44.4483 175.711 46.765 177.312 47.2499C177.564 47.3273 177.555 47.4626 177.721 47.5912C177.958 47.78 178.726 47.2674 178.692 46.9155C178.68 46.7865 178.607 46.6652 178.596 46.5305C178.567 46.1878 178.7 45.8196 178.969 45.6753C179.537 45.3669 180.12 44.6654 179.882 43.9776C179.645 43.2897 178.799 43.2801 178.265 43.5691L178.265 43.5662Z" fill="#4C3768"/>
<path d="M160.259 35.7847C165.026 40.6017 172.811 39.0069 176.894 34.2338L174.165 34.9874C178.287 40.937 186.772 42.0051 193.196 39.6706C199.908 37.2315 204.866 30.5387 204.792 23.326C204.722 16.2645 199.393 11.069 192.908 9.12871C184.999 6.76361 177.006 9.61768 169.516 12.0576C167.65 12.6661 165.645 13.2099 163.662 13.0945C161.491 12.9699 159.637 11.9434 157.742 10.9846C154.483 9.33803 151.105 8.49943 147.446 8.6364C140.119 8.90651 133.381 13.0692 129.304 19.0703C127.213 22.1435 125.746 25.5904 125.006 29.2339C124.293 32.7326 124.718 36.279 124.139 39.775C123.942 40.9747 123.623 42.158 122.564 42.8617C121.007 43.8962 119.111 44.4085 117.515 45.4243C114.53 47.3305 112.079 49.998 110.266 53.0266C106.189 59.8401 106.235 68.7153 110.773 75.3116C115.586 82.3069 124.153 84.8348 132.188 85.74C133.974 85.938 136.193 81.9389 134.23 81.7184C127.699 80.9829 120.868 79.3147 116.028 74.5796C111.551 70.2012 109.59 63.1883 111.497 57.1817C112.358 54.4684 113.976 52.0421 116.111 50.1664C118.413 48.1409 121.447 47.5226 123.791 45.6411C129.291 41.2281 127.142 33.8869 128.497 27.8887C129.882 21.7546 133.845 16.3732 139.776 14.013C142.641 12.874 145.81 12.4244 148.877 12.7934C152.419 13.2208 155.175 15.0321 158.407 16.3421C161.881 17.7485 165.468 17.032 168.916 15.9285C172.363 14.825 175.925 13.5021 179.606 12.8364C186.063 11.6691 193.204 12.4519 197.995 17.373C202.707 22.2157 202.266 30.4913 196.567 34.3687C190.999 38.1562 181.449 37.6925 177.395 31.8403C176.607 30.7026 175.242 31.918 174.665 32.5939C171.758 35.9915 165.797 34.9014 162.992 32.0662C161.735 30.7952 158.889 34.3998 160.259 35.7847Z" fill="#4C3768"/>
<path d="M126 88C139 80 138.5 82.5 138.5 82.5L143.778 81.0001L156.42 94.5V119.589C150.977 127.834 139.714 139.813 135.5 141C130.232 142.484 125.868 139.873 117.44 131.462C109.012 123.052 117.322 93.3405 126 88Z" fill="#DDD4E7"/>
<path d="M66.568 116.534C62.4094 128.802 61.2529 141.748 61.0943 154.633C61.0136 161.26 61.1664 167.888 61.2818 174.512C61.3423 177.967 61.4029 181.419 61.4606 184.874C61.4894 186.506 61.5182 188.135 61.5442 189.768C61.573 191.501 61.3193 193.537 61.6394 195.236C61.9595 196.934 61.6567 194.691 62.2565 194.93C62.1441 194.887 61.0424 195.501 60.9501 195.544C60.1455 195.91 59.338 196.262 58.5248 196.605C56.8752 197.295 55.1996 197.926 53.5068 198.509C49.9999 199.717 46.4239 200.698 42.7989 201.473C41.1147 201.834 39.7102 206.117 42.0173 205.623C48.558 204.222 54.9256 202.117 61.0164 199.348C62.3546 198.74 63.5629 198.117 64.3272 196.79C65.2212 195.239 64.9674 193.373 64.9385 191.662C64.8751 188.017 64.8117 184.369 64.7482 180.724C64.5088 166.896 63.8282 152.952 65.0424 139.15C65.7085 131.571 67.0496 124.021 69.4951 116.805C69.7518 116.044 69.8931 114.729 68.826 114.559C67.8196 114.397 66.839 115.738 66.5708 116.534H66.568Z" fill="#4C3768"/>
<path d="M36.7197 196.594C40.6245 181.664 46.5019 167.288 54.1183 153.869C54.522 153.16 54.9719 151.723 54.0721 151.178C53.1724 150.633 52.0909 151.827 51.7189 152.485C43.7045 166.604 37.5935 181.71 33.484 197.416C33.2561 198.29 33.7176 199.262 34.7096 199.08C35.8055 198.878 36.4717 197.54 36.7168 196.594H36.7197Z" fill="#4C3768"/>
<path d="M37.8531 125.454C29.7378 136.635 21.7523 148 15.3587 160.277C12.1402 166.454 9.30247 172.845 7.11647 179.461C5.30827 184.94 2.06388 193.053 8.3652 196.851C11.6327 198.82 15.5461 198.48 19.1827 198.933C23.0269 199.409 26.6001 200.868 29.7637 203.086C31.2691 204.141 33.6512 200.199 32.0709 199.088C29.5215 197.3 26.701 196.02 23.6845 195.256C20.4718 194.44 17.1553 194.682 13.9196 194.059C11.2952 193.554 8.33348 192.003 7.95569 189.067C7.56924 186.056 9.11213 182.544 10.0407 179.732C14.0263 167.663 20.1719 156.467 27.0615 145.829C31.0298 139.7 35.2633 133.754 39.5517 127.848C40.0823 127.118 40.7975 125.774 40.1342 124.906C39.4709 124.038 38.3087 124.822 37.8531 125.451V125.454Z" fill="#4C3768"/>
<path d="M27.9239 205.274C28.3103 206.422 28.5929 207.582 28.7573 208.781C28.8381 209.378 29.1928 211.449 28.9794 211.795L29.8417 211.086L29.5504 211.169L30.4761 211.158C29.5417 210.849 28.9592 209.621 28.4862 208.827C27.9873 207.991 27.5057 207.126 26.8857 206.37C25.7033 204.934 23.7249 203.85 22.1647 205.393C20.5267 207.011 20.7862 209.995 21.0141 212.075C21.3169 214.875 21.9369 217.62 22.753 220.314L23.7941 218.359L23.4538 218.463L24.3796 218.451C22.7559 217.874 21.5072 215.31 20.8699 213.843C20.0768 212.011 19.6961 210.021 19.774 208.026C19.8432 206.229 17.3054 206.982 17.2506 208.386C17.1467 211.109 17.6428 213.785 18.8857 216.225C19.8115 218.042 21.6716 221.447 24.0854 220.709C24.8871 220.464 25.3601 219.524 25.1265 218.754C24.1835 215.639 23.301 212.121 23.4135 208.839C23.425 208.504 23.5144 208.156 23.5057 207.824L23.598 207.325C23.3558 207.184 23.35 207.172 23.575 207.296C24.0393 207.377 24.5786 208.078 24.8468 208.409C25.5822 209.315 26.0782 210.396 26.7213 211.365C27.2404 212.15 27.8575 213.122 28.7631 213.479C29.7638 213.871 30.8222 213.231 31.2461 212.303C31.7595 211.175 31.4884 209.499 31.3557 208.311C31.1827 206.74 30.802 205.211 30.3002 203.714C29.7984 202.218 27.4884 203.968 27.9268 205.274H27.9239Z" fill="#4C3768"/>
<path d="M13.7725 197.719C9.81003 200.213 8.71126 206.318 9.12654 210.627C9.58797 215.423 12.1719 219.838 16.0335 222.687C17.1957 223.547 19.2029 221.482 18.0724 220.649C14.9289 218.33 12.5988 214.967 11.8662 211.094C11.4913 209.101 11.5029 207.06 11.9182 205.075C12.3046 203.233 13.0227 200.796 14.704 199.737C16.094 198.861 15.3731 196.712 13.7725 197.722V197.719Z" fill="#4C3768"/>
<path d="M13.1612 209.41C13.0891 213.863 15.4308 217.459 17.911 220.972C18.7156 222.111 20.7862 220.115 19.9499 218.933C17.9023 216.034 15.624 212.752 15.6846 209.049C15.7134 207.253 13.1842 208.003 13.1612 209.41Z" fill="#4C3768"/>
<path d="M78.9199 118.902L79.0901 120.77C79.1276 121.171 79.2141 121.624 79.6005 121.846C79.9552 122.051 80.4542 121.944 80.7858 121.751C81.6654 121.235 82.5133 119.998 82.4181 118.925L82.2479 117.056C82.2105 116.655 82.1239 116.202 81.7375 115.98C81.3828 115.776 80.8839 115.882 80.5522 116.075C79.6726 116.592 78.8248 117.829 78.9199 118.902Z" fill="#4C3768"/>
<path d="M78.9198 126.383L79.0899 128.421C79.1245 128.819 79.2168 129.275 79.6004 129.497C79.9551 129.702 80.454 129.595 80.7857 129.402C81.671 128.88 82.5074 127.651 82.418 126.576L82.2478 124.537C82.2132 124.139 82.1209 123.683 81.7374 123.461C81.3826 123.256 80.8837 123.363 80.5521 123.556C79.6667 124.078 78.8304 125.307 78.9198 126.383Z" fill="#4C3768"/>
<path d="M83.9406 118.175C89.172 128.491 89.4777 140.511 90.415 151.804C90.9456 158.178 91.7444 164.597 91.9953 170.988C92.0415 172.133 91.7963 172.456 90.8216 173.044C89.7199 173.71 88.4827 174.146 87.2542 174.506C84.9355 175.184 82.5361 175.49 80.1223 175.42C74.5939 175.265 69.3048 173.278 65.0799 169.704C63.7274 168.562 61.2818 172.441 62.7728 173.702C66.9285 177.214 72.2377 179.262 77.6652 179.602C82.6746 179.916 89.2556 178.982 92.9614 175.259C95.5944 172.614 95.3666 169.5 95.0782 166.048C94.7898 162.596 94.5043 159.152 94.2188 155.703C93.6478 148.813 93.2181 141.892 92.376 135.028C91.5339 128.165 90.0343 121.062 86.8043 114.688C86.3112 113.714 84.9327 114.749 84.5231 115.233C83.8512 116.026 83.4503 117.206 83.9406 118.175Z" fill="#4C3768"/>
<path d="M90.8793 122.198C96.4568 140.219 102.049 158.287 109.53 175.628C111.643 180.531 113.91 185.37 116.344 190.122C116.84 191.094 118.216 190.065 118.625 189.577C119.294 188.784 119.701 187.602 119.208 186.636C110.703 170.027 104.491 152.381 98.8331 134.636C97.221 129.581 95.6522 124.514 94.0833 119.444C93.3912 117.206 90.3689 120.54 90.8822 122.195L90.8793 122.198Z" fill="#4C3768"/>
<path d="M91.7013 167.585C93.2327 175.864 94.6833 184.161 96.2983 192.424C96.5694 193.811 97.273 195.189 98.937 194.771C99.7157 194.575 100.336 194.036 101.031 193.664C101.821 193.243 102.669 192.972 103.54 192.784C107.465 191.934 111.508 193.113 115.274 194.163C116.944 194.63 118.914 190.515 116.86 189.941C113.308 188.949 109.717 188.003 105.997 188.378C104.396 188.539 102.848 188.946 101.394 189.644C101.172 189.75 99.9031 190.668 99.7186 190.578C99.3725 190.405 99.2543 188.358 99.1879 188C97.7575 180.277 96.33 172.557 94.8996 164.834C94.6977 163.743 93.4288 164.133 92.8462 164.603C91.9955 165.292 91.4995 166.509 91.6984 167.585H91.7013Z" fill="#4C3768"/>
<path d="M99.1936 131.222C101.755 136.24 104.555 141.128 107.589 145.875C108.664 147.559 111.424 143.914 110.449 142.388C107.416 137.641 104.615 132.753 102.054 127.735C101.558 126.763 100.183 127.793 99.7733 128.28C99.1042 129.073 98.6976 130.256 99.1908 131.222H99.1936Z" fill="#4C3768"/>
<path d="M113.175 141.295C113.853 140.612 114.536 139.934 115.237 139.271C115.86 138.682 116.537 137.837 117.284 137.408C118.415 136.753 120.142 139.706 120.855 140.482C123.384 143.239 126.227 145.693 129.051 148.142C130.38 149.295 132.834 145.425 131.358 144.144C127.923 141.168 124.609 138.152 121.705 134.645C120.402 133.07 118.971 132.502 117.123 133.647C115.274 134.792 113.757 136.574 112.269 138.08C111.557 138.801 110.758 139.986 111.121 141.062C111.444 142.025 112.543 141.93 113.175 141.292V141.295Z" fill="#4C3768"/>
<path d="M126.931 151.501C123.038 155.784 118.732 159.657 114.109 163.132C113.325 163.72 112.633 165.133 112.961 166.114C113.316 167.172 114.328 166.861 115.015 166.345C119.946 162.639 124.48 158.463 128.63 153.898C129.227 153.24 129.832 151.769 129.212 150.956C128.543 150.08 127.444 150.939 126.931 151.501Z" fill="#4C3768"/>
<path d="M140.413 129.457C139.822 128.877 139.401 128.225 139.214 127.412C139.121 127.011 139.136 126.668 139.121 126.253C139.095 125.54 139.049 126.241 139.456 126.489C140.488 127.124 142.299 125.056 141.255 124.283C141.002 124.096 140.788 123.92 140.664 123.614C140.63 123.53 140.592 123.069 140.578 123.054C141.431 124.049 142.963 122.475 142.865 121.54C142.749 120.453 143.346 118.827 144.713 119.848C145.87 120.713 147.88 118.651 146.752 117.809C143.436 115.328 139.972 119.115 140.332 122.53L142.619 121.016C140.252 118.25 136.007 123.943 139.216 126.322L141.016 124.116C139.101 122.939 137.201 123.845 136.707 126.013C136.252 128.015 136.927 130.074 138.377 131.496C139.404 132.505 141.446 130.466 140.416 129.457H140.413Z" fill="#4C3768"/>
<path d="M145.832 122.071C146.011 123.095 146.178 124.032 145.65 124.99C145.247 125.722 144.505 126.394 143.949 127.02C142.792 128.323 141.581 129.581 140.332 130.798C139.046 132.052 140.575 133.584 141.861 132.326C143.609 130.622 145.281 128.842 146.841 126.962C148.384 125.105 148.776 123.47 148.364 121.082C148.079 119.438 145.598 120.727 145.832 122.071Z" fill="#4C3768"/>
<path d="M123 136.984C124.171 134.054 126.282 131.588 127.32 128.597C127.802 127.213 128.03 125.771 127.877 124.309C127.707 122.668 126.715 120.574 127.45 118.959C127.796 118.198 128.48 118.163 129.224 118.002C130.063 117.82 130.873 117.578 131.692 117.313C132.56 117.033 133.486 116.727 134.412 116.886C134.793 116.952 135.118 117.261 135.444 117.333C135.638 117.595 135.831 117.543 136.024 117.171L135.718 117.362C133.385 118.282 130.449 119.176 129.195 121.54C128.318 123.193 130.432 123.94 131.211 122.472C132.529 119.989 138.706 120.384 138.322 116.756C138.123 114.887 135.831 114.236 134.276 114.31C133.195 114.362 132.183 114.723 131.159 115.043C130.196 115.343 129.204 115.493 128.24 115.784C126.524 116.3 125.33 117.63 124.895 119.357C124.356 121.489 125.232 123.45 125.371 125.561C125.636 129.633 122.089 133.096 120.656 136.69C119.958 138.44 122.455 138.362 123.006 136.981L123 136.984Z" fill="#4C3768"/>
<path d="M131.891 120.967C131.825 125.598 132.583 130.192 134.158 134.55C134.645 135.897 135.312 138.581 137.273 137.411C138.118 136.906 138.498 135.899 138.957 135.069C139.583 133.935 140.205 132.802 140.831 131.669C141.737 130.028 139.614 129.281 138.815 130.737C137.887 132.424 137.056 134.27 135.96 135.853L136.823 135.144L136.566 135.274L137.492 135.262C137.192 135.115 136.929 134.048 136.811 133.736C136.554 133.076 136.318 132.407 136.102 131.732C135.701 130.475 135.375 129.197 135.118 127.902C134.602 125.29 134.386 122.636 134.426 119.975C134.438 119.251 133.535 119.104 133.013 119.294C132.298 119.553 131.903 120.24 131.891 120.964V120.967Z" fill="#4C3768"/>
<path d="M133.472 132.695C131.179 134.7 129.486 137.281 128.572 140.185C128.007 141.979 130.47 141.912 130.922 140.476C131.698 138.005 133.051 135.928 135 134.224C136.361 133.036 134.813 131.522 133.472 132.695Z" fill="#4C3768"/>
<path d="M145.12 117.376C146.27 115.294 147.251 113.142 148.03 110.896C148.647 109.117 146.169 109.186 145.679 110.605C144.981 112.623 144.136 114.576 143.104 116.445C142.198 118.085 144.318 118.83 145.12 117.376Z" fill="#4C3768"/>
<path d="M133.054 113.815C132.71 112.373 132.526 110.916 132.503 109.434C132.491 108.713 131.626 108.557 131.09 108.753C130.392 109.01 129.959 109.699 129.968 110.423C129.991 111.905 130.173 113.362 130.519 114.804C130.908 116.43 133.368 115.141 133.051 113.815H133.054Z" fill="#4C3768"/>
<path d="M132.289 107.94C129.449 106.51 127.851 103.075 128.719 99.9775C129.587 96.8802 133.252 93.8002 136.696 94.6568C140.139 95.5133 141.307 99.6747 140.208 102.688C138.939 106.166 135.26 107.649 131.773 107.219C130.426 107.055 129.134 109.549 130.784 109.751C134.576 110.218 138.492 108.86 140.924 105.849C143.118 103.127 143.949 99.121 142.351 95.9026C140.552 92.2746 136.618 91.2047 132.976 92.6611C129.674 93.9848 126.977 96.9235 126.172 100.416C125.273 104.324 127.136 108.502 130.729 110.311C131.958 110.931 133.668 108.632 132.289 107.937V107.94Z" fill="#4C3768"/>
<path d="M143.176 97.0562C144.563 95.8449 147.092 97.4974 148.289 98.2818C150.06 99.4411 151.297 101.16 151.141 103.36C150.813 107.98 145.224 108.716 142.115 106.339C140.967 105.463 138.954 107.522 140.076 108.378C142.484 110.218 145.63 110.896 148.497 109.708C151.363 108.52 153.408 105.999 153.665 103C153.936 99.8103 152.266 97.4195 149.645 95.7844C147.072 94.1809 144.145 93.3446 141.645 95.5277C140.283 96.7158 141.832 98.2299 143.173 97.0562H143.176Z" fill="#4C3768"/>
<path d="M135.92 91.551C136.575 88.8776 138.697 86.582 141.601 86.6599C144.719 86.7407 147.262 90.7689 148 93.5C148.435 95.115 150.887 93.8259 150.532 92.5108C150 88.5 145.985 83.7645 141.457 84.148C137.27 84.5028 134.343 88.0471 133.397 91.9115C133.232 92.5863 133.867 93.0593 134.478 92.993C135.231 92.9093 135.753 92.2345 135.92 91.551Z" fill="#4C3768"/>
<path d="M132.327 111.311C136.805 110.657 141.218 111.729 145.544 112.811C146.862 113.14 148.159 110.685 146.533 110.279C141.988 109.145 137.388 108.104 132.687 108.791C131.315 108.993 130.55 111.574 132.327 111.314V111.311Z" fill="#4C3768"/>
<path d="M88.1973 61.5323C94.6082 68.9064 100.122 77.8551 100.22 87.9257C100.264 92.4477 99.208 97.1427 96.5375 100.86C93.4748 105.125 88.9586 106.838 83.9435 107.686C81.4172 108.116 78.7237 108.502 76.3329 107.337C74.3315 106.362 72.7713 104.739 71.1852 103.216C69.5154 101.613 67.8052 100.165 65.7259 99.1095C63.5342 97.9963 61.1838 97.2494 58.9199 96.3121C56.8003 95.4354 54.421 94.3885 52.9503 92.5573C52.4081 91.8824 51.7044 90.7779 51.9149 89.8435C52.0303 89.3273 53.0454 89.1889 53.775 89.1831C55.9726 89.1658 58.023 90.1694 60.2061 90.2876C62.5219 90.4116 64.558 89.5349 65.9566 87.6633C67.6553 85.3879 67.9696 82.3021 68.7829 79.6518C69.6307 76.8919 70.6487 74.1666 72.0619 71.6432C74.5824 67.1501 78.4064 63.3693 83.4215 61.8582C84.4655 61.5438 85.2528 60.4191 85.4287 59.3722C85.5614 58.5936 85.2644 57.3881 84.2031 57.7082C72.7886 61.1516 67.4793 72.7708 64.7223 83.4124C64.506 84.2459 64.4397 85.4629 63.5717 85.8637C62.496 86.3627 61.005 86.0339 59.9062 85.8003C57.5443 85.3014 55.1622 84.4679 52.7801 85.3879C50.398 86.3079 48.6965 88.9437 48.5898 91.5681C48.4831 94.1924 49.9914 96.3582 52.0418 97.8781C56.4225 101.131 62.2335 101.636 66.5161 105.085C68.4685 106.657 70.0864 108.606 72.0907 110.12C74.3257 111.81 76.8664 112.494 79.658 112.289C85.2586 111.879 91.1417 110.368 95.3551 106.472C99.5685 102.576 101.994 97.5493 103.018 92.1506C105.437 79.3894 99.2138 67.4212 91.061 58.0456C89.6883 56.4682 87.0322 60.1884 88.2002 61.5323H88.1973Z" fill="#4C3768"/>
<path d="M90.1641 60.4882C90.986 59.6087 92.7106 59.3376 93.7516 58.7983C95.3061 57.9908 96.5 56.6988 97.0768 55.0348L93.9506 55.8221C93.7632 58.3657 95.1446 61.091 96.1107 63.3606C97.1287 65.7542 98.4928 68.194 99.0234 70.7578C99.4445 72.7938 101.786 70.3223 102.086 69.5177C103.323 66.2099 103.15 62.4262 102.954 58.9598C102.85 57.1054 102.683 55.2569 102.522 53.4054C102.377 51.7616 102.334 50.0918 101.881 48.497C100.875 44.9498 98.2967 41.6708 94.5361 40.9296C92.4106 40.5115 90.2131 41.0565 88.1079 41.3478C85.6392 41.6881 83.7705 41.2382 81.8671 39.6088C80.1944 38.1755 78.6775 36.8432 76.5694 36.0789C74.4613 35.3147 72.4339 35.0349 70.2969 35.0032C65.9595 34.9427 61.5241 35.7386 57.3972 37.0479C48.6936 39.8136 41.5127 45.1834 36.5264 52.8344C33.9453 56.7969 31.8805 61.0939 28.8812 64.7737C25.882 68.4536 22.427 71.3317 18.6751 73.9561C12.1344 78.5299 2.70694 81.9877 0.391172 90.4693C-0.629728 94.2097 0.368101 98.4029 3.1453 101.16C4.49208 102.498 6.03496 103.337 7.86047 103.83C9.68598 104.324 11.5894 104.387 13.1842 105.347C15.3673 106.662 15.1856 109.633 15.1712 111.862C15.1567 114.091 15.0443 116.606 15.6931 118.881C16.8525 122.951 20.1199 125.685 24.4544 124.603C28.4804 123.597 32.2208 119.781 36.5351 120.205C38.7788 120.424 40.3447 122.109 42.1385 123.282C43.6843 124.295 45.4809 124.952 47.3007 125.255C51.0555 125.881 55.0872 124.972 58.2249 122.83C60.0244 121.601 61.4462 120.041 62.6748 118.25C63.984 116.341 64.979 114.198 66.4238 112.387C67.6725 110.824 69.3366 109.532 71.413 109.48C72.4915 109.454 73.3221 108.459 73.6682 107.504C73.8874 106.905 74.0979 105.229 72.9991 105.258C68.7454 105.365 65.648 108.465 63.4274 111.813C61.2068 115.161 59.7043 118.783 55.7419 120.346C52.4773 121.636 48.6042 121.529 45.4781 119.897C43.7362 118.985 42.3606 117.503 40.5754 116.672C38.7903 115.842 36.861 115.79 34.9835 116.272C33.1061 116.753 31.2864 117.711 29.5387 118.605C27.7046 119.542 25.6022 120.785 23.4681 120.649C18.9894 120.361 18.4559 114.772 18.4819 111.386C18.5136 107.288 18.7184 102.339 14.1099 100.739C12.4632 100.168 10.704 100.035 9.05152 99.4959C7.39905 98.9566 5.88789 97.7828 4.85833 96.3178C2.87709 93.4945 2.78193 90.0453 5.0083 87.3604C7.38463 84.4938 10.9145 82.7433 14.0349 80.8284C21.4927 76.2488 28.3794 70.8328 33.2705 63.4789C35.7593 59.7355 37.7059 55.626 40.4514 52.0557C42.8999 48.8719 45.9914 46.285 49.4809 44.3067C52.9704 42.3283 57.0108 40.8748 61.0655 40.0443C65.1203 39.2137 69.3366 38.7581 73.3106 39.7905C75.3841 40.3298 77.1115 41.4257 78.6948 42.8388C80.1916 44.174 81.6681 45.3507 83.7186 45.6362C87.6753 46.1841 91.7618 43.6838 95.3724 46.2591C98.2534 48.3124 98.8821 51.6433 99.1647 54.9252C99.4473 58.2071 99.8136 61.8033 99.7242 65.2524C99.6896 66.5848 99.6319 67.9922 99.1618 69.2495L102.225 68.0095C101.717 65.561 100.434 63.2308 99.456 60.9497C98.5764 58.8992 97.1056 56.2835 97.2758 53.9793C97.3335 53.2122 96.7307 52.6844 96.004 52.8286C95.1417 52.9988 94.4178 53.9937 94.1496 54.7666C94.0689 55.0002 92.2837 55.6029 91.88 55.7702C90.5476 56.3268 89.4546 57.0333 88.4655 58.0946C87.8598 58.7435 87.2658 60.2287 87.8829 61.0362C88.5577 61.9187 89.645 61.0477 90.1641 60.4911V60.4882Z" fill="#4C3768"/>
<path d="M90.8678 84.6438C91.1591 84.9322 91.4446 85.2321 91.6811 85.5667C91.9176 85.9012 92.0358 86.3713 92.2867 86.6568C92.3473 87.0375 92.4251 87.049 92.5174 86.6972C92.3415 86.752 92.1656 86.7866 91.981 86.801C91.5715 86.8644 91.1649 86.8904 90.7611 86.9798C90.069 87.1326 89.4115 87.6835 89.3192 88.4217C89.2413 89.0504 89.7229 89.6532 90.4006 89.5032C92.1108 89.1283 94.0488 89.0966 94.7899 87.1557C95.4157 85.5176 93.9997 83.6893 92.9067 82.602C91.8858 81.5869 89.844 83.6229 90.8678 84.6409V84.6438Z" fill="#4C3768"/>
<path d="M81.8528 95.1874C82.1428 98.4664 86.6611 98.3395 89.998 97.6466C91.8827 97.2552 94.4975 96.3722 94.2854 94.459C94.2289 93.9498 93.7547 93.7502 93.1691 94.0164C92.6712 94.2428 92.2385 94.6039 91.7089 94.7404C89.3827 95.34 83.6955 96.2137 83.5 94C83.3558 92.3562 81.7316 93.8349 81.8528 95.1874Z" fill="#4C3768"/>
<path d="M88.1194 72.7478C89.5931 71.326 91.9608 71.848 93.7632 72.1595C95.1042 72.3902 96.3991 69.91 94.7524 69.6274C91.8195 69.1227 88.875 69.016 86.591 71.2193C85.2961 72.4681 86.8274 73.9965 88.1194 72.7478Z" fill="#4C3768"/>
<path d="M82.9054 70.7291C79.6581 70.4003 76.7194 71.8307 74.7295 74.3628C74.3431 74.853 74.3517 75.7153 74.9573 76.0153C75.635 76.3527 76.356 75.7903 76.7453 75.2943C77.9797 73.7254 79.9724 73.065 81.9162 73.2611C83.263 73.3967 84.5549 70.8963 82.9054 70.7291Z" fill="#4C3768"/>
<path d="M81.6104 78.181C80.7452 79.2538 80.1829 80.7592 80.4972 82.1406C80.8808 83.819 82.3746 84.514 83.9031 83.6662C85.0711 83.0202 86.1526 81.3418 85.3249 80.0469C84.4164 78.6251 82.5361 79.372 81.4691 80.1507C80.9471 80.5314 80.4338 81.2697 80.7481 81.9387C81.0452 82.5703 81.9103 82.527 82.4006 82.1665C82.5765 82.0368 82.9168 81.9099 83.0639 81.7743C83.0466 81.7888 83.2023 81.4859 83.1937 81.5263C83.2023 81.4715 83.1648 81.4571 83.1129 81.3043C82.8159 80.4564 83.0726 79.7989 83.6263 79.1125C84.0214 78.6222 83.9954 77.7628 83.3984 77.46C82.7207 77.114 82.0026 77.6936 81.6104 78.181Z" fill="#4C3768"/>
<path d="M91.8829 75.0895C90.9139 75.9979 90.1785 77.2957 90.2102 78.654C90.2391 79.9085 91.1042 80.9323 92.4279 80.8054C93.7516 80.6785 95.3984 79.3115 95.5108 77.9647C95.5656 77.313 95.2051 76.6929 94.6082 76.4074C93.9103 76.0729 93.1345 76.2863 92.4424 76.5026C91.0062 76.9496 90.937 79.4125 92.7336 78.853C92.8173 78.8184 92.9038 78.7953 92.9932 78.7867C93.1691 78.7838 93.1576 78.6482 92.9528 78.38L93.3623 77.76C93.2498 77.8926 93.1374 78.0224 93.0105 78.1435C92.9182 78.2301 92.7567 78.2618 92.8288 78.2906C92.9355 78.3339 92.7682 78.0339 92.7567 77.9445C92.6875 77.4226 93.0566 76.9496 93.4113 76.618C93.8584 76.1969 94.164 75.3317 93.6651 74.8328C93.1662 74.3339 92.3241 74.6713 91.88 75.0866L91.8829 75.0895Z" fill="#4C3768"/>
<path d="M190.896 69.7942C191.734 68.2173 192.429 66.5864 192.985 64.8901C193.203 64.2283 193.985 64.1574 194.473 64.5357C195.07 64.9974 195.162 65.8537 194.946 66.5195C194.39 68.2157 193.694 69.8466 192.856 71.4235C192.018 73.0004 190.235 71.0332 190.896 69.7942Z" fill="#4C3768"/>
<path d="M188.214 67.9782C187.994 67.081 187.542 66.3355 186.908 65.6542C186.449 65.1619 186.405 64.1663 186.827 63.6442C187.308 63.056 187.962 63.3467 188.388 63.8051C189.346 64.8346 189.984 66.1144 190.318 67.4749C190.466 68.0705 190.293 68.9629 189.599 69.1283C188.905 69.2936 188.356 68.5669 188.212 67.9767L188.214 67.9782Z" fill="#4C3768"/>
<path d="M57.7694 95.1701C58.3115 95.5767 58.8854 95.7584 59.5689 95.6805C60.3389 95.594 61.1262 95.1211 61.5502 94.4693C61.9943 93.7829 62.0231 92.9437 61.4319 92.3439C61.0339 91.9401 60.5235 91.6142 60.0794 91.2624C59.5285 90.8269 58.7557 91.0259 58.2942 91.5162C57.9251 91.9113 57.4666 92.8457 58.0404 93.3013C58.3288 93.5291 58.6172 93.7599 58.9085 93.9877C59.044 94.0944 59.1854 94.1953 59.3151 94.3107C59.3699 94.3568 59.419 94.4059 59.468 94.4606C59.367 94.3655 59.3238 94.2415 59.3353 94.0886L59.5891 93.4426C59.6641 93.3071 59.8487 93.2263 59.9727 93.1514C59.8515 93.1946 59.8371 93.2004 59.9294 93.1715C60.0217 93.1456 60.0073 93.1427 59.8804 93.1658L59.9784 93.16C59.8458 93.1369 59.8371 93.1398 59.9496 93.1744C59.9006 93.16 59.6526 93.0129 59.814 93.1341C59.2517 92.713 58.499 92.886 58.0289 93.3878C57.6713 93.7714 57.1897 94.7346 57.7751 95.173L57.7694 95.1701Z" fill="#4C3768"/>
<path d="M83.5811 97.7132C83.7047 95.9945 84.1739 94.4002 85.0732 92.9254C85.9725 91.4507 84.1773 90.2406 83.2398 91.7805C82.094 93.6614 81.3857 95.758 81.2283 97.9581C81.0934 99.8333 83.4753 99.2147 83.5839 97.7126L83.5811 97.7132Z" fill="#4C3768"/>
<path d="M95.7271 82.2589L96.35 82.1896C96.4163 82.181 96.474 82.1579 96.523 82.1176C96.5721 82.0945 96.6038 82.0541 96.6182 81.9993C96.6326 81.9445 96.624 81.8955 96.5951 81.8494C96.5721 81.7888 96.5346 81.7398 96.4798 81.6994C96.3471 81.5869 96.1827 81.5062 96.0155 81.4658L95.828 81.4283C95.7184 81.4139 95.606 81.4168 95.4964 81.4341L94.8734 81.5033C94.8071 81.5119 94.7494 81.535 94.7004 81.5754C94.6514 81.5985 94.6197 81.6388 94.6052 81.6936C94.5908 81.7484 94.5995 81.7974 94.6283 81.8436C94.6514 81.9041 94.6889 81.9532 94.7437 81.9935C94.8763 82.106 95.0407 82.1868 95.208 82.2271L95.3954 82.2646C95.505 82.2791 95.6175 82.2762 95.7271 82.2589Z" fill="#4C3768"/>
<path d="M85.6046 85.46C85.9593 85.3158 86.3112 85.1745 86.6659 85.0303C86.7668 84.9899 86.8303 84.8861 86.8072 84.7794C86.7813 84.6582 86.6399 84.5429 86.5419 84.4852C86.3833 84.3929 86.1987 84.3237 86.0141 84.3064C85.8555 84.292 85.7027 84.2949 85.5556 84.3554C85.2009 84.4996 84.849 84.6409 84.4943 84.7851C84.3934 84.8255 84.3299 84.9293 84.353 85.036C84.379 85.1572 84.5203 85.2725 84.6183 85.3302C84.7769 85.4225 84.9615 85.4917 85.1461 85.509C85.3047 85.5234 85.4575 85.5205 85.6046 85.46Z" fill="#4C3768"/>
<path d="M2 92.5L6 100L14.5 102.5L16.5 109.5L17 117.5L21.5 122.5L25 122L32.5 119L39 118.5L47.5 123L55.5 122.5L60.5 118.5L64 113L68.5 108.5L72 107.5L68 103L61.5 99.5L52 95L51 90L53 87.5H59.5L65 86L69 75.5L75 65L84.2398 61.5H91L90 59L92 60L98.5 69.5L97.5 61.5L101.5 67V60.5L100 47.5L93.5 43H82.5L74 38H61L48.5 42L37.5 54L31 65L26.5 69.5L13.5 79L4 85L2 92.5Z" fill="#4C3768"/>
<path d="M111 71L117.5 79L119.5 80.5L130.5 83.5L134.5 82L138 77.5L147.5 69.5L153.5 68L152 64L147.5 54.5L139 50V46L142.5 42.5H148C149 42.5 151.5 41.6 153.5 38C155.5 34.4 159 34.5 160.5 35L170 36.5L177 34L182 38L193.5 38.5L200.5 32.5L203.5 23L200 16L190 10.5L179.5 12L165.5 15L157 13L145.5 10.5L133.5 16L127 27.5L125 42.5L122 44.5L112.5 52L109 60L111 71Z" fill="#4C3768"/>
</svg>
