<svg width="309" height="563" viewBox="0 0 309 563" fill="none" xmlns="http://www.w3.org/2000/svg">
<path d="M80.887 21.2124C105.136 63.0898 114.271 97.2055 116.701 126.272C121.639 185.356 106.4 245.267 80.8627 298.775C33.6645 397.672 -39.3846 455.39 -93.4256 541.656" stroke="#4C3768" stroke-width="4.9173" stroke-linecap="round"/>
<path d="M108.169 106.795L113.39 101.596L119.14 101.53L122.368 102.499L124.422 109.682L121.559 109.52L121.425 111.868L121.047 118.52L113.616 119.275L109.934 119.066L108.52 115.06L108.169 106.795Z" fill="#F3EFF6"/>
<g clip-path="url(#clip0_980_608)">
<path d="M163.869 85.5524C163.563 83.5829 163.666 81.5621 164.326 79.6685C164.986 77.7748 165.75 77.3108 167.74 77.6896C169.73 78.0684 171.723 78.713 173.818 78.8799C175.913 79.0467 177.965 78.9634 179.999 78.6283C183.554 78.0454 188.237 75.4791 191.583 77.89C194.858 80.2461 194.149 84.7338 192.908 87.9734C192.61 88.7474 192.367 90.0887 193.467 90.3303C194.487 90.5554 195.6 89.2338 195.909 88.4246C197.619 83.964 198.791 78.1118 194.827 74.43C190.864 70.7483 185.056 73.8357 180.5 74.4781C177.723 74.8694 174.894 74.7056 172.166 74.067C169.677 73.4837 167.302 72.6831 164.975 74.1954C160.673 76.9923 159.679 83.5472 160.402 88.2058C160.577 89.332 161.86 89.0289 162.507 88.5642C163.403 87.9197 164.039 86.6634 163.866 85.5552L163.869 85.5524Z" fill="#4C3768"/>
<path d="M146.12 139.67C144.365 151.312 139.77 162.366 132.638 171.745C130.86 174.082 128.856 176.198 126.877 178.36C124.897 180.522 123.163 182.936 122.713 185.866C122.311 188.482 123.101 191.117 125.456 192.541C127.929 194.036 131.205 194.363 134.003 194.764C141.349 195.814 145.026 195.363 152.326 194.068C154.075 193.759 155.764 189.41 153.376 189.833C147.249 190.92 144.859 191.462 138.668 190.838C135.706 190.538 132.592 190.182 129.742 189.286C127.39 188.546 125.496 186.684 126.335 184.057C127.093 181.691 129.562 179.847 131.16 178.048C133.009 175.966 134.743 173.772 136.358 171.503C139.557 167.001 142.267 162.123 144.413 157.037C146.848 151.265 148.572 145.206 149.506 139.008C149.971 135.928 146.431 137.61 146.12 139.667L146.12 139.67Z" fill="#4C3768"/>
<path d="M240.983 115.029C240.499 118.67 242.004 122.176 244.469 124.806C247.17 127.688 250.763 129.28 254.405 130.639C262.518 133.67 270.206 137.101 277.32 142.114C278.701 143.085 280.248 144.065 281.153 145.531C282.229 147.279 280.991 147.907 279.454 148.688C276.137 150.377 272.306 150.676 268.69 151.273C265.074 151.87 261.605 152.879 258.403 154.706C254.998 156.646 251.979 159.134 249.039 161.71C242.807 167.167 235.724 173.934 226.748 173.057C224.902 172.877 222.798 177.115 224.864 177.319C233.261 178.14 240.62 173.072 246.658 167.825C249.729 165.158 252.712 162.361 256.059 160.032C259.39 157.714 262.962 156.326 266.947 155.627C270.761 154.958 274.661 154.609 278.266 153.092C281.872 151.575 285.974 148.304 285.091 143.991C284.327 140.256 279.707 137.877 276.793 136.016C272.997 133.591 269.007 131.466 264.874 129.673C260.28 127.678 255.263 126.467 250.941 123.896C247.239 121.695 243.915 117.897 244.525 113.318C244.666 112.254 243.683 111.846 242.833 112.21C241.747 112.673 241.129 113.93 240.983 115.029Z" fill="#4C3768"/>
<path d="M249.088 136.53C255.135 136.949 258.099 143.576 262.738 146.61C263.923 147.385 265.827 145.132 264.486 144.253C259.571 141.039 256.762 134.426 250.257 133.976C248.881 133.88 247.408 136.414 249.088 136.53Z" fill="#4C3768"/>
<path d="M164.21 75.6683C156.578 76.1507 152.543 83.9623 150.733 90.432C148.545 98.2621 147.524 106.451 147.534 114.573C147.535 115.606 148.281 116.087 149.226 115.681C150.172 115.275 151.075 113.927 151.076 112.861C151.067 105.984 151.823 99.1409 153.43 92.4538C154.709 87.13 156.642 80.3152 163.161 79.9007C164.937 79.7898 166.685 75.5105 164.211 75.6653L164.21 75.6683Z" fill="#4C3768"/>
<path d="M149.577 107.571C144.253 108.919 138.917 110.212 133.608 111.612C128.993 112.83 125.375 115.516 125.022 120.624C124.853 123.068 125.269 125.474 124.859 127.913C124.65 129.16 124.317 130.401 123.842 131.574C123.404 132.65 122.83 133.716 122.766 134.9C122.627 137.445 124.691 138.045 126.821 137.749C129.565 137.364 132.299 136.845 135.032 136.395C141.287 135.362 147.542 134.333 153.797 133.301C155.551 133.012 157.245 128.67 154.847 129.065C148.983 130.033 143.117 130.998 137.254 131.966C134.322 132.45 131.392 132.949 128.456 133.415C128.04 133.481 127.028 133.794 126.626 133.529C126.073 133.169 126.506 132.842 126.738 132.279C127.268 131.002 127.713 129.678 128.023 128.328C128.636 125.674 128.61 123.094 128.54 120.391C128.516 119.498 128.364 118.173 128.962 117.425C129.521 116.725 130.689 116.389 131.507 116.137C137.076 114.412 142.874 113.231 148.525 111.8C149.621 111.522 150.495 110.435 150.741 109.353C150.92 108.566 150.689 107.282 149.574 107.565L149.577 107.571Z" fill="#4C3768"/>
<path d="M159.558 103.52C158.049 109.18 158.303 115 158.639 120.789C158.976 126.578 159.038 132.784 158.702 138.794C158.022 150.912 156.116 162.916 154.292 174.901C150.791 197.891 147.04 221.18 138.105 242.792C133.495 253.947 127.547 264.587 119.804 273.883C119.192 274.616 118.007 276.939 119.667 277.299C128.394 279.189 137.256 280.4 146.174 280.874C150.335 281.096 154.53 281.215 158.694 281.058C162.84 280.903 165.715 278.944 167.279 275.06C170.479 267.123 172.976 258.8 175.536 250.636C178.095 242.472 180.633 233.686 182.887 225.128C185.387 215.641 187.641 206.09 189.658 196.489C188.516 197.042 187.374 197.592 186.233 198.145C192.533 218.316 198.833 238.49 205.133 258.662C206.694 263.657 208.255 268.653 209.815 273.649C210.459 275.712 210.86 278.427 212.131 280.216C213.402 282.004 215.394 281.944 217.303 281.745C222.059 281.249 226.655 279.803 231.139 278.204C236.041 276.456 240.892 274.559 245.76 272.722C248.173 271.812 250.588 270.902 253.001 269.991C255.182 269.169 257.892 268.595 259.747 267.145C261.909 265.456 261.993 263.025 261.092 260.661C260.136 258.156 259.165 255.656 258.203 253.157C254.388 243.243 250.57 233.328 246.754 223.416C243.033 213.746 239.403 204.033 235.542 194.417C233.709 189.854 231.763 185.335 229.519 180.957C227.373 176.769 224.93 172.744 222.555 168.684C217.81 160.582 213.559 152.303 212.259 142.886C210.958 133.47 213.702 123.534 213.251 113.775C213.14 111.375 212.833 109.006 212.231 106.676C211.629 104.347 208.317 107.591 208.767 109.327C211.142 118.524 208.453 127.919 208.287 137.204C208.12 146.49 210.475 155.1 214.521 163.252C218.528 171.321 223.684 178.757 227.601 186.874C231.863 195.704 235.168 204.977 238.687 214.117C242.325 223.568 245.964 233.018 249.602 242.469C251.456 247.287 253.311 252.106 255.165 256.924C256.057 259.237 257.004 261.539 257.841 263.873C257.893 264.016 257.986 264.52 258.088 264.615L258.161 264.867L258.944 263.846C258.944 263.846 257.691 264.357 257.615 264.385C256.315 264.879 255.016 265.366 253.717 265.856C248.983 267.64 244.249 269.428 239.515 271.212C235.065 272.89 230.635 274.677 226.052 275.969C223.792 276.604 221.494 277.118 219.164 277.419C218.271 277.532 217.248 277.728 216.358 277.483C215.27 277.182 214.92 276.213 214.605 275.24C213.05 270.451 211.602 265.626 210.1 260.818C204.065 241.495 198.03 222.172 191.995 202.845C191.23 200.393 190.465 197.944 189.7 195.491C189.008 193.273 186.516 196 186.274 197.147C182.891 213.243 178.835 229.199 174.098 244.949C171.746 252.776 169.232 260.554 166.54 268.269C165.905 270.087 165.274 271.902 164.613 273.709C163.914 275.615 163.515 276.425 161.386 276.704C157.438 277.223 153.19 276.853 149.222 276.669C139.913 276.238 130.658 275.011 121.551 273.036L121.413 276.452C135.848 259.119 144.441 237.911 149.851 216.203C152.802 204.363 154.868 192.323 156.747 180.27C158.65 168.057 160.674 155.821 161.772 143.502C162.376 136.702 162.666 129.862 162.386 123.038C162.111 116.318 161.179 109.457 162.939 102.859C163.178 101.968 162.839 100.937 161.772 101.07C160.705 101.204 159.811 102.553 159.556 103.517L159.558 103.52Z" fill="#4C3768"/>
<path d="M159.052 133.116C159.3 136.574 159.705 140.737 162.884 142.831C164.665 144.004 166.907 144.218 168.971 144.446C171.474 144.723 173.993 144.896 176.511 144.958C185.56 145.186 195.294 144.507 203.539 140.439C207.543 138.464 211.462 135.316 212.328 130.692C212.495 129.803 212.277 128.763 211.161 128.903C210.118 129.032 209.125 130.387 208.945 131.35C208.221 135.201 202.988 137.055 199.75 138.143C195.092 139.708 190.132 140.318 185.245 140.596C179.987 140.894 174.67 140.708 169.45 140.017C167.249 139.725 165.13 139.195 163.929 137.16C162.927 135.461 162.732 133.334 162.594 131.407C162.39 128.578 158.921 131.27 159.052 133.116Z" fill="#4C3768"/>
<path d="M195.95 82.3408C198.559 81.925 201.244 82.3582 203.562 83.6421C205.88 84.926 207.379 87.0737 209.349 88.7975C211.459 90.6457 214.197 91.5266 216.883 92.1599C219.342 92.7415 221.849 93.1616 224.372 93.308C229.313 93.5979 234.322 92.8021 238.496 90.0039C240.727 88.507 242.732 86.1585 242.66 83.3278C242.594 80.7064 240.744 78.1865 239.863 75.7665C238.874 73.0538 238.125 70.2324 237.702 67.3728C237.67 67.156 237.684 66.745 237.597 66.5519C237.427 66.1781 238.091 65.6219 237.117 66.6918C236.28 67.6143 236.665 67.0899 237.222 67.2022C237.585 67.2736 238.001 67.2077 238.374 67.208C240.006 67.2172 241.635 67.2293 243.267 67.2385C246.141 67.2556 249.353 66.886 252.183 67.4469C254.689 67.9445 256.423 70.1026 257.302 72.3882C259.111 77.1056 259.148 83.0086 258.325 87.9345C257.506 92.8367 255.602 97.6057 252.248 101.331C243.712 110.815 229.793 112.146 217.822 112.119C216.7 112.115 215.803 113.04 215.38 114.025C215.129 114.604 214.801 116.38 215.938 116.382C227.807 116.409 240.351 115.125 249.995 107.507C258.97 100.421 262.994 88.9133 262.196 77.6988C261.844 72.7569 260.937 65.9806 255.756 63.722C252.995 62.5174 249.534 63.0042 246.592 62.9861C244.96 62.9769 243.331 62.9649 241.699 62.9557C240.33 62.9465 238.673 62.6881 237.34 63.0899C234.506 63.9466 233.837 67.2098 234.199 69.7644C234.63 72.7976 235.427 75.7919 236.49 78.664C236.963 79.9446 237.488 81.2101 238.066 82.4488C238.494 83.3686 239.607 84.9004 238.856 85.8158C238.106 86.7313 236.631 87.3101 235.588 87.7492C234.332 88.2777 233.003 88.6051 231.656 88.8181C228.62 89.2992 225.524 89.1112 222.501 88.6349C219.477 88.1585 215.878 87.5241 213.165 85.7282C210.453 83.9324 208.863 81.0691 205.978 79.538C203.092 78.0069 200.088 77.6093 197.006 78.1027C195.25 78.3819 193.553 82.7209 195.957 82.3382L195.95 82.3408Z" fill="#4C3768"/>
<path d="M115.297 101.207C110.845 99.3962 106.862 103.408 106.066 107.551C105.578 110.087 105.845 112.803 106.226 115.335C106.541 117.418 106.711 120.344 108.857 121.397C110.672 122.289 113.251 121.868 115.157 121.52C117.202 121.147 119.223 120.417 120.795 119.011C121.996 117.933 123.159 115.91 121.116 115.035C120.108 114.605 118.751 114.749 117.688 114.805C116.293 114.878 114.924 115.122 113.566 115.439C112.05 115.794 111.838 118.322 113.728 117.881C115.374 117.497 117.337 117.152 119.031 117.376C119.147 117.392 119.574 117.547 119.656 117.516L119.614 117.051L119.308 117.344C118.735 117.661 118.277 118.092 117.653 118.355C116.406 118.878 115.054 119.084 113.713 119.196C112.493 119.3 110.703 119.589 109.891 118.436C109.079 117.282 109.007 115.293 108.818 113.897C108.599 112.291 108.442 110.638 108.508 109.012C108.606 106.453 110.144 102.18 113.551 103.568C114.864 104.102 116.744 101.797 115.3 101.21L115.297 101.207Z" fill="#4C3768"/>
<path d="M121.017 116.409C122.278 114.821 123.617 112.151 121.52 110.605C119.59 109.182 116.37 110.211 114.272 110.679C112.752 111.017 112.539 113.542 114.435 113.121C115.753 112.829 117.351 112.389 118.706 112.546C120.577 112.763 119.767 114.35 118.989 115.332C117.774 116.866 119.966 117.734 121.014 116.411L121.017 116.409Z" fill="#4C3768"/>
<path d="M121.207 110.817C121.443 108.917 120.787 107.08 119.07 106.087C117.125 104.959 114.999 105.668 113.129 106.576C111.591 107.324 112.225 109.56 113.972 108.71C115.047 108.186 116.21 107.778 117.318 108.444C118.228 108.988 118.711 109.992 118.579 111.044C118.349 112.887 121.024 112.257 121.204 110.82L121.207 110.817Z" fill="#4C3768"/>
<path d="M119.256 106.497C119.939 105.035 120.065 103.502 118.627 102.483C117.342 101.571 115.518 101.312 113.99 101.202C113.244 101.147 112.513 101.562 112.202 102.261C111.962 102.797 112.072 103.704 112.821 103.759C113.858 103.833 114.939 103.981 115.922 104.338C116.226 104.451 116.6 104.597 116.838 104.823C117.262 105.226 117.062 105.594 116.845 106.062C116.56 106.67 116.766 107.401 117.464 107.56C118.162 107.719 118.964 107.117 119.253 106.5L119.256 106.497Z" fill="#4C3768"/>
<path d="M111.369 121.955C114.813 125.679 119.257 128.215 124.206 129.317C125.576 129.622 127.058 127.136 125.375 126.763C120.821 125.749 116.758 123.393 113.592 119.971C112.579 118.878 110.356 120.862 111.369 121.955Z" fill="#4C3768"/>
<path d="M120.838 119.204C122.313 120.446 123.681 121.801 124.938 123.267C125.903 124.393 128.135 122.416 127.161 121.283C125.904 119.818 124.539 118.462 123.061 117.22C122.494 116.743 121.735 116.906 121.204 117.377C120.799 117.739 120.268 118.724 120.838 119.204Z" fill="#4C3768"/>
<path d="M120.128 110.735C121.483 111.424 123.383 112.391 124.217 110.376C124.912 108.699 124.322 106.114 123.911 104.419C123.468 102.6 122.815 100.748 121.017 99.8848C119.488 99.1502 117.863 99.3294 116.375 100.039C114.888 100.748 115.469 103.011 117.218 102.173C118.967 101.335 120.393 102.873 120.918 104.341C121.246 105.256 121.469 106.211 121.596 107.171C121.668 107.703 121.712 108.24 121.732 108.775C121.738 108.928 121.647 110.164 121.893 109.775L123.165 109.024C123.426 109.17 123.307 109.113 122.805 108.848L121.871 108.374C120.601 107.729 118.71 110.012 120.122 110.731L120.128 110.735Z" fill="#4C3768"/>
<path d="M243.492 63.6486C243.866 61.2701 243.267 58.9526 241.706 57.1059C240.75 55.974 238.518 57.9484 239.483 59.0898C240.619 60.4348 241.143 62.1242 240.868 63.8725C240.592 65.6209 243.268 65.0775 243.492 63.6486Z" fill="#4C3768"/>
<path d="M253.498 62.6865C252.29 58.3286 250.377 54.2202 247.829 50.4846C245.368 46.8735 242.233 43.2716 238.387 41.095C234.807 39.0677 230.166 38.5919 226.601 40.9234C223.036 43.2548 220.394 48.0444 220.486 52.1478C220.54 54.5506 222.461 55.3165 224.222 53.6854C226.182 51.8686 227.845 49.5992 229.326 47.3881C230.406 45.7721 228.25 44.8854 227.301 46.3089C226.632 47.3066 225.935 48.2848 225.186 49.2242C224.865 49.6268 224.538 50.0231 224.202 50.4129C223.866 50.8028 223.085 51.3732 222.912 51.832C222.601 52.1128 222.691 52.103 223.183 51.8026C223.144 51.3855 223.147 50.9708 223.191 50.5525C223.245 50.0332 223.361 49.5085 223.515 49.0098C223.895 47.7719 224.533 46.5784 225.242 45.5024C226.431 43.7074 227.934 42.3662 230.12 42.0278C232.306 41.6895 234.361 42.245 236.219 43.2192C239.952 45.1806 242.936 48.6574 245.327 52.0617C247.901 55.7271 249.765 59.8416 250.959 64.1539C251.372 65.6489 253.877 64.0542 253.499 62.6835L253.498 62.6865Z" fill="#4C3768"/>
<path d="M223.076 54.1488C223.351 56.1851 224.974 57.7757 227.037 56.5678C227.963 56.0264 228.653 55.0658 229.338 54.2659C230.262 53.1872 231.151 52.0827 232.015 50.9558C233.208 49.4058 231.022 48.5354 229.99 49.8766C229.172 50.9404 228.333 51.9852 227.466 53.0074C227.21 53.3092 226.662 54.2332 226.28 54.3428C226.034 54.4124 226.298 54.4931 226.057 54.1719C225.84 53.885 225.795 53.6377 225.746 53.2768C225.515 51.5653 222.887 52.7501 223.076 54.1488Z" fill="#4C3768"/>
<path d="M226.653 57.5517C228.494 58.6085 230.487 58.5637 231.885 56.8075C232.535 55.9938 232.934 55.0016 233.492 54.1259C234.144 53.1034 234.893 52.1461 235.734 51.2716C237 49.9497 235.542 48.252 234.247 49.6051C233.222 50.6751 232.269 51.7969 231.466 53.0467C231.1 53.6169 230.771 54.21 230.439 54.8001C230.326 54.9996 230.184 55.4422 229.992 55.5686C229.48 55.9037 228.823 55.4395 228.401 55.1946C227.167 54.4857 225.268 56.7566 226.653 57.5517Z" fill="#4C3768"/>
<path d="M231.275 54.943C231.039 56.2578 230.51 57.6873 231.678 58.7237C232.621 59.5624 234.057 59.453 235.117 58.9193C236.746 58.0985 239.905 53.8278 236.416 53.2951C235.33 53.1289 233.54 55.0628 234.957 55.7523C235.75 56.1376 236.414 55.8978 237.249 55.7065C238.362 55.4504 239.475 55.1913 240.591 54.9353C242.109 54.5859 242.322 52.0579 240.428 52.4935C239.742 52.6515 239.058 52.8096 238.372 52.9676C238.127 53.0253 236.877 53.4795 236.706 53.3952C236.221 54.2153 235.732 55.0322 235.247 55.8523C235.119 56.1107 234.939 56.3273 234.711 56.5083C234.305 56.8882 234.013 56.8657 233.832 56.4375C233.415 55.9451 233.791 55.3158 233.897 54.7189C234.227 52.8931 231.529 53.5247 231.272 54.9428L231.275 54.943Z" fill="#4C3768"/>
<path d="M244.605 27.5423C244.102 30.3074 243.598 33.0726 243.095 35.8377C242.764 37.6635 245.462 37.0319 245.719 35.6138C246.223 32.8487 246.726 30.0835 247.229 27.3184C247.56 25.4926 244.862 26.1242 244.605 27.5423Z" fill="#4C3768"/>
<path d="M252.448 32.6474C250.888 34.0003 249.325 35.3501 247.764 36.7031C247.278 37.1231 246.916 37.9741 247.398 38.5298C247.88 39.0855 248.787 38.7759 249.254 38.3727C250.815 37.0198 252.378 35.67 253.938 34.317C254.425 33.8969 254.787 33.046 254.305 32.4903C253.823 31.9346 252.916 32.2441 252.448 32.6474Z" fill="#4C3768"/>
<path d="M253.312 44.0745C255.425 43.7589 257.539 43.4403 259.652 43.1247C260.377 43.0167 261.086 42.4749 261.224 41.7216C261.345 41.0718 260.879 40.4365 260.172 40.5425C258.059 40.8582 255.945 41.1768 253.832 41.4924C253.106 41.6004 252.398 42.1422 252.26 42.8954C252.139 43.5452 252.605 44.1806 253.312 44.0745Z" fill="#4C3768"/>
<path d="M200.524 48.7294C202.043 48.0457 203.197 51.5349 203.458 52.4571C203.958 54.2167 203.571 55.1976 201.875 55.722C199.229 56.5417 196.888 56.9816 195.374 59.564C193.8 62.2504 192.655 65.1193 190.867 67.6921C189.079 70.2648 186.81 72.5356 183.865 73.8874C182.308 74.6018 182.949 76.8291 184.708 76.0217C188.303 74.3725 191.106 71.4754 193.27 68.2167C194.334 66.6147 195.278 64.9282 196.154 63.217C197.03 61.5058 197.526 59.561 199.46 58.877C202.412 57.83 206.161 57.3507 206.353 53.3948C206.526 49.8259 203.786 44.7422 199.678 46.592C198.116 47.2971 198.759 49.5216 200.521 48.7263L200.524 48.7294Z" fill="#4C3768"/>
<path d="M154.969 43.865C151.604 44.7154 148.558 47.73 149.094 51.4288C149.347 53.1833 150.411 54.4765 151.942 55.3038C153.758 56.2846 155.651 56.5922 156.464 58.7278C157.201 60.6621 157.584 62.7015 158.376 64.627C159.168 66.5524 160.181 68.4158 161.413 70.1066C163.861 73.4634 167.265 75.9671 171.268 77.1081C172.619 77.4923 174.103 75.0276 172.437 74.5539C165.27 72.5108 161.345 65.6882 159.506 58.9276C159.123 57.5209 158.701 56.082 157.595 55.0581C156.489 54.0341 155.139 53.6798 153.877 53.0439C152.391 52.2908 151.437 50.9561 151.771 49.232C152.105 47.5078 153.605 46.6947 155.131 46.3069C156.658 45.9191 156.855 43.3902 154.969 43.865Z" fill="#4C3768"/>
<path d="M171.135 67.7404C175.158 69.7451 179.145 67.1958 182.021 64.4342C183.353 63.1579 181.882 61.4744 180.533 62.7677C178.494 64.7233 175.81 66.8421 172.884 65.3833C171.61 64.7467 169.719 67.0331 171.135 67.7404Z" fill="#4C3768"/>
<path d="M179.489 62.2369C180.993 62.6686 181.174 64.6698 181.314 65.9433C181.5 67.6552 184.137 66.4739 183.984 65.0713C183.735 62.7798 183.137 60.3907 180.658 59.6797C179.307 59.2925 177.824 61.7572 179.489 62.2339L179.489 62.2369Z" fill="#4C3768"/>
<path d="M164.038 50.9234L164.802 51.3966C164.967 51.4985 165.144 51.5773 165.336 51.6121C165.422 51.6318 165.511 51.6369 165.598 51.6269C165.672 51.6312 165.745 51.6144 165.812 51.5884L165.911 51.5283C165.965 51.4777 165.986 51.4132 165.972 51.3408L165.928 51.2338C165.873 51.1501 165.802 51.0804 165.716 51.0218L164.952 50.5485C164.788 50.4466 164.61 50.3679 164.418 50.3331C164.332 50.3133 164.243 50.3082 164.156 50.3182C164.082 50.314 164.009 50.3308 163.942 50.3568L163.843 50.4168C163.789 50.4675 163.768 50.5319 163.782 50.6044L163.826 50.7114C163.881 50.7951 163.952 50.8648 164.038 50.9234Z" fill="#4C3768"/>
<path d="M163.611 52.1973L164.043 52.3085C164.134 52.3405 164.228 52.3608 164.326 52.3693C164.409 52.383 164.492 52.3848 164.577 52.3717C164.646 52.3666 164.706 52.3462 164.759 52.3074C164.811 52.2865 164.846 52.2467 164.864 52.191L164.87 52.0899C164.848 52.005 164.804 51.9339 164.739 51.8735L164.614 51.7708C164.507 51.6991 164.394 51.6449 164.274 51.6053L163.842 51.4941C163.751 51.4621 163.656 51.4418 163.558 51.4333C163.476 51.4196 163.392 51.4178 163.308 51.4309C163.239 51.436 163.178 51.4564 163.125 51.4952C163.073 51.5161 163.038 51.5559 163.02 51.6116L163.014 51.7127C163.036 51.7976 163.08 51.8687 163.145 51.9291L163.271 52.0318C163.377 52.1035 163.49 52.1577 163.611 52.1973Z" fill="#4C3768"/>
<path d="M187.041 50.2703L187.805 50.7436C187.97 50.8454 188.147 50.9242 188.339 50.959C188.425 50.9788 188.514 50.9838 188.601 50.9739C188.676 50.9781 188.748 50.9613 188.815 50.9353L188.914 50.8753C188.968 50.8246 188.989 50.7601 188.976 50.6877L188.931 50.5807C188.876 50.497 188.805 50.4273 188.719 50.3687L187.955 49.8954C187.791 49.7936 187.613 49.7148 187.421 49.68C187.336 49.6602 187.247 49.6552 187.159 49.6651C187.085 49.6609 187.012 49.6777 186.945 49.7037L186.846 49.7637C186.793 49.8144 186.771 49.8789 186.785 49.9513L186.83 50.0583C186.885 50.142 186.955 50.2117 187.041 50.2703Z" fill="#4C3768"/>
<path d="M186.614 51.5443L187.046 51.6554C187.137 51.6874 187.231 51.7077 187.329 51.7163C187.412 51.7299 187.496 51.7317 187.58 51.7186C187.649 51.7135 187.71 51.6931 187.763 51.6543C187.815 51.6334 187.85 51.5936 187.868 51.5379L187.874 51.4368C187.851 51.352 187.808 51.2808 187.743 51.2204L187.617 51.1178C187.511 51.046 187.397 50.9918 187.277 50.9522L186.845 50.841C186.754 50.809 186.66 50.7887 186.562 50.7802C186.479 50.7665 186.395 50.7648 186.311 50.7779C186.242 50.7829 186.181 50.8033 186.128 50.8421C186.076 50.863 186.041 50.9028 186.023 50.9585L186.018 51.0597C186.04 51.1445 186.083 51.2156 186.149 51.276L186.274 51.3787C186.38 51.4504 186.494 51.5046 186.614 51.5443Z" fill="#4C3768"/>
<path d="M173.147 58.7094C173.312 58.7008 173.08 58.7265 173.02 58.5201C172.998 58.4412 173.014 58.3705 173.039 58.2914C173.143 57.9839 173.643 57.7556 173.897 57.5939C174.46 57.2349 175.031 56.4943 174.745 55.7916C174.46 55.0889 173.584 55.1226 173.054 55.4596C171.828 56.2376 170.565 57.2403 170.364 58.781C170.176 60.206 171.191 61.3561 172.63 61.2917C174.069 61.2273 175.005 58.624 173.15 58.7095L173.147 58.7094Z" fill="#4C3768"/>
<path d="M168.935 49.268C167.979 50.333 167.26 51.7875 167.213 53.2414C167.168 54.6148 168.167 55.6805 169.578 55.5995C170.988 55.5185 172.205 54.2773 172.379 52.8904C172.553 51.5034 171.475 50.3109 170.099 50.2087C169.353 50.1544 168.619 50.5693 168.311 51.2682C168.074 51.8039 168.178 52.7082 168.93 52.7659C169.147 52.7812 169.346 52.7896 169.523 52.9369C169.569 52.9753 169.725 53.2737 169.728 53.2769C169.675 53.256 170.207 53.134 170.205 53.0205C170.209 53.1073 169.897 52.812 169.895 52.8058C169.761 52.5296 169.997 51.9461 170.092 51.6918C170.289 51.1776 170.599 50.7595 170.962 50.3533C171.396 49.8706 171.422 48.9826 170.824 48.6352C170.145 48.2414 169.368 48.7912 168.937 49.2741L168.935 49.268Z" fill="#4C3768"/>
<path d="M181.03 49.1467C180.074 50.2116 179.356 51.6662 179.309 53.1201C179.263 54.4935 180.262 55.5592 181.673 55.4782C183.083 55.3972 184.3 54.156 184.474 52.769C184.649 51.3821 183.57 50.1895 182.194 50.0874C181.448 50.0331 180.714 50.448 180.406 51.1468C180.169 51.6826 180.273 52.5869 181.025 52.6446C181.242 52.6599 181.442 52.6683 181.618 52.8156C181.664 52.854 181.82 53.1524 181.823 53.1556C181.77 53.1347 182.303 53.0127 182.3 52.8991C182.304 52.9859 181.993 52.6906 181.99 52.6845C181.856 52.4083 182.093 51.8247 182.188 51.5705C182.384 51.0563 182.694 50.6382 183.058 50.232C183.491 49.7492 183.518 48.8613 182.92 48.5139C182.241 48.1201 181.463 48.6698 181.033 49.1528L181.03 49.1467Z" fill="#4C3768"/>
<path d="M172.16 30.7544C169.722 31.371 167.67 32.9258 166.386 35.0943C164.956 37.5083 165.07 40.3862 163.469 42.7158C163.108 43.2385 162.196 44.9418 161.48 44.8294C161.037 44.7594 160.55 44.0274 160.207 43.7631C159.737 43.4081 159.176 43.1523 158.609 42.9917C155.763 42.1822 153.027 43.8952 150.746 45.3743C149.9 45.9231 149.108 47.3616 149.387 48.3833C149.693 49.5051 150.748 49.2248 151.492 48.7417C152.629 48.0065 153.882 47.1733 155.275 47.0854C156.8 46.987 157.407 47.8065 158.53 48.5897C160.568 50.0099 162.691 48.3218 164.008 46.7252C165.627 44.7697 167.154 42.6388 167.914 40.1867C168.609 37.9399 168.434 35.6644 171.111 34.9898C172.207 34.7119 173.081 33.6214 173.327 32.543C173.506 31.7562 173.275 30.4715 172.16 30.7544Z" fill="#4C3768"/>
<path d="M175.155 16.3138C165.353 18.6219 153.343 30.1413 150.096 38.9589C148.271 43.9143 146.471 48.9637 145.003 54.038C143.536 59.1123 142.801 64.1567 144.104 69.1109C144.647 71.1744 145.642 74.1949 148.058 74.6964C150.645 75.2345 152.667 72.7975 153.95 70.9213L151.06 70.4645C150.59 73.4196 150.458 77.367 152.556 79.7994C154.877 82.4924 158.031 80.4032 159.988 78.4251C160.634 77.7724 161.359 76.3093 160.762 75.4246C160.128 74.4902 158.931 75.2937 158.376 75.8531C154.896 79.3713 154.111 71.9125 154.446 69.8063C154.832 67.3778 152.572 67.8641 151.556 69.3495C151.035 70.1138 150.577 70.8191 149.588 70.2525C148.724 69.7556 148.25 68.5407 147.933 67.6601C147.076 65.2563 146.878 62.6871 147.058 60.1573C147.438 54.8331 149.568 49.7637 151.256 44.7586C154.157 36.1512 164.059 22.9121 174.106 20.5462C175.201 20.2891 176.08 19.166 176.322 18.0993C176.505 17.2979 176.272 16.0489 175.156 16.3108L175.155 16.3138Z" fill="#4C3768"/>
<path d="M173.789 20.5912C184.156 17.4198 197.16 19.9619 203.861 29.0316C207.256 33.6242 207.752 39.0907 207.571 44.6292C207.476 47.5697 207.252 50.5119 207.332 53.4565C207.412 56.4011 207.899 59.2286 208.596 62.0858C209.764 66.8592 211.14 73.6294 204.866 75.2457L205.921 75.6489C205.38 74.8749 204.839 74.1009 204.295 73.3268C204.069 73.0035 203.638 72.8119 203.24 72.9236C202.388 73.1647 201.538 73.4089 200.686 73.6499C199.591 73.9608 198.72 74.9947 198.469 76.0968C198.295 76.854 198.523 78.2012 199.636 77.8854C200.489 77.6443 201.338 77.4001 202.191 77.159L201.136 76.7558C201.677 77.5298 202.218 78.3038 202.762 79.0779C202.994 79.4075 203.414 79.5836 203.817 79.4811C209.239 78.0851 213.008 73.0073 213.243 67.46C213.386 64.0983 212.356 60.8549 211.626 57.6138C210.897 54.3726 210.791 50.8922 210.917 47.458C211.157 41.0931 211.708 34.5459 208.851 28.6258C206.392 23.5282 201.628 19.6518 196.487 17.4641C189.705 14.5773 181.88 14.1981 174.836 16.3526C173.742 16.6874 172.874 17.6827 172.619 18.7995C172.449 19.539 172.671 20.9276 173.786 20.5881L173.789 20.5912Z" fill="#4C3768"/>
<path d="M169.817 23.2548C169.17 25.0716 169.057 27.071 170.401 28.6249C171.014 29.3343 171.762 29.6723 172.639 29.952C173.468 30.217 174.287 30.2517 174.472 31.1994C174.657 32.1471 174.531 33.0593 175.366 33.6977C176.201 34.3362 177.276 34.063 178.204 33.7636C179.976 33.1898 182.088 33.5844 182.835 35.5611C183.235 36.6195 182.954 37.8392 182.897 38.9344C182.847 39.9225 182.904 40.9197 183.069 41.8962C183.384 43.7616 184.16 45.6056 185.226 47.1646C187.433 50.3913 190.929 52.6495 194.839 53.0569C196.685 53.2484 198.792 49.0103 196.723 48.7943C193.252 48.4327 190.187 46.4736 188.266 43.5676C187.293 42.0945 186.61 40.4081 186.445 38.6377C186.265 36.7201 186.885 34.7765 186.297 32.8895C185.805 31.3094 184.617 30.1047 183.08 29.5188C182.335 29.2347 181.593 29.109 180.793 29.165C180.122 29.2104 178.753 29.9802 178.209 29.7821C177.858 29.6547 177.875 27.9335 177.632 27.4869C177.265 26.8123 176.692 26.4276 175.998 26.1523C175.303 25.877 174.475 25.7971 173.839 25.3789C173.439 25.1173 172.635 24.1852 172.809 23.6966C173.086 22.9184 173.365 21.5851 172.251 21.3397C171.246 21.1184 170.096 22.432 169.808 23.2454L169.817 23.2548Z" fill="#4C3768"/>
<path d="M199.389 53.4053C200.133 53.4475 200.872 53.0538 201.178 52.3458C201.405 51.8185 201.317 50.8912 200.558 50.8481C199.8 50.805 199.076 51.1996 198.77 51.9075C198.543 52.4348 198.63 53.3621 199.389 53.4053Z" fill="#4C3768"/>
<path d="M154.665 51.6206C155.409 51.6629 156.148 51.2691 156.453 50.5612C156.68 50.0338 156.593 49.1066 155.834 49.0634C155.075 49.0203 154.352 49.4149 154.046 50.1228C153.819 50.6502 153.906 51.5775 154.665 51.6206Z" fill="#4C3768"/>
<path d="M156.707 44.8132L150.408 47.3282L150.71 42.0097L157.498 30.9034L162.826 23.8184L173.835 17.8773L190.27 17.5803L199.879 21.8206L206.964 27.1486L208.814 37.9251L209.097 47.3813L210.645 63.4763L209.654 73.6809L204.103 77.4697L203.987 79.5152L196.599 79.5057L188.31 73.6988L195.052 63.4107L196.944 59.0035L203.22 56.8977L204.82 50.4216C203.668 49.6734 201.922 48.4976 201.085 47.8162C200.6 48.4515 198.406 49.4438 197.047 49.9797L194.183 49.8169L188.572 47.4456L185.555 42.7593L185.857 37.4409L183.635 33.2101L182.022 32.708C179.711 32.4398 175.572 32.095 177.498 32.8612C179.425 33.6275 176.306 34.5721 173.7 34.6975L168.721 35.6457L166.08 38.7791L161.524 46.7288L159.525 45.7943L156.707 44.8132Z" fill="#4C3768"/>
<path d="M139.539 283.029C135.584 284.547 131.632 286.125 128.139 288.562C126.445 289.743 124.543 291.175 123.967 293.265C123.738 294.1 123.702 295.148 124.398 295.779C125.153 296.463 126.427 296.357 127.379 296.414C132.094 296.703 136.852 296.534 141.534 295.917C143.856 295.61 146.163 295.192 148.441 294.659C150.495 294.179 152.511 293.58 154.079 292.096C155.757 290.505 156.567 288.337 156.933 286.095C157.364 283.451 157.65 280.778 158.001 278.121C158.142 277.057 157.16 276.649 156.309 277.013C155.223 277.476 154.606 278.734 154.46 279.833C154.171 282.016 153.907 284.204 153.595 286.386C153.342 288.153 153.187 289.303 151.375 289.931C147.313 291.339 142.655 291.799 138.39 292.109C136.1 292.274 133.802 292.32 131.508 292.252C130.507 292.222 129.117 291.883 128.142 292.073L127.581 292.026C126.875 293.302 126.849 293.614 127.501 292.961C127.915 292.764 128.307 292.33 128.68 292.064C131.906 289.764 135.708 288.36 139.379 286.951C141.093 286.293 142.182 282.006 139.536 283.023L139.539 283.029Z" fill="#4C3768"/>
<path d="M242.605 283.954C245.385 284.306 248.286 284.624 250.874 285.768C252.013 286.271 253.11 286.925 254.051 287.745C254.432 288.077 256.178 289.654 255.992 290.252L256.878 288.637C257.135 288.311 257.696 288.43 257.108 288.37C256.77 288.335 256.335 288.469 255.996 288.506C255.254 288.59 254.507 288.655 253.761 288.708C252.22 288.814 250.679 288.84 249.135 288.8C246.05 288.72 242.975 288.375 239.953 287.767C237.182 287.213 234.183 286.571 231.634 285.31C230.527 284.763 229.498 284.027 229.077 282.818C228.656 281.609 228.882 280.255 229.086 279.031C229.595 275.956 226.04 277.64 225.7 279.689C225.309 282.052 224.899 284.7 226.205 286.872C227.511 289.045 230.113 289.844 232.371 290.56C237.982 292.344 243.889 293.191 249.776 293.069C251.13 293.041 252.482 292.975 253.832 292.855C255.02 292.749 256.337 292.746 257.4 292.153C259.866 290.78 260.015 287.839 258.511 285.742C255.3 281.273 249.574 280.339 244.495 279.698C242.657 279.465 240.53 283.696 242.611 283.961L242.605 283.954Z" fill="#4C3768"/>
<path d="M180.15 47.0997C182.022 45.9197 184.198 45.8732 186.168 46.8717C187.439 47.5141 189.33 45.2307 187.917 44.5147C185.152 43.1128 181.923 43.3172 179.307 44.9654C177.883 45.8605 178.49 48.1455 180.15 47.0997Z" fill="#4C3768"/>
<path d="M172.139 45.0355C169.838 43.6779 167.329 44.6486 165.105 45.6504C163.543 46.3556 164.186 48.58 165.948 47.7847C167.378 47.1408 168.918 46.5239 170.391 47.3926C171.615 48.1159 173.514 45.8479 172.139 45.0355Z" fill="#4C3768"/>
<path d="M162.596 78.3935L166.032 75.7157L166.558 73.6934L162.29 69.3464L157.214 57.5656L151.309 53.1256L148.269 48.8484L144.684 61.3681L147.329 72.6003L152.741 71.2662L153.689 76.2453L156.051 78.0213L162.596 78.3935Z" fill="#4C3768"/>
</g>
<path d="M127.27 309.924C182.7 316.769 320.072 307.252 286.867 303.811C216.685 296.537 193.087 300.121 176.406 297.531" stroke="#4C3768" stroke-width="4.09775" stroke-linecap="round"/>
<defs>
<clipPath id="clip0_980_608">
<rect width="181.121" height="284.273" fill="white" transform="translate(111.441 10.7966) rotate(3.25388)"/>
</clipPath>
</defs>
</svg>
