<svg width="235" height="160" viewBox="0 0 235 160" fill="none" xmlns="http://www.w3.org/2000/svg">
<g clip-path="url(#clip0_1_1646)">
<path d="M91.8013 80.1862C86.4506 66.0789 84.8696 50.7418 87.2872 35.8531C87.5292 34.3637 83.4464 33.3882 83.2228 34.7675C80.7763 49.8293 82.3231 65.405 87.737 79.6801C88.0658 80.5507 89.1917 80.9571 90.0467 81.0568C90.4807 81.1066 92.1328 81.0646 91.8013 80.1888V80.1862Z" fill="#4C3768"/>
<path d="M54.2937 42.0439C66.2052 54.2476 76.4305 68.0297 84.7118 82.9184C85.3536 84.0722 89.4285 84.5075 88.4972 82.8345C80.0845 67.7072 69.654 53.7756 57.5557 41.3779C56.9112 40.7197 55.5669 40.3893 54.6804 40.6096C53.7939 40.8299 53.6913 41.4251 54.2963 42.0413L54.2937 42.0439Z" fill="#4C3768"/>
<path d="M38.2626 60.7768C53.9044 65.9451 68.2071 74.7845 79.974 86.2644C80.6395 86.912 81.947 87.2582 82.8493 87.0327C83.6963 86.8203 83.8594 86.2093 83.2333 85.601C70.7089 73.379 55.4301 64.2459 38.8072 58.7525C38.2258 58.5611 36.7211 58.4064 36.5027 59.2219C36.2712 60.0793 37.7181 60.5985 38.2626 60.7768Z" fill="#4C3768"/>
<path d="M89.8336 73.6491C93.6086 70.6834 98.3753 69.3042 103.15 69.9335C107.759 70.5418 112.047 72.595 116.358 74.2024C121.083 75.9645 125.865 77.1864 130.937 77.2546C136.009 77.3228 141.044 76.3027 145.806 74.5616C146.737 74.2207 145.919 73.2846 145.448 72.9804C144.635 72.456 143.483 72.2672 142.57 72.6002C135.017 75.3588 127.057 75.7337 119.434 73.067C112.394 70.6047 105.394 66.9258 97.7045 67.5211C93.4218 67.8515 89.4285 69.409 86.0586 72.0574C85.3247 72.6343 86.74 73.5075 87.1425 73.6832C87.9395 74.0293 89.097 74.2207 89.8336 73.6439V73.6491Z" fill="#4C3768"/>
<path d="M98.6646 78.1855C89.6047 78.7728 83.3201 85.6167 75.3388 88.9967C71.4034 90.6618 65.9632 90.2973 63.0011 93.7664C59.9522 97.3379 61.1965 102.386 64.9241 104.884C70.2117 108.432 76.1385 105.755 80.7842 102.564C82.3836 101.465 78.6481 99.8473 77.5485 100.602C74.9837 102.365 69.896 106.164 66.9655 103.256C64.1375 100.45 65.2371 95.6072 68.6806 93.8687C70.4484 92.9772 72.4714 92.7674 74.3786 92.3242C76.1859 91.9047 77.9431 91.2754 79.6215 90.4835C82.9466 88.9154 85.9666 86.7941 89.0865 84.872C92.4905 82.7743 96.1734 80.7421 100.248 80.4799C100.953 80.4353 101.803 80.1154 101.351 79.2894C100.927 78.5132 99.4723 78.1304 98.6673 78.1828L98.6646 78.1855Z" fill="#4C3768"/>
<path d="M65.8264 105.621C65.6291 110.881 70.9167 114.109 75.6492 114.487C81.776 114.977 86.8163 111.471 92.3117 109.429C93.2403 109.083 92.4274 108.154 91.9539 107.848C91.1463 107.326 89.9862 107.129 89.076 107.467C85.0274 108.972 81.2367 111.558 76.8909 112.143C75.2151 112.368 73.4947 112.269 72.1136 111.214C70.7325 110.16 69.825 108.464 69.8907 106.707C69.9486 105.155 65.8738 104.329 65.8264 105.621Z" fill="#4C3768"/>
<path d="M71.9663 113.792C72.3846 116.257 73.2816 118.585 75.0994 120.363C76.9172 122.141 79.2243 123.061 81.5839 123.531C86.9741 124.603 91.9907 122.581 96.7995 120.358C97.6782 119.951 96.9653 119.115 96.4418 118.777C95.6868 118.289 94.4188 118.001 93.5639 118.396C90.0967 119.999 86.2007 121.965 82.26 121.493C78.3772 121.027 76.6383 117.864 76.0333 114.298C75.8018 112.929 71.7006 112.219 71.969 113.789L71.9663 113.792Z" fill="#4C3768"/>
<path d="M85.451 127.267C86.6979 127.535 87.8948 128.217 89.1575 128.536C90.6938 128.927 92.2669 129.218 93.8453 129.373C96.6785 129.651 99.5512 129.551 102.35 129.001C108.064 127.876 113.136 124.742 117.589 121.108C121.583 117.848 125.205 114.177 129.101 110.811C133.034 107.412 137.488 104.066 142.562 102.614C149.26 100.697 156.21 101.699 162.839 103.385C163.434 103.537 164.917 103.76 165.143 102.915C165.37 102.071 163.939 101.499 163.384 101.36C157.43 99.8446 151.267 98.801 145.114 99.4644C139.539 100.065 134.636 102.249 130.093 105.456C121.299 111.668 114.667 121.029 104.565 125.353C101.64 126.604 98.4884 127.241 95.3053 127.231C93.7348 127.225 92.1565 127.055 90.6202 126.727C89.0839 126.399 87.5844 125.581 85.9981 125.24C85.3983 125.112 83.9252 124.852 83.6937 125.71C83.4622 126.567 84.8933 127.147 85.4536 127.265L85.451 127.267Z" fill="#4C3768"/>
<path d="M80.8342 14.6527C80.6816 10.7536 82.4441 4.90611 86.7715 3.73924C88.6656 3.22792 89.6494 4.657 89.8757 6.41124C90.1808 8.77644 88.8945 11.0053 87.6659 12.9169C86.7715 14.3066 90.6544 15.6125 91.4409 14.5033C92.8983 12.4554 95.1291 10.9057 97.6808 10.6382C99.9852 10.3969 102.087 11.5796 103.468 13.3731C104.215 14.3407 104.97 15.6151 105.031 16.8685C105.104 18.392 103.826 19.016 102.571 19.4251C99.4433 20.4425 96.1024 21.0377 92.8351 21.3734L95.5131 23.3138C96.86 22.2492 99.4328 24.0349 100.285 25.1388C101.937 27.2733 99.2592 29.5913 97.473 30.4225C94.5503 31.7834 87.5107 32.4259 86.8136 28.0075L82.8887 27.7951C83.9857 29.1586 78.756 31.1934 77.9642 31.5265C76.2937 32.2344 73.3579 33.6897 71.5691 32.7091C69.9512 31.8201 69.212 29.531 69.5488 27.8134C69.9355 25.8573 71.4454 24.1608 73.4184 23.7281L70.2853 21.8349C70.0644 22.0814 69.6777 22.514 69.2883 22.4563C69.1936 22.4432 69.4646 22.4904 69.362 22.4511C68.6517 22.1705 68.3124 20.6916 68.1966 20.078C67.8783 18.3605 68.244 16.5302 68.9621 14.9543C70.4642 11.6687 74.2576 9.0911 77.9721 9.90136C78.5718 10.0325 80.0476 10.2894 80.2765 9.43199C80.5054 8.57454 79.0769 7.99766 78.5166 7.87704C72.424 6.54759 65.758 9.2799 64.2533 15.7645C63.6325 18.4392 64.0691 21.5517 66.3631 23.319C68.4097 24.895 72.1531 25.5453 74.0603 23.4213C75.1888 22.1627 71.6112 21.3786 70.9272 21.5281C68.0809 22.1522 65.587 24.4335 65.3871 27.4542C65.1872 30.475 67.4127 33.3122 70.2196 34.5052C73.7841 36.0182 77.5643 34.9982 80.9684 33.5822C82.6783 32.8716 88.9365 30.5353 86.6663 27.7112C86.0981 27.0058 85.1248 26.6571 84.2382 26.6177C83.6726 26.5941 82.6125 26.6885 82.7388 27.4988C83.3017 31.0676 87.4081 32.7458 90.5518 33.3331C94.3899 34.049 98.8356 33.8104 102.153 31.5553C103.552 30.6034 104.828 29.1298 104.847 27.3598C104.868 25.5007 103.429 24.1922 102.011 23.2089C99.2144 21.2711 94.795 19.2992 91.7303 21.7274C90.5465 22.6635 93.8664 23.7255 94.4083 23.6678C96.6969 23.4318 98.9698 23.1066 101.216 22.6137C103.055 22.2099 105.062 21.8244 106.772 21.0115C110.676 19.1576 108.753 14.8547 106.496 12.4186C101.569 7.09563 92.0433 6.74163 87.6502 12.9195L91.4251 14.5059C93.0403 11.9939 94.6897 9.02817 93.7085 5.95498C92.7457 2.93686 89.5521 1.43173 86.5532 1.32946C79.7898 1.09609 76.5278 8.35427 76.7541 14.1493C76.8067 15.484 80.8842 16.3257 80.8184 14.658L80.8342 14.6527Z" fill="#4C3768"/>
<path d="M41.9429 30.7818C38.5151 31.023 35.1032 30.5772 31.9096 29.2793C28.9686 28.0835 25.8933 26.2533 24.1887 23.4947C22.7287 21.1322 22.5972 17.3615 25.141 15.6334C28.1583 13.5803 31.1809 16.4594 33.1066 18.6149C33.7221 19.3045 34.6086 19.669 35.5346 19.7083C35.9371 19.7267 37.3734 19.5982 37.0341 18.8273C34.6744 13.4911 33.8615 5.15785 40.6275 2.64318C41.4825 2.3259 42.5111 2.10301 43.3739 2.49634C44.5709 3.04175 45.4258 4.42888 45.9046 5.58789C47.2936 8.95476 46.5254 12.6547 45.8257 16.0845L49.89 16.8816C49.6112 15.0094 51.0317 11.6058 53.4887 12.1119C55.5169 12.5288 55.9484 16.1159 55.8984 17.7286C55.7353 23.007 52.1576 27.4411 48.9614 31.3403C47.9565 32.5675 51.8472 34.0123 52.7364 32.9267C56.727 28.0599 62.1909 21.022 59.2261 14.3486C57.8161 11.1705 54.3332 9.44773 50.9081 9.86466C47.483 10.2816 45.3311 13.0585 45.8257 16.3729C45.9993 17.5293 49.6085 18.5546 49.89 17.17C50.7344 13.0427 51.4868 8.64272 49.3402 4.77239C47.4725 1.40289 43.537 -0.398544 39.7489 0.0734477C36.3843 0.492996 33.3565 2.75331 32.0175 5.86059C30.2944 9.85941 31.273 14.4902 32.9671 18.3159L36.892 18.5283C34.3666 15.7016 31.4229 13.2866 27.5401 12.7386C24.3623 12.2902 20.8767 13.2892 19.5483 16.4437C16.6256 23.382 25.1804 28.9174 30.5101 31.0282C34.6323 32.6619 39.0965 33.3882 43.5239 33.0788C44.2263 33.029 45.0786 32.7169 44.6261 31.8883C44.2026 31.1148 42.7452 30.7267 41.9429 30.7818Z" fill="#4C3768"/>
<path d="M12.7875 56.4004C10.5857 56.5446 8.49171 56.0831 6.65026 54.8323C4.893 53.6366 3.34881 51.6674 4.44316 49.4988C5.72954 46.9448 11.2197 44.4433 13.0874 47.5741C13.5267 48.311 14.7316 48.6335 15.5155 48.6676C15.968 48.6859 17.2886 48.5758 17.015 47.7865C16.26 45.6075 17.2912 43.5491 18.9432 42.1095C20.5953 40.6699 22.9865 39.3589 25.0858 39.191C27.185 39.0232 27.5901 41.1996 27.3981 42.8437C27.1455 45.007 26.0407 46.9841 24.578 48.5575L28.4977 49.8921C28.5319 47.8731 30.9758 46.5436 32.612 45.833C32.9014 45.7071 33.559 45.3741 33.8958 45.4318C33.6537 45.3899 34.0483 45.6836 34.172 45.9064C34.5297 46.5541 34.6271 47.4011 34.6166 48.1274C34.5876 49.7951 33.9642 51.5966 33.0145 52.9627C32.5147 53.6812 31.8754 54.3761 31.0731 54.7589C30.7443 54.9162 30.2865 55.1103 29.913 55.05C29.692 55.0159 29.9577 55.1968 29.6631 54.8481L28.0479 56.0123C29.087 56.0805 29.742 57.1975 30.1076 58.0786C30.6785 59.45 30.6969 60.9499 30.1445 62.3265C29.7341 63.3492 28.3372 65.4102 26.9824 65.2686C25.9276 65.1585 25.6171 63.2705 25.9039 62.3527L21.8396 61.2671C21.7685 63.3046 21.195 65.3184 20.0192 67.0019C19.4878 67.7623 18.8538 68.4676 18.1356 69.0603C17.6411 69.4667 16.4231 70.4526 15.7154 70.3242C15.0762 70.2088 14.4212 68.8898 14.166 68.3864C13.7056 67.4765 13.411 66.4722 13.2005 65.4784C12.7086 63.1761 12.8217 60.8581 13.4241 58.5899C13.8003 57.1818 9.736 56.0884 9.35982 57.5043C7.99978 62.6071 8.97048 70.6257 15.0025 72.3013C21.0346 73.9768 25.7197 67.7728 25.9065 62.3527C25.9565 60.9315 22.2973 59.804 21.8422 61.2671C20.9688 64.0703 23.5232 66.4381 25.9907 67.2142C28.6924 68.0638 31.6676 67.3401 33.3512 64.9775C36.6816 60.2969 32.9698 54.127 27.4981 53.7703C27.0272 53.7389 25.0121 53.9093 25.8828 54.9346C27.9479 57.368 31.9991 58.173 34.7744 56.4555C37.3287 54.8743 38.7624 51.5231 38.6914 48.5889C38.6072 45.1617 35.6688 43.0116 32.32 43.1374C30.3918 43.2082 28.6476 44.1496 27.085 45.2037C25.8118 46.0611 24.4676 47.1493 24.4386 48.8092C24.4149 50.2147 27.4454 51.1298 28.3583 50.1439C30.3391 48.012 31.8807 44.9808 31.4729 41.9994C31.0652 39.018 27.9952 37.2952 25.191 36.9412C20.0876 36.2988 10.7751 41.0003 12.9533 47.2778L16.8782 47.4902C13.7477 42.2459 3.76972 42.8359 0.691871 47.8573C-1.22849 50.9882 1.22063 54.009 3.77761 55.792C6.83178 57.9213 10.662 58.9439 14.3738 58.7C15.0788 58.6528 15.9285 58.3356 15.476 57.5096C15.0525 56.7334 13.5978 56.3506 12.7928 56.403L12.7875 56.4004Z" fill="#4C3768"/>
<path d="M17.2228 51.4759C17.207 52.7215 17.3043 53.9644 18.3092 54.8454C19.5562 55.9389 21.7685 56.4423 23.289 55.6268C24.5438 54.9556 24.8569 53.4845 24.2439 52.2573C23.4363 50.6421 21.5055 49.9052 19.8166 49.664C19.2405 49.5827 17.9015 49.6457 18.062 50.532C18.2224 51.4182 19.6719 51.809 20.3717 51.9086C20.0191 51.8588 20.2927 51.9715 20.398 52.2705C20.5716 52.7687 20.4427 53.2433 20.1033 53.6235C19.764 54.0037 19.9718 53.5448 20.127 53.7126C21.4976 54.5439 21.9658 54.6776 21.5318 54.1138C21.487 54.0457 21.4581 53.967 21.4423 53.8857C21.2976 53.4767 21.2818 52.9942 21.2871 52.5641C21.2976 51.6726 20.2796 51.2085 19.5272 51.0092C19.1221 50.9017 17.2333 50.6316 17.2228 51.4786V51.4759Z" fill="#4C3768"/>
<path d="M85.2142 21.4101C85.935 21.4101 86.7531 21.0167 86.3164 20.2196C85.8797 19.4225 84.4592 19.113 83.6332 19.113C82.9124 19.113 82.0943 19.5064 82.5309 20.3035C82.9676 21.1006 84.3882 21.4101 85.2142 21.4101Z" fill="#4C3768"/>
<path d="M81.7497 18.4811C81.2656 19.2442 80.8605 20.1987 81.4129 21.0456C82.2653 22.3515 84.4276 22.7238 85.8193 22.2623C86.8347 21.9267 87.5923 21.064 87.5371 19.9627C87.4713 18.6883 86.3138 17.7863 85.2195 17.3405C84.5145 17.0521 83.1334 16.7085 82.5283 17.3798C81.9233 18.0511 83.1228 18.8037 83.6121 19.0056C83.5569 18.982 83.407 18.8456 83.3491 18.8535C83.2517 18.864 83.3701 18.8378 83.3912 18.961C83.4254 19.1629 83.4701 19.2888 83.4333 19.4959C83.3991 19.6847 83.3149 19.8316 83.1886 19.9732C82.7835 20.4216 82.8151 19.9102 83.8673 20.2275L84.8564 20.6392C85.451 20.9617 85.1274 21.0981 85.2247 20.9067C85.1932 20.9696 85.2642 20.7362 85.2721 20.7074C85.3168 20.4897 85.4062 20.2511 85.5246 20.0649C85.9981 19.3176 85.0721 18.6909 84.4408 18.4392C83.8726 18.2137 82.21 17.7496 81.7497 18.4785V18.4811Z" fill="#4C3768"/>
<path d="M141.22 74.0398C138.474 69.9728 135.73 65.9058 132.984 61.8388L130.819 62.8956C138.969 65.1821 144.864 72.3643 150.188 78.5028C156.26 85.504 162.163 93.2814 164.709 102.317C165.093 103.681 169.184 104.279 168.774 102.826C166.659 95.3241 162.273 88.6454 157.457 82.596C154.989 79.4966 152.353 76.5309 149.67 73.6177C147.313 71.061 144.882 68.5464 142.128 66.4093C138.895 63.8999 135.32 61.9831 131.366 60.8739C130.756 60.7034 128.343 60.6589 129.201 61.9306C131.947 65.9976 134.691 70.0646 137.438 74.1316C137.966 74.9156 139.219 75.2775 140.121 75.2382C140.763 75.2093 141.768 74.8553 141.223 74.0477L141.22 74.0398Z" fill="#4C3768"/>
<path d="M136.619 57.7665C144.275 52.8264 153.306 51.2085 162.06 49.2628C171.757 47.1074 181.332 44.4354 190.747 41.2809C196.103 39.4873 201.399 37.5312 206.639 35.423C207.552 35.0559 206.773 34.1591 206.281 33.8418C205.492 33.3305 204.295 33.1023 203.403 33.4616C194.125 37.1929 184.657 40.4444 175.032 43.1636C170.236 44.5167 165.406 45.7439 160.545 46.8426C156.112 47.8442 151.648 48.7148 147.268 49.9315C142.402 51.2845 137.645 53.0545 133.386 55.8025C131.769 56.8462 135.499 58.4876 136.622 57.7639L136.619 57.7665Z" fill="#4C3768"/>
<path d="M172.317 120.151C189.374 117.324 205.524 110.858 221.142 103.657C225.645 101.58 230.118 99.4408 234.59 97.2985C235.46 96.8815 234.763 96.0608 234.232 95.7173C233.485 95.2348 232.201 94.9306 231.354 95.3371C215.986 102.7 200.491 110.145 184.026 114.77C179.354 116.084 174.616 117.154 169.829 117.948C168.955 118.092 168.874 118.824 169.445 119.38C170.136 120.059 171.391 120.303 172.32 120.148L172.317 120.151Z" fill="#4C3768"/>
<path d="M164.22 49.4621C176.7 62.1194 185.962 77.8708 190.958 94.9044C191.497 96.7452 191.802 98.8928 193.015 100.442C194.346 102.147 196.64 102.881 198.745 102.873C199.778 102.871 200.815 102.682 201.809 102.409C202.614 102.189 203.732 101.984 204.329 101.347C205.016 100.613 204.695 99.4303 204.598 98.5467C204.461 97.2749 204.3 96.0031 204.116 94.7366C202.743 85.2916 200.034 76.0274 195.661 67.5158C191.289 59.0042 184.892 50.9646 177.047 45.0333C176.276 44.4511 175.153 44.0211 174.172 44.265C173.417 44.4538 173.054 45.1434 173.788 45.6967C187.399 55.9835 195.506 71.6431 198.963 88.0815C199.423 90.2737 199.807 92.4816 200.12 94.7025C200.265 95.7331 200.394 96.7636 200.51 97.7967C200.56 98.253 200.783 99.0475 200.607 99.4933C200.404 100.005 199.855 100.06 199.321 100.206C198.787 100.353 197.642 100.807 197.077 100.576C196.403 100.301 196.069 99.0475 195.882 98.4418C195.291 96.5302 194.801 94.5898 194.186 92.6835C191.708 84.9979 188.367 77.5823 184.279 70.6152C179.62 62.6726 173.951 55.3542 167.482 48.7935C166.835 48.1353 165.496 47.8023 164.607 48.0252C163.718 48.2481 163.615 48.8433 164.223 49.4569L164.22 49.4621Z" fill="#4C3768"/>
<path d="M186.428 43.3892C196.114 54.0326 203.375 66.8577 207.555 80.6057C207.812 81.4527 208.057 82.3049 208.294 83.1571C208.488 83.8651 208.586 84.7357 209.025 85.3492C210.209 87.0065 212.492 86.8596 214.15 86.2224C214.907 85.9314 215.66 85.6272 216.415 85.3283C217.112 85.0529 218.032 84.8458 218.603 84.3266C219.9 83.1492 218.624 80.7237 218.203 79.3785C215.97 72.2253 213.018 65.2896 209.441 58.7001C205.558 51.552 201.057 43.8585 194.17 39.2068C193.465 38.7322 192.081 38.3729 191.292 38.8266C190.453 39.3091 191.082 40.0249 191.65 40.4078C195.254 42.8411 197.919 46.3575 200.307 49.9263C202.883 53.773 205.213 57.7849 207.297 61.9201C209.37 66.0343 211.174 70.2822 212.721 74.6219C213.484 76.7669 214.202 78.9354 214.82 81.1275C214.976 81.6782 215.273 82.242 214.828 82.7087C214.594 82.9552 213.937 83.068 213.634 83.1886C212.555 83.6134 211.358 84.2978 210.214 84.4761L211.732 84.5626L211.432 84.497L212.79 85.1788C212.529 84.9533 212.453 83.9936 212.363 83.6658C212.245 83.2384 212.127 82.8136 212.003 82.3862C211.716 81.3924 211.414 80.4064 211.095 79.4231C210.459 77.4565 209.759 75.5108 208.999 73.5888C207.52 69.8496 205.816 66.1969 203.903 62.6569C200.007 55.4459 195.212 48.7856 189.693 42.7205C188.785 41.7215 184.836 41.6297 186.433 43.3865L186.428 43.3892Z" fill="#4C3768"/>
<path d="M109.25 125.71C115.153 135.997 119.507 147.088 122.217 158.626C122.538 159.995 126.636 160.64 126.281 159.135C123.522 147.387 119.042 136.096 113.033 125.626C112.376 124.48 108.298 124.055 109.248 125.71H109.25Z" fill="#4C3768"/>
<path d="M113.362 123.368C120.012 135.281 129.943 145.24 141.791 152.039C142.544 152.472 143.843 152.894 144.669 152.419C145.495 151.945 144.924 151.19 144.311 150.838C132.918 144.304 123.535 134.73 117.145 123.284C116.5 122.131 112.426 121.695 113.359 123.368H113.362Z" fill="#4C3768"/>
<path d="M74.6759 88.8341C71.1298 85.8134 66.5051 84.5783 62.0094 83.734C57.1137 82.8162 52.0945 82.6117 47.1384 83.1099C46.4439 83.1807 45.5758 83.4586 46.0361 84.3004C46.4491 85.0556 47.9276 85.4856 48.7194 85.4069C52.8495 84.99 56.9927 85.0634 61.0939 85.719C64.6584 86.288 68.5991 87.1009 71.4139 89.4975C72.1373 90.1137 73.3448 90.5018 74.2892 90.2658C75.0862 90.0665 75.3572 89.4162 74.6732 88.8341H74.6759Z" fill="#4C3768"/>
<path d="M48.2196 83.5295C47.262 80.9204 44.7629 79.3628 42.2454 78.4398C39.7542 77.5273 36.7211 77.0081 34.2035 78.1278C31.686 79.2475 31.0047 81.8119 31.2388 84.2952C31.5045 87.114 32.9882 89.2117 35.7398 90.0534C36.1449 90.1767 38.4178 90.397 38.0443 89.2956C37.263 86.975 32.1516 86.6263 32.925 89.8489C33.5064 92.2718 35.3505 94.4535 37.4866 95.6806C39.8515 97.0389 42.7426 97.5607 45.3601 96.6666C47.6592 95.8825 49.5796 93.9893 49.8927 91.5245C50.0768 90.0771 46.2992 89.0282 45.8283 90.4389C45.0207 92.8592 47.4225 94.797 49.5086 95.3948C51.842 96.0635 54.3332 95.2926 55.4275 93.0454C56.5219 90.7981 55.5406 88.4749 54.0175 86.802C51.9945 84.5862 49.0982 83.5872 46.3281 82.6458C45.7494 82.4491 44.242 82.3023 44.0237 83.1152C43.7922 83.9779 45.2391 84.4866 45.7836 84.6701C48.3327 85.5381 51.4105 86.7836 51.7709 89.8437C51.9025 90.9555 51.4605 92.2115 50.5661 92.9195C50.5187 92.9562 49.8848 93.3181 49.8848 93.3128C50.424 93.5672 50.5687 93.6039 50.3267 93.4282C50.253 93.381 50.1925 93.3181 50.1452 93.242C49.8795 92.534 49.6217 92.3374 49.8953 91.5219C48.5405 91.16 47.1857 90.7982 45.831 90.4363C45.5521 92.6337 43.4055 95.1405 40.9485 94.8075C39.8857 94.6632 38.9624 93.8032 38.3284 92.9982C37.9443 92.5104 37.6023 91.965 37.355 91.3934C37.2156 91.0735 37.0683 90.6985 36.9946 90.355L36.9236 90.0325C37.063 89.474 36.7658 89.4005 36.0318 89.8096L34.4929 89.2904L34.6823 89.4215L33.9115 88.5667L33.9852 88.7843C34.7533 88.5326 35.5215 88.2782 36.2896 88.0265C36.7289 88.1602 36.216 87.7722 36.1055 87.5991C35.9082 87.2923 35.774 86.9567 35.6635 86.6105C35.4347 85.9025 35.311 85.1474 35.2795 84.4053C35.2163 82.832 35.6767 81.0777 37.1288 80.2386C39.4385 78.9066 43.2871 80.6425 44.1579 83.0155C44.4762 83.8861 45.6179 84.2925 46.4676 84.3922C46.9095 84.442 48.5431 84.4027 48.2222 83.5242L48.2196 83.5295Z" fill="#4C3768"/>
<path d="M43.2214 89.6863C43.9421 89.6863 44.7603 89.293 44.3236 88.4958C43.8869 87.6987 42.4664 87.3893 41.6403 87.3893C40.9195 87.3893 40.1014 87.7826 40.5381 88.5798C40.9748 89.3769 42.3953 89.6863 43.2214 89.6863Z" fill="#4C3768"/>
<path d="M42.5085 22.5324C43.2293 22.5324 44.0474 22.1391 43.6107 21.3419C43.174 20.5448 41.7535 20.2354 40.9274 20.2354C40.2067 20.2354 39.3885 20.6287 39.8252 21.4258C40.2619 22.223 41.6824 22.5324 42.5085 22.5324Z" fill="#4C3768"/>
<path d="M97.4388 129.719C98.8672 133.356 98.4858 137.195 98.0333 140.984C97.8518 142.5 101.937 143.425 102.098 142.07C102.569 138.121 102.992 134.019 101.503 130.228C101.161 129.36 100.059 128.951 99.1934 128.851C98.7699 128.801 97.0968 128.849 97.4388 129.719Z" fill="#4C3768"/>
<path d="M104.042 127.621C106.309 133.309 107.601 139.301 107.877 145.415C107.938 146.753 112.018 147.589 111.941 145.924C111.665 139.812 110.374 133.818 108.106 128.13C107.761 127.262 106.664 126.856 105.796 126.753C105.375 126.706 103.694 126.753 104.042 127.621Z" fill="#4C3768"/>
<path d="M164.254 100.765C165.183 103.904 165.901 107.1 166.369 110.341C166.603 111.959 166.777 113.587 166.89 115.218C166.966 116.333 167.569 119.023 166.19 119.582C165.296 119.944 163.883 118.601 163.189 118.077C162.087 117.243 161.05 116.315 160.095 115.315C158.114 113.252 156.489 110.8 155.313 108.199C154.923 107.339 153.9 106.927 153.003 106.822C152.616 106.778 150.862 106.833 151.248 107.69C152.727 110.957 154.721 113.889 157.273 116.425C159.814 118.95 163.465 122.041 167.253 122.007C168.753 121.994 170.449 121.404 170.957 119.857C171.223 119.047 171.083 118.032 171.044 117.193C170.994 116.131 170.918 115.072 170.815 114.012C170.402 109.694 169.552 105.433 168.321 101.271C167.919 99.9102 163.831 99.3255 164.257 100.762L164.254 100.765Z" fill="#4C3768"/>
<path d="M152.772 102.032C153.74 108.993 157.47 115.384 162.986 119.75C163.739 120.345 164.896 120.759 165.862 120.518C166.632 120.324 166.961 119.65 166.246 119.086C161.066 114.985 157.743 109.064 156.836 102.543C156.646 101.177 152.548 100.437 152.772 102.034V102.032Z" fill="#4C3768"/>
<path d="M180.925 61.6395C183.029 65.0562 185.134 68.4703 187.238 71.887L191.024 71.803C188.198 68.5883 185.797 65.0116 183.976 61.1387L180.051 60.9263C182.385 65.3027 184.721 69.6765 187.054 74.0529L190.84 73.969C188.411 70.374 185.983 66.7763 183.555 63.1813C182.887 62.1901 178.886 61.435 179.77 63.2652C182.587 69.0943 185.549 74.85 188.656 80.5297C189.274 81.6598 193.307 82.2079 192.442 80.4457C190.437 76.363 188.948 72.0574 187.938 67.6285L184.013 67.4162C186.83 72.5451 189.648 77.6741 192.465 82.8005C192.952 83.6841 196.716 84.6281 196.39 83.0129C195.517 78.6679 194.333 74.4016 192.847 70.2271L188.922 70.0147C191.103 74.1342 193.123 78.3323 194.977 82.609C195.351 83.4717 196.398 83.8808 197.287 83.9857C197.698 84.0329 199.402 83.9857 199.042 83.1177C197.742 79.9869 196.445 76.856 195.146 73.7251L191.082 73.2164C193.712 79.1084 195.925 85.1709 197.708 91.3697L201.633 91.5821C199.308 87.1113 196.814 82.7297 194.157 78.4477C193.646 77.6243 189.966 76.5466 190.232 78.2352C191.066 83.5609 192.447 88.7712 194.367 93.811C194.833 95.0329 198.863 95.8484 198.432 94.3197C197.061 89.466 195.191 84.7881 192.873 80.3068C192.399 79.389 188.696 78.4634 188.948 80.0944C189.719 85.0686 191.408 89.8148 193.894 94.1912C194.388 95.0618 198.092 96.0556 197.819 94.4036C197.085 89.9695 195.683 85.7373 193.699 81.7044C193.233 80.7578 189.582 79.8558 189.774 81.492C190.411 86.912 192.202 92.0856 194.988 96.7793L195.264 95.7566C193.652 96.5879 194.283 98.2687 195.543 99.0658L194.772 98.211C195.151 100.587 198.484 101.769 200.568 101.132C200.815 101.056 201.315 100.917 201.357 100.574C201.754 97.3431 201.296 94.1519 199.92 91.1967C199.555 90.41 198.708 90.0298 197.884 89.8751C197.392 89.7833 195.969 89.6339 195.853 90.3995C195.475 92.9247 196.059 95.3659 197.548 97.4453C198.221 98.3867 200.773 99.2258 201.473 97.9462C202.404 96.2444 202.262 94.4351 201.399 92.7438C201.007 91.9755 197.558 90.8663 197.474 92.2429C197.413 93.2446 197.729 93.8661 198.408 94.5898C198.91 95.1247 202.509 96.0713 202.07 94.5111C200.402 88.5797 197.398 83.1676 194.23 77.9206C190.771 72.1885 187.259 66.4879 183.771 60.7716C183.253 59.9246 179.357 59.0409 179.846 60.5592C180.885 63.7818 182.185 66.8996 183.713 69.923L187.499 69.839C184.1 65.1322 180.704 60.4228 177.305 55.716C176.745 54.9398 175.545 54.5701 174.622 54.6094C173.882 54.6409 173.085 54.9661 173.519 55.7999C175.032 58.7053 177.179 61.2199 179.799 63.1918C180.541 63.7503 181.503 64.1043 182.448 63.9837C183.042 63.9077 183.818 63.5275 183.324 62.8168C180.983 59.4578 178.489 56.2142 175.842 53.0886L173.677 54.1453L173.84 54.1951L172.08 52.9286L172.954 52.6009L174.493 53.12C173.951 52.8395 173.669 52.4829 173.464 51.9086L169.539 51.6962C170.392 52.9496 171.244 54.2004 172.096 55.4538L175.882 55.3699C173.872 52.9234 171.862 50.4769 169.852 48.0278L168.237 49.192C170.82 49.3598 172.875 50.6998 174.319 52.8211C175.371 52.6061 176.421 52.3911 177.473 52.1787C175.492 50.962 173.727 49.5198 172.112 47.8521C171.565 47.2857 170.46 46.9999 169.692 47.0366C169.284 47.0549 168.177 47.27 168.45 47.9307C169.855 51.3448 172.741 53.5947 176.25 54.6225C176.852 54.7982 179.283 54.8297 178.415 53.5658C176.908 51.3737 175.4 49.1789 173.893 46.9868L171.197 47.8626C175.232 49.8161 178.502 53.0125 180.796 56.8278L184.581 56.7439C181.919 52.9548 178.547 49.7768 174.64 47.2857C173.98 46.8635 172.92 46.5908 172.133 46.7849C171.631 46.9107 171.02 47.3696 171.486 47.9281C174.9 52.0213 178.318 56.1119 181.732 60.2052L185.255 59.8302C182.243 57.0769 179.833 53.8097 178.028 50.1544L174.506 50.5293C175.858 51.6962 177.513 52.218 179.286 52.2364C179.822 52.2416 181.056 51.7906 180.388 51.0459C178.891 49.3756 177.392 47.7052 175.895 46.0349L172.372 46.4099C179.638 53.0597 185.515 61.0679 189.743 69.9492L193.528 69.8653C190.408 65.7878 187.677 61.4455 185.355 56.8724L181.569 56.9563C183.797 60.9158 186.023 64.8753 188.251 68.8374L192.036 68.7535C189.6 65.4285 187.167 62.1036 184.731 58.7787C184.166 58.0052 182.977 57.6328 182.048 57.6721C181.438 57.6984 180.364 58.0681 180.946 58.8626C183.382 62.1875 185.815 65.5124 188.251 68.8374C188.817 69.6109 190.006 69.9833 190.934 69.9439C191.647 69.9125 192.502 69.5794 192.036 68.7535C189.808 64.794 187.583 60.8345 185.355 56.8724C184.723 55.7527 180.683 55.2125 181.569 56.9563C183.895 61.5294 186.625 65.8717 189.743 69.9492C190.329 70.7148 191.481 71.0977 192.426 71.0557C193.194 71.0216 193.928 70.7044 193.528 69.8653C189.19 60.748 183.087 52.5668 175.632 45.7465C174.972 45.1434 173.861 44.8418 172.983 44.9546C172.47 45.0201 171.51 45.4554 172.107 46.1214C173.604 47.7918 175.103 49.4621 176.6 51.1324L177.702 49.942C178.052 50.1072 178.073 50.0836 177.763 49.8659C177.089 49.2864 173.327 48.3896 174.24 50.2409C176.158 54.127 178.791 57.5725 181.99 60.4962C182.65 61.0993 183.76 61.4009 184.639 61.2881C185.176 61.2199 186.083 60.803 185.515 60.1213C182.101 56.028 178.683 51.9374 175.269 47.8442C174.217 48.0592 173.167 48.2743 172.115 48.4867C175.548 50.6735 178.46 53.5029 180.793 56.8278C181.34 57.6066 182.561 57.9737 183.476 57.9344C184.163 57.9055 185.073 57.5646 184.579 56.7439C181.787 52.1 177.665 48.5522 172.801 46.1975C172.183 45.8986 169.129 45.6521 170.105 47.0733C171.612 49.2654 173.12 51.4602 174.627 53.6523L176.792 52.5956C174.801 52.0135 173.283 50.3117 172.512 48.4395L168.85 48.5181C170.67 50.3982 172.72 52.0135 174.95 53.3823C175.624 53.7966 176.66 54.0798 177.457 53.8831C178.01 53.7441 178.504 53.3272 178.105 52.7398C175.776 49.3179 171.796 47.2201 167.682 46.9527C167.19 46.9212 165.217 47.0838 166.067 48.1169C168.077 50.5634 170.086 53.0099 172.096 55.459C172.714 56.2116 173.814 56.6075 174.779 56.5656C175.419 56.5367 176.432 56.1801 175.882 55.3751C175.029 54.1217 174.177 52.8709 173.325 51.6175C172.83 50.8912 171.725 50.5608 170.897 50.5241C170.447 50.5057 169.118 50.6159 169.397 51.4051C170.092 53.3691 172.083 54.987 174.251 54.9162C174.898 54.8953 176.011 54.6121 176.174 53.8464C176.387 52.8368 174.919 52.3386 174.222 52.1262C173.711 51.9689 171.049 51.9925 172.057 53.183C174.703 56.3086 177.197 59.5522 179.538 62.9112L183.061 62.5363C180.622 60.7008 178.712 58.4247 177.308 55.7239L173.522 55.8078C176.921 60.5146 180.317 65.224 183.716 69.9308C184.276 70.707 185.476 71.0767 186.399 71.0374C187.149 71.0059 187.922 70.6808 187.501 69.8469C186.073 67.0202 184.886 64.0912 183.916 61.0783L179.991 60.8659C183.397 66.4486 186.82 72.0181 190.206 77.6112C193.354 82.811 196.356 88.1261 198.011 94.0129C199.231 93.9867 200.452 93.9604 201.672 93.9342C201.565 93.7507 201.523 93.5514 201.544 93.339L197.619 92.8382C198.292 94.1545 198.103 95.6098 197.413 96.8684L201.338 97.3693C200.094 95.6281 199.607 93.6091 199.926 91.493C198.571 91.2281 197.216 90.9607 195.861 90.6958C197.153 93.4727 197.671 96.4541 197.298 99.4959L198.087 98.9373C198.674 98.759 199.026 99.8315 198.871 98.8797C198.818 98.5597 198.668 98.3788 198.445 98.1402C197.834 97.4951 198.366 98.2451 198.403 98.2005C198.5 98.0773 198.284 97.8413 198.51 97.7233C198.958 97.4925 199.034 97.1202 198.787 96.7006C196.111 92.1931 194.465 87.2057 193.854 82.0059L189.929 81.7935C191.808 85.6167 193.073 89.702 193.767 93.9001L197.692 94.1125C195.314 89.9223 193.762 85.365 193.026 80.6083L189.101 80.3959C191.318 84.6806 193.07 89.1723 194.38 93.8136L198.445 94.3223C196.527 89.2825 195.143 84.0722 194.309 78.7466L190.384 78.5342C193.044 82.8162 195.538 87.1978 197.861 91.6687C198.347 92.6048 202.22 93.3862 201.786 91.8811C200.002 85.6822 197.79 79.6198 195.159 73.7277C194.775 72.8677 193.744 72.456 192.849 72.3511C192.439 72.3039 190.734 72.3511 191.095 73.219C192.394 76.3499 193.691 79.4808 194.991 82.6117L199.055 83.1204C197.114 78.6443 195.001 74.2469 192.718 69.9334C192.207 68.9685 188.29 68.3103 188.793 69.721C190.279 73.8956 191.463 78.1645 192.336 82.5068L196.261 82.7192C193.444 77.5902 190.626 72.4612 187.809 67.3349C187.322 66.4486 183.521 65.5308 183.884 67.1225C184.947 71.7794 186.565 76.2476 188.669 80.5349L192.455 80.451C189.348 74.7714 186.386 69.0157 183.568 63.1866L179.783 63.2705C182.211 66.8655 184.639 70.4631 187.067 74.0581C187.746 75.065 191.794 75.7389 190.853 73.9742C188.519 69.5978 186.183 65.224 183.85 60.8476C183.455 60.1055 182.172 59.7882 181.422 59.7541C181.035 59.7384 179.565 59.8721 179.922 60.6352C181.845 64.7232 184.263 68.4939 187.249 71.8922C187.898 72.6317 188.943 73.0407 189.932 72.9988C190.611 72.9699 191.539 72.6264 191.034 71.8083C188.93 68.3916 186.825 64.9775 184.721 61.5608C184.231 60.7663 182.911 60.4176 182.037 60.4543C181.359 60.4831 180.43 60.8266 180.935 61.6447L180.925 61.6395Z" fill="#4C3768"/>
<path d="M202.546 54.5676C202.085 54.2188 201.623 53.8701 201.162 53.5213C200.483 53.01 199.607 52.6665 198.742 52.7058C198.339 52.7242 197.224 52.9418 197.5 53.6C199.529 58.43 201.841 63.1342 204.437 67.6863C205.074 68.8034 209.12 69.3409 208.223 67.6024C206.505 64.2696 204.787 60.9342 203.069 57.6014C202.472 56.4424 198.424 55.9363 199.284 57.6853C200.386 59.9299 201.488 62.1719 202.591 64.4165C203.172 65.5991 207.234 66.0737 206.376 64.3326C205.274 62.088 204.172 59.846 203.069 57.6014L199.284 57.6853C201.002 61.0181 202.719 64.3535 204.437 67.6863L208.223 67.6024C205.734 63.2391 203.511 58.7395 201.567 54.1087L197.905 54.1873C198.366 54.5361 198.829 54.8848 199.289 55.2336C200.06 55.8157 201.183 56.2458 202.164 56.0019C202.919 55.8131 203.282 55.1235 202.548 54.5702L202.546 54.5676Z" fill="#4C3768"/>
<path d="M192.318 72.165C192.81 72.9438 193.328 73.7016 193.612 74.5853L197.537 74.7977C197.448 74.6115 197.345 74.4542 197.214 74.2968C196.587 73.5547 195.501 73.1352 194.53 73.1903C193.98 73.2217 192.776 73.6072 193.428 74.3807C193.562 74.5381 193.662 74.6954 193.752 74.8816C193.915 75.2198 194.528 75.5476 194.841 75.6708C195.272 75.8413 195.714 75.9488 196.177 75.9724C196.64 75.996 197.932 75.8806 197.677 75.0913C197.324 74.0031 196.708 73.0382 196.101 72.0758C195.604 71.2892 194.296 70.9195 193.418 70.9693C192.752 71.0086 191.797 71.339 192.315 72.1598L192.318 72.165Z" fill="#4C3768"/>
<path d="M201.657 59.395C203.317 64.76 205.25 70.0305 207.457 75.1962C207.826 76.0589 208.883 76.4706 209.767 76.5729C210.172 76.6201 211.89 76.5702 211.522 75.7049C210.148 72.4796 208.775 69.2517 207.402 66.0265L203.338 65.5178C205.058 69.3121 206.934 73.0277 208.978 76.6594C209.472 77.5352 213.295 78.4503 212.903 76.8718C212.156 73.8694 211.411 70.8644 210.664 67.862L206.739 67.6496C208.341 70.0804 209.549 72.6789 210.377 75.4663C210.74 76.6909 214.626 77.6742 214.442 75.975C214.292 74.6036 213.887 73.3764 213.292 72.1361L209.507 72.2201C210.753 73.9926 211.543 75.9042 211.94 78.0308C213.16 78.0046 214.381 77.9784 215.602 77.9521C214.344 76.7302 213.329 75.3431 212.487 73.8091C211.992 72.9071 208.381 71.929 208.562 73.5967C208.836 76.1297 209.467 78.5631 210.464 80.9073C210.798 81.6966 211.7 82.0794 212.5 82.2289C212.961 82.3154 214.455 82.4701 214.531 81.7045C214.702 79.945 214.371 78.3953 213.537 76.8377C213.095 76.0117 209.912 74.9576 209.612 76.3369C209.128 78.5579 209.699 80.8129 211.201 82.5252C211.99 83.4246 213.929 84.1536 214.981 83.2751C216.933 81.6468 213.647 79.7273 212.245 79.6513C211.632 79.6172 210.79 79.57 210.49 80.2308C210.109 81.0673 210.112 81.9064 210.498 82.7402C210.998 83.8153 212.65 84.3817 213.776 84.0959C214.731 83.8546 215.683 83.6108 216.638 83.3695C216.988 83.2804 217.609 83.0208 217.425 82.5226C214.376 74.2313 209.633 66.7528 204.874 59.3557C204.19 58.291 200.118 57.7535 201.088 59.4396C202.819 62.4524 204.553 65.4627 206.284 68.4756C206.934 69.6084 211.003 70.0751 210.069 68.3917C206.615 62.1692 202.822 56.1435 198.7 50.338L195.177 50.713C196.214 51.6989 197.061 52.8605 197.658 54.1637L201.32 54.0851C199.336 52.045 197.629 49.7821 196.161 47.3513C195.717 46.6145 194.522 46.292 193.733 46.2579C193.323 46.2395 191.905 46.3654 192.234 47.1389C192.807 48.4867 193.667 49.4464 194.901 50.2357C195.562 50.6579 198.934 51.3082 198.055 49.5933C196.203 45.9826 193.344 43.0352 189.874 40.9349L188.89 42.6576C191.431 43.0929 193.331 45.8567 194.683 47.8128C196.403 50.3013 197.992 52.8894 200.373 54.8193C201.115 55.4224 202.288 55.8262 203.248 55.5876C204.072 55.3804 204.287 54.7511 203.632 54.1559C199.489 50.3721 196.048 45.9511 193.349 41.0397L189.827 41.4147C196.314 47.8679 200.954 55.8341 205.524 63.677L209.309 63.5931C204.974 58.3907 201.278 52.6717 198.395 46.5463L194.47 46.3339C200.625 54.4968 205.537 63.5092 209.02 73.1142C209.507 74.4541 213.576 74.9786 213.084 73.6229C209.53 63.8212 204.54 54.5807 198.255 46.25C197.716 45.5342 196.693 45.1933 195.827 45.1566C195.44 45.1408 193.97 45.2746 194.328 46.0376C197.311 52.3754 201.033 58.2937 205.521 63.6796C206.147 64.4296 207.234 64.8281 208.204 64.7862C208.904 64.7547 209.788 64.4191 209.307 63.5957C204.592 55.5063 199.773 47.409 193.083 40.7539C192.415 40.0905 188.598 39.3747 189.561 41.1289C192.381 46.2631 196.043 50.8703 200.37 54.8245L203.63 54.1585C200.796 51.8588 199.273 48.5103 196.987 45.7439C194.701 42.9775 191.908 41.0293 188.33 40.4183C186.972 40.1875 185.854 41.2364 187.346 42.1411C190.355 43.9635 192.668 46.5647 194.265 49.6824C195.317 49.4674 196.366 49.2524 197.419 49.04C196.895 48.7044 196.535 48.2193 196.293 47.6529L192.368 47.4405C193.975 50.102 195.885 52.5249 198.053 54.7537C198.603 55.3201 199.705 55.6059 200.473 55.5692C200.86 55.5509 202.012 55.328 201.715 54.6751C200.904 52.9025 199.847 51.3973 198.429 50.0495C197.784 49.4386 196.645 49.1475 195.78 49.2577C195.191 49.3337 194.401 49.7165 194.904 50.4245C199.026 56.23 202.819 62.2558 206.273 68.4782L210.059 68.3943C208.328 65.3814 206.594 62.3712 204.863 59.3583L201.078 59.4422C205.716 66.6558 210.375 73.9323 213.347 82.0165L214.134 81.1695C213.179 81.4108 212.227 81.6546 211.272 81.8959L214.549 83.2515C214.223 82.5514 214.226 82.0139 214.542 81.3216L212.787 81.9011C211.637 80.868 211.177 80.708 211.401 81.4239C211.401 81.555 211.33 81.6468 211.193 81.6966C212.453 81.9457 213.713 82.1974 214.973 82.4465C213.721 81.0201 213.26 79.2816 213.663 77.4277L209.738 76.9269C210.354 78.0754 210.58 79.3314 210.454 80.6241C211.808 80.889 213.163 81.1564 214.518 81.4213C213.524 79.0744 212.89 76.641 212.616 74.1106L208.691 73.8982C209.659 75.6656 210.885 77.2179 212.332 78.6208C212.874 79.1452 216.299 80.1757 215.994 78.5421C215.562 76.2241 214.639 74.0687 213.281 72.1388C212.605 71.179 208.609 70.374 209.496 72.2227C209.988 73.2506 210.243 74.3414 210.364 75.4689L214.428 75.9776C213.542 72.9936 212.224 70.1695 210.511 67.5683C209.998 66.7921 206.179 65.7171 206.587 67.3559C207.334 70.3583 208.078 73.3633 208.825 76.3657L212.75 76.5781C210.814 73.1378 209.02 69.6241 207.389 66.0317C207 65.1716 205.979 64.76 205.079 64.6551C204.674 64.6079 202.956 64.6577 203.325 65.523C204.698 68.7483 206.071 71.9762 207.444 75.2015L211.508 75.7102C209.301 70.5445 207.365 65.2739 205.708 59.9089C205.287 58.5506 201.204 57.979 201.644 59.4002L201.657 59.395Z" fill="#4C3768"/>
<path d="M156.044 105.939C157.252 109.72 159.29 113.055 162.029 115.924C162.544 116.461 166.072 117.434 165.691 115.845C164.659 111.555 162.4 107.751 159.206 104.706C158.714 104.237 155.068 103.198 155.544 104.785C156.423 107.711 157.628 110.535 159.161 113.178C160.569 115.607 162.234 118.027 164.799 119.346C165.367 119.639 168.403 120.526 168.092 119C167.595 116.558 166.48 114.316 164.823 112.452C164.207 111.762 163.318 111.398 162.394 111.359C161.924 111.338 160.648 111.445 160.895 112.24C161.718 114.857 163.694 118.011 166.611 118.554C167.845 118.785 169.479 118.441 169.15 116.868C168.839 115.392 167.732 113.81 166.917 112.573C166.404 111.794 162.558 110.742 162.992 112.36C163.357 113.719 163.97 114.954 164.849 116.058C165.414 116.766 166.393 117.112 167.277 117.151C167.745 117.172 169.029 117.064 168.776 116.27C167.616 112.625 165.054 109.631 161.671 107.84C160.95 107.459 159.995 107.132 159.164 107.339C158.656 107.467 158.059 107.921 158.517 108.482C159.396 109.56 160.379 110.441 161.526 111.228C162.121 111.637 164.091 112.227 164.675 111.419C165.72 109.979 164.078 108.566 163.107 107.585C161.679 106.143 160.101 104.887 158.435 103.733L156.37 105.168C157.323 105.503 158.275 105.836 159.227 106.172C159.906 106.411 160.95 106.72 161.647 106.319C162.263 105.965 162.079 105.451 161.66 105.005C160.592 103.87 159.385 102.918 158.059 102.097L158.417 103.678C158.183 103.526 158.225 103.542 158.548 103.725C158.725 103.828 158.888 103.948 159.038 104.082C159.367 104.347 159.664 104.648 159.953 104.958C160.616 105.663 161.224 106.429 161.787 107.218C162.923 108.807 163.854 110.514 164.58 112.326C164.928 113.194 166.022 113.601 166.89 113.703C167.327 113.753 168.974 113.711 168.645 112.835C167.519 109.833 165.72 107.229 163.305 105.11C162.626 104.515 161.547 104.203 160.656 104.318C160.114 104.389 159.219 104.801 159.78 105.485C161.284 107.315 163.31 108.535 165.633 109.048C166.582 109.258 168.847 109.064 167.535 107.703C166.977 107.124 166.419 106.544 165.859 105.965C165.478 105.569 164.436 104.856 164.373 104.302L164.228 104.84C163.239 104.507 163.005 104.559 163.531 104.995C163.691 105.21 163.836 105.438 163.962 105.674C164.181 106.08 164.341 106.515 164.465 106.959C164.746 107.987 164.78 109.007 164.612 110.058C164.373 111.55 168.458 112.523 168.676 111.144C169.234 107.661 167.716 103.718 164.044 102.721C163.134 102.475 159.803 102.249 160.337 104.061C160.556 104.801 161.416 105.398 161.929 105.931C162.71 106.741 163.491 107.554 164.273 108.364L166.175 107.019C165.099 106.78 164.265 106.248 163.562 105.396L160.04 105.771C162.084 107.562 163.62 109.78 164.575 112.321L168.64 112.83C166.688 107.966 161.658 99.3753 155.173 101.714C154.237 102.053 155.068 103.01 155.531 103.295C156.602 103.959 157.533 104.751 158.393 105.666L160.827 104.502C159.874 104.166 158.922 103.833 157.97 103.497C157.27 103.251 156.07 102.892 155.413 103.442C154.755 103.993 155.386 104.57 155.905 104.929C156.573 105.393 161.521 108.957 160.89 109.827L164.039 110.019C163.376 109.565 162.8 109.009 162.292 108.388L159.138 109.03C161.847 110.464 163.773 112.84 164.699 115.751L168.624 115.963C167.869 115.017 167.358 114.031 167.045 112.861L163.12 112.649C163.549 113.299 163.96 113.962 164.32 114.655C164.523 115.04 164.894 116.474 165.354 116.377L167.401 116.645C166.84 116.448 166.301 115.478 165.988 114.998C165.525 114.29 165.204 113.543 164.951 112.741L161.027 112.528C162.563 114.254 163.557 116.22 164.018 118.483C165.115 118.368 166.214 118.252 167.311 118.137C165.151 117.025 163.86 114.725 162.707 112.68C161.387 110.336 160.374 107.855 159.601 105.283C158.38 105.309 157.159 105.335 155.939 105.362C158.785 108.073 160.703 111.519 161.618 115.326C162.839 115.3 164.06 115.274 165.28 115.247C162.889 112.743 161.15 109.722 160.101 106.437C159.669 105.081 155.586 104.52 156.036 105.928L156.044 105.939Z" fill="#4C3768"/>
<path d="M166.112 104.533L164.165 103.704C163.683 103.5 163.097 103.371 162.571 103.387C162.234 103.398 161.721 103.468 161.474 103.744C160.856 104.428 162.074 105.162 162.558 105.37C163.207 105.645 163.854 105.923 164.504 106.198C164.986 106.403 165.572 106.531 166.098 106.515C166.435 106.505 166.948 106.434 167.195 106.159C167.814 105.474 166.596 104.74 166.112 104.533Z" fill="#4C3768"/>
<path d="M134.107 65.9818C135.438 67.9537 136.677 70.0593 138.135 71.9394C139.487 73.6858 141.781 74.1761 143.875 73.733C145.511 73.3895 146.889 72.3327 145.153 70.9246C143.383 69.4877 141.081 68.4335 139.129 67.2588L137.064 68.6931C138.903 69.4221 140.444 70.4893 141.831 71.8948L143.183 70.4421C142.346 70.3713 141.678 70.1904 140.915 69.8312C140.281 69.5322 138.748 69.1887 138.224 69.8705C137.653 70.6152 138.784 71.2314 139.308 71.4963C140.108 71.9001 140.91 72.3065 141.71 72.7103C142.331 73.025 143.885 73.3423 144.401 72.671C144.972 71.9263 143.841 71.3101 143.317 71.0452C142.517 70.6414 141.715 70.235 140.915 69.8312L139.308 71.4963C140.705 72.1518 142.202 72.553 143.738 72.6841C144.719 72.768 146.182 72.338 145.09 71.2314C143.27 69.388 141.078 67.9852 138.669 67.0307C137.987 66.7606 136.754 66.4381 136.112 66.9756C135.47 67.5132 136.057 68.132 136.604 68.4624C137.753 69.1546 138.903 69.8443 140.052 70.5365C140.6 70.8669 141.184 71.3389 141.776 71.5749C142.323 71.9709 142.354 71.9184 141.865 71.4176C141.704 71.4648 141.544 71.5041 141.384 71.5356C140.931 71.5959 141.107 71.7034 141.918 71.8555C141.747 71.6116 141.578 71.3651 141.412 71.116C141.021 70.5365 140.631 69.957 140.239 69.3775C139.458 68.2185 138.674 67.0595 137.893 65.8979C137.364 65.1139 136.112 64.752 135.209 64.7913C134.565 64.8202 133.563 65.1742 134.107 65.9818Z" fill="#4C3768"/>
<path d="M133.773 66.0631C136.251 67.4843 138.629 69.055 140.889 70.8066C141.652 71.3966 142.791 71.8188 143.764 71.5749C144.527 71.3835 144.874 70.7017 144.148 70.1432C141.649 68.208 139.037 66.4381 136.296 64.8648C135.544 64.4321 134.244 64.0099 133.418 64.4845C132.592 64.9592 133.163 65.7143 133.776 66.0657L133.773 66.0631Z" fill="#4C3768"/>
<path d="M135.138 66.0972L139.584 69.1416C140.297 69.6293 141.66 69.9571 142.462 69.5218C143.322 69.0551 142.652 68.3156 142.104 67.9406C140.623 66.9258 139.14 65.9111 137.659 64.8963C136.946 64.4086 135.583 64.0808 134.781 64.5161C133.92 64.9828 134.591 65.7223 135.138 66.0972Z" fill="#4C3768"/>
</g>
<defs>
<clipPath id="clip0_1_1646">
<rect width="235" height="160" fill="white"/>
</clipPath>
</defs>
</svg>
